<svg xmlns="http://www.w3.org/2000/svg" xmlns:xlink="http://www.w3.org/1999/xlink" viewBox="0 0 471.04 815.97"><defs><style>.cls-1{fill:none;}.cls-2{clip-path:url(#clip-path);}.cls-3{fill:#f3d059;}.cls-4{fill:#717071;}</style><clipPath id="clip-path"><rect class="cls-1" width="471.04" height="815.97"/></clipPath></defs><g id="分層"><g class="cls-2"><path class="cls-3" d="M225.89,248.27c-7.1-6.92-7.44-20.62-6.84-31.53-.43-.27-.76-.37-1-.26-1.16.71-7.94,4.65-14.17,8.27,5.22,4.61,9.7,12.13,13.87,23.17,3.12,8.29,4.72,23.21,4.59,34.05,5.44,6.35,11.69,11.93,15.36,12.66,5.56,1.1,3.59-15.36,2.92-32.61C235,257.12,229.68,252,225.89,248.27Z"/><path class="cls-3" d="M266.65,233.32c-6.58-.77-13.68-2.34-19.87-6.63-8.75-6.07-14.75-19.62-17.05-25-4.4,2-7.67,7.2-7.67,7.2-.82,10.44-2.66,29.69,5.53,37.68s23.53,22.93,34.29,26.82,15.05,4.71,12.4-7.37C272.14,256.24,268.13,239.46,266.65,233.32Z"/><path class="cls-3" d="M215.51,248.78c-4.71-12.49-10-21.09-17.09-25a49.27,49.27,0,0,1-7.9,3.48c-2.31.73-2.6,5-2.41,11a86.92,86.92,0,0,1,7.28,19.78c.77,3.74.72,9.32.17,15,5.16,10.14,11.9,19.61,15.29,21.26,5.9,2.89,5.21,2.71,7.73-1.33S220.22,261.27,215.51,248.78Z"/><path class="cls-3" d="M116.86,245.85c2-10.34,14-21.88,22-27.78-3.27-3-7.46-5.59-10.13-5.67l-.14.54c-1.27,4.9-5,10.5-9.34,17-1.74,2.58-3.52,5.26-5.29,8.08-3,4.89-8.72,8.49-15.17,11.15-1.5,5-2.23,9.9-1.61,14.16,2.46,16.93,4.08,13.42,13,9.34a22.32,22.32,0,0,1,5.5-1.72A100.47,100.47,0,0,1,116.86,245.85Z"/><path class="cls-3" d="M88.68,203c6.76-8.44,13.95-12.38,22.62-12.38.53,0,1,0,1.57.05-.31-3.85-3.69-15.81-8-15.81-.53,0-1.55.06-2.94.17-5.48,3.43-12.15,7-16.77,8a26,26,0,0,1-4.95.39h0c-7.47,0-18.87-1.83-25.79-3.68l-.54.06s-18.34,14.8-20.46,21.81,1.73,14.81,14.62,16,24.67-2.09,34.44-6.33C84.3,208.65,86.37,205.92,88.68,203Z"/><path class="cls-3" d="M319.61,155.56c-3.67-5.72-13.65-11.72-23.42-14.28-2.46,1.15-4.77,2.34-7,3.5-7.68,3.93-14.32,7.32-21.95,7.32a27.39,27.39,0,0,1-10.64-2.23,60.9,60.9,0,0,1-7.12-3.45c-5.8,3.24-2.54,10.82-2.53,14.4,0,4.29,31.79,8.66,49,8.81s13.82-.62,21.66-3.07S323.7,162,319.61,155.56Z"/><path class="cls-3" d="M307.25,82.06c-2.66-3.3-13.13-4.15-23.35-4.13-.4.5-.82,1-1.27,1.49a26.59,26.59,0,0,1-2.11,2.3c-1.59,1.53-3.36,3.28-5.24,5.13-10.57,10.43-23.72,23.41-31.71,24.81a29.68,29.68,0,0,1-5,.41H238a37.07,37.07,0,0,1-4.28-.26c-.75,1.41-1.37,2.74-1.85,3.86-1.44,3.35,5.83,9.06,13.47,10.84,7.33-5.09,22.39-13.71,36-15.31,4.66-.55,9.15-1.3,13.27-2C308.42,99.24,311.1,86.85,307.25,82.06Z"/><path class="cls-3" d="M240.46,23.58c-4-2.63-13.52,1.47-23.22,8.1a22.55,22.55,0,0,1-.4,10.48c-.49,1.83-1.07,4.14-1.74,6.75-8,31.32-12.06,42.84-16.43,45a17.58,17.58,0,0,0,4.14,3.32,84.66,84.66,0,0,0,13.11,0c1.24-.14,2.88-1.17,4.77-2.82,2.08-9.1,7.36-20.47,15.07-26.17a59.5,59.5,0,0,1,7.35-4.51C248.73,50.58,245.14,26.62,240.46,23.58Z"/><path class="cls-3" d="M203.86,19.06c-3.12-.6-11.64,8.1-16.79,15,2.41,11.2,4.55,26.35,4,33.42-.63,8.68-4.43,15.07-8.1,21.24,0,.08-.1.15-.14.23l.08.06c7,5.32,8.6,2.45,14,2.84S211,54.64,214.48,41.54,208.43,19.94,203.86,19.06Z"/><path class="cls-3" d="M146.92,54.53a43.8,43.8,0,0,1,2.18-13.12c-7.48-6.49-24.5-10.55-29.23-11.54s-5.8,8.19-8.3,17a25.92,25.92,0,0,1,6.51,4.62C124.55,57.78,135.5,83,139,97.66a31.75,31.75,0,0,0,8.72,1.93s3.84-1.84,9.81-5.23C148.17,88.18,147,62.58,146.92,54.53Z"/><path class="cls-3" d="M116.39,53.29a22.36,22.36,0,0,0-23.76-5C88.32,50.12,88.85,70.38,89.75,80c6.81.68,14.12,2.58,18.74,7.2,5.72,5.73,11.81,15.69,15.64,22.48,6.2,2,8.46.45,12.74-2.15C141.58,104.61,124.58,61.2,116.39,53.29Z"/><path class="cls-3" d="M144.45,217.24c-6.76,3.87-22.94,17.61-25.19,29.08s-2.26,31.74,2.25,38.3,11.39,17.08,16.75,9.26,17-23.19,18.47-29.95,2.9-15.55,4.42-19.41-1.76-14.84-5-19.83S146.55,216,144.45,217.24Z"/><path class="cls-3" d="M281.75,207l-2.39-.2c-3.49-.29-6.5-.54-7.24-.54h-.76l-.63-.44a86.24,86.24,0,0,0-13.31-7.52,16.85,16.85,0,0,0-5.85-1.64,15.55,15.55,0,0,1-6-1.7c-2.11-1-3.21-3-3.71-5.36a10.36,10.36,0,0,0-4.44,1c-3.07,2-6.92,6.95-6.35,8,.7,1.26,7.16,19.19,17.1,26.08S270.8,231,279.6,232s18-3.49,12.5-11.89A115.92,115.92,0,0,0,281.75,207Z"/><path class="cls-3" d="M243,131.44c1-1.46,21.3-15.77,38.7-17.82s32.53-6.9,33.5-2.71,1.93,18.89-15.27,26.06-27,17-42.39,10.65S240.58,134.91,243,131.44Z"/><path class="cls-3" d="M272.13,203.82c2.33,0,20.53,1.85,29.18,2s20.72-6.3,21.17-10.35-18.85-18.27-41.83-26.16-29,2.26-34.89,6.05c0,0-4.58,14.87.85,17.42s4.85.34,11.77,3.31A89.3,89.3,0,0,1,272.13,203.82Z"/><path class="cls-3" d="M222.65,105.2c-2.16-4.93,3.17-26.46,14.61-34.93s41.63-19.07,46.22-17.58,6.58,16.16-3.83,26.19-28,28.73-36.89,30.28S223.55,107.27,222.65,105.2Z"/><path class="cls-3" d="M176.84,94.78c4.47-9,11-16.18,11.84-27.44s-5.16-42-7.55-44.92S171.86,6.28,166,13.87,149.16,40.43,149.36,54.5,152,89.87,160,92.94,176.84,94.78,176.84,94.78Z"/><path class="cls-3" d="M106.76,88.88c-8.9-8.91-30.25-7.07-38.09-5.53s-3.07,12.13-1.38,21.19c.68,3.64,3,6.83,6.14,9.63a46,46,0,0,1,5.86.52,51.79,51.79,0,0,1,27.22,13.2c5.77.45,11.15.33,14.39.46,3.51.14,4.91-10.45,4.91-10.45S115.67,97.78,106.76,88.88Z"/><path class="cls-3" d="M111.88,137.79a49.52,49.52,0,0,0-33-20.69C56.8,113.62,40.21,128.92,40,132.64s14.34,10.67,26.63,12.72,35,5.74,38.7,4.51S111.88,137.79,111.88,137.79Z"/><path class="cls-3" d="M121.3,194.31c-8.86-1.55-19.25-4.1-30.71,10.24S73,229.94,73,240,71.54,253.44,79.32,252s26.42-5.5,32.56-15.33,12.7-18,14.34-24.37S131.13,196,121.3,194.31Z"/><path class="cls-3" d="M86.22,148.43c-.45-.06-21-2.25-31.52,10.24s-8.6,14.9-4.15,17.21,26.42,6.29,34.1,4.76,22.88-12,25-14-.61-11.83-3.07-13.52-.31-3-2.92-3S86.22,148.43,86.22,148.43Z"/><path class="cls-3" d="M193,258.55c-1.64-8-7.58-22.53-11.68-25.6s-10.58-7.58-14.13-3.27a49.23,49.23,0,0,0-4.26,5.28c1,4.07,1.43,8,.48,10.46-1,2.63-2.11,8.07-3.15,13.32-.39,2-.77,3.9-1.15,5.7a27.16,27.16,0,0,1-2.8,6.74c3.47,13.14,10.75,24.76,17.64,27.71,8.6,3.69,12.08-.61,15.16-7.37S194.64,266.54,193,258.55Z"/><path class="cls-4" d="M244.47,160.82a19.46,19.46,0,0,0-.35-2.69c-.57-3.32-1.35-7.86,1.26-11.37a8.79,8.79,0,0,1,1.79-1.76c-3.91-2.63-6.32-5.42-7.2-8.34a7.66,7.66,0,0,1,1-6.6,11.56,11.56,0,0,1,1.93-1.72c-5.44-1.7-10.33-5-12.37-8.13-1.6-2.43-1.34-4.33-.84-5.5.41-.95.92-2.08,1.54-3.28-5.15-.94-9.81-2.82-10.85-5.22-.75-1.72-.84-4.67-.33-8.23a9.07,9.07,0,0,1-3.82,1.68,57,57,0,0,1-6.13.29c-3.94,0-7.31-.27-7.45-.28l-.52,0-.45-.25a21.67,21.67,0,0,1-5.9-5.09,20.16,20.16,0,0,0-2.52.23,19.09,19.09,0,0,1-2.7.24c-2.84,0-5.51-1.1-8.89-3.66-.91,1.56-1.81,3.14-2.61,4.76L178.45,97l-1.28.17a35,35,0,0,1-4.72.27h0a39.11,39.11,0,0,1-12.18-1.86c-6.83,4-11.3,6.1-11.49,6.19l-.55.26-.61,0a32.39,32.39,0,0,1-8-1.61,21,21,0,0,1,.47,5.63,4.41,4.41,0,0,1-1.92,3.51l-.45.27c-2.79,1.7-5.19,3.17-8.66,3.17a15,15,0,0,1-3.25-.39c1.29,2.38,2.09,4,2.21,4.2l.34.67-.1.74c-.5,3.78-2.21,12.57-7.27,12.57h-.16c-1,0-2.3-.05-3.76-.07-2.33,0-5-.06-7.88-.2a44.15,44.15,0,0,1,4.73,5.89l.59.91-.24,1.1c-.64,2.44-2.81,9.71-6.3,12.69l0,0c2.75,1.89,4.59,8,4.86,11.72.2,2.63-.3,4.46-1.51,5.59a64.34,64.34,0,0,1-5.59,4.09c1.7.32,3.27,1.53,4.67,3.63a36.3,36.3,0,0,1,4.86,14.71c1.84.21,3.62.52,5.36.83l1.08.2c3.32.57,5.75,2,7.22,4.33,2.52,3.93,1.52,9.35.4,13.78,3.42.38,8,3.29,11.52,6.61.88-.6,1.68-1.11,2.37-1.5a4.45,4.45,0,0,1,2.23-.56c3.76,0,9.57,4,12.7,8.78a38.92,38.92,0,0,1,3.92,8.65,44.75,44.75,0,0,1,3.31-3.95,7.09,7.09,0,0,1,5.58-2.58c3.91,0,8,2.66,11.83,5.53a14.19,14.19,0,0,1,2.85,3.17c.13-5,1-8.24,4.14-9.22a46.12,46.12,0,0,0,7.43-3.28l1.19-.66,1.19.65a24.1,24.1,0,0,1,2.27,1.45c6.44-3.73,13.77-8,15-8.72a2.82,2.82,0,0,1,1.45-.4,2.88,2.88,0,0,1,.92.18c.11-1.56.22-3,.33-4.42l.14-1.69.31-.5c.44-.7,3.86-6,8.77-8.15-1.39-3.74,6.19-10.07,7.31-10.82.46-.3,1.69-1.12,5.48-1.41-.27-5.08,1.36-10.87,1.88-12.56l.27-.86.75-.48a31.45,31.45,0,0,0,2.76-2.11,37.41,37.41,0,0,1,6.11-4.3C245.33,164.7,244.47,162.65,244.47,160.82ZM128.92,142.69a2.14,2.14,0,0,1-.06.5,2.56,2.56,0,0,1-1.31,1.56,3.81,3.81,0,0,1-3.48,0,2.56,2.56,0,0,1-1.31-1.56,2.14,2.14,0,0,1-.06-.5h0a2.16,2.16,0,0,1,.06-.51,2.88,2.88,0,0,1,2.42-1.93,4.23,4.23,0,0,1,.63-.05h0a3.76,3.76,0,0,1,1.74.42,2.56,2.56,0,0,1,1.31,1.56,2.16,2.16,0,0,1,.06.51Zm3.84,17.74c-1.72,0-3.11-1.11-3.11-2.48a2.54,2.54,0,0,1,1.9-2.29,3.66,3.66,0,0,1,1.21-.2c1.72,0,3.12,1.11,3.12,2.49S134.48,160.43,132.76,160.43Zm10.37-32.51c0-1.38,1.39-2.49,3.11-2.49a3.76,3.76,0,0,1,1.22.2,2.55,2.55,0,0,1,1.9,2.29c0,1.37-1.4,2.48-3.12,2.48a3.7,3.7,0,0,1-1.58-.35A2.45,2.45,0,0,1,143.13,127.92Zm2.21,18.22a2.06,2.06,0,0,1-.25-1c0-1.37,1.4-2.48,3.12-2.48s3.11,1.11,3.11,2.48a2,2,0,0,1-.24,1,3.47,3.47,0,0,1-5.74,0Zm7.13,28.74a2.16,2.16,0,0,1-.06.51,2.21,2.21,0,0,1-.47.88,2.82,2.82,0,0,1-.84.68,3.92,3.92,0,0,1-1.11.37,4.46,4.46,0,0,1-.63.05h0a3.73,3.73,0,0,1-1.74-.42,2.53,2.53,0,0,1-1.31-1.56,1.75,1.75,0,0,1-.07-.51h0a2.26,2.26,0,0,1,.91-1.75,3.82,3.82,0,0,1,.47-.31,3.73,3.73,0,0,1,1.74-.42h0a4.46,4.46,0,0,1,.63,0,3.92,3.92,0,0,1,1.11.37,2.4,2.4,0,0,1,1.37,2.06Zm6.43-55.37a2.76,2.76,0,0,1-.84-.67,2.35,2.35,0,0,1-.47-.88,2.16,2.16,0,0,1-.06-.51h0a2.14,2.14,0,0,1,.06-.5,2.47,2.47,0,0,1,.47-.89,3.1,3.1,0,0,1,.84-.67A3.69,3.69,0,0,1,160,115a4.23,4.23,0,0,1,.63,0h0a3.79,3.79,0,0,1,1.74.42A2.59,2.59,0,0,1,163.7,117a2.14,2.14,0,0,1,.06.5h0a2.16,2.16,0,0,1-.06.51,2.55,2.55,0,0,1-1.31,1.55,3.76,3.76,0,0,1-3.49,0Zm5.78,33.09a3.66,3.66,0,0,1-1.21-.2,2.54,2.54,0,0,1-1.9-2.29,2.13,2.13,0,0,1,.53-1.39,3.38,3.38,0,0,1,2.58-1.09c1.72,0,3.12,1.11,3.12,2.48S166.4,152.6,164.68,152.6Zm4.38-15.36a3.61,3.61,0,0,1-1.74-.42,2.5,2.5,0,0,1-1.31-1.56,1.68,1.68,0,0,1-.07-.5h0a2.27,2.27,0,0,1,.91-1.76,3.58,3.58,0,0,1,2.21-.73,3.66,3.66,0,0,1,1.21.2,3.24,3.24,0,0,1,1,.53,2.67,2.67,0,0,1,.38.37,2.09,2.09,0,0,1,.53,1.39C172.17,136.13,170.78,137.24,169.06,137.24Zm17.74-21.72c0-1.37,1.39-2.48,3.11-2.48h0a3.75,3.75,0,0,1,1.37.26,2.52,2.52,0,0,1,1.75,2.22c0,1.38-1.4,2.49-3.12,2.49S186.8,116.9,186.8,115.52Zm10.26,27.17a2.14,2.14,0,0,1-.06.5,2.59,2.59,0,0,1-1.31,1.56,3.79,3.79,0,0,1-1.74.42,3.73,3.73,0,0,1-1.74-.42,2.73,2.73,0,0,1-1.13-1.1,2,2,0,0,1-.25-1,2,2,0,0,1,.25-1A3.21,3.21,0,0,1,194,140.2a3,3,0,0,1,3.05,2,2.16,2.16,0,0,1,.06.51Z"/><path class="cls-3" d="M381.81,850c-10.41-1.21-21.64-3.69-31.43-10.47-13.83-9.6-23.32-31-27-39.6-7,3.12-12.13,11.38-12.13,11.38-1.29,16.51-4.2,46.95,8.75,59.58s37.2,36.27,54.22,42.43,23.81,7.44,19.61-11.66C390.49,886.3,384.15,859.77,381.81,850Z"/><path class="cls-3" d="M100.39,802.14c10.68-13.36,22-19.58,35.75-19.58.84,0,1.67,0,2.49.07-.49-6.07-5.84-25-12.7-25-.84,0-2.45.09-4.64.25-8.67,5.43-19.22,11.16-26.53,12.62a41,41,0,0,1-7.81.62h0c-11.81,0-29.84-2.89-40.79-5.81l-.85.09S16.3,788.81,13,799.91s2.72,23.41,23.11,25.25c20.21,1.83,39-3.31,54.47-10C93.45,811,96.72,806.72,100.39,802.14Z"/><path class="cls-3" d="M465.55,727.09c-5.8-9.05-21.58-18.53-37-22.59-3.89,1.83-7.55,3.7-11.14,5.54-12.14,6.21-22.63,11.57-34.7,11.57a43.5,43.5,0,0,1-16.84-3.52,97,97,0,0,1-11.24-5.46c-9.19,5.13-4,17.12-4,22.78,0,6.79,50.28,13.68,77.48,13.92s21.86-1,34.25-4.85S472,737.19,465.55,727.09Z"/><path class="cls-3" d="M446,610.87c-4.2-5.22-20.76-6.57-36.93-6.54-.63.8-1.3,1.58-2,2.35a42,42,0,0,1-3.34,3.64c-2.52,2.43-5.32,5.18-8.29,8.12-16.71,16.49-37.51,37-50.14,39.22a46.65,46.65,0,0,1-7.91.65h-.87a58.2,58.2,0,0,1-6.76-.41c-1.19,2.23-2.17,4.34-2.93,6.11-2.27,5.3,9.22,14.33,21.3,17.14,11.59-8,35.41-21.68,56.94-24.21,7.36-.87,14.47-2.06,21-3.21C447.86,638,452.1,618.43,446,610.87Z"/><path class="cls-3" d="M340.4,518.38c-6.4-4.15-21.38,2.33-36.73,12.81a35.77,35.77,0,0,1-.63,16.58c-.77,2.89-1.7,6.54-2.75,10.67-12.61,49.52-19.08,67.74-26,71.18a28,28,0,0,0,6.54,5.24s12,1,20.73,0c2-.22,4.57-1.85,7.54-4.45C312.42,616,320.77,598,333,589a95.55,95.55,0,0,1,11.63-7.12C353.48,561.09,347.79,523.19,340.4,518.38Z"/><path class="cls-3" d="M282.51,511.24c-4.93-.95-18.4,12.81-26.55,23.79,3.81,17.7,7.21,41.65,6.4,52.83-1,13.73-7,23.83-12.82,33.6-.07.11-.14.24-.22.36l.12.09c11,8.42,13.6,3.88,22.12,4.5s22.25-58.9,27.75-79.63S289.74,512.64,282.51,511.24Z"/><path class="cls-3" d="M192.48,567.33a69.25,69.25,0,0,1,3.44-20.74c-11.82-10.28-38.74-16.69-46.22-18.25-7.29-1.53-9.16,12.94-13.13,26.94a41,41,0,0,1,10.31,7.31c10.22,9.87,27.54,49.8,33.07,72.94a49.76,49.76,0,0,0,13.79,3.05s6.07-2.9,15.51-8.26C194.46,620.53,192.67,580.06,192.48,567.33Z"/><path class="cls-3" d="M144.2,565.36c-12.95-12.5-29.15-11.46-37.57-7.89-6.82,2.88-6,34.92-4.56,50.06,10.78,1.07,22.33,4.08,29.63,11.38,9.06,9.06,18.69,24.81,24.73,35.55,9.81,3.2,13.39.71,20.15-3.41C184,646.52,157.15,577.87,144.2,565.36Z"/><path class="cls-3" d="M405.68,808.43l-3.78-.32c-5.51-.45-10.28-.85-11.44-.85h-1.21l-1-.7a138.5,138.5,0,0,0-21.05-11.89c-5.09-2.18-7.21-2.39-9.26-2.59a24.56,24.56,0,0,1-9.48-2.69c-3.33-1.57-5.08-4.72-5.87-8.47-3.25.23-5.75.76-7,1.61-4.86,3.24-10.94,11-10,12.63,1.12,2,11.33,30.34,27,41.24s35.79,10,49.71,11.56,28.5-5.52,19.75-18.8A179.76,179.76,0,0,0,405.68,808.43Z"/><path class="cls-3" d="M344.33,688.94c1.57-2.3,33.67-24.93,61.2-28.17s51.44-10.92,53-4.29,3,29.87-24.16,41.2-42.75,26.88-67,16.84S340.58,694.43,344.33,688.94Z"/><path class="cls-3" d="M390.47,803.41c3.68,0,32.47,2.92,46.15,3.1s32.76-10,33.48-16.36-29.82-28.89-66.16-41.37-45.83,3.58-55.16,9.57c0,0-7.25,23.51,1.33,27.55s7.68.53,18.62,5.23A141.23,141.23,0,0,1,390.47,803.41Z"/><path class="cls-3" d="M312.23,647.46c-3.42-7.81,5-41.85,23.1-55.24s65.83-30.16,73.09-27.8,10.41,25.55-6.06,41.41S358.09,651.26,344,653.71,313.66,650.73,312.23,647.46Z"/><path class="cls-3" d="M239.78,631c7.07-14.25,17.44-25.59,18.73-43.4s-8.16-66.42-11.93-71S231.91,491,222.7,503,196,545,196.34,567.28s4.21,55.92,16.83,60.78S239.78,631,239.78,631Z"/><path class="cls-3" d="M129,621.64c-14.09-14.09-47.85-11.17-60.23-8.74s-4.86,19.18-2.19,33.51c1.07,5.75,4.73,10.8,9.71,15.23a70.48,70.48,0,0,1,9.27.83,81.79,81.79,0,0,1,43,20.87c9.13.71,17.62.51,22.74.72,5.57.22,7.77-16.52,7.77-16.52S143.07,635.73,129,621.64Z"/><path class="cls-3" d="M137.07,699c-.64-1-17.16-27.2-52.13-32.71S23.73,685,23.41,690.84,46.08,707.72,65.51,711s55.37,9.07,61.2,7.13S137.07,699,137.07,699Z"/><path class="cls-3" d="M152,788.36c-14-2.45-30.44-6.48-48.57,16.19s-27.85,40.15-27.85,56-2.27,21.29,10,19.07,41.77-8.71,51.48-24.25,20.08-28.5,22.67-38.54S167.51,791.07,152,788.36Z"/><path class="cls-3" d="M96.49,715.82c-.71-.1-33.18-3.57-49.85,16.19s-13.6,23.56-6.55,27.2,41.77,10,53.92,7.53,36.18-18.94,39.58-22.1-1-18.7-4.85-21.37-.5-4.73-4.62-4.8S96.49,715.82,96.49,715.82Z"/><path class="cls-4" d="M346.73,735.41a30.13,30.13,0,0,0-.56-4.26c-.9-5.25-2.13-12.43,2-18a13.82,13.82,0,0,1,2.83-2.78c-6.18-4.15-10-8.57-11.38-13.19a12,12,0,0,1,1.52-10.43,18.07,18.07,0,0,1,3-2.72c-8.59-2.7-16.33-8-19.55-12.86-2.54-3.85-2.13-6.85-1.33-8.7.64-1.51,1.46-3.28,2.43-5.19-8.13-1.48-15.5-4.46-17.16-8.25-1.19-2.72-1.32-7.39-.51-13a14.18,14.18,0,0,1-6.05,2.66,87.54,87.54,0,0,1-9.69.46c-6.22,0-11.55-.43-11.78-.45l-.82-.06-.72-.4a34,34,0,0,1-9.32-8,31.43,31.43,0,0,0-4,.37,31.58,31.58,0,0,1-4.27.37c-4.49,0-8.72-1.74-14.06-5.78-1.44,2.46-2.85,5-4.13,7.53l-.9,1.82-2,.28a58.55,58.55,0,0,1-7.46.42h0a61.77,61.77,0,0,1-19.26-2.93c-10.79,6.23-17.86,9.63-18.17,9.78l-.87.42-1,0a51.26,51.26,0,0,1-12.7-2.55,32.79,32.79,0,0,1,.74,8.9c-.29,2.64-1.31,4.51-3,5.56l-.71.43c-4.41,2.69-8.21,5-13.7,5a24.46,24.46,0,0,1-5.14-.61c2,3.75,3.32,6.27,3.5,6.63l.53,1.06-.15,1.18c-.79,6-3.49,19.86-11.49,19.86h-.26c-1.63-.07-3.63-.09-5.94-.12-3.68,0-7.94-.09-12.46-.32a71,71,0,0,1,7.48,9.32l.93,1.43L140.8,700c-1,3.87-4.44,15.36-10,20.07l.09.06c4.35,3,7.26,12.69,7.69,18.54.3,4.17-.48,7.06-2.39,8.83a99.1,99.1,0,0,1-8.84,6.48c2.68.51,5.16,2.42,7.38,5.74,3.84,5.72,7.48,17.31,7.68,23.26,2.92.33,5.72.83,8.47,1.32l1.72.3c5.25.92,9.08,3.22,11.41,6.85,4,6.22,2.41,14.79.64,21.79,5.41.61,12.67,5.2,18.21,10.46,1.39-.95,2.67-1.75,3.76-2.38a7,7,0,0,1,3.52-.88c5.94,0,15.13,6.36,20.07,13.88a60.69,60.69,0,0,1,6.2,13.68,74.14,74.14,0,0,1,5.24-6.25,11.24,11.24,0,0,1,8.83-4.08c6.18,0,12.64,4.21,18.7,8.75a22.22,22.22,0,0,1,4.51,5c.21-7.89,1.67-13,6.54-14.57A73.56,73.56,0,0,0,272,831.63l1.87-1,1.88,1a37.77,37.77,0,0,1,3.61,2.3c10.18-5.91,21.76-12.64,23.66-13.79a4.46,4.46,0,0,1,2.3-.63,4.37,4.37,0,0,1,1.45.28c.17-2.47.35-4.82.52-7l.22-2.68.49-.8c.69-1.11,6.1-9.43,13.87-12.88-2.2-5.92,9.78-15.93,11.55-17.11.73-.48,2.68-1.78,8.68-2.24-.44-8,2.15-17.19,3-19.86l.42-1.35,1.18-.76a50.78,50.78,0,0,0,4.38-3.34,60.07,60.07,0,0,1,9.66-6.8C348.09,741.54,346.73,738.29,346.73,735.41ZM164,706.73c0,2.17-2.2,3.93-4.93,3.93a5.5,5.5,0,0,1-3.8-1.43v0a3.44,3.44,0,0,1-1.11-2.48h0a3.27,3.27,0,0,1,.59-1.87,4.08,4.08,0,0,1,.25-.33,4.71,4.71,0,0,1,.6-.58,5.35,5.35,0,0,1,2-1,5.78,5.78,0,0,1,1.46-.18h0a6,6,0,0,1,1.92.31l.43.16a5.46,5.46,0,0,1,.79.43,4.43,4.43,0,0,1,1.2,1.16,3.27,3.27,0,0,1,.59,1.87Zm11,24.13c0,2.17-2.2,3.93-4.92,3.93s-4.93-1.76-4.93-3.93h0a4.16,4.16,0,0,1,3.46-3.75l.47-.1a6.53,6.53,0,0,1,1-.08h0a6.4,6.4,0,0,1,1,.08,5.42,5.42,0,0,1,1.35.4,3.89,3.89,0,0,1,2.58,3.45Zm11.47-47.49c0-2.17,2.2-3.93,4.93-3.93a5.72,5.72,0,0,1,2.9.77,3.73,3.73,0,0,1,2,3.16c0,2.17-2.2,3.93-4.92,3.93a5.48,5.48,0,0,1-3.81-1.43A3.48,3.48,0,0,1,186.48,683.37Zm4,29.49a3.41,3.41,0,0,1-.84-2.2c0-2.17,2.21-3.93,4.93-3.93s4.92,1.76,4.92,3.93-2.2,3.93-4.92,3.93a5.74,5.74,0,0,1-3.14-.9A4.76,4.76,0,0,1,190.43,712.86Zm10.83,44.79a3.67,3.67,0,0,1-1.8,3,5.23,5.23,0,0,1-1.21.59,6,6,0,0,1-1.92.31h0a5.7,5.7,0,0,1-3.13-.9,3.66,3.66,0,0,1-1.79-3h0a3.32,3.32,0,0,1,.59-1.88,3.92,3.92,0,0,1,.25-.32,3.67,3.67,0,0,1,.6-.58l.35-.26a5.7,5.7,0,0,1,3.13-.89h0a6.28,6.28,0,0,1,1.92.3,5,5,0,0,1,1.56.85,3.73,3.73,0,0,1,.61.58,3.81,3.81,0,0,1,.24.32,3.33,3.33,0,0,1,.6,1.88Zm10.17-87.56a4.19,4.19,0,0,1-.73-.48,3.68,3.68,0,0,1-.6-.58,3.64,3.64,0,0,1-.75-1.41,3.42,3.42,0,0,1-.1-.79h0a2.6,2.6,0,0,1,0-.4,3.41,3.41,0,0,1,.82-1.8,3.68,3.68,0,0,1,.6-.58,5.18,5.18,0,0,1,1.56-.84,6,6,0,0,1,1.92-.31h0a5.7,5.7,0,0,1,3.13.9,3.12,3.12,0,0,1,.35.25,3.68,3.68,0,0,1,.6.58,3.41,3.41,0,0,1,.82,1.8,2.6,2.6,0,0,1,0,.4h0a3.42,3.42,0,0,1-.1.79,3.64,3.64,0,0,1-.75,1.41,3.68,3.68,0,0,1-.6.58,3.12,3.12,0,0,1-.35.25,4,4,0,0,1-.57.32,6,6,0,0,1-5.31-.09ZM224.36,721a5.44,5.44,0,0,1-3.8,1.43c-2.72,0-4.92-1.76-4.92-3.93a3.25,3.25,0,0,1,.33-1.41,3.54,3.54,0,0,1,.45-.71l.08-.09a5.31,5.31,0,0,1,4.06-1.72c2.72,0,4.93,1.76,4.93,3.93A3.45,3.45,0,0,1,224.36,721Zm3.12-22.85c-2.72,0-4.92-1.76-4.92-3.93h0c0-2.17,2.2-3.93,4.92-3.93a5.57,5.57,0,0,1,3.52,1.19,3.55,3.55,0,0,1,1.41,2.74C232.41,696.36,230.2,698.12,227.48,698.12Zm28.05-34.34h0a3.92,3.92,0,0,1,2.58-3.46l.43-.16a6,6,0,0,1,1.92-.31h0a6.28,6.28,0,0,1,1.46.17,5.68,5.68,0,0,1,.88.3,3.92,3.92,0,0,1,2.58,3.46h0c0,2.17-2.2,3.93-4.92,3.93S255.53,666,255.53,663.78Zm11.31,46.88a5.29,5.29,0,0,1-4.19-1.87,3.29,3.29,0,0,1,.11-4.26,4.71,4.71,0,0,1,.6-.58,5.35,5.35,0,0,1,2-1,5.78,5.78,0,0,1,1.46-.18,5.86,5.86,0,0,1,1.47.18,5.35,5.35,0,0,1,2,1,4.71,4.71,0,0,1,.6.58,3.39,3.39,0,0,1,.84,2.2,3.33,3.33,0,0,1-.74,2.06A5.27,5.27,0,0,1,266.84,710.66Z"/></g></g></svg>