<svg xmlns="http://www.w3.org/2000/svg" viewBox="0 0 1332.54 470"><defs><style>.cls-1{fill:#8ec1e1;}.cls-2{fill:#9d9d9e;}.cls-3{fill:#c8c8c9;}.cls-4{fill:#ededee;}.cls-5{fill:#878787;}.cls-6{fill:#b3b3b4;}.cls-7{fill:#dadbdb;}.cls-8{fill:#a7b7aa;}.cls-9{fill:#b5c4b7;}.cls-10{fill:#859e8a;}</style></defs><g id="主圖"><path class="cls-1" d="M83.45,128.66c20.56,33.86,80.88,15.24,50.72,44S-57.76,228.54,21.76,248.86s133,8.46,98.7,28.78S-34.45,318.27,42.32,333.5s142.57-11.85,128.87,22,21.93,45.71,63.06,40.63S370,413.07,390.53,441.85s35.64,27.09,75.4,15.24,98.71-77.88,172.73-57.56,250.88,40.63,233.06,1.69S912.85,358.9,975.91,364s216.6,8.46,188-11.73c-31.42-22.18-103-27.21-30.35-45.83,77.9-20,78.06-15.22,58-24.27-74.95-33.86-10.06-39.5,33.81-39.5s149.63,1.1,88.65-33.86c-76.77-44-47.52-66-17.36-64.33s24.68-37.81-41.13-37S1060.9,81.26,1099.29,81.26s74-40.63-52.1-35.55S823.74,22,847,16.93,795,3.39,711.32,5.08,542.7,33.86,571.49,45.71s-142.57,6.77-237.17,0-141.2,10.16-94.59,28.78S62.88,94.8,83.45,128.66Z"/><path class="cls-2" d="M931.25,174.14V163.28H912.11l0-.23c-.43-3.86-5.16-2.7-6.45-1.93s-9.47,1.16-12.91.39-.43-1.93-6-1.54,5.59,4.4-15.06,5.09-27.54,3-35.72,1.85-24.52-1-25.82-1.85-15.2,1.76-18.07,0-8.6-5.35-14.34-5.87-8-3.08-14.34-1-20.08,1.54-28.11,2.57-5.17,3.6-14.92.51a61.06,61.06,0,0,0-21.23-3.08c-5.74,0-4.59,0-16.64,1s-11.47,3.61-17.78,2.06-14.92-7.2-24.1-6.69-29.26,2.06-33.85,2.58-8,.51-12.62-1.55-14.34-3.6-23.52-5.14-14.92,0-17.21-3.6-5.17-3.09-9.18-1a82.16,82.16,0,0,1-10.9,4.12s-10.9,2.57-13.2-1.55-1.14-4.63-5.16-6.17-8-2.06-9.18,0-1.72,5.14-5.74,5.14-8.6,1-14.34,1.55,2.3,3.08-5.74.51-14.05-4.11-14.48-7.2c-.68-4.84-1.72,6.56-6,6.17s-4.3-1.88-7.31,0-2.58,6.15-11.19,10.4c-7.6,3.75-8.83,4.61-13.75,5.77l1.08-2.43s-17.38,2.2-18.28,2.21,0,11.17,0,11.17H410a3.31,3.31,0,0,0,.36,1c2.58,4.63,15.49-.78,12.91,4.24s-2.15,6.17-4.73,10.8-8.18,17.36-.43,19.68,16.35,5.79,25.81,6.94,15.92,3.86,18.94,8.49,4.73,10.42,11.18,10,8.61-5,16.78,0,11.62,10.4,18.08,13.49,6.88,5.4,16.35,6.17,8.17-.39,15.49,0,5.59-1.93,12.91,3.09,11.18,4.63,14.62,5.78,2.16,0,7.32,5,0,5.79,7.31,5.79,8.18-.39,14.2,0,4.31-.78,12.48,4.24,17.21,12,29.69,15.43,4.74.39,15.06,2.32,8.61,2.31,20.23,3.08,10.32-1.15,15.92-2.31,8.6,4.6,10.75,2.49-1.29-7.12,3.45-7.89,10.75-3.09,14.62-3.86,3.45-4.25,7.32-1.93,1.72,5,13.77,6.56,15.92-2.7,23.23,1.16,6,7.46,13.34,6.43,5.6-.65,9.9-3.73.43-8.11,6.45-4.25,9,8.21,13.34,8.16,4.31,1.1,6-2-2.15-3.09,0-8.11,3.44-8.87,4.73-11.57-5.59-7.33,0-8.49,0,2.32,10.76-1.93,12.91-4.63,13.77-6.17,0-2.32,6.45-5.4,15.06-7.72,15.06-7.72,11.19-1.54,15.49-2.31,6-12.73,5.16-14.28S882,226.33,882,224s-2.15-5-3-8.1-4.73-15-3-16.59-2.15-8.1,5.16-10.42,9.9-5.4,15.06-7.33,3.87-3.47,12.05-2.31,14.2-3.09,18.5-2.7a6.7,6.7,0,0,0,4.54-1h0C931.87,175.06,932,174.49,931.25,174.14Z"/><path class="cls-3" d="M465.45,131.36c-.68-4.84-1.72,6.56-6,6.17s-4.3-1.88-7.31,0-2.58,6.15-11.19,10.4-9,4.79-15.92,6.25-17.21,6.87-14.63,11.5,15.49-.78,12.91,4.24-2.15,6.17-4.73,10.8-8.18,17.36-.43,19.68,16.35,5.79,25.81,6.94,15.92,3.86,18.94,8.49,4.73,10.42,11.18,10,8.61-5,16.78,0,11.62,10.4,18.08,13.49,6.88,5.4,16.35,6.17,8.17-.39,15.49,0,5.59-1.93,12.91,3.09,11.18,4.63,14.62,5.78,2.16,0,7.32,5,0,5.79,7.31,5.79,8.18-.39,14.2,0,4.31-.78,12.48,4.24,17.21,12,29.69,15.43,4.74.39,15.06,2.32,8.61,2.31,20.23,3.08,10.32-1.15,15.92-2.31,8.6,4.6,10.75,2.49-1.29-7.12,3.45-7.89,10.75-3.09,14.62-3.86,3.45-4.25,7.32-1.93,1.72,5,13.77,6.56,15.92-2.7,23.23,1.16,6,7.46,13.34,6.43,5.6-.65,9.9-3.73.43-8.11,6.45-4.25,9,8.21,13.34,8.16,4.31,1.1,6-2-2.15-3.09,0-8.11,3.44-8.87,4.73-11.57-5.59-7.33,0-8.49,0,2.32,10.76-1.93,12.91-4.63,13.77-6.17,0-2.32,6.45-5.4,15.06-7.72,15.06-7.72,11.19-1.54,15.49-2.31,6-12.73,5.16-14.28-2.15-7.71-2.15-10-2.15-5-3-8.1-4.73-15.05-3-16.59-2.15-8.1,5.16-10.42,9.9-5.4,15.06-7.33,3.87-3.47,12.05-2.31,14.2-3.09,18.5-2.7,6.89-2.32,3.44-2.7-13.33-2.71-15.06-3.09-2.58-3.86-3-7.72-5.16-2.7-6.45-1.93-9.47,1.16-12.91.39-.43-1.93-6-1.54,5.59,4.4-15.06,5.09-27.54,3-35.72,1.85-24.52-1-25.81-1.85S794.9,156,792,154.2s-8.6-5.35-14.34-5.87-8-3.08-14.34-1-20.08,1.54-28.11,2.57-5.17,3.6-14.92.51a61.06,61.06,0,0,0-21.23-3.08c-5.74,0-4.59,0-16.64,1s-11.47,3.61-17.78,2.06-14.92-7.2-24.1-6.69-29.26,2.06-33.85,2.58-8,.51-12.62-1.55-14.34-3.6-23.52-5.14-14.92,0-17.21-3.6-5.17-3.09-9.18-1a82.16,82.16,0,0,1-10.9,4.12s-10.9,2.57-13.2-1.55-1.14-4.63-5.16-6.17-8-2.06-9.18,0S504,136.5,500,136.5s-8.6,1-14.34,1.55,2.3,3.08-5.74.51S465.88,134.45,465.45,131.36Z"/><path class="cls-4" d="M348.61,370c-5.92.24-12.68,1.71-6.9,2.43s9.71,2.43,16.5,4.83,14.53,3,19.92.93,8.09-2.11,16.38,0,14.59.61,18.35-.14,5.89-4.11,13-2,15.94-.44,21.05-2.22,8.5-1.54-1.11-2.91-12.32-3.1-18.35-3.68-14.64,3.72-19.45,5-11.26.16-17.17-1.45-9.22-2.49-13.68,0S360.15,369.49,348.61,370Z"/><path class="cls-4" d="M964.07,189.14c-5.11.21-11,1.48-6,2.1s8.39,2.09,14.24,4.17,12.54,2.61,17.2.8,7-1.82,14.14,0a33.29,33.29,0,0,0,15.83-.12c3.25-.64,5.09-3.55,11.19-1.74s13.75-.38,18.17-1.92,7.33-1.33-1-2.51-10.63-2.68-15.84-3.18-12.64,3.21-16.78,4.34-9.72.13-14.82-1.25-8-2.16-11.81,0S974,188.74,964.07,189.14Z"/><path class="cls-4" d="M423.35,315.43c9-1.25,13.24-3.11,19.34.29s12.92,3.74,17.16,1.68,14.93-6,19.85-4.55,9,.42,3.48-1.91-14.41-2-19,.5-14.67-.31-20.59-1.71-14.75.17-19.79,2.58S419.63,315.94,423.35,315.43Z"/><path class="cls-4" d="M702.07,344.86c9.9-1.38,14.61-3.43,21.34.32s14.24,4.13,18.92,1.86,16.46-6.67,21.89-5,9.94.46,3.85-2.11-15.9-2.19-20.93.55-16.19-.34-22.71-1.89-16.27.19-21.82,2.85S698,345.43,702.07,344.86Z"/><path class="cls-4" d="M763.6,361.36c9.89-1.38,14.6-3.43,21.33.32s14.25,4.13,18.93,1.86,16.46-6.67,21.88-5,10,.45,3.85-2.11-15.9-2.19-20.93.55-16.18-.34-22.71-1.89-16.27.19-21.82,2.85S759.49,361.93,763.6,361.36Z"/><path class="cls-4" d="M530.5,351c9.89-1.38,14.6-3.42,21.33.32s14.25,4.13,18.93,1.86,16.45-6.67,21.88-5,10,.46,3.85-2.11-15.9-2.19-20.93.55-16.18-.33-22.71-1.89-16.27.19-21.82,2.85S526.39,351.61,530.5,351Z"/><path class="cls-4" d="M392.63,79c10.73-1.49,15.83-3.71,23.13.35s15.45,4.48,20.53,2S454.14,74.11,460,75.9s10.79.5,4.17-2.29-17.24-2.37-22.69.6-17.55-.36-24.63-2-17.64.2-23.67,3.09S388.17,79.6,392.63,79Z"/><path class="cls-4" d="M904.27,282.36c7.88-1.1,11.63-2.72,17,.26s11.34,3.28,15.07,1.48,13.1-5.31,17.42-4,7.92.37,3.06-1.68-12.65-1.74-16.65.44-12.89-.27-18.08-1.5-13,.15-17.37,2.27S901,282.82,904.27,282.36Z"/><path class="cls-4" d="M1015.4,228.8c7.74-1.08,11.42-2.68,16.69.25s11.15,3.23,14.81,1.46,12.88-5.22,17.13-3.93,7.78.36,3-1.65-12.45-1.71-16.38.43-12.66-.26-17.77-1.48-12.73.15-17.08,2.23S1012.18,229.25,1015.4,228.8Z"/><path class="cls-4" d="M235.88,203.09c9-1.25,13.24-3.11,19.34.29s12.92,3.74,17.16,1.69,14.92-6,19.85-4.55,9,.41,3.48-1.92-14.41-2-19,.5-14.67-.3-20.59-1.71-14.75.17-19.79,2.58S232.16,203.61,235.88,203.09Z"/><path class="cls-4" d="M248.67,334.8c9-1.25,13.24-3.1,19.34.29s12.92,3.75,17.16,1.69,14.92-6,19.84-4.55,9,.41,3.49-1.92-14.41-2-19,.5-14.68-.3-20.59-1.71-14.75.17-19.79,2.59S245,335.32,248.67,334.8Z"/><path class="cls-4" d="M1155.83,151.14c7.74-1.08,11.42-2.68,16.69.25s11.15,3.23,14.81,1.45,12.88-5.22,17.13-3.92,7.78.35,3-1.66-12.44-1.71-16.38.44-12.66-.27-17.77-1.48-12.73.15-17.08,2.23S1152.61,151.58,1155.83,151.14Z"/><path class="cls-4" d="M120.35,320.65c9-1.25,13.24-3.11,19.34.29s12.92,3.74,17.17,1.68,14.92-6,19.84-4.55,9,.42,3.48-1.91-14.41-2-19,.5-14.67-.31-20.59-1.71-14.75.17-19.78,2.58S116.63,321.16,120.35,320.65Z"/><path class="cls-4" d="M886.66,297.94c3.24,2.07,6,3.9,8.69,3.39s3-2.5,5.59-.78,4.84,2.69,7.77,1.47,4.31-4.95,6.79-3.27,3-.93-.53-1.73-4-.28-7.41,1.26-5.85-1.25-8-1.46-2.92,3-6.41,1.65-9.29-3.84-6.84-1"/><path class="cls-4" d="M860.09,119.8c4.41,2.82,8.18,5.31,11.83,4.62s4.1-3.41,7.62-1.06,6.59,3.66,10.59,2,5.86-6.74,9.25-4.46,4.12-1.26-.72-2.35-5.38-.38-10.1,1.71-8-1.69-10.93-2-4,4.1-8.73,2.24-12.66-5.22-9.31-1.32"/><path class="cls-4" d="M933.19,321.25c3.24,2.08,6,3.9,8.68,3.39s3-2.5,5.59-.77,4.84,2.68,7.78,1.47,4.3-4.95,6.79-3.27,3-.93-.53-1.73-4-.28-7.41,1.26-5.85-1.25-8-1.46-2.91,3-6.41,1.64-9.29-3.83-6.83-1"/><path class="cls-4" d="M488.31,290.77c4.06,2.61,7.54,4.9,10.91,4.26s3.78-3.14,7-1,6.08,3.37,9.77,1.84,5.41-6.21,8.53-4.11,3.79-1.16-.67-2.16-5-.36-9.31,1.57-7.34-1.56-10.08-1.82-3.66,3.78-8.05,2.06-11.68-4.82-8.59-1.22"/><path class="cls-4" d="M192.88,234.08c4.07,2.61,7.54,4.9,10.91,4.26s3.78-3.14,7-1,6.08,3.37,9.77,1.84,5.41-6.22,8.53-4.11,3.8-1.17-.67-2.17-5-.35-9.31,1.58-7.34-1.56-10.08-1.83-3.66,3.78-8.05,2.07-11.67-4.82-8.59-1.22"/><path class="cls-4" d="M315.5,101.07c4.07,2.61,7.54,4.91,10.91,4.27s3.78-3.15,7-1,6.08,3.37,9.77,1.84,5.41-6.21,8.53-4.1,3.8-1.17-.67-2.17-4.95-.36-9.31,1.57-7.34-1.56-10.08-1.82-3.66,3.78-8.05,2.06S312,96.92,315,100.53"/><path class="cls-4" d="M590.21,313.34c4.06,2.61,7.54,4.9,10.9,4.26s3.79-3.14,7-1,6.08,3.37,9.76,1.84,5.41-6.22,8.53-4.11,3.8-1.17-.66-2.17-5-.35-9.31,1.58-7.35-1.56-10.08-1.83-3.67,3.78-8,2.07-11.68-4.82-8.59-1.22"/><path class="cls-4" d="M465.48,104.94c4.41,2.83,8.18,5.31,11.83,4.62s4.1-3.41,7.61-1,6.6,3.65,10.6,2,5.86-6.74,9.25-4.45,4.12-1.27-.73-2.36-5.37-.38-10.09,1.72-8-1.7-10.93-2-4,4.11-8.73,2.24-12.66-5.22-9.32-1.32"/><path class="cls-4" d="M1033.78,119.17c10.73-1.49,15.84-3.71,23.13.35s15.45,4.48,20.53,2,17.85-7.24,23.73-5.44,10.79.49,4.17-2.29-17.24-2.38-22.69.59-17.55-.36-24.63-2-17.64.2-23.67,3.09S1029.32,119.79,1033.78,119.17Z"/><path class="cls-4" d="M213,149.82c4.42,2.83,8.19,5.31,11.83,4.62s4.11-3.41,7.62-1.06,6.6,3.66,10.59,2,5.87-6.74,9.25-4.45,4.12-1.27-.72-2.36-5.38-.38-10.1,1.71-8-1.69-10.92-2-4,4.1-8.74,2.24-12.66-5.22-9.31-1.32"/><path class="cls-4" d="M776,64c4.41,2.83,8.18,5.32,11.83,4.62s4.1-3.4,7.62-1,6.59,3.65,10.59,2,5.87-6.74,9.25-4.46,4.12-1.27-.72-2.35-5.38-.39-10.1,1.71-8-1.7-10.93-2-4,4.1-8.73,2.24-12.66-5.23-9.31-1.32"/><polygon class="cls-5" points="964.24 5.8 968.06 36.84 973.32 36.84 966.87 5.8 964.24 5.8"/><polygon class="cls-6" points="963.13 7.23 941.88 36.84 966.1 37.27 963.13 7.23"/><polygon class="cls-6" points="968.69 6.3 994.47 30.08 973.32 30.43 968.69 6.3"/><path class="cls-7" d="M997.18,39H938.94l4.81,10.59c10.88-.37,37.22-1.46,49.91-2C995.54,43.1,997.18,39,997.18,39Z"/><path class="cls-7" d="M948.25,59.52s38.68,2.15,40.11,0a61,61,0,0,0,2.8-6c-11.83.44-33.62,1.24-44.95,1.5Z"/><path class="cls-3" d="M943.75,49.62,946.21,55c11.33-.26,33.12-1.06,44.95-1.5.8-1.86,1.67-3.92,2.5-5.9C981,48.16,954.63,49.25,943.75,49.62Z"/><path class="cls-2" d="M336.31,258c2.24-1.33,5.78.09,5.58,1s-4.84,1.79-9.95,1.23S333.63,259.56,336.31,258Z"/><path class="cls-2" d="M346.61,262.06c2.24-1.33,5.78.09,5.58,1s-4.84,1.8-10,1.23S343.93,263.66,346.61,262.06Z"/><path class="cls-2" d="M346,252.58c2.23-1.33,5.78.09,5.58,1s-4.84,1.8-10,1.24S343.32,254.18,346,252.58Z"/><path class="cls-2" d="M318.91,254.82c2.24-1.33,5.78.09,5.58,1s-4.84,1.8-9.95,1.24S316.23,256.42,318.91,254.82Z"/><path class="cls-2" d="M323.5,262.15c2.24-1.34,5.78.09,5.58,1s-4.84,1.8-9.95,1.24S320.82,263.74,323.5,262.15Z"/><path class="cls-2" d="M361.3,256.36c2.24-1.33,5.78.09,5.58,1s-4.83,1.8-9.95,1.23S358.63,258,361.3,256.36Z"/><path class="cls-2" d="M335.66,247.8c2.23-1.33,5.78.09,5.57,1s-4.83,1.79-10,1.23S333,249.39,335.66,247.8Z"/><path class="cls-2" d="M360.74,247.59c2.24-1.33,5.78.09,5.58,1s-4.84,1.8-10,1.24S358.06,249.18,360.74,247.59Z"/><path class="cls-2" d="M367.06,261.4c2.24-1.33,5.78.09,5.58,1s-4.83,1.8-9.95,1.24S364.39,263,367.06,261.4Z"/><path class="cls-2" d="M356.1,267.75c2.24-1.33,5.78.09,5.58,1s-4.84,1.8-10,1.24S353.42,269.35,356.1,267.75Z"/><path class="cls-2" d="M373.9,250.79c2.24-1.34,5.78.09,5.58,1s-4.84,1.8-10,1.24S371.22,252.38,373.9,250.79Z"/><path class="cls-2" d="M359.69,239.07c2.23-1.34,5.78.09,5.58,1s-4.84,1.8-10,1.24S357,240.66,359.69,239.07Z"/><path class="cls-2" d="M972.81,141c-2.76.64-6-2-5.45-2.88s5.6-.26,10.72,2S976.11,140.2,972.81,141Z"/><path class="cls-2" d="M963.49,133.31c-2.76.64-6-2-5.45-2.88s5.61-.26,10.73,2S966.8,132.55,963.49,133.31Z"/><path class="cls-2" d="M961,143.34c-2.77.64-6-2-5.46-2.88s5.61-.26,10.73,2S964.29,142.58,961,143.34Z"/><path class="cls-2" d="M989.81,150c-2.77.64-6-2-5.46-2.88s5.61-.27,10.73,2S993.11,149.23,989.81,150Z"/><path class="cls-2" d="M987.47,140.88c-2.76.64-6-2-5.45-2.88s5.61-.26,10.73,2S990.78,140.12,987.47,140.88Z"/><path class="cls-2" d="M946.37,134.35c-2.76.64-6-2-5.45-2.88s5.61-.26,10.72,2S949.67,133.59,946.37,134.35Z"/><path class="cls-2" d="M970.12,151.73c-2.76.64-6-2-5.45-2.88s5.6-.27,10.72,2S973.42,151,970.12,151.73Z"/><path class="cls-2" d="M944.05,143.63c-2.76.64-6-2-5.45-2.88s5.6-.26,10.72,2S947.35,142.87,944.05,143.63Z"/><path class="cls-2" d="M942.07,127.22c-2.76.64-6-2-5.45-2.88s5.61-.26,10.72,2S945.37,126.45,942.07,127.22Z"/><path class="cls-2" d="M955.54,124.27c-2.76.64-6-2-5.45-2.88s5.61-.26,10.72,2S958.84,123.5,955.54,124.27Z"/><path class="cls-2" d="M931.47,136c-2.76.64-6-2-5.46-2.88s5.61-.27,10.73,2S934.77,135.19,931.47,136Z"/><path class="cls-2" d="M942.32,152.82c-2.77.64-6-2-5.46-2.88s5.61-.27,10.73,2S945.62,152.05,942.32,152.82Z"/><path class="cls-5" d="M911,242.07c.82.86,4.19,3.71,7.62,4.38a23.79,23.79,0,0,0,11-1,6.7,6.7,0,0,0,4.14-6.71c-.38-3.14-1.52-6.43-6.19-7.67a18.63,18.63,0,0,0-13.09.91C909.94,233.88,909,240,911,242.07Z"/><path class="cls-5" d="M931.31,236.12s4.62-.05,5.76-.24a6.72,6.72,0,0,0,2.14-.81,3,3,0,0,1-2.19,2.24c-1.85.47-4.9.9-4.9.9Z"/><path class="cls-5" d="M912.41,236.4s-2.62.1-3.76,0-2.95-1.38-5.28,0-2.29,2.41-1.57,3.45,2.8.93,4.76.6,5.09-.83,5.85-.6S912.41,236.4,912.41,236.4Z"/><path class="cls-5" d="M912.75,234.17s1.52-3,1.47-4.29a5.85,5.85,0,0,1,3.67-5.52c3.09-1.19,4.76-1.1,4.52-1a7,7,0,0,0-2.24,2.24c-.28.81-.66,2-.9,2.81s-1.1,2.9-1.1,3.18S912.75,234.17,912.75,234.17Z"/><path class="cls-5" d="M926.5,231.79s2-1.24,3-1,1.41.55,1.57,1.34a1.25,1.25,0,0,1-.9,1.42A38.24,38.24,0,0,1,926.5,231.79Z"/><path class="cls-5" d="M913.08,243s-2.82.71-3.05,2.57a4.65,4.65,0,0,0,1.76,4.43,40.28,40.28,0,0,0,5.43,3.81c2.33,1.23,5,.81,4.68,0a8.26,8.26,0,0,0-2.82-3.1,14.15,14.15,0,0,1-4-3.62c-.76-1.23-2-2.6-.53-3.27S913.08,243,913.08,243Z"/><path class="cls-5" d="M926.88,243.84c-.2,0-.89,4.33,1.1,5s2.28.23,4,.3,3.91-1.85,2.88-2.05-3.63-1-3.8-1.37S930.44,243.08,926.88,243.84Z"/><path class="cls-5" d="M871.61,275.6a13.56,13.56,0,0,1-3.22,6.14,18.6,18.6,0,0,1-7.75,3.94A5.27,5.27,0,0,1,855,283c-1.08-2.25-1.71-4.93.88-7.73a14.67,14.67,0,0,1,9.11-4.94C868.88,269.67,872.06,273.35,871.61,275.6Z"/><path class="cls-5" d="M855.57,280.22s-3.1,1.92-3.94,2.28a5.25,5.25,0,0,1-1.77.37,2.4,2.4,0,0,0,2.41.56c1.43-.47,3.65-1.47,3.65-1.47Z"/><path class="cls-5" d="M868.29,272.41s1.79-1.05,2.51-1.6,1.38-2.17,3.52-2.24,2.55.64,2.51,1.64-1.48,1.81-2.92,2.41a21.32,21.32,0,0,0-4.16,2.08C869.34,275.17,868.29,272.41,868.29,272.41Z"/><path class="cls-5" d="M867.12,271.06a11.62,11.62,0,0,1-2.79-2.24,4.67,4.67,0,0,0-4.79-2.13c-2.57.52-3.64,1.29-3.44,1.25a5.53,5.53,0,0,1,2.44.55c.54.42,1.31,1.08,1.8,1.49s2,1.47,2.08,1.66A36.81,36.81,0,0,0,867.12,271.06Z"/><path class="cls-5" d="M856.94,275.29s-1.86,0-2.4.64-.71,1-.48,1.55a1,1,0,0,0,1.2.57A28.08,28.08,0,0,0,856.94,275.29Z"/><path class="cls-5" d="M870.65,277.1s2.18-.72,3.13.42a3.67,3.67,0,0,1,.69,3.7,30.59,30.59,0,0,1-2,4.84c-1,1.81-3,2.65-3.13,2a6.55,6.55,0,0,1,.58-3.26,11.31,11.31,0,0,0,1.13-4.1c0-1.15.2-2.57-1-2.41S870.65,277.1,870.65,277.1Z"/><path class="cls-5" d="M861.8,283.49c.15-.06,2.42,2.51,1.37,3.78s-1.42,1.12-2.57,1.92-3.39.42-2.79-.16,2-2.17,2-2.52S859.1,284.5,861.8,283.49Z"/><path class="cls-5" d="M718.28,54.5c7.7,3,15.71,7.37,17.32,11.06,1.27,2.94.37,14.64-.68,22.11a21.49,21.49,0,0,1,7.28-.09c1.46.26,2.92.59,4.38,1a48.32,48.32,0,0,0-3-7.91c-3.39-6.41-3.23-17.79-1.14-20.19s15.87-12.67,17.31-17.8,3.05-15.07,0-15.23-.48,3.21-2.4,4.65S739.24,46,736.78,47s-25.18-6.89-26.57-7.21,2.19-4,0-4.33-4.59.64-3,6.73S710.59,51.46,718.28,54.5Z"/><path class="cls-4" d="M694.32,85.21c-6,.24-12.81,1.73-7,2.45s9.82,2.46,16.67,4.89,14.69,3.06,20.14.93,8.17-2.13,16.55,0,14.74.61,18.54-.14,6-4.16,13.1-2,16.1-.44,21.27-2.25,8.59-1.55-1.11-2.94S780.05,83,774,82.36s-14.79,3.76-19.65,5.08S742.92,87.6,737,86s-9.32-2.52-13.82,0S706,84.74,694.32,85.21Z"/><path class="cls-8" d="M546,172c3,.16,14.09-.84,16.35-1.69,1.94-.73,8.26-4.38,11.78-5.74a9.74,9.74,0,0,1,1.46-.46,63.9,63.9,0,0,1,7.19-.82c1.69-.17,2.82-5.24,6.06-4.68s2.11,1.84,4.51.57,4.65-6.34,8.17-5.64,3.52,2.68,4.93,2.54,6.48-8.31,10-7.75,5.92,4.79,7,4.79,15.36-17,18.74-16.06,1.41,1.83,3,1.69,9.53-16.21,13.1-16.58,11.09,1.12,11.65,0,4-2.07,5.83-1.69.94,2.81,3,2.81,4.89-1.69,6.39.57,4.7,10.52,5.07,12,4.7,5.83,6.39,7.14,7.52,3.95,9.39,4.89,1.7,2.44,4,2.44,3,.75,4,3,1.31,3.57,3.19,4.33,4.32-.19,5.26,1.31,7,6.76,10.52,8.64,20.85,5.64,22.73,6,19.17,3.76,25.18,5.27,18.59,16.06,0,18-5.91,8.73-3.37,17.61S723.78,228.93,704.76,226s-93.84-3.8-92.57,3.81-38,8.45-59.6,0-35.08-25.5-16.06-32.83-.18-15.12-3.59-16.34C526,178.1,532.66,171.31,546,172Z"/><path class="cls-4" d="M771.18,154.35h-.13l-2.33-.47a.65.65,0,0,1-.51-.76.64.64,0,0,1,.76-.5l2.33.47a.64.64,0,0,1-.12,1.27Z"/><path class="cls-4" d="M775.49,155.43h-.13L773,155a.65.65,0,0,1-.51-.76.63.63,0,0,1,.76-.5l2.34.46a.65.65,0,0,1,.5.76A.64.64,0,0,1,775.49,155.43Z"/><path class="cls-4" d="M772.61,157.18h-.12l-2.34-.47a.64.64,0,0,1-.5-.76.63.63,0,0,1,.76-.5l2.33.47a.64.64,0,0,1,.51.75A.65.65,0,0,1,772.61,157.18Z"/><path class="cls-4" d="M769.47,160.77h-.13l-2.33-.47a.64.64,0,1,1,.25-1.26l2.34.47a.64.64,0,0,1-.13,1.27Z"/><path class="cls-4" d="M770.64,163l-.13,0-2.33-.47a.64.64,0,1,1,.25-1.26l2.34.47a.65.65,0,0,1-.13,1.28Z"/><path class="cls-4" d="M768.08,157.65H768l-2.33-.47a.65.65,0,0,1-.51-.76.63.63,0,0,1,.76-.5l2.34.46a.65.65,0,0,1-.13,1.28Z"/><path class="cls-4" d="M510.76,199.27a.66.66,0,0,1-.57-.34.64.64,0,0,1,.25-.87l2.7-1.48a.63.63,0,0,1,.87.25.64.64,0,0,1-.25.87l-2.7,1.49A.64.64,0,0,1,510.76,199.27Z"/><path class="cls-4" d="M514.69,200a.64.64,0,0,1-.31-1.21l2.69-1.48a.65.65,0,0,1,.88.25.64.64,0,0,1-.26.87L515,199.93A.71.71,0,0,1,514.69,200Z"/><path class="cls-4" d="M508.68,202.34a.65.65,0,0,1-.31-1.21l2.7-1.48a.64.64,0,0,1,.87.25.65.65,0,0,1-.25.88l-2.7,1.48A.58.58,0,0,1,508.68,202.34Z"/><path class="cls-4" d="M505.07,201.6a.64.64,0,0,1-.31-1.21l2.69-1.48a.64.64,0,1,1,.62,1.13l-2.69,1.48A.71.71,0,0,1,505.07,201.6Z"/><path class="cls-4" d="M504.19,204.82a.65.65,0,0,1-.57-.33.64.64,0,0,1,.26-.87l2.69-1.49a.66.66,0,0,1,.88.26.64.64,0,0,1-.26.87l-2.69,1.48A.6.6,0,0,1,504.19,204.82Z"/><path class="cls-4" d="M509.11,205.1a.65.65,0,0,1-.32-1.21l2.7-1.48a.64.64,0,0,1,.87.26.63.63,0,0,1-.25.87L509.42,205A.6.6,0,0,1,509.11,205.1Z"/><path class="cls-4" d="M499.39,204.36a.63.63,0,0,1-.56-.33.65.65,0,0,1,.25-.88l2.69-1.48a.65.65,0,0,1,.88.26.64.64,0,0,1-.25.87l-2.7,1.48A.58.58,0,0,1,499.39,204.36Z"/><path class="cls-4" d="M822.56,203.64a.65.65,0,0,1-.56-.33.64.64,0,0,1,.25-.87L825,201a.64.64,0,0,1,.62,1.13l-2.7,1.48A.58.58,0,0,1,822.56,203.64Z"/><path class="cls-4" d="M827.45,200.88a.65.65,0,0,1-.57-.33.64.64,0,0,1,.26-.88l2.69-1.48a.64.64,0,1,1,.62,1.13l-2.69,1.48A.71.71,0,0,1,827.45,200.88Z"/><path class="cls-4" d="M832,198.19a.62.62,0,0,1-.56-.34.63.63,0,0,1,.25-.87l2.69-1.48a.65.65,0,0,1,.88.25.64.64,0,0,1-.25.87l-2.7,1.49A.68.68,0,0,1,832,198.19Z"/><path class="cls-4" d="M831.12,202.36a.65.65,0,0,1-.32-1.21l2.7-1.48a.64.64,0,0,1,.62,1.13l-2.7,1.48A.54.54,0,0,1,831.12,202.36Z"/><path class="cls-4" d="M825.66,205.13a.62.62,0,0,1-.56-.34.63.63,0,0,1,.25-.87l2.69-1.48a.65.65,0,0,1,.88.25.64.64,0,0,1-.25.87l-2.7,1.49A.68.68,0,0,1,825.66,205.13Z"/><path class="cls-4" d="M820.14,209.22a.64.64,0,0,1-.31-1.21l2.69-1.48a.64.64,0,1,1,.62,1.13l-2.69,1.48A.6.6,0,0,1,820.14,209.22Z"/><path class="cls-4" d="M816,208a.65.65,0,0,1-.57-.33.65.65,0,0,1,.26-.88l2.69-1.48a.64.64,0,1,1,.62,1.13l-2.69,1.48A.71.71,0,0,1,816,208Z"/><path class="cls-4" d="M819.59,212.86a.65.65,0,0,1-.57-.33.63.63,0,0,1,.26-.87l2.69-1.49a.64.64,0,0,1,.87.26.63.63,0,0,1-.25.87l-2.69,1.48A.6.6,0,0,1,819.59,212.86Z"/><path class="cls-4" d="M813.78,212.12a.63.63,0,0,1-.56-.33.65.65,0,0,1,.25-.88l2.69-1.48a.64.64,0,0,1,.88.26.63.63,0,0,1-.26.87L814.09,212A.58.58,0,0,1,813.78,212.12Z"/><path class="cls-4" d="M815.13,216.27a.65.65,0,0,1-.57-.33.64.64,0,0,1,.26-.88l2.69-1.48a.64.64,0,1,1,.62,1.13l-2.69,1.48A.71.71,0,0,1,815.13,216.27Z"/><path class="cls-4" d="M810.63,216a.66.66,0,0,1-.57-.34.63.63,0,0,1,.26-.87l2.69-1.48a.64.64,0,1,1,.62,1.12l-2.69,1.49A.71.71,0,0,1,810.63,216Z"/><path class="cls-4" d="M825,210.64a.65.65,0,0,1-.31-1.21l2.7-1.48a.64.64,0,0,1,.87.25.65.65,0,0,1-.25.88l-2.7,1.48A.68.68,0,0,1,825,210.64Z"/><path class="cls-4" d="M817.82,203.64a.63.63,0,0,1-.56-.33.64.64,0,0,1,.25-.87l2.7-1.49a.64.64,0,0,1,.62,1.13l-2.7,1.48A.58.58,0,0,1,817.82,203.64Z"/><path class="cls-4" d="M861.84,221.2a1.13,1.13,0,0,1-.54-2.11l4.7-2.58a1.12,1.12,0,1,1,1.08,2l-4.7,2.59A1.17,1.17,0,0,1,861.84,221.2Z"/><path class="cls-4" d="M868.7,222.49a1.12,1.12,0,0,1-1-.58,1.13,1.13,0,0,1,.44-1.53l4.7-2.58a1.12,1.12,0,0,1,1.08,2l-4.7,2.58A1.06,1.06,0,0,1,868.7,222.49Z"/><path class="cls-4" d="M858.23,226.56a1.13,1.13,0,0,1-1-.58,1.11,1.11,0,0,1,.45-1.52l4.7-2.59a1.12,1.12,0,0,1,1.08,2l-4.7,2.58A1.06,1.06,0,0,1,858.23,226.56Z"/><path class="cls-4" d="M851.92,225.27a1.13,1.13,0,0,1-.54-2.11l4.7-2.58a1.13,1.13,0,1,1,1.09,2l-4.71,2.58A1.14,1.14,0,0,1,851.92,225.27Z"/><path class="cls-4" d="M850.39,230.89a1.13,1.13,0,0,1-1-.58,1.11,1.11,0,0,1,.45-1.52l4.7-2.59a1.12,1.12,0,0,1,1.08,2l-4.7,2.58A1.06,1.06,0,0,1,850.39,230.89Z"/><path class="cls-4" d="M859,231.38a1.13,1.13,0,0,1-.55-2.11l4.7-2.58a1.13,1.13,0,1,1,1.09,2l-4.7,2.58A1.21,1.21,0,0,1,859,231.38Z"/><path class="cls-4" d="M842,230.09a1.1,1.1,0,0,1-1-.59,1.12,1.12,0,0,1,.44-1.52l4.7-2.58a1.12,1.12,0,1,1,1.08,2l-4.7,2.59A1.17,1.17,0,0,1,842,230.09Z"/><path class="cls-4" d="M630.94,259a1.1,1.1,0,0,1-1-.59,1.12,1.12,0,0,1,.44-1.52l4.7-2.59a1.12,1.12,0,0,1,1.08,2l-4.7,2.59A1.17,1.17,0,0,1,630.94,259Z"/><path class="cls-4" d="M624.64,257.72a1.13,1.13,0,0,1-1-.58,1.12,1.12,0,0,1,.44-1.52l4.7-2.59a1.13,1.13,0,0,1,1.09,2l-4.7,2.58A1.06,1.06,0,0,1,624.64,257.72Z"/><path class="cls-4" d="M623.1,263.35a1.11,1.11,0,0,1-1-.58,1.12,1.12,0,0,1,.44-1.53l4.7-2.59a1.12,1.12,0,0,1,1.08,2l-4.7,2.59A1.17,1.17,0,0,1,623.1,263.35Z"/><path class="cls-4" d="M631.68,263.83a1.13,1.13,0,0,1-1-.58,1.11,1.11,0,0,1,.45-1.52l4.7-2.59a1.12,1.12,0,0,1,1.08,2l-4.7,2.58A1.06,1.06,0,0,1,631.68,263.83Z"/><path class="cls-4" d="M614.73,262.54a1.13,1.13,0,0,1-.54-2.11l4.7-2.58a1.12,1.12,0,1,1,1.08,2l-4.7,2.58A1,1,0,0,1,614.73,262.54Z"/><path class="cls-4" d="M877,165.86a1.11,1.11,0,0,1-1-.58,1.13,1.13,0,0,1,.44-1.53l4.7-2.58a1.12,1.12,0,0,1,1.52.44,1.13,1.13,0,0,1-.44,1.53l-4.7,2.58A1.06,1.06,0,0,1,877,165.86Z"/><path class="cls-4" d="M870.74,164.57a1.12,1.12,0,0,1-.54-2.11l4.7-2.58a1.12,1.12,0,0,1,1.08,2l-4.7,2.59A1.17,1.17,0,0,1,870.74,164.57Z"/><path class="cls-4" d="M869.2,170.19a1.11,1.11,0,0,1-1-.58,1.13,1.13,0,0,1,.44-1.53l4.7-2.58a1.12,1.12,0,0,1,1.52.44,1.13,1.13,0,0,1-.44,1.53l-4.7,2.58A1.06,1.06,0,0,1,869.2,170.19Z"/><path class="cls-4" d="M877.78,170.68a1.12,1.12,0,0,1-.54-2.11l4.7-2.58a1.12,1.12,0,0,1,1.08,2l-4.7,2.59A1.17,1.17,0,0,1,877.78,170.68Z"/><path class="cls-4" d="M860.83,169.38a1.12,1.12,0,0,1-.54-2.1l4.7-2.59a1.12,1.12,0,1,1,1.08,2l-4.7,2.59A1.13,1.13,0,0,1,860.83,169.38Z"/><path class="cls-4" d="M568.76,153.08a1.13,1.13,0,0,1-.54-2.11l4.7-2.59a1.13,1.13,0,0,1,1.53.45,1.11,1.11,0,0,1-.45,1.52l-4.7,2.59A1.14,1.14,0,0,1,568.76,153.08Z"/><path class="cls-4" d="M562.46,151.78a1.12,1.12,0,0,1-.54-2.1l4.7-2.59a1.12,1.12,0,0,1,1.08,2l-4.7,2.58A1.06,1.06,0,0,1,562.46,151.78Z"/><path class="cls-4" d="M560.92,157.41a1.13,1.13,0,0,1-.54-2.11l4.7-2.59a1.13,1.13,0,0,1,1.53.45,1.11,1.11,0,0,1-.45,1.52l-4.7,2.59A1.14,1.14,0,0,1,560.92,157.41Z"/><path class="cls-4" d="M569.5,157.89a1.12,1.12,0,0,1-.54-2.1l4.7-2.59a1.12,1.12,0,0,1,1.08,2l-4.7,2.58A1.06,1.06,0,0,1,569.5,157.89Z"/><path class="cls-4" d="M552.56,156.6a1.12,1.12,0,0,1-.54-2.11l4.69-2.58a1.13,1.13,0,1,1,1.09,2l-4.7,2.58A1.06,1.06,0,0,1,552.56,156.6Z"/><path class="cls-4" d="M464.35,189.67a1.12,1.12,0,0,1-.54-2.11l4.7-2.58a1.12,1.12,0,0,1,1.08,2l-4.7,2.59A1.17,1.17,0,0,1,464.35,189.67Z"/><path class="cls-4" d="M471.21,191a1.13,1.13,0,0,1-.55-2.11l4.7-2.58a1.13,1.13,0,0,1,1.09,2l-4.7,2.58A1.06,1.06,0,0,1,471.21,191Z"/><path class="cls-4" d="M460.73,195a1.12,1.12,0,0,1-.54-2.1l4.7-2.59a1.12,1.12,0,1,1,1.08,2l-4.7,2.58A1,1,0,0,1,460.73,195Z"/><path class="cls-4" d="M454.43,193.74a1.12,1.12,0,0,1-.54-2.11l4.7-2.58a1.12,1.12,0,0,1,1.52.44,1.13,1.13,0,0,1-.44,1.53L455,193.6A1.17,1.17,0,0,1,454.43,193.74Z"/><path class="cls-4" d="M452.89,199.36a1.12,1.12,0,0,1-.54-2.1l4.7-2.59a1.12,1.12,0,1,1,1.08,2l-4.7,2.58A1,1,0,0,1,452.89,199.36Z"/><path class="cls-4" d="M461.47,199.85a1.11,1.11,0,0,1-1-.58,1.13,1.13,0,0,1,.44-1.53l4.7-2.58a1.12,1.12,0,0,1,1.52.44,1.13,1.13,0,0,1-.44,1.53l-4.7,2.58A1.17,1.17,0,0,1,461.47,199.85Z"/><path class="cls-4" d="M444.53,198.56a1.13,1.13,0,0,1-.55-2.11l4.7-2.58a1.12,1.12,0,1,1,1.09,2l-4.7,2.59A1.17,1.17,0,0,1,444.53,198.56Z"/><path class="cls-4" d="M447.85,170.39a1,1,0,0,1-.49-1.89l4.22-2.32a1,1,0,0,1,1.36.4,1,1,0,0,1-.39,1.37l-4.22,2.32A1,1,0,0,1,447.85,170.39Z"/><path class="cls-4" d="M455.49,166.07a1,1,0,0,1-.89-.53,1,1,0,0,1,.4-1.36l4.21-2.32a1,1,0,0,1,1,1.76L456,165.94A.94.94,0,0,1,455.49,166.07Z"/><path class="cls-4" d="M462.59,161.85a1,1,0,0,1-.48-1.89l4.21-2.31a1,1,0,1,1,1,1.76l-4.21,2.32A1.07,1.07,0,0,1,462.59,161.85Z"/><path class="cls-4" d="M461.22,168.38a1,1,0,0,1-.48-1.88l4.21-2.32a1,1,0,1,1,1,1.76l-4.21,2.32A1.07,1.07,0,0,1,461.22,168.38Z"/><path class="cls-4" d="M452.69,172.71a1,1,0,0,1-.48-1.89l4.21-2.32a1,1,0,0,1,1,1.77l-4.21,2.31A1,1,0,0,1,452.69,172.71Z"/><path class="cls-4" d="M444.06,179.11a1,1,0,0,1-.49-1.89l4.21-2.31a1,1,0,1,1,1,1.76L444.54,179A1,1,0,0,1,444.06,179.11Z"/><path class="cls-4" d="M437.6,177.22a1,1,0,0,1-.89-.52,1,1,0,0,1,.4-1.37l4.21-2.32a1,1,0,1,1,1,1.77l-4.21,2.31A.94.94,0,0,1,437.6,177.22Z"/><path class="cls-4" d="M443.19,184.81a1,1,0,0,1-.48-1.89l4.21-2.32a1,1,0,0,1,1,1.77l-4.21,2.31A1,1,0,0,1,443.19,184.81Z"/><path class="cls-4" d="M434.11,183.65a1,1,0,0,1-.48-1.89l4.21-2.32a1,1,0,1,1,1,1.77l-4.21,2.32A1.07,1.07,0,0,1,434.11,183.65Z"/><path class="cls-4" d="M436.22,190.14a1,1,0,0,1-.88-.53,1,1,0,0,1,.39-1.36l4.22-2.32a1,1,0,0,1,1,1.76L436.7,190A1,1,0,0,1,436.22,190.14Z"/><path class="cls-4" d="M429.18,189.64a1,1,0,0,1-.88-.52,1,1,0,0,1,.39-1.37l4.22-2.31a1,1,0,1,1,1,1.76l-4.22,2.32A1,1,0,0,1,429.18,189.64Z"/><path class="cls-4" d="M451.6,181.33a1,1,0,0,1-.48-1.89l4.21-2.31a1,1,0,1,1,1,1.76l-4.21,2.32A1.07,1.07,0,0,1,451.6,181.33Z"/><path class="cls-4" d="M440.43,170.39a1,1,0,0,1-.48-1.89l4.21-2.32a1,1,0,1,1,1,1.77l-4.21,2.32A1.07,1.07,0,0,1,440.43,170.39Z"/><path class="cls-4" d="M706,255.19a1.15,1.15,0,0,1-1-.58,1.13,1.13,0,0,1,.45-1.54l4.73-2.6a1.13,1.13,0,1,1,1.09,2l-4.73,2.6A1.06,1.06,0,0,1,706,255.19Z"/><path class="cls-4" d="M714.54,250.34a1.11,1.11,0,0,1-1-.59,1.13,1.13,0,0,1,.44-1.53l4.74-2.6a1.11,1.11,0,0,1,1.53.44,1.13,1.13,0,0,1-.45,1.54l-4.73,2.6A1.17,1.17,0,0,1,714.54,250.34Z"/><path class="cls-4" d="M722.52,245.61a1.11,1.11,0,0,1-1-.59,1.13,1.13,0,0,1,.44-1.53l4.73-2.6a1.13,1.13,0,1,1,1.09,2l-4.73,2.6A1.17,1.17,0,0,1,722.52,245.61Z"/><path class="cls-4" d="M721,252.94a1.13,1.13,0,0,1-.55-2.12l4.74-2.6a1.12,1.12,0,0,1,1.53.44,1.14,1.14,0,0,1-.44,1.54l-4.74,2.6A1,1,0,0,1,721,252.94Z"/><path class="cls-4" d="M711.41,257.79a1.15,1.15,0,0,1-1-.58,1.13,1.13,0,0,1,.45-1.54l4.73-2.6a1.14,1.14,0,0,1,1.54.45,1.13,1.13,0,0,1-.45,1.53l-4.73,2.6A1.06,1.06,0,0,1,711.41,257.79Z"/><path class="cls-4" d="M701.71,265a1.13,1.13,0,0,1-.55-2.12l4.73-2.6a1.13,1.13,0,1,1,1.09,2l-4.73,2.6A1.06,1.06,0,0,1,701.71,265Z"/><path class="cls-4" d="M694.46,262.86a1.14,1.14,0,0,1-1-.59,1.12,1.12,0,0,1,.45-1.53l4.73-2.61a1.13,1.13,0,0,1,1.09,2l-4.73,2.6A1.17,1.17,0,0,1,694.46,262.86Z"/><path class="cls-4" d="M700.74,271.38a1.11,1.11,0,0,1-1-.59,1.13,1.13,0,0,1,.44-1.53l4.73-2.6a1.13,1.13,0,1,1,1.09,2l-4.73,2.6A1.17,1.17,0,0,1,700.74,271.38Z"/><path class="cls-4" d="M690.54,270.08a1.14,1.14,0,0,1-1-.59A1.12,1.12,0,0,1,690,268l4.73-2.61a1.15,1.15,0,0,1,1.54.45,1.12,1.12,0,0,1-.45,1.53l-4.73,2.61A1.18,1.18,0,0,1,690.54,270.08Z"/><path class="cls-4" d="M692.91,277.36a1.13,1.13,0,0,1-.55-2.12l4.74-2.61a1.13,1.13,0,0,1,1.09,2l-4.74,2.61A1.14,1.14,0,0,1,692.91,277.36Z"/><path class="cls-4" d="M685,276.81a1.13,1.13,0,0,1-.55-2.12l4.73-2.61a1.13,1.13,0,0,1,1.54.45,1.12,1.12,0,0,1-.45,1.53l-4.73,2.61A1.17,1.17,0,0,1,685,276.81Z"/><path class="cls-4" d="M710.18,267.47a1.12,1.12,0,0,1-1-.58,1.14,1.14,0,0,1,.44-1.54l4.73-2.6a1.13,1.13,0,1,1,1.09,2l-4.73,2.6A1.06,1.06,0,0,1,710.18,267.47Z"/><path class="cls-4" d="M697.64,255.19a1.13,1.13,0,0,1-.54-2.12l4.73-2.6a1.13,1.13,0,0,1,1.09,2l-4.73,2.6A1.1,1.1,0,0,1,697.64,255.19Z"/><path class="cls-4" d="M778.68,234.64l-.22,0-4.09-.82a1.13,1.13,0,0,1,.44-2.21l4.09.82a1.13,1.13,0,0,1-.22,2.23Z"/><path class="cls-4" d="M786.23,236.53l-.23,0-4.08-.82a1.14,1.14,0,0,1-.89-1.33,1.12,1.12,0,0,1,1.33-.88l4.09.82a1.13,1.13,0,0,1-.22,2.23Z"/><path class="cls-4" d="M781.2,239.59a.9.9,0,0,1-.23,0l-4.09-.82a1.13,1.13,0,0,1,.45-2.21l4.09.82a1.13,1.13,0,0,1-.22,2.23Z"/><path class="cls-4" d="M775.69,245.88a.82.82,0,0,1-.22,0l-4.09-.82a1.13,1.13,0,0,1,.45-2.21l4.08.82a1.13,1.13,0,0,1-.22,2.23Z"/><path class="cls-4" d="M777.74,249.79l-.23,0-4.08-.82a1.13,1.13,0,1,1,.44-2.21l4.09.82a1.13,1.13,0,0,1-.22,2.23Z"/><path class="cls-4" d="M773.26,240.41a.82.82,0,0,1-.22,0l-4.09-.82a1.11,1.11,0,0,1-.88-1.32,1.12,1.12,0,0,1,1.32-.89l4.09.82a1.13,1.13,0,0,1-.22,2.23Z"/><path class="cls-4" d="M822.47,166.74a.82.82,0,0,1-.22,0l-4.09-.82a1.12,1.12,0,0,1-.88-1.32,1.13,1.13,0,0,1,1.33-.89l4.08.82a1.13,1.13,0,0,1-.22,2.23Z"/><path class="cls-4" d="M830,168.63a.82.82,0,0,1-.22,0l-4.09-.82a1.13,1.13,0,0,1,.44-2.21l4.09.82a1.13,1.13,0,0,1-.22,2.23Z"/><path class="cls-4" d="M825,171.7l-.22,0-4.09-.82a1.13,1.13,0,1,1,.44-2.22l4.09.82a1.13,1.13,0,0,1-.22,2.24Z"/><path class="cls-4" d="M819.49,178a.91.91,0,0,1-.23,0l-4.08-.82a1.13,1.13,0,1,1,.44-2.21l4.09.82a1.13,1.13,0,0,1-.22,2.24Z"/><path class="cls-4" d="M821.53,181.89a.82.82,0,0,1-.22,0l-4.09-.82a1.13,1.13,0,0,1,.44-2.21l4.09.82a1.13,1.13,0,0,1-.22,2.23Z"/><path class="cls-4" d="M817.05,172.52a.83.83,0,0,1-.22,0l-4.09-.81a1.13,1.13,0,0,1,.45-2.22l4.08.82a1.13,1.13,0,0,1-.22,2.24Z"/><path class="cls-4" d="M504.74,145.51a.86.86,0,0,1-.22,0l-4.09-.82a1.12,1.12,0,0,1-.88-1.32,1.14,1.14,0,0,1,1.33-.89l4.08.82a1.13,1.13,0,0,1-.22,2.23Z"/><path class="cls-4" d="M512.29,147.4l-.22,0-4.09-.82a1.13,1.13,0,0,1,.44-2.21l4.09.82a1.13,1.13,0,0,1-.22,2.23Z"/><path class="cls-4" d="M507.26,150.47l-.22,0-4.09-.83a1.11,1.11,0,0,1-.88-1.32,1.13,1.13,0,0,1,1.32-.89l4.09.82a1.13,1.13,0,0,1,.88,1.33A1.11,1.11,0,0,1,507.26,150.47Z"/><path class="cls-4" d="M501.76,156.75a.9.9,0,0,1-.23,0l-4.08-.82a1.13,1.13,0,0,1-.89-1.32,1.14,1.14,0,0,1,1.33-.89l4.09.82a1.13,1.13,0,0,1-.22,2.23Z"/><path class="cls-4" d="M503.8,160.66l-.22,0-4.09-.82a1.13,1.13,0,0,1,.44-2.21l4.09.82a1.13,1.13,0,0,1-.22,2.23Z"/><path class="cls-4" d="M499.32,151.29l-.22,0-4.09-.81a1.13,1.13,0,0,1,.45-2.22l4.08.82a1.13,1.13,0,0,1-.22,2.24Z"/><path class="cls-9" d="M577.45,170.15c.21-.19,8.17-8.17,8.17-8.17s-6.92.54-7.37,1.17S576.78,170.75,577.45,170.15Z"/><path class="cls-9" d="M591.16,156.93c-.8-.14-7.7,10.53-7,12.86s5.06,19.4,7,17.16,3.83-28.83,3.52-29A21.81,21.81,0,0,0,591.16,156.93Z"/><path class="cls-9" d="M604.08,152.1c-.36.15-2.83,13.47-2.11,15.27s5.12-8.27,5.39-9.34,1.35-3.07.3-4S604.93,151.74,604.08,152.1Z"/><path class="cls-9" d="M617.87,147.52c-1.42.1-5.48,20.48-6.74,26.76s-3.06,19-2.16,17.61,12-32.83,13.12-35,2.46-5.4,2-5.89S621.55,147.25,617.87,147.52Z"/><path class="cls-10" d="M571.7,174.37c-.45.27-10,7-10,7s2.42-5,3.32-5.39S571.7,174.37,571.7,174.37Z"/><path class="cls-9" d="M669.51,122.1l-1.5,8.78s8.9-7.95,8.7-8.36-.42-2.36-2.44-2.12A17.4,17.4,0,0,0,669.51,122.1Z"/><path class="cls-9" d="M681.69,122.6s-18.88,39.11-18,38.82,19.47-17.78,20.69-19.41,3.68-5,3.77-6.89-4.09-11.4-4.09-11.4Z"/><path class="cls-10" d="M695,142s-1.89,7.36-7.68,9.25-22.36,9.1-22.36,9.1,18-16.84,18.7-17.61,5.81-6.36,6.61-5.44S695,142,695,142Z"/><path class="cls-9" d="M642.21,137.23s-7.55,13.68-7.82,14.81,1.08,9.22,0,11.11-2.56,4.58-2.56,5.12-2,21.15-1.75,23.17,5.77-15.49,6-18.73,4.06-12.12,4.59-14,4.32-7.65,4.72-9.89S643,140,642.21,137.23Z"/><path class="cls-10" d="M666.86,138c0,.82-.27,8.05-.54,9.55s-9.16,10-10.51,10.93,2.9-8.72,4.11-9.62,3.17-2.84,4.05-3.65S666.84,137.48,666.86,138Z"/><path class="cls-10" d="M657.66,165.39s-2.52,20.3-3.42,20.3-17.42,19.51-17.42,19.51,8-14.12,8.66-16.63,5.89-13.66,6.79-16.53S657.66,165.39,657.66,165.39Z"/><polygon class="cls-10" points="578.08 185.3 582.92 185.3 581.42 202.58 578.08 185.3"/><path class="cls-10" d="M600.35,184.43c-.36,1.08,1.54,13.48,1.49,14s-12.42,11-12.42,11l2.85-12.48Z"/><path class="cls-10" d="M775.5,176.35c-5.75-1.44-22.28-4.67-24.07-5s-18.33-3.95-21.74-5.75-9.16-6.82-10.06-8.26-3.23-.54-5-1.26-2.15-2-3.05-4.13a8.17,8.17,0,0,0-.89-1.67c.06.39-7.55,10.13-6.48,13s2.88,5.39,2.88,8.8-4.49,10.24-2,10.42,16.53,10.78,18.32,12.21,11.5,3.78,16.53,4.31,9.16,5.21,12.75,6.11,3.78-4.13,2.52-5-7-7-4.31-6.46,15.18,5.14,15.18,5.14c-.54-2.5,1.37-4.29,9.43-5.14C793.27,191.71,781.25,177.79,775.5,176.35Z"/><path class="cls-2" d="M598,222a.64.64,0,0,0-1.26.1l-.54,4.71a.65.65,0,0,0,.16.5.64.64,0,0,0,.48.22h1.82a.64.64,0,0,0,.51-.26.63.63,0,0,0,.11-.55Z"/><path class="cls-2" d="M585.29,224.35a.64.64,0,0,0-1.26.09l-.54,4.72a.66.66,0,0,0,.16.5.64.64,0,0,0,.48.22H586a.64.64,0,0,0,.51-.26.65.65,0,0,0,.11-.56Z"/><path class="cls-2" d="M579.24,215.1a.65.65,0,0,0-1.27.09l-.53,4.72a.6.6,0,0,0,.15.5.66.66,0,0,0,.49.22h1.81a.68.68,0,0,0,.52-.26.65.65,0,0,0,.11-.56Z"/><path class="cls-2" d="M569,212.74a.62.62,0,0,0-.67-.47.64.64,0,0,0-.59.57l-.54,4.71a.65.65,0,0,0,.64.72h1.82a.63.63,0,0,0,.51-.25.66.66,0,0,0,.11-.56Z"/><path class="cls-2" d="M558.61,216.43a.64.64,0,0,0-.67-.48.65.65,0,0,0-.59.57l-.54,4.72a.66.66,0,0,0,.16.5.68.68,0,0,0,.48.21h1.82a.63.63,0,0,0,.51-.25.6.6,0,0,0,.11-.56Z"/><path class="cls-2" d="M546.89,208a.64.64,0,0,0-.67-.48.66.66,0,0,0-.59.57l-.54,4.72a.66.66,0,0,0,.16.5.63.63,0,0,0,.48.21h1.82a.63.63,0,0,0,.51-.25.62.62,0,0,0,.11-.56Z"/><path class="cls-2" d="M552.47,201.27a.64.64,0,0,0-1.26.1l-.54,4.72a.66.66,0,0,0,.16.5.67.67,0,0,0,.48.21h1.82a.63.63,0,0,0,.51-.25.6.6,0,0,0,.11-.56Z"/><path class="cls-2" d="M546.24,201.83a.6.6,0,0,0,.11-.56l-1.28-4.71a.64.64,0,0,0-.67-.47.65.65,0,0,0-.59.56l-.54,4.72a.65.65,0,0,0,.64.72h1.82A.64.64,0,0,0,546.24,201.83Z"/><path class="cls-2" d="M624.4,213.34a.64.64,0,0,0-1.26.1l-.54,4.72a.66.66,0,0,0,.16.5.67.67,0,0,0,.48.21h1.82a.64.64,0,0,0,.62-.81Z"/><path class="cls-2" d="M727,209.24a.66.66,0,0,0-.67-.48.64.64,0,0,0-.59.57l-.54,4.72a.62.62,0,0,0,.16.5.65.65,0,0,0,.48.21h1.82a.65.65,0,0,0,.51-.25.66.66,0,0,0,.11-.56Z"/><path class="cls-2" d="M723.27,214.81a.62.62,0,0,0-.67-.47.65.65,0,0,0-.59.56l-.54,4.72a.65.65,0,0,0,.64.72h1.82a.64.64,0,0,0,.51-.26.6.6,0,0,0,.11-.56Z"/><path class="cls-2" d="M732.91,214.81a.62.62,0,0,0-.67-.47.63.63,0,0,0-.59.56l-.54,4.72a.66.66,0,0,0,.16.5.64.64,0,0,0,.48.22h1.82a.64.64,0,0,0,.51-.26.65.65,0,0,0,.11-.56Z"/><path class="cls-2" d="M740.56,202.67a.64.64,0,0,0-1.26.1l-.54,4.71a.64.64,0,0,0,.64.72h1.82a.63.63,0,0,0,.51-.25.66.66,0,0,0,.11-.56Z"/><path class="cls-2" d="M661.46,210.09a.64.64,0,0,0-1.26.1l-.54,4.71a.64.64,0,0,0,.64.72h1.82a.63.63,0,0,0,.51-.25.66.66,0,0,0,.11-.56Z"/><path class="cls-2" d="M670.28,194.39a.64.64,0,0,0-.67-.47.63.63,0,0,0-.59.57l-.54,4.71a.67.67,0,0,0,.16.51.65.65,0,0,0,.48.21h1.82a.63.63,0,0,0,.51-.25.66.66,0,0,0,.11-.56Z"/><path class="cls-2" d="M683.65,200.32a.64.64,0,0,0-.67-.48.65.65,0,0,0-.59.57l-.54,4.72a.66.66,0,0,0,.16.5.68.68,0,0,0,.48.21h1.82a.63.63,0,0,0,.51-.25.6.6,0,0,0,.11-.56Z"/><path class="cls-2" d="M735.32,178.46a.62.62,0,0,0-.67-.47.65.65,0,0,0-.59.57l-.54,4.71a.65.65,0,0,0,.16.5.66.66,0,0,0,.48.22H736a.68.68,0,0,0,.52-.26.61.61,0,0,0,.1-.56Z"/><path class="cls-2" d="M766.69,183.17l-1.28-4.71a.62.62,0,0,0-.67-.47.63.63,0,0,0-.59.57l-.54,4.71a.65.65,0,0,0,.16.5.64.64,0,0,0,.48.22h1.82a.65.65,0,0,0,.62-.82Z"/><path class="cls-2" d="M759.6,185.53a.65.65,0,0,0-1.27.1l-.53,4.71a.63.63,0,0,0,.16.51.65.65,0,0,0,.48.21h1.81a.65.65,0,0,0,.52-.25.66.66,0,0,0,.11-.56Z"/><path class="cls-2" d="M769.58,191.43l-1.28-4.71a.66.66,0,0,0-.67-.48.67.67,0,0,0-.6.57l-.53,4.72a.61.61,0,0,0,.15.5.66.66,0,0,0,.48.22H769a.68.68,0,0,0,.52-.26A.65.65,0,0,0,769.58,191.43Z"/><path class="cls-2" d="M741.47,180.82a.64.64,0,0,0-.67-.48.66.66,0,0,0-.59.57l-.54,4.72a.66.66,0,0,0,.16.5.64.64,0,0,0,.48.22h1.82a.64.64,0,0,0,.51-.26.65.65,0,0,0,.11-.56Z"/></g></svg>