<svg xmlns="http://www.w3.org/2000/svg" viewBox="0 0 580 620"><defs><style>.cls-1,.cls-7{fill:#595757;}.cls-1{stroke:#878787;stroke-miterlimit:10;stroke-width:4px;}.cls-2{fill:#3d3a39;}.cls-16,.cls-3{fill:none;}.cls-4{fill:#dadbdb;}.cls-5{fill:#fff;}.cls-6{fill:#929393;}.cls-8{fill:#ededee;}.cls-9{fill:#9d9d9e;}.cls-10{fill:#b3b3b4;}.cls-11{fill:#c8c8c9;}.cls-12{fill:#d9752d;}.cls-13{fill:#e5a232;}.cls-14{fill:#717071;}.cls-15{fill:#878787;}.cls-16{stroke:#211815;stroke-linecap:round;stroke-linejoin:round;stroke-width:2px;}</style></defs><g id="主圖"><path class="cls-1" d="M416.24,507.37v0c0,.64-.09,1.26-.14,1.9-5.14,60.78-45.7,107-90.61,103.17-32.24-2.73-57.95-30.49-68-68.43l.33-.84.33-.87c.22-.55.43-1.11.63-1.67s.42-1.13.61-1.7.43-1.18.63-1.78q1.59-4.65,2.9-9.5c.13-.47.25-.93.36-1.4s.29-1.06.42-1.61c.18-.71.35-1.42.52-2.13a.64.64,0,0,1,0-.07.39.39,0,0,1,0-.14c.05-.23.1-.46.16-.7l.18-.83c.07-.29.14-.58.19-.86.15-.64.28-1.27.41-1.92,0-.07,0-.14,0-.21v0c.13-.62.25-1.24.37-1.86s.24-1.29.35-1.94.21-1.16.3-1.74.24-1.39.35-2.09c.13-.86.25-1.72.37-2.59s.24-1.74.34-2.61c-.35,19.55,4,37.72,11.7,52.42,10.65,20.32,27.8,34.06,48.08,35.77,22.34,1.89,43.37-11.23,57.46-32.94,9.27-14.27,15.55-32.24,17.23-52.11,1.78-21.13-1.91-41-9.56-57.2h0c-10.49-22.17-28.39-37.36-49.8-39.17-.92-.08-1.83-.13-2.75-.15a49.74,49.74,0,0,0-9.54.62c.09-1,.19-1.91.29-2.86.06-.65.13-1.31.2-2v-.05c.13-1.29.26-2.59.39-3.87s.28-2.84.43-4.27c.12-1.21.25-2.42.36-3.62l.3-3a60.42,60.42,0,0,1,12-.17c24,2,44.4,17.94,57.39,41.6.3,13.85.54,25.13.54,25.13s1.27-.71,3.46-1.72C406,459.07,411.34,484.41,416.24,507.37Z"/><path class="cls-2" d="M443.37,84.53c-2.83-.39-19.93-2.83-22.61-4-1.55-.66-6.51-.68-11.72-.37.74-5.53-1.18-12.5-2.28-16.89-.94-3.77-3.47-7.13-5.07-12.44v0a30.24,30.24,0,0,1-.78-3.12c-1.39-7.25-8.91-6.13-12.25-1.67s-5.3,12.25-5.3,12.25-4.73-15.6-8.91-21.45a46.72,46.72,0,0,1-6-11.5v0c-.91-2.69-1.25-5.07-.66-6.59A41.29,41.29,0,0,1,396.46,5.34c18.1-.55,34.22,10,39.11,18.11s7.67,21.72,5.43,29.24c-1.95-.59-3.93-.73-4.71-.26-1.39.83-6.3,7.86-8.36,11.28-2.77,4.59,6.55,16.15,10.17,14.75a13.38,13.38,0,0,0,3.71-2.66C441.49,76.08,442.15,79.87,443.37,84.53Z"/><path class="cls-3" d="M409,80.18l0,.26"/><path class="cls-3" d="M401.7,50.85c.63,2.59-.11,8.69-3.3,12.44s-9.74,4-9.74,4"/><path class="cls-3" d="M394.65,48.28s3.86,4.07,1.15,7.83a6.81,6.81,0,0,1-6.59,3"/><path class="cls-2" d="M486.36,112.73c0,6.89-2.72,6.89-10.24,7.52,0,0-1.25.13-3.12.17a41.61,41.61,0,0,1-4.82-.17c-4.18-.42-14.21-13-18.59-19.43-2.42-3.56-4.74-10.58-6.22-16.29-1.22-4.66-1.88-8.45-1.56-8.73a66.46,66.46,0,0,0,7.08-8.12c.45.29,14.59,9.42,21.38,16S486.36,105.83,486.36,112.73Z"/><path class="cls-3" d="M448.89,67.68h0"/><path class="cls-4" d="M468.88,185.57c-.83-.28-27.3,1.4-35.93-1.4s-26.43-5.56-31.05-11.69S386.05,149.73,378.44,148c3.09-6,5.72-10.6,5.86-10.83h0c-2.53-3.12-9.21-6.74-19.95-6.9-14.21-.2-17.76,6.9-18.39,6.9s0-8.36,4.18-21.73,9.4-24.23,12.33-26.11a10.78,10.78,0,0,1,2-1c3.78-1.5,10.49-2.9,16.94-4.07,0,0,26.49,15.76,36.79,30.52s36.77,51.81,40.11,56.27S469.72,185.85,468.88,185.57Z"/><path class="cls-3" d="M384.3,137.18a4.1,4.1,0,0,1,1.15,2.71c-.21,3.13,2.44-11.5,3.21-13.17s2.64-6.28,2.64-6.28"/><path class="cls-3" d="M443.77,84.59l-.4-.06"/><path class="cls-5" d="M409,80.18a99.81,99.81,0,0,0-12,1.35l-.31.07c-2.64.57-8.87,1.52-15.37,2.7s-13.16,2.57-16.94,4.07c-1.58-1.28-1.45-3.74-1-5.73s-.94-1.25-2.29-3.86.62-6.37,1.37-7.84-4.93-3.34-5.87-5.32,7.73-11.49,8.36-13.79-1.78-4.8-1.57-10.76,5-15.37,5-15.75a46.72,46.72,0,0,0,6,11.5c4.18,5.85,8.91,21.45,8.91,21.45s2-7.8,5.3-12.25,10.86-5.58,12.25,1.67a30.24,30.24,0,0,0,.78,3.12v0c1.6,5.31,4.13,8.67,5.07,12.44C407.86,67.68,409.78,74.65,409,80.18Z"/><path class="cls-5" d="M384.3,137.17h0c-.14.23-2.77,4.84-5.86,10.83l-.63,1.2c-3.67,7.19-7.78,16-9.07,21.59-2.51,10.87-6.69,26.54-10.66,31.76s-22.9,29.53-30,39.14c-2.13,2.89-5.14,6.75-8.43,10.86-7.63,9.55-16.69,20.35-19.43,23-3.89,3.76-10.16,5.56-11.55,3.61a5.45,5.45,0,0,0-2.49-1.56h0c-2.32-.84-5.39-1.17-6.43-.79-1.53.55-3.62,7-2.93,9.33.58,1.94,2.46.61,2.58,2.07a4.3,4.3,0,0,1-.2,1.41c-1,3.62-12.54,1-16.72,0-3.93-.92-10.59-5.92-14.61-9.06-.25-.18-.49-.37-.71-.55-1.16-.91-.67-2.79.71-5a45.82,45.82,0,0,1,6.44-7.73,48.53,48.53,0,0,1,7.61-6.45c3.91-2.23,23.4,2.51,27.31,0,2-1.3,6.7-10.29,12.2-21.2.27-.55.56-1.1.84-1.66h0c4.89-9.73,10.33-20.72,15.08-29.08,10.45-18.39,14.21-25.07,17.55-32.18S346,137.17,346,137.17c.63,0,4.18-7.1,18.39-6.9C375.09,130.43,381.77,134.05,384.3,137.17Z"/><path class="cls-3" d="M344.09,189s7.52-.42,8.77,6.9"/><path class="cls-6" d="M575.56,451.17s-18.38,10-33.42,10h-32c-1-18.54-2.28-38.87-2.28-41.37,0-3.76,2.09-29.25,3.35-36.35s13.37-49.3,17.22-66.85c3.53-16.06.66-40.11.16-44.09,6.57,16.77,13.7,35.75,15.21,42.83,2.92,13.79,18,107.8,21.72,118.67A48.55,48.55,0,0,0,575.56,451.17Z"/><path class="cls-3" d="M377.81,149.21a2.17,2.17,0,0,0,0-.24"/><path class="cls-7" d="M511.22,383.48c-1.26,7.1-3.35,32.59-3.35,36.35,0,2.5,1.29,22.83,2.28,41.37.5,9.39.92,18.32,1.07,24.23.41,17.55,0,92,0,92L488.43,574c.42-6.1-3.44-25-7.3-39.31-4.18-15.46-6.68-54.73-9.19-62.25-2.32-7-4.7-19.78-5-21.6,17.22.29,34.28.29,34.28.29s-1.25-26.33,0-61.42,8.36-92.76,11.28-109.89,4.18-37.08,4.18-37.08,5.72,13.89,11.94,29.75h0c.5,4,3.37,28-.16,44.09C524.59,334.18,512.47,376.38,511.22,383.48Z"/><line class="cls-3" x1="488.43" y1="574.04" x2="488.19" y2="574"/><path class="cls-3" d="M528.59,272.53c-.05-.37-.08-.56-.08-.56"/><path class="cls-3" d="M466.91,450.88l0-.22"/><path class="cls-7" d="M487.82,605.35c-4.73,2.65-47.91-4-53.07-4.6s-48.32-6.27-48.32-6.27-5.16-6.26,1.81-9.46,10,1.39,18.94,0a65.68,65.68,0,0,0,17.13-5.58c2.09,2.51,19.22,2.09,29.25,1.26,9.46-.79,30.84-1.21,34.26-4.77C487.82,575.93,492.56,602.71,487.82,605.35Z"/><path class="cls-4" d="M477,127.17c-11.47-5.25-34.6-4.11-37.13-4l-.23-.31-10-11.14c-9.35-10.4-29.85-27.92-32.54-30.23a99.81,99.81,0,0,1,12-1.35c5.21-.31,10.17-.29,11.72.37,2.68,1.15,19.78,3.59,22.61,4,1.48,5.71,3.8,12.73,6.22,16.29,4.38,6.47,14.41,19,18.59,19.43a41.61,41.61,0,0,0,4.82.17C474.26,122.45,475.63,124.78,477,127.17Z"/><path class="cls-3" d="M473,120.42a3.21,3.21,0,0,0-.19-.31"/><path class="cls-4" d="M510.38,195.87s-26.46-4.17-30.92-6.89-11.7-23.74-15.42-30.43c-2.14-3.83-9.85-15-16-23.81,0,0,25.44-3.23,37,7,.86,1.6,1.37,2.58,1.37,2.58s7.31,22,10.93,29.8S510.38,195.87,510.38,195.87Z"/><path class="cls-3" d="M397.07,81.53l-.31-.25"/><path class="cls-3" d="M477.24,127.28a1.36,1.36,0,0,0-.25-.11"/><path class="cls-3" d="M439.86,123.21h-.23"/><path class="cls-3" d="M485.55,142.28c-.18-.17-.36-.35-.56-.51"/><path class="cls-5" d="M283.55,228.63c-7.52,1.12-16.3,3.4-20.38,4.43-3.7.95-11.12,4.52-17.68,8a38.83,38.83,0,0,0-7.43-5.77c-3.66-2-3.34-11.7-3.13-13.48s.21-4.6-.63-6.27,2.82-6.47,3.14-8.77-3.34-5.33-3.14-7.31c.13-1.17,2.69-2.34,5.24-4.91a16.8,16.8,0,0,0,4.47-7.84l.21-.74c8.61,3.95,22.57,10.31,22.57,10.31a35.51,35.51,0,0,1-.21,8.09c-.21.52,4.59-8.67,8.35-4.91,3.05,3,2.13,11.67,2.1,16.31a9.45,9.45,0,0,0,.2,2.49C278,220.73,282.09,227.14,283.55,228.63Z"/><path class="cls-5" d="M266.79,196.25s-14-6.36-22.57-10.31a62.42,62.42,0,0,1,2.62-7.21,130.38,130.38,0,0,1,6.2-12.42,20.33,20.33,0,0,0,2.67,6.58c2.72,4.39,7.73,14.84,9.82,18.39A12.61,12.61,0,0,1,266.79,196.25Z"/><path class="cls-4" d="M317.34,208.83c-4.75,8.36-10.19,19.35-15.08,29.08-.12-.26-2.57-5.63-6.5-8.89-1.72-1.42-6.61-1.22-12.21-.39-1.46-1.49-5.55-7.9-6.32-10.4a9.45,9.45,0,0,1-.2-2.49c0-4.64,1-13.27-2.1-16.31-3.76-3.76-8.56,5.43-8.35,4.91a35.51,35.51,0,0,0,.21-8.09,12.61,12.61,0,0,0-1.26-5c-2.09-3.55-7.1-14-9.82-18.39a20.57,20.57,0,0,1-3.13-11.07s14.83-19.22,40.32-5.43S323.4,188.77,317.34,208.83Z"/><path class="cls-3" d="M283.87,228.91a1.24,1.24,0,0,1-.32-.28"/><path class="cls-3" d="M261.36,218.65s5.66,9,15.68-2.92"/><path class="cls-3" d="M272.64,205.63s1.95,10.44-5.85,9.47"/><path class="cls-8" d="M246.84,178.73a62.42,62.42,0,0,0-2.62,7.21c-3.72-1.71-6.44-3-6.61-3.08a29.83,29.83,0,0,1,3.27-7.32S246,171.2,246.84,178.73Z"/><path class="cls-8" d="M244.22,185.94l-.21.74a16.8,16.8,0,0,1-4.47,7.84c-2.95-3.8-2.87-8.11-1.93-11.66C237.78,183,240.5,184.23,244.22,185.94Z"/><path class="cls-9" d="M302.26,237.91h0c-.28.56-.57,1.11-.84,1.66-1.42-.05-12.56-.34-21.54,2.26-9.61,2.79-24.65,7.38-27.3,8.35-1.62.6-10.89,2.68-17.56,4.35,0,0-4-4.77-1.94-6.44,1-.8,6.35-3.88,12.41-7.07,6.56-3.45,14-7,17.68-8,4.08-1,12.86-3.31,20.38-4.43,5.6-.83,10.49-1,12.21.39C299.69,232.28,302.14,237.65,302.26,237.91Z"/><path class="cls-10" d="M301.42,239.58c-5.5,10.91-10.18,19.9-12.2,21.2-3.91,2.51-23.4-2.23-27.31,0a48.53,48.53,0,0,0-7.61,6.45,53.51,53.51,0,0,0-12.16.09c-1.9-5.5-10.49-10.76-11.81-11.53,1.22-.37,2.86-.79,4.69-1.25,6.67-1.67,15.94-3.75,17.56-4.35,2.65-1,17.69-5.56,27.3-8.35C288.86,239.24,300,239.53,301.42,239.58Z"/><path class="cls-11" d="M242.14,267.32a19.86,19.86,0,0,0-8.36,2.79c-6.69,4.6-9.75,11.27-10.58,23.39l-3.63-.69c-3.72.59-7.94,50.35-8.56,57.24,0,.39-.08,1.08-.14,2.05-.24,4.3-.67,14-1.16,26.25a59.31,59.31,0,0,0-13.48-2.82c-.54,0-1.11-.09-1.65-.12l10.1-.35a2.27,2.27,0,0,0,2.18-2.34l-.22-6.57A2.27,2.27,0,0,0,204.3,364l-96.12,3.34c.77-1.31,4-6.78,5.47-8.06,1.67-1.47,5.22-4.18,7.73-6.48s7.31-3.55,9.82-5.64,5.64-6.9,8.15-10.45,6.47,2.72,7.1,0,4.6-4.59,9-4.18,6.69-1.46,6.48-5.64,3.34-14,8.78-16.5c1.52-.7,4.47-2.2,7.93-4h0c.48-1,1.81-3.83,3.14-7.48,1.67-4.6,12.53-12.12,19.84-25.07s27.45-16.36,26.47-17.06c-.21-.15.69-.5,2.26-1C231.65,256.56,240.24,261.82,242.14,267.32Z"/><path class="cls-3" d="M178.62,306.36c-.14.26-.2.39-.2.39"/><path class="cls-3" d="M301.57,239.59h-.15"/><path class="cls-3" d="M108.18,367.31l-.17.28"/><path class="cls-3" d="M178.62,306.35c8.85-4.61,21.07-11.21,21.52-11.66"/><path class="cls-7" d="M206.86,372.72a2.27,2.27,0,0,1-2.18,2.34l-10.1.35h-.06a58.4,58.4,0,0,0-11.23.39h0l-42,1.46h0l-27.8,1-12.43.44h0l-1.89.06a2.25,2.25,0,0,1-2.34-2.18l-.09-2.66L96.5,370a2.26,2.26,0,0,1,2.19-2.34l9.49-.33L204.3,364a2.27,2.27,0,0,1,2.34,2.18Z"/><path class="cls-3" d="M194.52,375.41l-11.23.39A58.4,58.4,0,0,1,194.52,375.41Z"/><path class="cls-3" d="M231.39,291.47h-.12"/><path class="cls-7" d="M371.8,322.2c-2.5-5.16-13.78-11.14-18.52-11.42a8.17,8.17,0,0,1-7.11-5.19,10.61,10.61,0,0,1-.69-2.33c-.26-1.56.08-6,.69-10.45.4-2.9.91-5.81,1.43-8a11.46,11.46,0,0,1,1.12-3.19l.1-.12c1.67-1.81,14.33,1.37,14.33,1.37-2.55,2.62-5.24,5.83-5,8.56.38,4.17-3.32,9.3.31,11.64-1.49,2.61,1.36,2.25,6.23,4.9s9.19,6.82,13.1,12.67S374.31,327.36,371.8,322.2Z"/><path class="cls-5" d="M403.7,282c-.91-2-2.92-8.84-4.82-16.62,0,0-8.13,7-9.53,7.42s-20.47,3.77-22.14,6c-.67.89-2.33,2.39-4.06,4.15-2.55,2.62-5.24,5.83-5,8.56.38,4.17-3.32,9.3.31,11.64a5.78,5.78,0,0,0,1.22.57c5.57,2,15,4.47,19.36,4.32s10.86-1,15-5.57,10.05-17.94,10.05-17.94A7.39,7.39,0,0,0,403.7,282Zm-8.92,12.67c-.83,4.74-2.92,8.22-6.68,7.53-3.59-.67-5.28,0-5.42.08.06-.27,1.47-5.35,0-7s-3.62-6.2-1.26-7a12.16,12.16,0,0,1,5.71,0S395.62,289.89,394.78,294.62Z"/><path class="cls-7" d="M394.78,294.62c-.83,4.74-2.92,8.22-6.68,7.53-3.59-.67-5.28,0-5.42.08.06-.27,1.47-5.35,0-7s-3.62-6.2-1.26-7a12.16,12.16,0,0,1,5.71,0S395.62,289.89,394.78,294.62Z"/><path class="cls-3" d="M347.61,284.85h0"/><path class="cls-3" d="M183.29,375.8l11.23-.39A58.4,58.4,0,0,0,183.29,375.8Zm26.42,2.55h0c1.61.53,3.19,1.13,4.76,1.8C212.9,379.49,211.32,378.88,209.71,378.35Zm6.31,2.51c1,.47,2,1,3,1.5C218.07,381.83,217.05,381.32,216,380.86Zm4.56,2.32c1.49.84,3,1.75,4.4,2.7C223.53,384.91,222.07,384,220.58,383.18Zm19.94,55.9c-10.11-23-27.67-38.77-48.8-40.66-33.43-3-64.2,29.81-72.63,75.16q-1.16,6.15-1.73,12.59c-2,22.76,1.82,44.13,9.89,61.21,10.26,21.72,27.33,36.5,47.74,38.33,22.51,2,43.81-12.21,57.89-35.55,8.74-14.46,14.7-32.42,16.47-52.2C251.29,476.22,247.86,455.76,240.52,439.08Zm-66.07,67.45a7.53,7.53,0,0,1-3.92-1.55c-3.35-2.51-5.37-7.75-4.85-13.57.71-7.87,5.77-13.84,11.31-13.34,4.66.41,8.19,5.29,8.75,11.52a19.67,19.67,0,0,1,0,3.6C185,501.06,180,507,174.45,506.53Zm86.44-70.28c.46,1.34.9,2.68,1.32,4.05C261.8,438.93,261.35,437.58,260.89,436.25Z"/><path class="cls-12" d="M334.67,367.27c-.81,8.11-1.67,16.65-2.53,25.28l-.3,3c-.11,1.2-.24,2.41-.36,3.62-.15,1.43-.29,2.85-.43,4.27s-.26,2.58-.39,3.87v.05c-.07.66-.14,1.32-.2,2-.1.95-.2,1.9-.29,2.86-3.84,38-7.39,72.41-7.39,72.41s-10.52-.22-25.2-.76h0c-8.64-.33-18.72-.76-29-1.32v-.2c0-.65,0-1.3,0-1.95,0-.11,0-.22,0-.33,0-.52,0-1.06-.06-1.59s0-.81,0-1.22l-.09-1.76c-.09-1.53-.19-3-.32-4.54s-.29-3.12-.47-4.66c-.07-.61-.14-1.21-.22-1.81s-.15-1.2-.24-1.8-.13-.95-.21-1.42q-.13-1-.3-2c-.11-.66-.21-1.32-.33-2-.19-1.1-.39-2.2-.61-3.28s-.44-2.18-.69-3.24q-.48-2.14-1-4.26c-.11-.47-.24-.93-.36-1.39-.27-1-.55-2-.83-3-.19-.62-.37-1.23-.55-1.84-.41-1.37-.86-2.72-1.32-4.05-.22-.67-.45-1.33-.69-2-.73-2-1.52-4.06-2.34-6-.17-.42-.35-.84-.53-1.25l-.29-.66-.72-1.63c-.28-.61-.57-1.23-.86-1.83s-.58-1.22-.88-1.82c-.57-1.16-1.16-2.3-1.78-3.42-.35-.64-.7-1.27-1.06-1.9s-.62-1.1-1-1.65c-.22-.38-.44-.76-.68-1.12s-.45-.75-.68-1.12-.51-.82-.78-1.22-.61-.95-.92-1.42l-.1-.15-1-1.48-1.1-1.54c-.75-1-1.51-2-2.27-3-.38-.48-.76-.95-1.15-1.42l0,0-1.18-1.41c-.6-.7-1.2-1.38-1.82-2.06s-1.24-1.35-1.88-2l-1-1c-.65-.63-1.3-1.26-1.95-1.87l-1-.9c-.44-.4-.88-.79-1.33-1.17L230.59,390c-.45-.38-.91-.74-1.37-1.1l-1.39-1.06c-.94-.69-1.89-1.36-2.85-2-1.45-1-2.91-1.87-4.4-2.7l-1.51-.82c-1-.53-2-1-3-1.5l-1.55-.7c-1.57-.67-3.15-1.28-4.76-1.81.49-12.2.92-22,1.16-26.25C210.87,352.1,249,364,334.67,367.27Z"/><path class="cls-3" d="M214.47,380.16c-1.57-.67-3.15-1.27-4.76-1.8h0C211.32,378.88,212.9,379.49,214.47,380.16Z"/><path class="cls-3" d="M219.07,382.36c-1-.53-2-1-3-1.5C217.05,381.32,218.07,381.83,219.07,382.36Z"/><path class="cls-3" d="M225,385.88c-1.44-.95-2.91-1.86-4.4-2.7C222.07,384,223.53,384.91,225,385.88Z"/><path class="cls-3" d="M262.21,440.3c-.42-1.37-.86-2.71-1.32-4.05C261.35,437.58,261.8,438.93,262.21,440.3Z"/><path class="cls-13" d="M334.67,367.27C249,364,210.87,352.1,210.87,352.1c.06-1,.1-1.66.14-2.05.62-6.89,4.84-56.65,8.56-57.24l3.63.69,8.07,1.52,21.18,4h0c4.43,3.45,9,7.32,10.29,8.85,2.36,2.93,2.51,6.55,5.43,5.85s1-5.71-1.39-9.05a26.73,26.73,0,0,0-2.57-2.79c.47.46,42.15,4.87,63.37,7.94h0c3.3.47,6.11.92,8.19,1.31,2.4.45,3.83.84,3.92,1.12C339.93,313,337.63,337.23,334.67,367.27Z"/><path class="cls-14" d="M481.13,534.73c-4.18-15.46-6.68-54.73-9.19-62.25-2.32-7-4.7-19.78-5-21.6-10.79-.18-21.64-.48-28.4-1-10.2-.72-20.88,2.5-28,5.34-2,.77-3.66,1.52-5,2.14.48,1.68,5.85,27,10.75,50v0c3.81,17.83,7.34,34.21,8.07,37,1.67,6.27-2.09,32.59,0,35.1s19.22,2.09,29.25,1.26c9.46-.79,30.84-1.21,34.26-4.77a1.57,1.57,0,0,0,.42-.67,6.4,6.4,0,0,0,.19-1.22C488.85,567.94,485,549,481.13,534.73Z"/><path class="cls-13" d="M558.57,371.36C552.16,338.5,537.12,264.12,532.39,248s-17.83-38.73-18.67-46.52.63-11-1.88-15.19-9-4.59-9.4-11.9-7.94-13.17-8.35-16.3-9.61-32.17-18-37.81c0,0-1.25.13-3.12.17,1.26,2,2.63,4.36,4,6.75-11.47-5.25-34.6-4.11-37.13-4l-.23-.31-10-11.14c-9.35-10.4-29.85-27.92-32.54-30.23l-.31.07c-2.64.57-8.87,1.52-15.37,2.7,0,0,26.49,15.76,36.79,30.52s36.77,51.81,40.11,56.27,11.43,14.76,10.59,14.48-27.3,1.4-35.93-1.4-26.43-5.56-31.05-11.69S386.05,149.73,378.44,148l-.63,1.2c.17,2.83,1.85,30,6.49,36.64,4.91,7,13.13,16.71,10.28,21.72s-.21,24,0,33.71c.1,5.19,2.13,15.19,4.3,24,1.9,7.78,3.91,14.66,4.82,16.62a7.39,7.39,0,0,1,.44,2.53c.35,7.72-3.48,27.58-5.18,35.36-1.94,8.9,1.11,55.7,1.4,64.62.16,5.22.71,29.94,1.13,49.52.3,13.85.54,25.13.54,25.13s1.27-.71,3.46-1.72c1.34-.62,3-1.37,5-2.14,7.14-2.84,17.82-6.06,28-5.34,6.76.49,17.61.79,28.4,1,17.22.29,34.28.29,34.28.29s-1.25-26.33,0-61.42,8.36-92.76,11.28-109.89,4.18-37.08,4.18-37.08,5.72,13.89,11.94,29.75h0c6.57,16.77,13.7,35.75,15.21,42.83,2.92,13.79,18,107.8,21.72,118.67A408,408,0,0,0,558.57,371.36ZM479.46,189c-4.45-2.72-11.7-23.74-15.42-30.43-2.14-3.83-9.85-15-16-23.81,0,0,25.44-3.23,37,7,.86,1.6,1.37,2.58,1.37,2.58s7.31,22,10.93,29.8,13.09,21.72,13.09,21.72S483.92,191.7,479.46,189Z"/><path class="cls-3" d="M240.52,439.08c-10.11-23-27.67-38.77-48.8-40.66-33.43-3-64.2,29.81-72.63,75.16q-1.16,6.15-1.73,12.59c-2,22.76,1.82,44.13,9.89,61.21,10.26,21.72,27.33,36.5,47.74,38.33,22.51,2,43.81-12.21,57.89-35.55,8.74-14.46,14.7-32.42,16.47-52.2C251.29,476.22,247.86,455.76,240.52,439.08Zm-66.07,67.45a7.53,7.53,0,0,1-3.92-1.55c-3.35-2.51-5.37-7.75-4.85-13.57.71-7.87,5.77-13.84,11.31-13.34,4.66.41,8.19,5.29,8.75,11.52a19.67,19.67,0,0,1,0,3.6C185,501.06,180,507,174.45,506.53Z"/><path class="cls-12" d="M145.2,394.14c-15.24,13.47-27.63,33.35-34.95,57,0,0-14.68-.11-23-.34a50.2,50.2,0,0,1-5.55-.29c-.16-.07-.23-1.43-.23-3.69,0-12.27,2.11-50.84,2.11-50.84l1.89,0,7.31-.17C109.65,395.44,144,394.62,145.2,394.14Z"/><path class="cls-8" d="M101,378.67c-.85.47-5,3.07-7,9.61a26.69,26.69,0,0,0-1.17,7.53l-7.31.17a46.22,46.22,0,0,1,.54-6.77c1.24-7.74,4.34-11.6,6.86-13.51h0a9.24,9.24,0,0,1,3.76-1.8l.09,2.66a2.25,2.25,0,0,0,2.34,2.18Z"/><path class="cls-3" d="M85.46,396a1.93,1.93,0,0,0,0,.24"/><path class="cls-10" d="M151,389.46c-2,1.46-3.87,3-5.74,4.67h0c-1.23.48-35.55,1.3-52.43,1.67a26.69,26.69,0,0,1,1.17-7.53c2.41-.44,19.75-3.62,20.34-4.69l.06-.14,1.61,6.3s5.22-.42,7.1-1.42c.81-.44,4.2-2.55,7.82-4.83h0C138.45,384.77,148.25,388.43,151,389.46Z"/><path class="cls-3" d="M92.77,395.81a.91.91,0,0,0,0,.17"/><path class="cls-3" d="M101.12,378.58l-.15.09"/><path class="cls-3" d="M335.78,367.31l-1.11,0"/><line class="cls-3" x1="76.13" y1="533.93" x2="76.12" y2="534.06"/><line class="cls-3" x1="87.26" y1="450.54" x2="87.24" y2="450.83"/><path class="cls-15" d="M110.25,451.17q-.8,2.58-1.52,5.24s-11.8-.56-21.84-.59l.35-5C95.57,451.06,110.25,451.17,110.25,451.17Z"/><path class="cls-14" d="M78.77,494.26l-2.64,39.67c-11.78-.12-24.11-.17-24.11-.17s-2.81,0-3.34,0c-.24,0,1.46-9,3.35-18.66,1.55-7.93,3.23-16.27,4.06-20.38h0c.34-1.61.53-2.56.53-2.56l2.79.27,5.7.54Z"/><path class="cls-14" d="M109.06,542.56s-7.87-7.54-12.19-8.1c-1.58-.21-8-.35-15.41-.46l2.73-39.29c9,.86,17.1,1.63,18.87,1.77A152.69,152.69,0,0,0,109.06,542.56Z"/><path class="cls-15" d="M80.93,462l-2.16,32.26L65.11,493s5.16-23.41,8.09-27.3C75.13,463.08,77.25,462.21,80.93,462Z"/><path class="cls-3" d="M78.91,494.27h-.14"/><path class="cls-15" d="M107.19,462.57a165.24,165.24,0,0,0-3.49,22.16q-.54,5.92-.64,11.75c-1.77-.14-9.84-.91-18.87-1.77L86.47,462,88,462C96.45,462.32,107.19,462.57,107.19,462.57Z"/><path class="cls-3" d="M84.19,494.71h-.12"/><path class="cls-3" d="M103.41,496.5l-.35,0"/><path class="cls-7" d="M88.93,577.41a19.22,19.22,0,0,1-1.68,7.91c-2.56,5.65-7.77,9.51-13.78,9.51a15,15,0,0,1-12.67-7.45,18.82,18.82,0,0,1-2.79-10,19.19,19.19,0,0,1,.18-2.64c.07,0,.07,0,0,0C59.34,566.38,65.74,560,73.47,560a13.87,13.87,0,0,1,6.1,1.41C85.07,564.07,88.93,570.23,88.93,577.41Z"/><path class="cls-3" d="M58.19,574.77s0,0,0,0S58.26,574.77,58.19,574.77Z"/><path class="cls-8" d="M109.06,542.56s-7.87-7.54-12.19-8.1c-1.58-.21-8-.35-15.41-.46l2.73-39.29L86.47,462,88,462c8.49.29,19.23.54,19.23.54q.72-3.12,1.54-6.16s-11.8-.56-21.84-.59l.35-5a50.2,50.2,0,0,1-5.55-.29l-.36,5.34a48.91,48.91,0,0,0-7,.53c-6.56,1.31-12.7,21-14.92,36l5.7.54s5.16-23.41,8.09-27.3c1.93-2.58,4-3.45,7.73-3.66l-2.16,32.26-2.64,39.67c-11.78-.12-24.11-.17-24.11-.17s-2.81,0-3.34,0l-3.15,11.46c-1.49,5.45-3.33,12.17-5.09,18.68h0l0,.05c0,.11-.09.36-.18.72l-.14.52,0,.09c0,.2-.1.4-.17.62s-.07.32-.12.49-.09.36-.15.56-.1.39-.16.59-.1.42-.16.64c-.11.38-.21.78-.32,1.19-.05.22-.11.44-.17.67-.56,2.1-1.19,4.48-1.76,6.68-.11.41-.22.8-.32,1.19-.65,2.47-1.21,4.59-1.49,5.62,0,.11,0,.21-.07.3s-.07.26-.09.32a.11.11,0,0,0,0,.05h0a35.46,35.46,0,0,0-.91,4.1c.21,1.26,3.76,2.82,5.12,2a20,20,0,0,0,1.59-4.46c1-3.47,2.42-8.66,3.89-14.32,2.29-8.83,4.77-18.8,6.38-25.31,1-4.26,1.72-7,1.72-7H75.14L73.47,560a13.87,13.87,0,0,1,6.1,1.41l1.78-22.16c10.47.24,12.93,1.38,15.66,1.75,3,.41,15.38,12,15.76,12.41C111.4,549.9,110.15,546.29,109.06,542.56Z"/><line class="cls-3" x1="79.57" y1="561.41" x2="79.57" y2="561.48"/><path class="cls-10" d="M39,569.25c-.83,3.11-1.61,6.06-2.3,8.66-.56,2.14-1.06,4.05-1.45,5.63,0,.11,0,.21-.07.3s-.07.26-.09.32a.11.11,0,0,0,0,.05h0S5.43,573,4.67,571.09c-1-2.37,1.26-5.85,3.62-6.13,1.11-.13,8.33-.27,15.64-.43C24.29,564.69,33.78,569,39,569.25Z"/><path class="cls-3" d="M39.47,567.55c0,.21-.1.42-.16.64-.11.38-.21.78-.32,1.19-.05.22-.11.44-.17.67-.56,2.1-1.19,4.48-1.76,6.68-.11.41-.22.8-.32,1.19-.65,2.47-1.21,4.59-1.49,5.62.39-1.58.89-3.49,1.45-5.63.69-2.6,1.47-5.55,2.3-8.66C39.16,568.69,39.31,568.12,39.47,567.55Z"/><path class="cls-10" d="M60.8,587.38H47.15a36.35,36.35,0,0,1-6.28-1.53c1-3.47,2.42-8.66,3.89-14.32,1.46.39,12.59,3.22,13.43,3.24a19.19,19.19,0,0,0-.18,2.64A18.82,18.82,0,0,0,60.8,587.38Z"/><path class="cls-3" d="M40.87,585.85l-.13,0"/><path class="cls-15" d="M35.73,542.56c-5-1.27-11.68,3-13.29,8.05s1.48,13.92,1.48,13.92h0c.36.16,9.85,4.51,15.07,4.72.16-.56.31-1.13.47-1.7.06-.2.11-.4.16-.59s.1-.39.15-.56.09-.34.12-.49.11-.41.17-.62l0-.09.14-.52c.09-.36.16-.61.18-.72l0-.05h0c1.76-6.51,3.6-13.23,5.09-18.68C45.53,545.22,40.74,543.83,35.73,542.56Z"/><line class="cls-3" x1="12.02" y1="568.48" x2="36.74" y2="577.92"/><path class="cls-3" d="M44.76,571.53l-.16,0"/><path class="cls-15" d="M75.14,539.2,73.47,560c-7.73,0-14.13,6.38-15.27,14.72,0,0,0,0,0,0-.84,0-12-2.85-13.43-3.24,2.29-8.83,4.77-18.8,6.38-25.31,0,0,7.26-1.63,8-7Z"/><path class="cls-10" d="M131,584.23c-3.49.11-39.89,1.2-43.72,1.09a19.22,19.22,0,0,0,1.68-7.91c0-7.18-3.86-13.34-9.36-16l1.78-22.16c10.47.24,12.93,1.38,15.66,1.75,3,.41,15.38,12,15.76,12.41h0A106.76,106.76,0,0,0,131,584.23Z"/><path class="cls-3" d="M131.23,584.22H131"/><path class="cls-3" d="M87.25,585.32H87"/><path class="cls-1" d="M185.74,493.19c-.7,7.87-5.76,13.83-11.29,13.34a7.53,7.53,0,0,1-3.92-1.55c-3.35-2.51-5.37-7.75-4.85-13.57.71-7.87,5.77-13.84,11.31-13.34,4.66.41,8.19,5.29,8.75,11.52A19.67,19.67,0,0,1,185.74,493.19Z"/><line class="cls-3" x1="174.24" y1="400.1" x2="176.98" y2="478.07"/><line class="cls-3" x1="127.25" y1="547.37" x2="170.53" y2="504.98"/><path class="cls-3" d="M232.89,550.16c-2.39-3.72-47.15-57-47.15-57"/><path class="cls-3" d="M240.52,439.09c-4.23,4.56-54.78,50.5-54.78,50.5"/><line class="cls-3" x1="119.09" y1="473.58" x2="165.68" y2="491.4"/><path class="cls-3" d="M342.27,496.89h0c.77-.7,49.66-45.5,50-46"/><line class="cls-3" x1="384.59" y1="560.19" x2="342.27" y2="507.95"/><line class="cls-3" x1="279.04" y1="557.37" x2="331.87" y2="507.95"/><line class="cls-3" x1="330.86" y1="498.47" x2="297.58" y2="483.83"/><line class="cls-3" x1="339.72" y1="411.56" x2="337.07" y2="494.27"/><path class="cls-7" d="M279.39,288.2c-.12-1.46-2-.13-2.58-2.07-.69-2.37,1.4-8.78,2.93-9.33,1-.38,4.11-.05,6.43.79h0C286.22,277.93,287.54,287.36,279.39,288.2Z"/><path class="cls-8" d="M254.3,267.23a45.82,45.82,0,0,0-6.44,7.73s-8.23-.81-10.87,3c-2.34,3.33-5,5.39-5.6,13.56-.08,1.07-.12,2.24-.12,3.55l-8.07-1.52c.83-12.12,3.89-18.79,10.58-23.39a19.86,19.86,0,0,1,8.36-2.79A53.51,53.51,0,0,1,254.3,267.23Z"/><path class="cls-4" d="M252.45,299l-21.18-4c0-1.31,0-2.48.12-3.55,1.1.07,10.05.69,12.14,1.34C244.58,293.15,248.44,295.89,252.45,299Z"/><path class="cls-7" d="M266.79,304.65a26.73,26.73,0,0,0-2.57-2.79c-5.35-5.26-16.36-14.61-16.36-14.61v-6.7c-.25-.18-.49-.37-.71-.55-1.16-.91-.67-2.79.71-5,0,0-8.23-.81-10.87,3-2.34,3.33-5,5.39-5.6,13.56,1.1.07,10.05.69,12.14,1.34,1.05.34,4.91,3.08,8.92,6.19h0c4.43,3.45,9,7.32,10.29,8.85,2.36,2.93,2.51,6.55,5.43,5.85S269.16,308,266.79,304.65Z"/><path class="cls-8" d="M347.6,284.84c-.52,2.16-1,5.07-1.43,8,0,0-8.39-.57-10.39,18.31-2.08-.39-4.89-.84-8.19-1.31h0C332,279.62,347.15,284.69,347.6,284.84Z"/><path class="cls-10" d="M348.72,281.65a11.46,11.46,0,0,0-1.12,3.19c-.45-.15-15.56-5.22-20,25-21.22-3.07-62.9-7.48-63.37-7.94-5.35-5.26-16.36-14.61-16.36-14.61v-6.7c4,3.14,10.68,8.14,14.61,9.06,4.18,1,15.74,3.62,16.72,0a4.3,4.3,0,0,0,.2-1.41c8.15-.84,6.83-10.27,6.78-10.6a5.45,5.45,0,0,1,2.49,1.56c1.39,1.95,7.66.15,11.55-3.61,2.74-2.64,11.8-13.44,19.43-23C321.12,253.72,343.63,271.71,348.72,281.65Z"/><path class="cls-3" d="M348.82,281.84a1.74,1.74,0,0,0-.1-.19"/><path class="cls-3" d="M319.64,252.56l-.07-.07"/><path class="cls-11" d="M345.48,303.26a10.61,10.61,0,0,0,.69,2.33l-6.47,6.65c-.09-.28-1.52-.67-3.92-1.12,2-18.88,10.39-18.31,10.39-18.31C345.56,297.27,345.22,301.7,345.48,303.26Z"/><path class="cls-10" d="M86,389.21a46.22,46.22,0,0,0-.54,6.77l-1.89,0s-2.08,38.57-2.11,50.84c-2,0-16.61-.28-22-.28a30.31,30.31,0,0,1-10.71-2.39,56.91,56.91,0,0,1-11.58-6.24c-8.08-5.57,5.58,9.75,8.41,14.21s.51,22,0,28.68.51,30.09-2.24,30.09a26.68,26.68,0,0,1-4.15-.72c-6.89-1.54-19.62-5.14-22.63-7.08-3.9-2.51,5.85-32.31,6.41-38.78s-1-37.41,1.11-41.69,16.08-18.91,20.89-24.42S71,386.63,71,386.63c2.52,2.62,7.33,4.79,9.25,4.79S85.29,389.65,86,389.21Z"/><path class="cls-3" d="M86.15,389.12l-.15.09"/><path class="cls-5" d="M92.86,375.7c-2.52,1.91-5.62,5.77-6.86,13.51-.71.44-3.75,2.21-5.77,2.21s-6.73-2.17-9.25-4.79a6.83,6.83,0,0,1-1.2-1.6C68.13,381.83,92.13,375.88,92.86,375.7Z"/><path class="cls-3" d="M92.88,375.69h0"/><path class="cls-3" d="M113.4,378.23l-.06-.15"/><path class="cls-3" d="M93.94,388.28l-.28.05"/><line class="cls-3" x1="114.34" y1="383.45" x2="114.28" y2="383.2"/><path class="cls-5" d="M114.34,383.45l-.06.14c-.59,1.07-17.93,4.25-20.34,4.69,2-6.54,6.17-9.14,7-9.61h0l12.43-.44C113.65,379,114.74,382.27,114.34,383.45Z"/><path class="cls-11" d="M141.2,377.27c-.62.18-5.68,3.33-10.32,6.23h0c-3.62,2.28-7,4.39-7.82,4.83-1.88,1-7.1,1.42-7.1,1.42l-1.61-6.3c.4-1.18-.69-4.47-.94-5.22Z"/><path class="cls-3" d="M151.68,389.75l-.72-.29"/><path class="cls-3" d="M81.69,446.86h-.23"/><path class="cls-3" d="M45.53,431.53c-4.23-.83-14.81-12.81-15.37-6.68"/><path class="cls-15" d="M81.69,450.54l-.36,5.34a48.91,48.91,0,0,0-7,.53c-6.56,1.31-12.7,21-14.92,36l-2.79-.27s-.19,1-.53,2.56c-.33-3.34-4.54-23.77-5.32-28.08-.75-4.15-1.87-19.47-2.07-22.45a30.31,30.31,0,0,0,10.71,2.39c5.44,0,20,.24,22,.28C81.46,449.11,81.53,450.47,81.69,450.54Z"/><path class="cls-9" d="M56.09,494.71h0c-.83,4.11-2.51,12.45-4.06,20.38H39.14v-4.9a26.68,26.68,0,0,0,4.15.72c2.75,0,1.74-23.4,2.24-30.09s2.84-24.23,0-28.68S29,432.37,37.12,437.94a56.91,56.91,0,0,0,11.58,6.24c.2,3,1.32,18.3,2.07,22.45C51.55,470.94,55.76,491.37,56.09,494.71Z"/><path class="cls-3" d="M56.09,494.72a1.68,1.68,0,0,1,0,.42"/><path class="cls-3" d="M48.7,444.18c0-.32,0-.5,0-.5"/><path class="cls-3" d="M242.23,267.57a2.5,2.5,0,0,0-.09-.25"/><path class="cls-3" d="M230.33,255.79l-.16-.1"/><path class="cls-8" d="M240.52,439.08c-4.24,4.57-54.78,50.51-54.78,50.51-.56-6.23-4.09-11.11-8.75-11.52h0l-2.71-78a48.35,48.35,0,0,1,17.45-1.66C212.85,400.31,230.41,416.09,240.52,439.08Z"/><path class="cls-4" d="M177,478.07c-5.54-.49-10.59,5.47-11.3,13.34l-46.59-17.83c6.94-37.3,29-66.1,55.18-73.5Z"/><path class="cls-8" d="M170.53,505l-43.28,42.4c-8.07-17.08-11.92-38.45-9.89-61.21q.58-6.44,1.73-12.59l46.59,17.83C165.16,497.23,167.18,502.47,170.53,505Z"/><path class="cls-4" d="M232.88,550.16C218.8,573.5,197.5,587.71,175,585.71c-20.41-1.83-37.48-16.61-47.74-38.33L170.53,505a7.53,7.53,0,0,0,3.92,1.55c5.53.49,10.59-5.47,11.29-13.34C185.74,493.19,230.49,546.44,232.88,550.16Z"/><path class="cls-8" d="M249.35,498c-1.77,19.78-7.73,37.74-16.47,52.2-2.39-3.72-47.14-57-47.14-57a19.67,19.67,0,0,0,0-3.6s50.54-45.94,54.78-50.51C247.86,455.76,251.29,476.22,249.35,498Z"/><path class="cls-10" d="M331.87,508l-52.82,49.41c-7.73-14.7-12.05-32.87-11.7-52.42.24-1.83.43-3.67.6-5.54a166.48,166.48,0,0,0,.65-16.9c10.24.56,20.32,1,29,1.32h0l33.29,14.64a9.16,9.16,0,0,0-.89,3.95A8.73,8.73,0,0,0,331.87,508Z"/><path class="cls-11" d="M384.59,560.19C370.5,581.9,349.47,595,327.13,593.13c-20.28-1.71-37.43-15.45-48.08-35.77L331.87,508a6.65,6.65,0,0,0,5.2,2.62,6.72,6.72,0,0,0,5.21-2.61Z"/><path class="cls-10" d="M401.82,508.08c-1.68,19.87-8,37.84-17.23,52.11L342.28,508a9,9,0,0,0,0-11.08c.77-.7,49.66-45.5,50-46C399.91,467.06,403.6,487,401.82,508.08Z"/><path class="cls-10" d="M339.71,411.56l-2.64,82.71a7,7,0,0,0-6.21,4.2l-33.29-14.64c14.69.54,25.21.76,25.21.76s3.55-34.37,7.39-72.41A49.74,49.74,0,0,1,339.71,411.56Z"/><path class="cls-11" d="M392.26,450.88h0c-.32.5-49.21,45.3-50,46a6.69,6.69,0,0,0-5.21-2.61l2.64-82.71c.92,0,1.83.07,2.75.15C363.87,413.52,381.77,428.71,392.26,450.88Z"/><path class="cls-1" d="M346.06,502.42a11.12,11.12,0,0,1-2.4,7,8.52,8.52,0,0,1-6.59,3.29,8.42,8.42,0,0,1-6.58-3.31,11,11,0,0,1-2.4-7,11.44,11.44,0,0,1,1.13-5,8.86,8.86,0,0,1,7.85-5.3,8.49,8.49,0,0,1,6.59,3.29A11.1,11.1,0,0,1,346.06,502.42Z"/><path class="cls-15" d="M450.21,65.8c-.31.48-.77,1.13-1.32,1.88a66.46,66.46,0,0,1-7.08,8.12,13.38,13.38,0,0,1-3.71,2.66c-3.62,1.4-12.94-10.16-10.17-14.75,2.06-3.42,7-10.45,8.36-11.28.78-.47,2.76-.33,4.71.26a9.73,9.73,0,0,1,3.92,2.1C447,56.88,452,63,450.21,65.8Z"/><path class="cls-1" d="M268.56,480.35c0-.11,0-.22,0-.33,0-.52,0-1.06-.06-1.59s0-.81,0-1.22l-.09-1.76c-.09-1.53-.19-3-.32-4.54s-.29-3.12-.47-4.66c-.07-.61-.14-1.21-.22-1.81s-.15-1.2-.24-1.8-.13-.95-.21-1.42q-.13-1-.3-2c-.11-.66-.21-1.32-.33-2-.19-1.1-.39-2.2-.61-3.28s-.44-2.18-.69-3.24q-.48-2.14-1-4.26c-.11-.47-.24-.93-.36-1.39-.27-1-.55-2-.83-3-.19-.62-.37-1.23-.55-1.84-.42-1.37-.86-2.71-1.32-4.05-.22-.67-.45-1.33-.69-2-.73-2-1.52-4.06-2.34-6-.17-.42-.35-.84-.53-1.25l-.29-.66-.72-1.63c-.28-.61-.57-1.23-.86-1.83s-.58-1.22-.88-1.82c-.57-1.16-1.16-2.3-1.78-3.42-.35-.64-.7-1.27-1.06-1.9s-.62-1.1-1-1.65c-.22-.38-.44-.76-.68-1.12s-.45-.75-.68-1.12-.51-.82-.78-1.22-.61-.95-.92-1.42l-.1-.15-1-1.48-1.1-1.54c-.75-1-1.51-2-2.27-3-.38-.48-.76-.95-1.15-1.42l0,0-1.18-1.41c-.6-.7-1.2-1.38-1.82-2.06s-1.24-1.35-1.88-2l-1-1c-.65-.63-1.3-1.26-1.95-1.87l-1-.9c-.44-.4-.88-.79-1.33-1.17L230.59,390c-.45-.38-.91-.74-1.37-1.1l-1.39-1.06c-.94-.69-1.89-1.36-2.85-2-1.44-.95-2.91-1.86-4.4-2.7l-1.51-.82c-1-.53-2-1-3-1.5l-1.55-.7c-1.57-.67-3.15-1.27-4.76-1.8h0a59.31,59.31,0,0,0-13.48-2.82c-.54,0-1.11-.09-1.65-.12h-.06l-11.23.39h0c-11.41,1.5-22.36,6.26-32.29,13.66-2,1.46-3.87,3-5.74,4.67h0c-15.24,13.47-27.63,33.35-34.95,57q-.8,2.58-1.52,5.24-.83,3-1.54,6.16a165.24,165.24,0,0,0-3.49,22.16q-.54,5.92-.64,11.75a152.69,152.69,0,0,0,6,46.08c1.09,3.73,2.34,7.34,3.71,10.85h0A106.76,106.76,0,0,0,131,584.23c12,13.94,27.29,22.83,44.45,24.36,34.28,3.07,66.33-24.13,82.41-65.4l.33-.87c.22-.55.43-1.11.63-1.67s.42-1.13.61-1.7.43-1.18.63-1.78q1.59-4.65,2.9-9.5c.12-.47.25-.93.36-1.4s.29-1.06.42-1.61c.18-.71.35-1.42.52-2.13a.64.64,0,0,1,0-.07.39.39,0,0,1,0-.14c.05-.23.1-.46.16-.7l.18-.83c.07-.29.14-.58.19-.86.15-.64.28-1.27.41-1.92,0-.07,0-.14,0-.21v0c.13-.62.25-1.24.37-1.86s.24-1.29.35-1.94.21-1.16.3-1.74.24-1.39.35-2.09c.13-.86.25-1.72.37-2.59s.24-1.74.34-2.61c.24-1.83.43-3.67.6-5.54a166.48,166.48,0,0,0,.65-16.9v-.2C268.59,481.65,268.57,481,268.56,480.35ZM249.35,498c-1.77,19.78-7.73,37.74-16.47,52.2C218.8,573.5,197.5,587.71,175,585.71c-20.41-1.83-37.48-16.61-47.74-38.33-8.07-17.08-11.92-38.45-9.89-61.21q.58-6.44,1.73-12.59c8.43-45.35,39.2-78.15,72.63-75.16,21.13,1.89,38.69,17.67,48.8,40.66C247.86,455.76,251.29,476.22,249.35,498Z"/><path class="cls-16" d="M388.66,67.32s6.54-.27,9.75-4,3.93-9.92,3.28-12.48"/><path class="cls-16" d="M394.65,48.28s3.86,4.07,1.15,7.83a6.81,6.81,0,0,1-6.59,3"/><path class="cls-16" d="M344.09,189s7.52-.42,8.77,6.9"/><path class="cls-16" d="M261.36,218.65s5.66,9,15.68-2.92"/><path class="cls-16" d="M272.64,205.63s1.95,10.44-5.85,9.47"/><path class="cls-16" d="M239.53,194.52c-6.23-8,1.08-18.28,1.35-19,0,0,5.08-4.35,6,3.19"/><path class="cls-16" d="M237.81,182.15c.57.37,33.58,16.81,33.58,16.81"/><path class="cls-15" d="M45.45,431.94c-1.68-.33-4.15-2.2-6.76-4.19-2.92-2.21-6.22-4.7-7.51-4.15-.34.15-.54.58-.6,1.28l-.84-.07a2.16,2.16,0,0,1,1.11-2c1.73-.76,4.94,1.67,8.34,4.25,2.42,1.84,4.93,3.74,6.42,4Z"/></g></svg>