<svg id="分層-bg" xmlns="http://www.w3.org/2000/svg" viewBox="0 0 1122.44 378.24"><defs><style>.cls-1{fill:#a7b7aa;}.cls-2{fill:#859e8a;}.cls-3{fill:#717071;}.cls-4{fill:#dadbdb;}.cls-5{fill:#e5e5e5;}.cls-6{fill:#c8c8c9;}.cls-7{fill:#7a847c;}.cls-8{fill:#cbcbcb;}</style></defs><path class="cls-1" d="M436.63,137.47S550.53,38.24,594.75,36.39,766.54,131.7,713.9,142.71,471,141.62,436.63,137.47Z"/><path class="cls-2" d="M572.2,205.88s52.84-45.26,115-96.15c60-49.16,83.36-48.65,144.42,3.52,48.71,41.61,299.5,265,288.19,265h-365C597.34,321.72,555,216.76,572.2,205.88Z"/><path class="cls-3" d="M836.71,134.89c4.8,2.25,11.67.13,14.17-2.5s2-14.95.65-23.61-2.88-18.24-9.71-18.11-8.39,10.1-9.31,15.87S828.57,131.08,836.71,134.89Z"/><path class="cls-4" d="M845.73,121.54c-.2-.73-.56-.2-.92.95a16.67,16.67,0,0,1-1.63,3c-.39-4.49-1.08-7.6-1.26-4.79-.13,1.86-.36,4.54-.55,7.16a9.68,9.68,0,0,1-2.1-2.11c-1-1.51-1.41-2.1-1.68-1.47s1.57,3.51,2.16,4c.37.29,1,.89,1.5,1.31a40.51,40.51,0,0,0-.08,5.62c.29,2.95-.49,7.18,1.28,7.57,1.26.28,1-4.72,1-11.51,0-1.22,0-2.47-.11-3.68.31-.36.68-1,1.16-1.47A8.82,8.82,0,0,0,845.73,121.54Z"/><path class="cls-3" d="M804,114c4.8,2.24,11.67.13,14.17-2.5s2-15,.65-23.62-2.88-18.23-9.71-18.1-8.39,10.1-9.31,15.87S795.85,110.14,804,114Z"/><path class="cls-4" d="M813,100.59c-.2-.72-.56-.19-.92,1a16.46,16.46,0,0,1-1.64,3c-.38-4.49-1.07-7.6-1.26-4.79-.12,1.86-.36,4.54-.54,7.16a9.92,9.92,0,0,1-2.11-2.11c-1-1.51-1.41-2.1-1.67-1.48s1.57,3.51,2.16,4c.37.29,1,.89,1.5,1.31a40.5,40.5,0,0,0-.08,5.62c.29,2.95-.5,7.18,1.28,7.57,1.26.28,1-4.72,1-11.51,0-1.22,0-2.47-.11-3.68.31-.36.68-1,1.16-1.47A8.83,8.83,0,0,0,813,100.59Z"/><path class="cls-3" d="M581.28,50a6,6,0,0,0,6-1.07c1.06-1.11.84-6.37.28-10.06s-1.23-7.78-4.14-7.72-3.58,4.3-4,6.76S577.81,48.33,581.28,50Z"/><path class="cls-4" d="M585.12,44.26c-.08-.31-.23-.09-.39.4a6.55,6.55,0,0,1-.69,1.26c-.17-1.91-.46-3.24-.54-2,0,.79-.15,1.94-.24,3a4.2,4.2,0,0,1-.89-.9c-.45-.64-.6-.89-.71-.63s.66,1.5.92,1.69.44.38.64.56a18.36,18.36,0,0,0,0,2.4c.13,1.25-.21,3.06.55,3.23.53.12.42-2,.42-4.91,0-.52,0-1.06,0-1.57.13-.15.29-.42.49-.63A3.68,3.68,0,0,0,585.12,44.26Z"/><path class="cls-3" d="M597.28,42.54a6.06,6.06,0,0,0,6-1.06c1.06-1.12.84-6.38.28-10.07s-1.23-7.78-4.14-7.72-3.58,4.3-4,6.76S593.81,40.92,597.28,42.54Z"/><path class="cls-4" d="M601.13,36.85c-.09-.31-.24-.09-.4.4a6.27,6.27,0,0,1-.69,1.26c-.17-1.91-.46-3.24-.54-2,0,.79-.15,1.94-.23,3.05a4,4,0,0,1-.9-.9c-.45-.64-.6-.89-.71-.63s.67,1.5.92,1.69l.64.56a18.37,18.37,0,0,0,0,2.4c.13,1.25-.21,3.06.55,3.23.54.12.42-2,.42-4.91,0-.52,0-1.06,0-1.57.13-.15.29-.42.49-.63A3.8,3.8,0,0,0,601.13,36.85Z"/><path class="cls-5" d="M621.28,58.35a1,1,0,0,1-.34-.06L617.77,57a.88.88,0,1,1,.66-1.64l3.18,1.29a.88.88,0,0,1,.48,1.15A.89.89,0,0,1,621.28,58.35Z"/><path class="cls-5" d="M624.45,62.68a1,1,0,0,1-.33-.06l-3.18-1.29a.89.89,0,0,1,.67-1.64L624.79,61a.88.88,0,0,1-.34,1.7Z"/><path class="cls-5" d="M615.33,60.46a1,1,0,0,1-.33-.07l-3.17-1.29a.88.88,0,1,1,.66-1.63l3.18,1.29a.86.86,0,0,1,.48,1.14A.88.88,0,0,1,615.33,60.46Z"/><path class="cls-5" d="M619.69,64.9a.75.75,0,0,1-.33-.07l-3.18-1.29a.88.88,0,1,1,.66-1.63L620,63.2a.88.88,0,0,1,.48,1.15A.87.87,0,0,1,619.69,64.9Z"/><path class="cls-5" d="M631.31,62A1,1,0,0,1,631,62l-3.18-1.29a.88.88,0,0,1-.48-1.15.86.86,0,0,1,1.14-.48l3.18,1.29a.88.88,0,0,1-.33,1.7Z"/><path class="cls-5" d="M630.71,68.33a.93.93,0,0,1-.33-.07L627.2,67a.89.89,0,0,1-.49-1.15.88.88,0,0,1,1.15-.48L631,66.63a.88.88,0,0,1-.33,1.7Z"/><path class="cls-5" d="M615.87,69a1,1,0,0,1-.33-.06l-3.18-1.29A.89.89,0,0,1,613,66l3.17,1.29a.88.88,0,0,1-.33,1.7Z"/><path class="cls-5" d="M636.56,78.6a.75.75,0,0,1-.33-.07l-3.18-1.29a.89.89,0,0,1-.49-1.15.88.88,0,0,1,1.15-.48l3.18,1.29a.88.88,0,0,1-.33,1.7Z"/><path class="cls-5" d="M619.69,76a.92.92,0,0,1-.33-.06l-3.18-1.29a.88.88,0,1,1,.66-1.64L620,74.34a.88.88,0,0,1,.48,1.15A.87.87,0,0,1,619.69,76Z"/><path class="cls-5" d="M639.77,69a1,1,0,0,1-.34-.06l-3.17-1.29a.88.88,0,1,1,.66-1.64l3.18,1.29a.88.88,0,0,1,.48,1.15A.89.89,0,0,1,639.77,69Z"/><path class="cls-5" d="M624.9,72.53a1,1,0,0,1-.33-.06l-3.18-1.29a.88.88,0,0,1,.66-1.64l3.18,1.29a.89.89,0,0,1,.49,1.15A.87.87,0,0,1,624.9,72.53Z"/><path class="cls-5" d="M641.73,76a1,1,0,0,1-.34-.06l-3.17-1.29a.88.88,0,1,1,.66-1.64l3.18,1.29a.88.88,0,0,1,.48,1.15A.89.89,0,0,1,641.73,76Z"/><path class="cls-5" d="M648.7,72.53a1,1,0,0,1-.33-.06l-3.18-1.29a.89.89,0,0,1,.67-1.64L649,70.83a.88.88,0,0,1-.34,1.7Z"/><path class="cls-5" d="M639.77,64.9a.83.83,0,0,1-.34-.07l-3.17-1.29a.88.88,0,0,1-.49-1.15.88.88,0,0,1,1.15-.48l3.18,1.29a.88.88,0,0,1,.48,1.15A.89.89,0,0,1,639.77,64.9Z"/><path class="cls-5" d="M633.38,73.82a1,1,0,0,1-.33-.06l-3.18-1.29a.88.88,0,1,1,.66-1.64l3.18,1.29a.89.89,0,0,1,.49,1.15A.87.87,0,0,1,633.38,73.82Z"/><path class="cls-6" d="M726.1,117.75a1.4,1.4,0,0,1-1.53-.77,1.41,1.41,0,0,1,.65-1.87l5.15-2.48a1.4,1.4,0,1,1,1.22,2.51l-5.15,2.49A1.16,1.16,0,0,1,726.1,117.75Z"/><path class="cls-6" d="M713.14,126.54a1.4,1.4,0,0,1-.87-2.63l5.15-2.49a1.4,1.4,0,1,1,1.21,2.52l-5.15,2.49A1.35,1.35,0,0,1,713.14,126.54Z"/><path class="cls-6" d="M723.51,126.13a1.4,1.4,0,0,1-1.53-.77,1.41,1.41,0,0,1,.65-1.87l5.15-2.49a1.4,1.4,0,0,1,1.87.66,1.38,1.38,0,0,1-.65,1.86L723.85,126A1.54,1.54,0,0,1,723.51,126.13Z"/><path class="cls-6" d="M733,108.54a1.4,1.4,0,0,1-.87-2.63l5.15-2.49a1.4,1.4,0,1,1,1.22,2.52l-5.16,2.49A1.35,1.35,0,0,1,733,108.54Z"/><path class="cls-6" d="M740.08,116.33a1.4,1.4,0,0,1-.88-2.63l5.16-2.49a1.38,1.38,0,0,1,1.86.65,1.4,1.4,0,0,1-.65,1.87l-5.15,2.49A1.35,1.35,0,0,1,740.08,116.33Z"/><path class="cls-6" d="M751,105.84a1.4,1.4,0,0,1-.87-2.63l5.15-2.49a1.4,1.4,0,0,1,1.22,2.52l-5.15,2.49A1.42,1.42,0,0,1,751,105.84Z"/><path class="cls-6" d="M738.79,128.22a1.4,1.4,0,0,1-.88-2.63l5.15-2.49a1.4,1.4,0,0,1,1.22,2.52l-5.15,2.49A1.5,1.5,0,0,1,738.79,128.22Z"/><path class="cls-6" d="M765.42,98.77a1.4,1.4,0,0,1-.87-2.63l5.15-2.49a1.4,1.4,0,0,1,1.87.65,1.41,1.41,0,0,1-.65,1.87l-5.15,2.49A1.42,1.42,0,0,1,765.42,98.77Z"/><path class="cls-6" d="M749.87,119.17a1.4,1.4,0,0,1-.87-2.63l5.15-2.49a1.4,1.4,0,1,1,1.21,2.52l-5.15,2.49A1.35,1.35,0,0,1,749.87,119.17Z"/><path class="cls-3" d="M713.91,95.07c3.64,1.71,8.85.1,10.74-1.88s1.49-11.34.5-17.9S723,61.47,717.79,61.57s-6.36,7.66-7.06,12S707.75,92.19,713.91,95.07Z"/><path class="cls-4" d="M720.75,85c-.15-.55-.43-.15-.7.72a11.92,11.92,0,0,1-1.24,2.24c-.29-3.4-.81-5.76-.95-3.63-.09,1.41-.27,3.44-.42,5.43a7.48,7.48,0,0,1-1.59-1.6c-.79-1.15-1.07-1.59-1.27-1.12s1.19,2.66,1.64,3c.28.22.79.67,1.14,1a31.59,31.59,0,0,0-.07,4.25c.23,2.24-.37,5.44,1,5.74,1,.21.75-3.58.75-8.72,0-.93,0-1.88-.09-2.79.24-.27.52-.75.88-1.12A6.59,6.59,0,0,0,720.75,85Z"/><path class="cls-7" d="M.29,378.24S271.82,29.43,437.73,24.58s429,353.66,429,353.66Z"/><path class="cls-8" d="M645.84,264a2,2,0,0,1-1-3.79l8.45-4.65a2,2,0,1,1,1.95,3.54l-8.46,4.65A2,2,0,0,1,645.84,264Z"/><path class="cls-8" d="M661.17,255.3a2,2,0,0,1-1-3.79l8.46-4.65a2,2,0,0,1,2,3.54l-8.46,4.65A2,2,0,0,1,661.17,255.3Z"/><path class="cls-8" d="M672.69,260a2,2,0,0,1-1-3.79l8.46-4.66a2,2,0,1,1,2,3.54l-8.46,4.66A2,2,0,0,1,672.69,260Z"/><path class="cls-8" d="M655.57,268.64a2,2,0,0,1-1.77-1.05,2,2,0,0,1,.79-2.75l8.46-4.65a2,2,0,1,1,2,3.54l-8.46,4.66A2,2,0,0,1,655.57,268.64Z"/><path class="cls-8" d="M638.23,281.49a2,2,0,0,1-1-3.79l8.46-4.65a2,2,0,1,1,1.95,3.54l-8.46,4.65A2,2,0,0,1,638.23,281.49Z"/><path class="cls-8" d="M625.26,277.69a2,2,0,0,1-1-3.79l8.45-4.65a2,2,0,1,1,2,3.54l-8.46,4.65A2,2,0,0,1,625.26,277.69Z"/><path class="cls-8" d="M636.5,292.93a2,2,0,0,1-1-3.8l8.46-4.65a2,2,0,1,1,1.95,3.54l-8.46,4.66A2,2,0,0,1,636.5,292.93Z"/><path class="cls-8" d="M666.44,309.62a2,2,0,0,1-1-3.8l8.46-4.65a2,2,0,0,1,2.75.8,2,2,0,0,1-.8,2.74l-8.46,4.65A2,2,0,0,1,666.44,309.62Z"/><path class="cls-8" d="M625.59,315.56a2,2,0,0,1-1-3.79l8.46-4.65a2,2,0,1,1,1.95,3.54l-8.46,4.65A2,2,0,0,1,625.59,315.56Z"/><path class="cls-8" d="M644.39,321.29a2,2,0,0,1-1-3.79l8.46-4.65a2,2,0,0,1,2.75.8,2,2,0,0,1-.8,2.74L645.36,321A2,2,0,0,1,644.39,321.29Z"/><path class="cls-8" d="M647.12,305.27a2,2,0,0,1-1-3.79l8.46-4.66a2,2,0,0,1,1.95,3.55L648.1,305A2,2,0,0,1,647.12,305.27Z"/><path class="cls-8" d="M618.27,290.6a2,2,0,0,1-1-3.79l8.46-4.66a2,2,0,0,1,2,3.55l-8.46,4.65A2,2,0,0,1,618.27,290.6Z"/><path class="cls-8" d="M622.5,303.62a2,2,0,0,1-1-3.8l8.46-4.65a2,2,0,0,1,2.75.8,2,2,0,0,1-.8,2.74l-8.46,4.66A2,2,0,0,1,622.5,303.62Z"/><path class="cls-8" d="M608.37,302.63a2,2,0,0,1-1-3.79l8.46-4.65a2,2,0,1,1,1.95,3.54l-8.46,4.65A2,2,0,0,1,608.37,302.63Z"/><path class="cls-8" d="M653.38,286a2,2,0,0,1-1-3.8l8.46-4.65a2,2,0,1,1,1.95,3.54l-8.46,4.66A2,2,0,0,1,653.38,286Z"/><path class="cls-8" d="M631,264a2,2,0,0,1-1-3.79l8.46-4.65a2,2,0,1,1,1.95,3.54l-8.46,4.65A2,2,0,0,1,631,264Z"/><path class="cls-8" d="M601.28,184.11a1.51,1.51,0,0,1-.73-2.84l6.33-3.49a1.52,1.52,0,1,1,1.46,2.66L602,183.92A1.47,1.47,0,0,1,601.28,184.11Z"/><path class="cls-8" d="M592.78,182.37a1.52,1.52,0,0,1-.73-2.85l6.34-3.48a1.51,1.51,0,0,1,1.46,2.65l-6.34,3.49A1.59,1.59,0,0,1,592.78,182.37Z"/><path class="cls-8" d="M590.71,190a1.53,1.53,0,0,1-1.33-.79,1.51,1.51,0,0,1,.6-2l6.34-3.49a1.51,1.51,0,1,1,1.45,2.65l-6.33,3.49A1.47,1.47,0,0,1,590.71,190Z"/><path class="cls-8" d="M602.27,190.6a1.52,1.52,0,0,1-.73-2.84l6.34-3.48a1.51,1.51,0,0,1,1.46,2.65L603,190.41A1.47,1.47,0,0,1,602.27,190.6Z"/><path class="cls-8" d="M579.43,188.86a1.51,1.51,0,0,1-.73-2.84l6.34-3.48a1.51,1.51,0,0,1,1.46,2.65l-6.34,3.48A1.47,1.47,0,0,1,579.43,188.86Z"/></svg>