<svg xmlns="http://www.w3.org/2000/svg" viewBox="0 0 1512 910"><defs><style>.cls-1{fill:#fff;}.cls-2,.cls-3,.cls-4,.cls-5{fill:none;stroke:#fff;stroke-linecap:round;stroke-linejoin:round;stroke-width:4px;}.cls-2{stroke-dasharray:14.66 14.66;}.cls-3{stroke-dasharray:19.51 19.51;}.cls-5{stroke-dasharray:26.02 26.02;}.cls-6{fill:#b2b2b2;}.cls-7{fill:#ededee;}.cls-8{fill:#8aba62;}.cls-9{fill:#c8c8c9;}.cls-10{fill:#6e7f72;}.cls-11{fill:#dadbdb;}.cls-12{fill:#9d9d9e;}.cls-13{fill:#cbcbcb;}</style></defs><g id="主圖"><circle class="cls-1" cx="281.59" cy="188.89" r="25.04"/><path class="cls-2" d="M328.28,188.89a46.69,46.69,0,0,1-46.69,46.69c-61.93-2.46-61.91-90.92,0-93.37a46.68,46.68,0,0,1,46.69,46.68Z"/><path class="cls-3" d="M356.11,188.89a74.52,74.52,0,0,1-74.52,74.52c-98.85-3.92-98.82-145.13,0-149a74.52,74.52,0,0,1,74.52,74.52Z"/><path class="cls-4" d="M268.48,287.27a97.36,97.36,0,0,1-12.26-2.42"/><path class="cls-5" d="M232.21,275a99.25,99.25,0,1,1,61.7,12.38"/><path class="cls-4" d="M280.94,288.13a100.39,100.39,0,0,1-12.46-.86"/><path class="cls-6" d="M980,401s10.27-1.88,15.51,4a11.8,11.8,0,0,1,11.31-7.54,11.87,11.87,0,0,0-12.78,2.3S984.75,396.61,980,401Z"/><path class="cls-6" d="M1014.47,424.12s10.44.22,14.39,7a11.81,11.81,0,0,1,12.6-5.11,11.86,11.86,0,0,0-13-.31S1020,420.76,1014.47,424.12Z"/><path class="cls-6" d="M1368.24,353.34s9.63,3.15,11.38,10.58a11.46,11.46,0,0,1,13.14-1.18,11.51,11.51,0,0,0-12-4S1374.3,351.78,1368.24,353.34Z"/><path class="cls-6" d="M1438.26,418.63s9.63,3.15,11.38,10.58a11.46,11.46,0,0,1,13.14-1.18,11.5,11.5,0,0,0-12-4S1444.32,417.07,1438.26,418.63Z"/><path class="cls-1" d="M1453.21,665.09c-50.39-14.17-83.57-27.05-46.7-47.43s-34.38-37.48-73.54-33.36-187,1.38-291.16-12.81-214.74,0-214.74,0c-8.29.94-4.38,5.26-3,5.49s7,1.75-2.36,5,8.21,7.75,18.16,11.06,12.77,5.69,5.34,6.34-4.91,8,34.84,35.76c3.41,2.38,8.7,4.45,14.3,7.13,55.81,51.41,127.48,111.51,136.84,111.51,15.59,0,155.42,24.09,193.64,35.17,53.23,15.43,186.51,2.06,136.38-22.08-69-33.24-45.64-30,47.76-30S1503.59,679.27,1453.21,665.09Z"/><path class="cls-7" d="M1225.07,576.64c1.87,1.19,3.46,2.25,5,2s1.73-1.44,3.22-.44,2.79,1.54,4.48.84,2.48-2.85,3.92-1.88,1.74-.54-.31-1-2.28-.16-4.27.72-3.37-.71-4.63-.83-1.68,1.73-3.69.94-5.36-2.21-3.94-.56"/><path class="cls-8" d="M1325.86,414.75c-.09-.17-9.86-17.09-19.63-33.8-5.74-9.82-10.36-17.64-13.73-23.26-6.8-11.33-6.92-11.33-8.07-11.33a1.64,1.64,0,0,0-1.61,1.58c0,1.88,21.29,62.91,34,99.12a1.57,1.57,0,0,0,1.49,1.06h.11a1.59,1.59,0,0,0,1.45-1.27l6.16-31A1.58,1.58,0,0,0,1325.86,414.75Z"/><path class="cls-8" d="M1427.86,479.7c-1.57-1-64.67-15.11-102.14-23.41a1.59,1.59,0,0,0-1.42,2.71l23.07,21.59a1.65,1.65,0,0,0,1,.43c.56,0,56.2,1.83,73.48,1.83h.12c5.43,0,6.13,0,6.53-1.34A1.64,1.64,0,0,0,1427.86,479.7Z"/><path class="cls-9" d="M1300,455.27a17.2,17.2,0,0,1,4.76-12h-16a1.63,1.63,0,0,0-.93.29c-.2.15-5,3.72-5,12.57s4.22,10.85,4.7,11a1.6,1.6,0,0,0,.57.11h16.67A17.2,17.2,0,0,1,1300,455.27Z"/><path class="cls-9" d="M1294.92,484.07c-1.77,45.65-5.13,159.89-5.59,175.57a1.54,1.54,0,0,0,.44,1.15,1.58,1.58,0,0,0,1.14.48h14.9a1.58,1.58,0,0,0,1.58-1.58V472.1Z"/><path class="cls-9" d="M1315.3,443.27c-6.11,0-11.07,5.38-11.07,12s5,12,11.07,12,11.06-5.38,11.06-12S1321.4,443.27,1315.3,443.27Z"/><path class="cls-8" d="M1307.54,463.19l-30.76,7.25a1.55,1.55,0,0,0-.93.63c-.11.16-11.47,16.08-22.62,31.9-6.55,9.31-11.75,16.76-15.46,22.15-7.51,10.93-7.46,11-6.91,12.1a1.63,1.63,0,0,0,1.42.87h0a1.74,1.74,0,0,0,.64-.13c1.73-.74,48.4-45.48,76.07-72.08a1.6,1.6,0,0,0,.29-1.9A1.58,1.58,0,0,0,1307.54,463.19Z"/><path class="cls-9" d="M1176.39,474.61a12.19,12.19,0,0,1,3.37-8.5h-11.3a1.17,1.17,0,0,0-.65.21c-.15.11-3.58,2.63-3.58,8.89s3,7.68,3.33,7.81a1.1,1.1,0,0,0,.4.08h11.8A12.19,12.19,0,0,1,1176.39,474.61Z"/><path class="cls-8" d="M1218.72,470.57c.08-.11,8.35-11.19,16.48-22.22,4.77-6.48,8.56-11.67,11.26-15.44,5.46-7.59,5.43-7.67,5.11-8.42a1.16,1.16,0,0,0-1.48-.6c-1.24.49-34.93,31.45-54.9,49.86a1.12,1.12,0,0,0-.27,1.27l0,.07a1.13,1.13,0,0,0,1.23.58l21.87-4.67A1.12,1.12,0,0,0,1218.72,470.57Z"/><path class="cls-8" d="M1205.07,555.06c.23-1.31-8.29-46.27-13.39-72.95a1.1,1.1,0,0,0-1-.9,1.13,1.13,0,0,0-1.15.73L1182,503a1.13,1.13,0,0,0,0,.79c.15.37,14.55,37,19.39,48.27l0,.07c1.52,3.54,1.72,4,2.7,3.88A1.18,1.18,0,0,0,1205.07,555.06Z"/><path class="cls-8" d="M1182.1,472.23l-13.32-18a1.14,1.14,0,0,0-.67-.42c-.13,0-13.66-3-27.07-5.77-7.88-1.66-14.18-2.95-18.72-3.85-9.21-1.82-9.25-1.76-9.8-1.1a1.14,1.14,0,0,0-.17,1.16h0a1.15,1.15,0,0,0,.27.38c1,.92,43.11,18.73,68.15,29.26a1.13,1.13,0,0,0,1.31-.34A1.1,1.1,0,0,0,1182.1,472.23Z"/><path class="cls-9" d="M1173.18,486.52c-1.24,32.31-4,121.63-4.35,132.72a1.19,1.19,0,0,0,.32.82,1.15,1.15,0,0,0,.81.34h10.54a1.13,1.13,0,0,0,1.12-1.13V486.52Z"/><path class="cls-9" d="M1187.21,466.11c-4.32,0-7.83,3.81-7.83,8.5s3.51,8.49,7.83,8.49,7.84-3.81,7.84-8.49S1191.53,466.11,1187.21,466.11Z"/><path class="cls-9" d="M1007.3,506.65a5.66,5.66,0,0,1,1.57-4h-5.26a.57.57,0,0,0-.31.1,5,5,0,0,0-1.66,4.14c0,2.95,1.39,3.57,1.55,3.63a.41.41,0,0,0,.19,0h5.49A5.66,5.66,0,0,1,1007.3,506.65Z"/><path class="cls-8" d="M1027,504.77s3.88-5.21,7.66-10.34c2.23-3,4-5.44,5.25-7.19,2.54-3.53,2.52-3.57,2.37-3.92a.54.54,0,0,0-.68-.28c-.58.23-16.26,14.64-25.55,23.21a.51.51,0,0,0-.13.59l0,0a.51.51,0,0,0,.57.27l10.18-2.17A.58.58,0,0,0,1027,504.77Z"/><path class="cls-8" d="M1020.64,544.08c.11-.61-3.85-21.53-6.23-33.94a.51.51,0,0,0-.47-.42.52.52,0,0,0-.53.34l-3.52,9.79a.52.52,0,0,0,0,.37c.07.17,6.77,17.24,9,22.46l0,0c.71,1.64.8,1.86,1.25,1.8A.53.53,0,0,0,1020.64,544.08Z"/><path class="cls-8" d="M1010,505.54l-6.2-8.36a.58.58,0,0,0-.31-.2c-.07,0-6.36-1.37-12.6-2.68-3.67-.77-6.6-1.38-8.71-1.79-4.29-.85-4.31-.82-4.56-.52a.53.53,0,0,0-.08.55h0a.71.71,0,0,0,.12.18c.45.42,20.06,8.71,31.72,13.61a.52.52,0,0,0,.61-.16A.52.52,0,0,0,1010,505.54Z"/><path class="cls-9" d="M1005.81,512.19c-.58,15-1.88,56.6-2,61.76a.54.54,0,0,0,.15.38.52.52,0,0,0,.37.16h4.91a.52.52,0,0,0,.52-.52V512.19Z"/><path class="cls-9" d="M1012.34,502.69a4,4,0,1,0,3.64,4A3.82,3.82,0,0,0,1012.34,502.69Z"/><path class="cls-8" d="M1089.58,474.26c0-.08-4.66-8.07-9.27-16-2.71-4.64-4.89-8.33-6.48-11-3.21-5.35-3.27-5.35-3.81-5.35a.77.77,0,0,0-.76.75c0,.88,10,29.7,16,46.79a.76.76,0,0,0,.71.5h0a.73.73,0,0,0,.68-.6l2.91-14.63A.72.72,0,0,0,1089.58,474.26Z"/><path class="cls-8" d="M1137.73,504.92c-.74-.49-30.53-7.13-48.22-11.05a.75.75,0,0,0-.82.38.73.73,0,0,0,.15.89l10.89,10.2a.8.8,0,0,0,.49.2c.26,0,26.53.86,34.69.86h0c2.57,0,2.9,0,3.09-.63A.77.77,0,0,0,1137.73,504.92Z"/><path class="cls-9" d="M1077.37,493.38a8.1,8.1,0,0,1,2.25-5.66h-7.54a.77.77,0,0,0-.44.14c-.09.07-2.38,1.75-2.38,5.93s2,5.12,2.22,5.21a.81.81,0,0,0,.27.05h7.87A8.11,8.11,0,0,1,1077.37,493.38Z"/><path class="cls-9" d="M1075,507c-.83,21.56-2.42,75.49-2.64,82.89a.72.72,0,0,0,.21.54.74.74,0,0,0,.54.23h7a.76.76,0,0,0,.75-.75V501.33Z"/><path class="cls-9" d="M1084.59,487.72a5.68,5.68,0,1,0,5.23,5.66A5.47,5.47,0,0,0,1084.59,487.72Z"/><path class="cls-8" d="M1080.93,497.13l-14.52,3.42a.71.71,0,0,0-.44.29c-.06.08-5.42,7.59-10.68,15.07-3.09,4.39-5.55,7.9-7.3,10.45-3.54,5.16-3.52,5.2-3.26,5.71a.76.76,0,0,0,.67.41h0a.85.85,0,0,0,.31-.06c.81-.35,22.85-21.47,35.91-34a.74.74,0,0,0-.69-1.26Z"/><path class="cls-8" d="M953.5,516.72s-2.09-3.63-4.16-7.17c-1.21-2.08-2.19-3.74-2.91-4.93-1.44-2.4-1.47-2.4-1.71-2.4a.35.35,0,0,0-.34.34c0,.39,4.51,13.33,7.21,21a.34.34,0,0,0,.32.22h0a.34.34,0,0,0,.31-.27l1.3-6.57A.27.27,0,0,0,953.5,516.72Z"/><path class="cls-8" d="M975.13,530.48c-.34-.22-13.71-3.2-21.66-5a.36.36,0,0,0-.37.17.33.33,0,0,0,.07.4l4.89,4.58a.31.31,0,0,0,.22.09c.12,0,11.91.39,15.58.39h0c1.15,0,1.3,0,1.39-.28A.36.36,0,0,0,975.13,530.48Z"/><path class="cls-9" d="M948,525.3a3.64,3.64,0,0,1,1-2.54h-3.38a.36.36,0,0,0-.2.06,3.25,3.25,0,0,0-1.07,2.67c0,1.9.9,2.3,1,2.34l.12,0H949A3.65,3.65,0,0,1,948,525.3Z"/><path class="cls-9" d="M946.94,531.41c-.37,9.68-1.08,33.89-1.18,37.21a.38.38,0,0,0,.09.25.37.37,0,0,0,.25.1h3.15a.34.34,0,0,0,.34-.34V528.87Z"/><path class="cls-9" d="M951.26,522.76a2.55,2.55,0,1,0,2.35,2.54A2.45,2.45,0,0,0,951.26,522.76Z"/><path class="cls-8" d="M949.62,527l-6.52,1.54a.39.39,0,0,0-.2.13s-2.43,3.41-4.79,6.77c-1.39,2-2.49,3.55-3.28,4.69-1.59,2.32-1.58,2.34-1.46,2.56a.32.32,0,0,0,.3.19h0a.35.35,0,0,0,.14,0c.36-.15,10.26-9.64,16.12-15.28a.33.33,0,0,0,.06-.4A.34.34,0,0,0,949.62,527Z"/><path class="cls-7" d="M1272.75,658.89c5.38,3.45,10,6.48,14.44,5.64s5-4.16,9.29-1.29,8.06,4.46,12.93,2.44,7.16-8.23,11.29-5.44,5-1.55-.88-2.87-6.56-.47-12.32,2.09-9.72-2.07-13.34-2.42-4.85,5-10.66,2.73-15.45-6.38-11.37-1.61"/><path class="cls-7" d="M1066.57,589.77c2.69,1.72,5,3.24,7.22,2.82s2.51-2.08,4.65-.65,4,2.23,6.46,1.22,3.58-4.11,5.65-2.72,2.51-.77-.44-1.43-3.28-.24-6.16,1-4.86-1-6.67-1.21-2.43,2.5-5.33,1.37-7.73-3.19-5.69-.81"/><path class="cls-7" d="M999.52,573.26c2,1.28,3.71,2.41,5.37,2.1s1.86-1.55,3.45-.48,3,1.66,4.8.9,2.66-3,4.2-2,1.87-.57-.33-1.06-2.44-.18-4.58.77-3.61-.77-4.95-.9-1.81,1.86-4,1-5.74-2.37-4.23-.6"/><path class="cls-7" d="M1157.29,621.28c5.35-.74,7.9-1.85,11.54.18s7.7,2.23,10.24,1,8.9-3.6,11.84-2.71,5.37.24,2.08-1.14-8.61-1.19-11.32.3-8.76-.19-12.29-1-8.8.11-11.8,1.54S1155.07,621.59,1157.29,621.28Z"/><path class="cls-7" d="M940,569.32c2-.28,2.93-.69,4.28.06a4.37,4.37,0,0,0,3.79.38c.94-.46,3.3-1.34,4.39-1s2,.09.77-.42a5.67,5.67,0,0,0-4.2.11c-1,.55-3.24-.07-4.55-.38a7.7,7.7,0,0,0-4.37.57C939,569.16,939.14,569.43,940,569.32Z"/><path class="cls-7" d="M941.21,561.23c.62.41,1.16.78,1.71.63s.65-.6,1.14-.26a1.34,1.34,0,0,0,1.56.21c.61-.31,1-1.16,1.43-.82s.62-.26-.09-.38-.79,0-1.52.39-1.17-.19-1.6-.21-.64.72-1.33.46-1.83-.72-1.37-.11"/><path class="cls-7" d="M939,562.77c.39.26.73.49,1.08.39s.4-.38.72-.16a.84.84,0,0,0,1,.13c.38-.19.59-.73.89-.52s.4-.15,0-.23-.5,0-1,.24-.73-.12-1-.13-.4.45-.83.29-1.15-.45-.86-.07"/><path class="cls-7" d="M940.72,564.21c.39.26.73.49,1.07.39s.41-.38.72-.16a.87.87,0,0,0,1,.14c.39-.2.6-.74.9-.52s.39-.16,0-.24-.5,0-1,.24-.74-.12-1-.13-.4.45-.83.29-1.15-.45-.87-.07"/><path class="cls-10" d="M564,415.57c-95.19-46.87-229.77-93.22-356.95,86.13C129.44,611.18,77,696.23,10.11,837.08-2.34,863.33,19.76,891.86,39,892.53c156.86,5.41,1263.77,11.19,1299-5,14.17-6.51,21.73-21.11-.22-41.95C1255.22,764.15,1097.54,678.29,564,415.57Z"/><path class="cls-11" d="M517,402.91c5.42,2.53,13.17.15,16-2.81s2.22-16.87.74-26.64-3.25-20.57-10.95-20.42-9.47,11.39-10.5,17.9S507.78,398.62,517,402.91Z"/><path class="cls-12" d="M527.13,387.85c-.23-.81-.63-.22-1,1.07a18.08,18.08,0,0,1-1.84,3.33c-.43-5.06-1.22-8.57-1.42-5.4-.14,2.1-.41,5.13-.62,8.08a10.82,10.82,0,0,1-2.37-2.38c-1.19-1.7-1.59-2.37-1.89-1.67s1.77,4,2.44,4.48c.41.32,1.17,1,1.69,1.47a46.74,46.74,0,0,0-.1,6.34c.34,3.33-.55,8.1,1.45,8.54,1.42.32,1.11-5.32,1.11-13,0-1.38,0-2.79-.13-4.15.35-.41.77-1.12,1.31-1.66A10,10,0,0,0,527.13,387.85Z"/><path class="cls-11" d="M476.39,390.49c5.42,2.54,13.17.15,16-2.81s2.22-16.87.74-26.64-3.26-20.57-10.95-20.42-9.47,11.39-10.51,17.91S467.21,386.2,476.39,390.49Z"/><path class="cls-12" d="M486.56,375.43c-.22-.81-.63-.22-1,1.08a17.5,17.5,0,0,1-1.85,3.32c-.43-5.05-1.21-8.57-1.42-5.4-.13,2.11-.4,5.13-.62,8.08a11,11,0,0,1-2.37-2.38c-1.18-1.7-1.59-2.37-1.88-1.66s1.76,4,2.43,4.47c.42.32,1.17,1,1.7,1.48a46.59,46.59,0,0,0-.1,6.33c.33,3.33-.56,8.1,1.44,8.55,1.43.31,1.11-5.33,1.11-13,0-1.38,0-2.79-.12-4.15.35-.4.77-1.12,1.31-1.66A9.91,9.91,0,0,0,486.56,375.43Z"/><polygon class="cls-12" points="1084.81 709.5 1083.29 732.92 1075.43 732.41 1076.97 708.62 1084.81 709.5"/><rect class="cls-12" x="1065.29" y="731.22" width="27.75" height="7.61" transform="translate(2108.42 1538.45) rotate(-176.28)"/><polygon class="cls-12" points="1005.04 724 1003.52 747.42 995.66 746.91 997.2 723.12 1005.04 724"/><rect class="cls-12" x="985.52" y="745.72" width="27.75" height="7.61" transform="translate(1948.11 1562.25) rotate(-176.28)"/><polygon class="cls-12" points="972.84 737.08 971.32 760.5 963.46 759.99 965.01 736.19 972.84 737.08"/><rect class="cls-12" x="953.33" y="758.79" width="27.75" height="7.61" transform="translate(1882.94 1586.28) rotate(-176.28)"/><polygon class="cls-12" points="903.22 753.62 901.7 777.04 893.84 776.53 895.38 752.74 903.22 753.62"/><rect class="cls-12" x="883.7" y="775.33" width="27.75" height="7.61" transform="translate(1742.76 1614.82) rotate(-176.28)"/><polygon class="cls-12" points="857.84 771.88 856.32 795.3 848.46 794.79 850 771 857.84 771.88"/><rect class="cls-12" x="838.32" y="793.59" width="27.75" height="7.61" transform="translate(1650.92 1648.36) rotate(-176.28)"/><polygon class="cls-12" points="788.58 782.13 787.06 805.55 779.2 805.04 780.74 781.25 788.58 782.13"/><rect class="cls-12" x="769.06" y="803.84" width="27.75" height="7.61" transform="translate(1511.88 1664.35) rotate(-176.28)"/><polygon class="cls-12" points="631.1 662.78 629.95 680.52 624 680.13 625.17 662.12 631.1 662.78"/><rect class="cls-12" x="616.32" y="679.23" width="21.02" height="5.77" transform="translate(1208.12 1403.41) rotate(-176.28)"/><polygon class="cls-12" points="701 653.65 699.85 671.39 693.9 671 695.07 652.98 701 653.65"/><rect class="cls-12" x="686.22" y="670.09" width="21.02" height="5.77" transform="translate(1348.37 1389.7) rotate(-176.28)"/><polygon class="cls-12" points="728.8 649.82 727.65 667.55 721.7 667.16 722.87 649.15 728.8 649.82"/><rect class="cls-12" x="714.02" y="666.26" width="21.02" height="5.77" transform="translate(1404.17 1383.84) rotate(-176.28)"/><polygon class="cls-12" points="807.18 641.99 806.03 659.72 800.08 659.34 801.25 641.32 807.18 641.99"/><rect class="cls-12" x="792.4" y="658.43" width="21.02" height="5.77" transform="translate(1561.27 1373.28) rotate(-176.28)"/><polygon class="cls-12" points="839.34 637.89 838.19 655.63 832.24 655.24 833.41 637.22 839.34 637.89"/><rect class="cls-12" x="824.56" y="654.33" width="21.02" height="5.77" transform="translate(1625.79 1367.18) rotate(-176.28)"/><polygon class="cls-12" points="885.38 611.69 884.23 629.42 878.28 629.04 879.45 611.02 885.38 611.69"/><rect class="cls-12" x="870.6" y="628.13" width="21.02" height="5.77" transform="matrix(-1, -0.06, 0.06, -1, 1719.46, 1317.82)"/><polygon class="cls-12" points="812.53 615.69 811.38 633.42 805.43 633.04 806.6 615.02 812.53 615.69"/><rect class="cls-12" x="797.75" y="632.13" width="21.02" height="5.77" transform="translate(1573.66 1321.09) rotate(-176.28)"/><polygon class="cls-12" points="774.67 622.69 773.52 640.42 767.57 640.03 768.74 622.02 774.67 622.69"/><rect class="cls-12" x="759.89" y="639.13" width="21.02" height="5.77" transform="translate(1497.57 1332.61) rotate(-176.28)"/><polygon class="cls-12" points="702.22 625.58 701.07 643.32 695.12 642.93 696.29 624.91 702.22 625.58"/><rect class="cls-12" x="687.44" y="642.02" width="21.02" height="5.77" transform="matrix(-1, -0.06, 0.06, -1, 1352.63, 1333.69)"/><polygon class="cls-12" points="594.7 636.29 593.55 654.03 587.6 653.64 588.77 635.62 594.7 636.29"/><rect class="cls-12" x="579.92" y="652.73" width="21.02" height="5.77" transform="translate(1137.12 1348.13) rotate(-176.28)"/><polygon class="cls-12" points="472.67 540.73 471.75 554.84 467.02 554.53 467.95 540.2 472.67 540.73"/><rect class="cls-12" x="460.91" y="553.81" width="16.72" height="4.59" transform="translate(901.51 1141.45) rotate(-176.28)"/><polygon class="cls-12" points="563.28 537.13 562.36 551.23 557.63 550.92 558.56 536.6 563.28 537.13"/><rect class="cls-12" x="551.52" y="550.2" width="16.72" height="4.59" transform="translate(1082.77 1140.12) rotate(-176.28)"/><polygon class="cls-12" points="625.77 534.42 624.85 548.52 620.12 548.22 621.05 533.89 625.77 534.42"/><rect class="cls-12" x="614.01" y="547.5" width="16.72" height="4.59" transform="translate(1207.8 1138.76) rotate(-176.28)"/><polygon class="cls-12" points="652.6 532.99 651.68 547.09 646.95 546.79 647.88 532.46 652.6 532.99"/><rect class="cls-12" x="640.84" y="546.07" width="16.72" height="4.59" transform="translate(1261.5 1137.65) rotate(-176.28)"/><polygon class="cls-12" points="719.13 529.08 718.21 543.18 713.48 542.88 714.41 528.55 719.13 529.08"/><rect class="cls-12" x="707.37" y="542.16" width="16.72" height="4.59" transform="translate(1394.67 1134.14) rotate(-176.28)"/><polygon class="cls-12" points="691.36 514.93 690.45 529.03 685.71 528.73 686.64 514.4 691.36 514.93"/><rect class="cls-12" x="679.61" y="528.01" width="16.72" height="4.59" transform="translate(1340.11 1104.07) rotate(-176.28)"/><polygon class="cls-12" points="627.59 513.86 626.68 527.96 621.94 527.66 622.87 513.33 627.59 513.86"/><rect class="cls-12" x="615.84" y="526.94" width="16.72" height="4.59" transform="translate(1212.77 1097.8) rotate(-176.28)"/><polygon class="cls-12" points="602.97 518.41 602.06 532.51 597.32 532.2 598.25 517.87 602.97 518.41"/><rect class="cls-12" x="591.22" y="531.48" width="16.72" height="4.59" transform="translate(1163.29 1105.29) rotate(-176.28)"/><polygon class="cls-12" points="540.44 518.12 539.52 532.22 534.79 531.91 535.72 517.59 540.44 518.12"/><rect class="cls-12" x="528.68" y="531.19" width="16.72" height="4.59" transform="translate(1038.37 1100.66) rotate(-176.28)"/><polygon class="cls-12" points="512.75 521.81 511.83 535.91 507.1 535.61 508.03 521.28 512.75 521.81"/><rect class="cls-12" x="500.99" y="534.89" width="16.72" height="4.59" transform="translate(982.81 1106.25) rotate(-176.28)"/><polygon class="cls-12" points="451.32 523.52 450.4 537.63 445.67 537.32 446.6 522.99 451.32 523.52"/><rect class="cls-12" x="439.56" y="536.6" width="16.72" height="4.59" transform="matrix(-1, -0.06, 0.06, -1, 859.97, 1105.68)"/><polygon class="cls-12" points="338.23 434.65 337.64 443.68 334.61 443.48 335.2 434.31 338.23 434.65"/><rect class="cls-12" x="330.7" y="443.02" width="10.7" height="2.94" transform="translate(642.58 909.83) rotate(-176.28)"/><polygon class="cls-12" points="389.31 437.89 388.73 446.92 385.7 446.72 386.29 437.55 389.31 437.89"/><rect class="cls-12" x="381.79" y="446.26" width="10.7" height="2.94" transform="translate(744.45 919.61) rotate(-176.28)"/><polygon class="cls-12" points="411.3 436.65 410.71 445.68 407.68 445.48 408.28 436.31 411.3 436.65"/><rect class="cls-12" x="403.78" y="445.02" width="10.7" height="2.94" transform="translate(788.45 918.56) rotate(-176.28)"/><polygon class="cls-12" points="488.91 439.52 488.32 448.55 485.29 448.35 485.89 439.18 488.91 439.52"/><rect class="cls-12" x="481.38" y="447.89" width="10.7" height="2.94" transform="matrix(-1, -0.06, 0.06, -1, 943.31, 929.32)"/><polygon class="cls-12" points="543.45 443.26 542.87 452.29 539.84 452.1 540.43 442.92 543.45 443.26"/><rect class="cls-12" x="535.93" y="451.64" width="10.7" height="2.94" transform="translate(1052.05 940.34) rotate(-176.28)"/><polygon class="cls-12" points="537.64 538.28 536.73 552.39 531.99 552.08 532.92 537.75 537.64 538.28"/><rect class="cls-12" x="525.89" y="551.36" width="16.72" height="4.59" transform="translate(1031.48 1140.77) rotate(-176.28)"/><polygon class="cls-12" points="919.68 625.57 918.53 643.3 912.58 642.92 913.75 624.9 919.68 625.57"/><rect class="cls-12" x="904.9" y="642.01" width="21.02" height="5.77" transform="matrix(-1, -0.06, 0.06, -1, 1787.1, 1347.77)"/><path class="cls-7" d="M850,632.75l13.66,7.52,19-3.27-13.38-7Z"/><path class="cls-7" d="M920.78,675.06l-19.16,4,30,17,19.15-4.56Z"/><path class="cls-7" d="M975.18,685.75l-30-15.8-20,4.18,29.87,16.39Z"/><path class="cls-8" d="M867.85,642.57l23.37,12.86,19.59-3.59L887,639.27Z"/><polygon class="cls-7" points="919.82 653.22 945.63 666.82 963.62 663.05 937.67 649.95 919.82 653.22"/><path class="cls-7" d="M826.05,636.24l14.25,8.08L859,641.08l-13.85-7.62Z"/><path class="cls-7" d="M863.17,643.38l-18.79,3.25,23.17,13.14,19.05-3.49Z"/><path class="cls-7" d="M941.06,667.77l-26-13.68-19.73,3.61,25.88,14.23Z"/><path class="cls-7" d="M1077.4,717.17l21.77-4.83-36.64-18.24-20.66,5.13Z"/><path class="cls-7" d="M890.73,658.55l-19.14,3.5,26.11,14.81,19.07-4Z"/><polygon class="cls-8" points="891.76 638.44 915.55 650.97 933.27 647.73 908.98 635.46 891.76 638.44"/><polygon class="cls-7" points="997.87 680.34 967.88 665.2 949.77 668.99 979.58 684.7 997.87 680.34"/><polygon class="cls-7" points="896.74 625.95 909.45 632.36 930.99 628.63 919.06 622.7 896.74 625.95"/><polygon class="cls-7" points="874.26 629.22 887.44 636.16 904.53 633.21 891.62 626.69 874.26 629.22"/><path class="cls-8" d="M988.82,712.36,969,717.27l30.38,17.22,21.35-4.74C1011.65,724.82,1000.93,719,988.82,712.36Z"/><path class="cls-7" d="M993.07,711.31c12.29,6.72,23.07,12.6,32,17.46l22.35-4.95-33.54-17.67Z"/><polygon class="cls-8" points="942.51 649.06 968.29 662.07 989.33 657.67 964.09 645.11 942.51 649.06"/><path class="cls-7" d="M1037.44,700.32l-19.18,4.75L1052,722.82l20.86-4.63Z"/><polygon class="cls-7" points="913.9 634.61 938.12 646.84 959.64 642.89 935.5 630.88 913.9 634.61"/><path class="cls-8" d="M1010,704.06l-30.77-16.21L959,692.66l30.2,16.54Z"/><path class="cls-7" d="M954.7,693.68l-19.24,4.58,29.76,16.87L985,710.25Z"/><path class="cls-8" d="M1058.42,692.06l-31.35-15.61-20.6,4.91,31.32,15.81Z"/><path class="cls-7" d="M1033.36,698.27,1002,682.42l-18.41,4.39L1014.3,703Z"/><polygon class="cls-7" points="972.54 664.22 1002.36 679.28 1022.91 674.38 993.63 659.81 972.54 664.22"/><path class="cls-7" d="M856.65,685.45l-26.16-15.87L815,672.43l26.09,16.29Z"/><polygon class="cls-8" points="851.73 662.66 829.03 649.28 808.58 652.82 831.06 666.45 851.73 662.66"/><path class="cls-8" d="M806.87,670.88,784.6,657l-19.11,3.3,21.81,14.2Z"/><path class="cls-7" d="M761.18,661l-21.93,3.79,22.27,14.38L783,675.25Z"/><path class="cls-7" d="M836.85,689.6l-26.23-16.38-19.69,3.61,26,16.94Z"/><path class="cls-7" d="M786.67,677.61l-21.49,3.94,27,17.42,20.67-4.33Z"/><path class="cls-7" d="M826.65,667.26l-22.53-13.67L789,656.21l22.21,13.88Z"/><path class="cls-7" d="M780.82,654.6l-21.63-13.52-19.83,2.17,22.47,14.63Z"/><path class="cls-7" d="M930.51,726.77,963.92,747l21.79-5.4-34.07-20.08Z"/><path class="cls-7" d="M800.24,651.24l-20.46-12.41L764,640.56l21.24,13.28Z"/><polygon class="cls-7" points="825.07 646.95 806.35 635.92 784.64 638.29 804.71 650.47 825.07 646.95"/><path class="cls-7" d="M734.69,643.76l-24,2.63,24.84,16,22-3.79Z"/><path class="cls-7" d="M922.84,725.6,894,708.13l-15.82,3.76,28.44,17.7Z"/><polygon class="cls-7" points="881.54 680.24 855.65 664.97 834.89 668.78 860.92 684.56 881.54 680.24"/><path class="cls-7" d="M948,719.39l-29.13-17.17-20.68,4.93,28.76,17.44Z"/><path class="cls-7" d="M906.15,732.78,885,738l31.87,20.69,22.26-5.51C930.14,747.67,919.13,740.85,906.15,732.78Z"/><path class="cls-7" d="M902.62,730.59l-27.86-17.34-.62-.39-20.39,4.86c9.89,6.43,19.18,12.48,27.78,18.06Z"/><path class="cls-7" d="M881,739l-19.46,4.78,32,20.69,19.29-4.78C903.87,753.85,893.15,746.88,881,739Z"/><path class="cls-8" d="M910.18,731.79c12.77,7.93,23.86,14.81,32.93,20.4l16.74-4.14-33.41-20.27Z"/><path class="cls-7" d="M870.59,710.65,840.5,691.88l-20,4.19,29.82,19.41Z"/><path class="cls-7" d="M849.75,718.67,830,723.38l28.14,18.17,19.47-4.79Z"/><path class="cls-8" d="M816.35,696.94l-20.65,4.32,30.8,19.89,19.81-4.72Z"/><polygon class="cls-7" points="915.14 700.04 885.35 682.49 864.64 686.82 894.53 704.95 915.14 700.04"/><path class="cls-8" d="M890.41,705.93l-30-18.21L844.7,691l30,18.68Z"/><path class="cls-7" d="M774.88,702.58l-26-18.05-20.11,3.68,25.85,18.61Z"/><path class="cls-7" d="M721.39,686.54l-20.88-15-17.21,3,20.34,15.32Z"/><path class="cls-7" d="M728.54,712.29,702.89,693l-17.31,3.17L711,716Z"/><path class="cls-7" d="M807.94,725.56l-29.7-20.64-20.3,4.25,29.58,21.26Z"/><path class="cls-8" d="M676,672.72l-24.6-18.53-17.09,2,24.92,19.41Z"/><path class="cls-7" d="M699.66,690.53l-20.38-15.35-16.86,2.91,20,15.59Z"/><path class="cls-8" d="M750.71,707.64l-26-18.68-17.87,3.27,25.54,19.25Z"/><path class="cls-8" d="M820.27,753.91c13,9.32,24.48,17.49,34,24.23l22-5.1-34.93-24.29Z"/><path class="cls-7" d="M630.11,656.7l-13.85,1.64,24.54,20.47,14.48-2.51Z"/><path class="cls-7" d="M697.14,669.07q-11.92-8.6-24.16-17.42l-17.28,2L680,672Z"/><path class="cls-7" d="M745.47,682.13l-21.2-14.73-19.64,3.39,20.83,15Z"/><path class="cls-7" d="M720.79,665l-23.32-16.22-20.11,2.37,23.89,17.23Z"/><path class="cls-8" d="M789.66,758.33l-25.57-19.27-18,4.28,25,19.52Z"/><path class="cls-7" d="M767.41,763.76c-7.82-6.12-16.2-12.65-25-19.53l-18.06,4.3,23.84,19.89Z"/><path class="cls-7" d="M825,784.94l-32.26-24.3-18.65,4.55c11.8,9.23,22.27,17.42,31.11,24.35Z"/><path class="cls-7" d="M761,736.74l-29.3-22.07-17.61,3.69,29,22.64Z"/><path class="cls-7" d="M739.4,741.88l-29.14-22.72-16.88,3.53,28.11,23.46Z"/><path class="cls-7" d="M770.39,766.08c-6.92,1.69-13.41,3.26-19.38,4.7L780.4,795.3l21.07-4.89C792.58,783.44,782.12,775.25,770.39,766.08Z"/><path class="cls-7" d="M816.46,754.84l-20,4.89,32.3,24.33,21.62-5C840.79,772.22,829.37,764.08,816.46,754.84Z"/><path class="cls-7" d="M783.68,731.34,754,710l-18.41,3.86,29.19,22Z"/><path class="cls-7" d="M813.27,752.56l-26.39-18.92-19,4.53,25.55,19.25Z"/><path class="cls-7" d="M678.51,694.4l-20.06-15.62-14.66,2.53,19.12,16Z"/><path class="cls-7" d="M838,746.48l-26.81-18.64-20.5,4.88c9.32,6.69,18.14,13,26.36,18.9Z"/><path class="cls-7" d="M707.19,716.76l-25.54-19.91-15.77,2.89,24.59,20.52Z"/><path class="cls-7" d="M662.66,542.21l21,12,16.23-.84-21.61-11.93Z"/><path class="cls-7" d="M642.86,530.89l15,8.57,15.5-.72-15.17-8.38Z"/><path class="cls-7" d="M799.39,604.87l28.71,15.82,19.72-2L818.28,603.1Z"/><path class="cls-7" d="M734.9,569.3,763.26,585l17.88-1.41-29.41-15.49Z"/><path class="cls-7" d="M768,587.55l26.78,14.77,18.7-1.75-27.41-14.44Z"/><path class="cls-7" d="M713,571l27.54,15.75,17.35-1.36-28.39-15.66Z"/><path class="cls-8" d="M776.08,607.06l28.12,16.08,18.71-1.92-28.78-15.86Z"/><path class="cls-7" d="M876.49,615.72l20.79-2.14-31.41-14.87-19.52,1.79Z"/><path class="cls-7" d="M688.49,557l19.79,11.32L724.62,567l-19.74-10.89Z"/><path class="cls-7" d="M745.1,589.35l26.5,15.15,17.91-1.69L762.6,588Z"/><path class="cls-7" d="M710.51,555.85,730,566.62l16.62-1.25L727,555Z"/><path class="cls-7" d="M823.71,602.6l29.46,15.51L871,616.28,840.77,601Z"/><polygon class="cls-7" points="705.3 540.22 727.63 551.99 742.19 551.24 719.1 539.58 705.3 540.22"/><path class="cls-7" d="M684,541.22l21.57,11.9,16.24-.83L699.43,540.5Z"/><polygon class="cls-7" points="684.83 529.44 700.1 537.49 713.7 536.85 698.11 528.98 684.83 529.44"/><path class="cls-7" d="M778.28,566.13l30.18,15.24L826.23,580l-31.6-15Z"/><polygon class="cls-7" points="725.14 539.3 748.18 550.93 763.27 550.15 738.97 538.65 725.14 539.3"/><polygon class="cls-8" points="704.29 528.77 719.74 536.57 733.24 535.94 717.15 528.32 704.29 528.77"/><path class="cls-7" d="M753.54,553.63,773,563.46q8.07-.59,16-1.13L769,552.84Z"/><path class="cls-7" d="M841.36,598l19.22-1.77-29-13.71-18.06,1.44Z"/><path class="cls-7" d="M664,530.16l15,8.31,15.21-.71-15.4-8.11Z"/><path class="cls-8" d="M757.34,567.63l29.35,15.47,16.07-1.28-30.27-15.28Z"/><path class="cls-7" d="M791.61,585.69l27.29,14.37,16.87-1.57L807.86,584.4Z"/><path class="cls-7" d="M732.79,554.7,752.26,565l14.94-1.09-19.66-9.93Z"/><path class="cls-7" d="M752.54,606.3c-8.31-4.69-17.58-9.94-27.22-15.4l-16.68,1.3L734.69,608l7.3-.69Z"/><path class="cls-7" d="M699.2,590l-26.07-15.82-13.52,1.1,25.28,15.83Z"/><path class="cls-7" d="M689.12,593.71,715,609.88l14.78-1.41-26.18-15.88Z"/><path class="cls-7" d="M696.72,631.62l17.68-1.07-23.6-15.38-16.31,1.57Z"/><path class="cls-7" d="M668.69,571.45l-20.44-12.4-13.38.69,20.44,12.8Z"/><path class="cls-7" d="M691.57,612.12l18.5-1.77L684.13,594.1l-18.06,1.4Z"/><path class="cls-8" d="M643.72,556.3,623.51,544l-12.74.6L630.48,557Z"/><path class="cls-7" d="M606.35,541.86l12.59-.58-14.22-8.63c-3.88.13-8.06.3-12.29.49Z"/><path class="cls-7" d="M637.31,540.42c-7.19-4.25-11.54-6.95-11.7-7.34-.29-.7-6.61-.8-15.41-.59L624.27,541Z"/><path class="cls-7" d="M601.13,542.11l-13.92-8.72c-5.28.25-10.5.53-15.22.8l13.29,8.66Z"/><path class="cls-7" d="M625.29,557.25l-19.74-12.37-16,.75,19.15,12.48Z"/><path class="cls-8" d="M719.08,612.47,745,628.69l16.42-1L734,611.05Z"/><path class="cls-7" d="M650.35,573,629.69,560l-16.77.86,20.68,13.47Z"/><path class="cls-7" d="M679.9,591.45l-10.42-6.52-14.83-9.29L637.74,577,662,592.84Z"/><path class="cls-7" d="M714.21,612.93l-18.65,1.78,23.83,15.54L739.88,629Z"/><path class="cls-7" d="M584.45,545.87l-14.77.69,18.8,12.59,15.15-.78Z"/><path class="cls-7" d="M670.6,614.13l16.21-1.56-25.62-16.69-16,1.23Z"/><path class="cls-8" d="M632.9,577.44l-15.18,1.28,23.48,15.73,15.91-1.23Z"/><path class="cls-7" d="M607.87,561.13l-15.25.78L613.69,576l15.08-1.27Z"/><path class="cls-7" d="M567,534.47c-8.29.48-14.06.86-14.06.86l12.61,8.44,14.67-.68Z"/><path class="cls-7" d="M704.29,589.56l16.42-1.28c-9.14-5.19-18.53-10.52-27.67-15.73l-14.85,1.18Z"/><path class="cls-7" d="M766.64,627.38l21-1.28s-12.51-7-30.57-17.24l-18.11,1.72Z"/><path class="cls-7" d="M649,556l13.92-.72c-7.94-4.56-15.08-8.7-20.93-12.13l-13.16.61Z"/><path class="cls-7" d="M673.76,571l14.58-1.17c-7.16-4.09-14.13-8.07-20.65-11.82l-14.15.73Z"/><path class="cls-7" d="M595.55,577.57l-21-14.73-18.12.94,21.23,15.34Z"/><path class="cls-7" d="M650.58,616.06l-24.94-17.44-19,1.46,24.7,17.83Z"/><path class="cls-7" d="M621.81,595.94l-22.4-15.67-18,1.56,21.55,15.56Z"/><path class="cls-7" d="M681.37,637.57l-27-18.9L635,620.54l24.45,17.65Z"/><path class="cls-7" d="M508.39,546.44l-13.06-9.84-13.88.63q6.29,4.9,12.69,9.87Z"/><path class="cls-7" d="M476.87,537.45l-14.22.69L475,548l14.56-.68Z"/><path class="cls-7" d="M570.54,560.07,552.4,547.36l-17.59.83L552.53,561Z"/><path class="cls-8" d="M573.06,579.52,551.62,564l-14,.72,21.26,16Z"/><path class="cls-7" d="M529.3,562.19l-17.19-12.94-14.36.67,16.76,13Z"/><path class="cls-8" d="M548.42,544.57c-7.84-5.5-12.7-8.92-12.89-9.09-.35-.31-7.89-.15-18,.22l13.4,9.69Z"/><path class="cls-7" d="M526.15,545.61l-13.46-9.73c-4.05.15-8.36.33-12.68.52l13,9.82Z"/><path class="cls-7" d="M547.77,561.24,530,548.41l-13.26.62L533.93,562Z"/><path class="cls-7" d="M578.51,599.26l-20.45-15.41-15,1.32,19.66,15.3Z"/><path class="cls-7" d="M631.3,639,610,623l-16.3,1.58L613,639.62Z"/><path class="cls-7" d="M606.46,620.32,582.09,602l-15.88,1.22,24,18.71Z"/><path class="cls-7" d="M585.93,622.31l-24.14-18.79L546,604.72c8.75,7,16.95,13.58,23.89,19.15Z"/><path class="cls-8" d="M608.38,639.78l-19-14.82-16.17,1.57c10.35,8.33,17.14,13.83,17.34,14.09C590.45,640.47,597.81,640.15,608.38,639.78Z"/><path class="cls-7" d="M558.31,600.81l-19.6-15.25-15,1.34L542.58,602Z"/><path class="cls-7" d="M590.51,640.63s0,0,0,0S590.5,640.63,590.51,640.63Z"/><path class="cls-7" d="M535.23,582.85,513.55,566l-15.06.78,21.82,17.43Z"/><path class="cls-7" d="M626.83,618.35,602,600.44l-15.43,1.18,24.25,18.27Z"/><path class="cls-7" d="M598.3,597.75l-21.5-15.53-14.31,1.25L583,598.92Z"/><path class="cls-7" d="M554.46,581.15,533,565l-14.9.77,21.49,16.72Z"/><path class="cls-7" d="M654.52,638.33l-24-17.35-16.12,1.56,21.7,16.35Z"/><path class="cls-7" d="M510,563.19l-16.78-13.06-14.65.68L495,564Z"/><path class="cls-7" d="M519.91,525.48l-20.25-13.75-14.46.58,18.65,13.49Z"/><path class="cls-7" d="M423.33,482.36l-16.1-12.13h-12l15.78,12.27Z"/><path class="cls-7" d="M495.52,508.92l-18.27-12.41-13.41.35,17.46,12.63Z"/><path class="cls-7" d="M381.25,446.93,393,455.8h9L389.92,447Z"/><path class="cls-7" d="M403.28,467.25,392,458.78H380.56l10.89,8.46Z"/><path class="cls-7" d="M473,493.64l-12.81-8.7-12.65.14,12.3,8.9Z"/><path class="cls-7" d="M407.1,455.79h10.16l-12.64-8.58-9.54-.11Z"/><path class="cls-7" d="M388.08,455.81l-11.86-8.93-11.15-.13,11.67,9.07Z"/><path class="cls-7" d="M422.93,467.25h11.23l-12.52-8.49H411.21Z"/><path class="cls-7" d="M343.1,433.44l-10.56-.7,13.08,10.8,10.63.13Z"/><path class="cls-7" d="M438.5,482.2l-16.54-12h-9.78l16,12.08Z"/><path class="cls-8" d="M397,458.78l11.25,8.47h9.63l-11.72-8.48Z"/><path class="cls-7" d="M455.89,482l-17.35-11.78H427.05l16.46,11.92Z"/><path class="cls-7" d="M348.41,433.8l12.77,9.93,11,.13-12.34-9.29Z"/><path class="cls-7" d="M422.21,495,410,485.49l-13.49.14,11.7,9.67Z"/><path class="cls-8" d="M406.27,482.55l-15.85-12.32H377.91L393,482.69Z"/><path class="cls-7" d="M386.6,467.25l-10.89-8.46H364.09l10.22,8.45Z"/><path class="cls-7" d="M442.89,511l-17-13.2-14.17.36L428,511.63Z"/><path class="cls-7" d="M439.45,494.5l-12.22-9.2-12.4.13,12.08,9.39Z"/><path class="cls-8" d="M460.45,510.32l-17.18-12.94-12.65.33,16.89,13.13Z"/><path class="cls-7" d="M481.59,526.25l-17.39-13.1-13.05.53,16.53,12.85Z"/><path class="cls-7" d="M446.54,513.86l-15.1.61L446.55,527l16.4-.33Z"/><path class="cls-7" d="M476.48,509.68,458.92,497l-10.86.28,17.09,12.87Z"/><path class="cls-7" d="M371.89,455.82l-11.75-9.13-10.87-.13,11.22,9.27Z"/><path class="cls-7" d="M498.9,525.9l-18.52-13.4L468.9,513l17.51,13.19Z"/><path class="cls-7" d="M455,494.11l-12.4-9-10.44.12,12.12,9.13Z"/><path class="cls-7" d="M390.91,444.07l9.26.11-11.3-7.67-9.27-.62Z"/><path class="cls-8" d="M377.24,443.91l8.51.1L374,435.51l-8.68-.58Z"/><polygon class="cls-7" points="543.18 491.84 557.49 491.47 544.5 484.03 530.55 484.18 543.18 491.84"/><path class="cls-7" d="M495.85,484.55l12.55,8.18,13.42-.34-12.73-8Z"/><path class="cls-7" d="M514.6,484.35l12.6,7.9,10.47-.27-12.76-7.74Z"/><path class="cls-7" d="M514.75,508.14l11.15-.44-18.35-12-10.9.28Z"/><polygon class="cls-7" points="525.73 481.25 539.4 481.11 520.44 470.23 507.55 470.23 525.73 481.25"/><path class="cls-8" d="M492.09,470.23l17.85,11.19,10.15-.11-18.28-11.08Z"/><path class="cls-7" d="M554.74,509.52l18.61,11.67c4-.16,8-.31,11.71-.47l-19.21-11.65Z"/><path class="cls-8" d="M531.76,495.11l18.51,11.61,11-.44-18.86-11.44Z"/><path class="cls-7" d="M535.65,522.17c.68.15,5.47.09,12.29-.1L530.2,510.5l-11.26.46Z"/><path class="cls-7" d="M473.89,470.23l17.47,11.4,13.07-.15-17.94-11.25Z"/><polygon class="cls-7" points="566.63 506.06 581.86 505.45 562.46 494.32 547.89 494.7 566.63 506.06"/><path class="cls-7" d="M590.44,520.51l16.47-.7-20.19-11.58-15.49.63Z"/><path class="cls-7" d="M549.47,509.73l-14.13.57,17.81,11.61,14.92-.52Z"/><path class="cls-7" d="M512.79,495.6,531,507.49l14-.56-18.62-11.68Z"/><path class="cls-7" d="M465.81,444.91l10.68.12-10.08-5.78-11.34-.85Z"/><path class="cls-7" d="M423.82,447.42l12.58,8.35h9.84l-12.62-8.23Z"/><path class="cls-8" d="M439.16,447.59l12.52,8.17h11.71l-12.79-8Z"/><path class="cls-7" d="M434.53,444.57l11.25.12-12.52-7.85c-4.08-.28-8.1-.54-11.76-.77Z"/><path class="cls-7" d="M451.48,444.76l8.49.09-11.43-6.93-9-.64Z"/><path class="cls-7" d="M405.59,435.58c.56.24,5.71,3.58,13.65,8.82l9.74.11-13.47-8.79C409,435.37,404.78,435.24,405.59,435.58Z"/><path class="cls-7" d="M456.3,447.78l12.69,8h8.92l-13-7.86Z"/><path class="cls-7" d="M473.73,458.71c4.43,2.79,9,5.63,13.61,8.54h9.56l-14.09-8.54Z"/><polygon class="cls-7" points="502.64 467.25 515.25 467.25 500.32 458.69 488.54 458.7 502.64 467.25"/><path class="cls-7" d="M458.1,470.23l17.31,11.57,10.59-.12-17.57-11.45Z"/><path class="cls-7" d="M490.49,484.61l-10.7.12,12.57,8.42,10.79-.28Z"/><path class="cls-7" d="M456.24,458.73l13.08,8.52h12.42l-13.61-8.53Z"/><path class="cls-7" d="M440.86,458.74l12.78,8.51h10.23l-13.07-8.52Z"/><path class="cls-7" d="M483.64,455.73h11.49l-13.36-7.66-11-.12Z"/><path class="cls-7" d="M517.81,458.68,533,467.25h11l-15.54-8.58Z"/><path class="cls-7" d="M538.2,470.23l18.86,10.68,11.36-.12L549.3,470.23Z"/><polygon class="cls-7" points="550.44 458.65 566.77 467.25 575.87 467.25 558.82 458.64 550.44 458.65"/><path class="cls-7" d="M555.46,470.23l19,10.5,11.27-.13L566,470.23Z"/><polygon class="cls-7" points="615.57 492.96 635.22 503.31 646.38 502.86 626.24 492.69 615.57 492.96"/><polygon class="cls-7" points="597.52 483.45 610.18 490.12 620.63 489.85 607.73 483.34 597.52 483.45"/><polygon class="cls-7" points="640.47 506.08 661.39 517.09 674.14 516.88 651.85 505.62 640.47 506.08"/><path class="cls-7" d="M562.22,483.84l12.7,7.19,11.49-.3-12.71-7Z"/><path class="cls-7" d="M580,493.88l19.21,10.88,11.78-.48-19.38-10.7Z"/><path class="cls-7" d="M604.07,507.54l18,10.22,12.84-.22-19-10.48Z"/><path class="cls-8" d="M597.45,493.43l19.23,10.62,12.6-.5-19.8-10.43Z"/><path class="cls-7" d="M621.71,506.83l19.22,10.61,14.27-.24-20.66-10.88Z"/><path class="cls-7" d="M579.74,483.65l12.55,6.93,11.8-.3-12.83-6.76Z"/><polygon class="cls-8" points="572.42 470.23 591.98 480.54 601.96 480.43 581.76 470.23 572.42 470.23"/><path class="cls-8" d="M534.53,458.66l15.54,8.59h10.31l-16.32-8.59Z"/><path class="cls-7" d="M531.33,448.59l13.47,7.09h8.14l-13.88-7Z"/><path class="cls-7" d="M559.53,455.67h9.79L555,448.83l-9.17-.09Z"/><path class="cls-7" d="M510.52,445.4l8.53.09-9.9-5.22-9.13-.68Z"/><path class="cls-7" d="M539.79,445.7l8.79.09-6.42-3.06-9.67-.72Z"/><polygon class="cls-7" points="565.41 458.64 582.47 467.25 593.68 467.25 575.57 458.63 565.41 458.64"/><path class="cls-7" d="M494.05,445.22l10.2.11-11.35-6.27-11.21-.84Z"/><path class="cls-7" d="M516.6,440.83l9,4.72,7.48.08-8.31-4.2Z"/><path class="cls-7" d="M499.4,448.25l13.16,7.46H523l-13.28-7.34Z"/><polygon class="cls-7" points="588.37 470.23 608.42 480.36 620.93 480.22 599.94 470.23 588.37 470.23"/><polygon class="cls-7" points="680.53 516.77 697.14 516.48 672.56 504.79 657.97 505.38 680.53 516.77"/><path class="cls-7" d="M516,448.43l13.14,7.26h9.27l-13.6-7.17Z"/><polygon class="cls-7" points="632.52 492.53 652.5 502.61 666.78 502.04 646.06 492.18 632.52 492.53"/><polygon class="cls-7" points="614.19 483.27 626.91 489.69 640.12 489.35 627.05 483.13 614.19 483.27"/><path class="cls-13" d="M1106,789.56a1.77,1.77,0,0,1-.86-3.33l7.43-4.08a1.77,1.77,0,0,1,1.71,3.11l-7.43,4.08A1.74,1.74,0,0,1,1106,789.56Z"/><path class="cls-13" d="M1116.83,791.6a1.77,1.77,0,0,1-.85-3.33l7.42-4.08a1.77,1.77,0,1,1,1.71,3.11l-7.42,4.08A1.78,1.78,0,0,1,1116.83,791.6Z"/><path class="cls-13" d="M1100.29,798a1.77,1.77,0,0,1-.85-3.33l7.42-4.08a1.77,1.77,0,0,1,1.71,3.11l-7.42,4.08A1.78,1.78,0,0,1,1100.29,798Z"/><path class="cls-13" d="M1090.34,796a1.8,1.8,0,0,1-1.56-.92,1.77,1.77,0,0,1,.7-2.41l7.42-4.08a1.77,1.77,0,1,1,1.71,3.11l-7.42,4.08A1.74,1.74,0,0,1,1090.34,796Z"/><path class="cls-13" d="M1087.91,804.87a1.77,1.77,0,0,1-.85-3.33l7.42-4.08a1.77,1.77,0,0,1,1.71,3.11l-7.42,4.08A1.8,1.8,0,0,1,1087.91,804.87Z"/><path class="cls-13" d="M1101.46,805.64a1.77,1.77,0,0,1-.86-3.33l7.42-4.08a1.77,1.77,0,1,1,1.71,3.1l-7.42,4.09A1.85,1.85,0,0,1,1101.46,805.64Z"/><path class="cls-13" d="M1074.7,803.6a1.8,1.8,0,0,1-1.56-.92,1.77,1.77,0,0,1,.7-2.41l7.42-4.08a1.77,1.77,0,1,1,1.71,3.1l-7.42,4.09A1.85,1.85,0,0,1,1074.7,803.6Z"/><path class="cls-13" d="M636.32,723.75a1.6,1.6,0,0,1-.78-3l6.72-3.7a1.6,1.6,0,1,1,1.55,2.81l-6.72,3.7A1.55,1.55,0,0,1,636.32,723.75Z"/><path class="cls-13" d="M627.29,721.9a1.63,1.63,0,0,1-1.41-.83,1.61,1.61,0,0,1,.64-2.18l6.72-3.7a1.62,1.62,0,0,1,2.19.63,1.6,1.6,0,0,1-.64,2.18l-6.72,3.7A1.56,1.56,0,0,1,627.29,721.9Z"/><path class="cls-13" d="M625.1,730a1.61,1.61,0,0,1-.78-3l6.73-3.7a1.61,1.61,0,1,1,1.54,2.82l-6.72,3.7A1.55,1.55,0,0,1,625.1,730Z"/><path class="cls-13" d="M637.37,730.65a1.61,1.61,0,0,1-.78-3l6.73-3.7a1.61,1.61,0,0,1,1.55,2.82l-6.73,3.7A1.64,1.64,0,0,1,637.37,730.65Z"/><path class="cls-13" d="M613.12,728.8a1.61,1.61,0,0,1-.77-3l6.72-3.7a1.61,1.61,0,0,1,1.55,2.82l-6.73,3.7A1.64,1.64,0,0,1,613.12,728.8Z"/><path class="cls-13" d="M977.39,815.38a2,2,0,0,1-1-3.84l8.56-4.71a2,2,0,1,1,2,3.58l-8.56,4.71A2.05,2.05,0,0,1,977.39,815.38Z"/><path class="cls-13" d="M965.91,813a2,2,0,0,1-1-3.84l8.56-4.7a2,2,0,1,1,2,3.58l-8.56,4.71A2,2,0,0,1,965.91,813Z"/><path class="cls-13" d="M963.11,823.26a2,2,0,0,1-1-3.83l8.55-4.71a2,2,0,0,1,2,3.58L964.1,823A2.08,2.08,0,0,1,963.11,823.26Z"/><path class="cls-13" d="M978.73,824.15a2,2,0,0,1-1-3.84l8.56-4.71a2,2,0,0,1,2,3.59l-8.55,4.7A2,2,0,0,1,978.73,824.15Z"/><path class="cls-13" d="M947.88,821.79a2,2,0,0,1-1-3.83l8.56-4.71a2,2,0,1,1,2,3.58l-8.56,4.71A2,2,0,0,1,947.88,821.79Z"/><path class="cls-13" d="M1194.12,821.78a1.76,1.76,0,0,1-.85-3.31l7.39-4.06a1.76,1.76,0,1,1,1.7,3.09l-7.39,4.06A1.74,1.74,0,0,1,1194.12,821.78Z"/><path class="cls-13" d="M1184.21,819.75a1.77,1.77,0,0,1-.85-3.31l7.39-4.07a1.77,1.77,0,0,1,1.7,3.1l-7.39,4.06A1.74,1.74,0,0,1,1184.21,819.75Z"/><path class="cls-13" d="M1181.8,828.59a1.76,1.76,0,0,1-.85-3.31l7.38-4.07a1.77,1.77,0,0,1,1.71,3.1l-7.39,4.06A1.74,1.74,0,0,1,1181.8,828.59Z"/><path class="cls-13" d="M1195.28,829.35a1.76,1.76,0,0,1-.85-3.31l7.39-4.06a1.76,1.76,0,0,1,1.7,3.09l-7.39,4.06A1.74,1.74,0,0,1,1195.28,829.35Z"/><path class="cls-13" d="M1168.65,827.32a1.77,1.77,0,0,1-.86-3.31l7.39-4.06a1.76,1.76,0,1,1,1.7,3.09l-7.38,4.06A1.77,1.77,0,0,1,1168.65,827.32Z"/><path class="cls-13" d="M528.7,654.82a1.61,1.61,0,0,1-.78-3l6.77-3.73a1.62,1.62,0,0,1,1.56,2.84l-6.77,3.72A1.59,1.59,0,0,1,528.7,654.82Z"/><path class="cls-13" d="M527.31,664a1.61,1.61,0,0,1-.78-3l6.77-3.73a1.62,1.62,0,1,1,1.56,2.84l-6.77,3.72A1.56,1.56,0,0,1,527.31,664Z"/><path class="cls-13" d="M518.58,682.09a1.62,1.62,0,0,1-.78-3l6.77-3.72a1.62,1.62,0,1,1,1.56,2.83l-6.77,3.73A1.71,1.71,0,0,1,518.58,682.09Z"/><path class="cls-13" d="M535.82,673.85a1.62,1.62,0,0,1-.78-3l6.77-3.72a1.62,1.62,0,0,1,1.56,2.84l-6.77,3.72A1.71,1.71,0,0,1,535.82,673.85Z"/><path class="cls-13" d="M512.72,662.11a1.62,1.62,0,0,1-.78-3l6.77-3.72a1.62,1.62,0,1,1,1.56,2.83l-6.77,3.73A1.68,1.68,0,0,1,512.72,662.11Z"/><path class="cls-13" d="M516.11,672.53a1.62,1.62,0,0,1-.78-3l6.77-3.72a1.62,1.62,0,0,1,1.56,2.83l-6.77,3.73A1.71,1.71,0,0,1,516.11,672.53Z"/><path class="cls-13" d="M504.8,671.74a1.62,1.62,0,0,1-.78-3l6.77-3.72a1.62,1.62,0,1,1,1.56,2.84l-6.77,3.72A1.71,1.71,0,0,1,504.8,671.74Z"/></g></svg>