<svg xmlns="http://www.w3.org/2000/svg" viewBox="0 0 1479.89 810.47"><defs><style>.cls-1{fill:#fff;}.cls-2,.cls-3,.cls-4,.cls-5{fill:none;stroke:#fff;stroke-linecap:round;stroke-linejoin:round;stroke-width:4px;}.cls-2{stroke-dasharray:14.66 14.66;}.cls-3{stroke-dasharray:19.51 19.51;}.cls-5{stroke-dasharray:26.02 26.02;}.cls-6{fill:#b2b2b2;}.cls-7{fill:#8aba62;}.cls-8{fill:#c8c8c9;}.cls-9{fill:#ededee;}.cls-10{fill:#6e7f72;}.cls-11{fill:#dadbdb;}.cls-12{fill:#9d9d9e;}.cls-13{fill:#cbcbcb;}</style></defs><g id="主圖"><circle class="cls-1" cx="276.11" cy="101.23" r="25.04"/><path class="cls-2" d="M322.79,101.23a46.68,46.68,0,0,1-46.68,46.69c-61.93-2.46-61.92-90.92,0-93.37a46.68,46.68,0,0,1,46.68,46.68Z"/><path class="cls-3" d="M350.62,101.23a74.51,74.51,0,0,1-74.51,74.52c-98.85-3.92-98.82-145.13,0-149a74.52,74.52,0,0,1,74.51,74.52Z"/><path class="cls-4" d="M263,199.61a97.71,97.71,0,0,1-12.26-2.42"/><path class="cls-5" d="M226.73,187.33a99.24,99.24,0,1,1,61.69,12.38"/><path class="cls-4" d="M275.46,200.47a100.42,100.42,0,0,1-12.47-.86"/><path class="cls-6" d="M900.87,423.43s7.74-1.43,11.69,3a8.91,8.91,0,0,1,8.54-5.69,9,9,0,0,0-9.64,1.74S904.42,420.11,900.87,423.43Z"/><path class="cls-6" d="M926.85,440.86s7.87.17,10.85,5.3a8.91,8.91,0,0,1,9.51-3.85,9,9,0,0,0-9.8-.24S931,438.33,926.85,440.86Z"/><path class="cls-6" d="M1327.59,375.83s7.27,2.37,8.59,8a8.63,8.63,0,0,1,9.91-.89,8.67,8.67,0,0,0-9-3S1332.17,374.65,1327.59,375.83Z"/><path class="cls-6" d="M1380.43,425.09s7.26,2.38,8.58,8a8.63,8.63,0,0,1,9.91-.89,8.68,8.68,0,0,0-9-3S1385,423.91,1380.43,425.09Z"/><path class="cls-1" d="M1437.15,609c-40.77-11.47-67.62-21.89-37.79-38.38s-27.81-30.32-59.49-27-151.27,1.11-235.58-10.37-173.75,0-173.75,0c-6.71.77-3.55,4.26-2.44,4.44s5.68,1.42-1.91,4.09,6.64,6.28,14.7,9,10.33,4.6,4.31,5.13-4,6.49,28.19,28.94c2.76,1.92,7,3.6,11.58,5.76,45.15,41.6,103.14,90.23,110.71,90.23,12.61,0,125.75,19.49,156.68,28.45,43.07,12.49,135.6,7.67,110.34-17.86-24-24.23-2.52-25.62,38.65-24.3C1476.89,669.53,1477.92,620.48,1437.15,609Z"/><path class="cls-7" d="M1295.62,422.16c-.08-.12-7.44-12.9-14.81-25.5-4.33-7.41-7.82-13.31-10.36-17.55-5.14-8.55-5.23-8.55-6.1-8.55a1.24,1.24,0,0,0-1.21,1.19c0,1.42,16.06,47.47,25.66,74.79a1.2,1.2,0,0,0,1.13.8h.08a1.19,1.19,0,0,0,1.09-1l4.66-23.39A1.26,1.26,0,0,0,1295.62,422.16Z"/><path class="cls-7" d="M1372.58,471.17c-1.19-.78-48.8-11.4-77.07-17.66a1.2,1.2,0,0,0-1.32.6,1.19,1.19,0,0,0,.25,1.43l17.41,16.3a1.16,1.16,0,0,0,.77.32c.43,0,42.4,1.38,55.45,1.38h.08c4.1,0,4.63,0,4.93-1A1.22,1.22,0,0,0,1372.58,471.17Z"/><path class="cls-8" d="M1276.1,452.73a13,13,0,0,1,3.6-9.05h-12a1.2,1.2,0,0,0-.69.22c-.16.11-3.82,2.8-3.82,9.48s3.19,8.19,3.55,8.33a1.26,1.26,0,0,0,.43.08h12.58A13,13,0,0,1,1276.1,452.73Z"/><path class="cls-8" d="M1272.27,474.46c-1.33,34.45-3.87,120.64-4.22,132.47a1.17,1.17,0,0,0,.34.87,1.19,1.19,0,0,0,.86.36h11.24a1.19,1.19,0,0,0,1.19-1.19V465.43Z"/><path class="cls-8" d="M1287.64,443.68c-4.6,0-8.35,4.06-8.35,9.05s3.75,9.06,8.35,9.06,8.36-4.06,8.36-9.06S1292.25,443.68,1287.64,443.68Z"/><path class="cls-7" d="M1281.79,458.71l-23.21,5.47a1.26,1.26,0,0,0-.7.47c-.08.12-8.65,12.13-17.07,24.08-4.94,7-8.86,12.64-11.66,16.71-5.66,8.24-5.63,8.31-5.21,9.12a1.21,1.21,0,0,0,1.07.66h0a1.16,1.16,0,0,0,.49-.1c1.31-.55,36.52-34.31,57.39-54.38a1.2,1.2,0,0,0-1.1-2Z"/><path class="cls-8" d="M1182.84,467.32a9.22,9.22,0,0,1,2.54-6.41h-8.53a.89.89,0,0,0-.49.16c-.11.08-2.7,2-2.7,6.71s2.26,5.79,2.51,5.89a.81.81,0,0,0,.31.06h8.9A9.2,9.2,0,0,1,1182.84,467.32Z"/><path class="cls-7" d="M1214.78,464.28c.06-.08,6.3-8.45,12.43-16.77,3.6-4.89,6.46-8.81,8.5-11.65,4.12-5.73,4.09-5.79,3.85-6.35a.87.87,0,0,0-1.11-.45c-.94.37-26.36,23.73-41.43,37.62a.84.84,0,0,0-.2.95s0,0,0,.06a.87.87,0,0,0,.93.44l16.5-3.53A.87.87,0,0,0,1214.78,464.28Z"/><path class="cls-7" d="M1204.48,528c.17-1-6.26-34.9-10.1-55a.86.86,0,0,0-.77-.69.84.84,0,0,0-.86.56L1187,488.74a.86.86,0,0,0,0,.59c.11.28,11,27.95,14.63,36.43l0,0c1.15,2.67,1.31,3,2,2.93A.9.9,0,0,0,1204.48,528Z"/><path class="cls-7" d="M1187.15,465.53,1177.09,452a.89.89,0,0,0-.5-.32c-.1,0-10.3-2.23-20.42-4.35-6-1.25-10.7-2.22-14.13-2.9-7-1.37-7-1.33-7.39-.84a.88.88,0,0,0-.13.88h0a1.15,1.15,0,0,0,.2.29c.73.69,32.53,14.12,51.42,22.07a.84.84,0,0,0,1-.26A.83.83,0,0,0,1187.15,465.53Z"/><path class="cls-8" d="M1180.42,476.31c-.94,24.38-3,91.77-3.28,100.14a.85.85,0,0,0,.24.62.84.84,0,0,0,.6.25h8a.84.84,0,0,0,.85-.84V476.31Z"/><path class="cls-8" d="M1191,460.91a6.43,6.43,0,1,0,5.92,6.41A6.19,6.19,0,0,0,1191,460.91Z"/><path class="cls-8" d="M1030.78,491.18a4.26,4.26,0,0,1,1.18-3h-4a.34.34,0,0,0-.22.07,3.75,3.75,0,0,0-1.26,3.12c0,2.23,1,2.7,1.17,2.75l.14,0H1032A4.26,4.26,0,0,1,1030.78,491.18Z"/><path class="cls-7" d="M1045.64,489.76s2.93-3.93,5.79-7.8c1.67-2.28,3-4.1,4-5.42,1.92-2.67,1.91-2.69,1.8-3a.42.42,0,0,0-.52-.21c-.44.18-12.27,11.05-19.28,17.51a.4.4,0,0,0-.1.44l0,0a.38.38,0,0,0,.43.2l7.68-1.64A.39.39,0,0,0,1045.64,489.76Z"/><path class="cls-7" d="M1040.85,519.43c.08-.46-2.91-16.25-4.7-25.61a.39.39,0,0,0-.36-.32.39.39,0,0,0-.4.26l-2.66,7.39a.36.36,0,0,0,0,.27c0,.13,5.1,13,6.8,16.95v0c.54,1.24.61,1.4,1,1.36A.41.41,0,0,0,1040.85,519.43Z"/><path class="cls-7" d="M1032.78,490.34l-4.67-6.3a.38.38,0,0,0-.24-.15s-4.79-1-9.5-2c-2.77-.58-5-1-6.58-1.35-3.23-.64-3.25-.62-3.44-.39a.44.44,0,0,0-.06.41h0a.71.71,0,0,0,.1.14c.34.32,15.14,6.57,23.93,10.27a.39.39,0,0,0,.46-.6Z"/><path class="cls-8" d="M1029.65,495.36c-.43,11.35-1.41,42.71-1.52,46.6a.36.36,0,0,0,.11.29.36.36,0,0,0,.28.12h3.7a.4.4,0,0,0,.4-.39V495.36Z"/><path class="cls-8" d="M1034.58,488.2a3,3,0,1,0,2.75,3A2.87,2.87,0,0,0,1034.58,488.2Z"/><path class="cls-7" d="M1109.23,467.06c0-.06-3.51-6.09-7-12-2-3.5-3.69-6.29-4.89-8.28-2.42-4-2.47-4-2.87-4a.59.59,0,0,0-.58.56c0,.67,7.58,22.41,12.12,35.31a.56.56,0,0,0,.53.38h0a.57.57,0,0,0,.51-.46l2.2-11A.54.54,0,0,0,1109.23,467.06Z"/><path class="cls-7" d="M1145.57,490.19c-.56-.36-23-5.38-36.39-8.33a.56.56,0,0,0-.5,1l8.22,7.69a.55.55,0,0,0,.36.15c.2,0,20,.66,26.18.66h0c1.93,0,2.18,0,2.33-.48A.59.59,0,0,0,1145.57,490.19Z"/><path class="cls-8" d="M1100,481.49a6.13,6.13,0,0,1,1.7-4.27H1096a.56.56,0,0,0-.33.1,5.45,5.45,0,0,0-1.8,4.48c0,3.19,1.51,3.86,1.68,3.93a.65.65,0,0,0,.2,0h5.94A6.17,6.17,0,0,1,1100,481.49Z"/><path class="cls-8" d="M1098.21,491.75c-.63,16.26-1.83,57-2,62.54a.57.57,0,0,0,.16.41.56.56,0,0,0,.4.17h5.31a.57.57,0,0,0,.57-.56V487.49Z"/><path class="cls-8" d="M1105.47,477.22a4.29,4.29,0,1,0,3.94,4.27A4.12,4.12,0,0,0,1105.47,477.22Z"/><path class="cls-7" d="M1102.71,484.31l-11,2.59a.57.57,0,0,0-.33.22c0,.06-4.09,5.73-8.06,11.37-2.33,3.31-4.18,6-5.5,7.88-2.68,3.9-2.66,3.93-2.47,4.31a.58.58,0,0,0,.51.31h0a.59.59,0,0,0,.23,0c.62-.27,17.24-16.2,27.1-25.68a.57.57,0,0,0-.52-1Z"/><path class="cls-9" d="M1255.54,606.37c4.07,2.6,7.54,4.89,10.9,4.25s3.78-3.14,7-1,6.08,3.37,9.76,1.84,5.4-6.21,8.52-4.1,3.79-1.17-.67-2.17-5-.35-9.3,1.58-7.33-1.57-10.06-1.83-3.66,3.78-8,2.06-11.65-4.81-8.57-1.21"/><path class="cls-9" d="M1088.44,554.21c2,1.3,3.77,2.45,5.45,2.13s1.89-1.57,3.5-.49,3,1.69,4.88.92,2.7-3.1,4.26-2,1.9-.58-.33-1.08-2.48-.18-4.65.79-3.67-.78-5-.92-1.83,1.89-4,1-5.82-2.41-4.28-.61"/><path class="cls-9" d="M1022.27,542.21c1.51,1,2.8,1.82,4,1.58s1.4-1.17,2.61-.36,2.25,1.25,3.62.68,2-2.3,3.17-1.52,1.4-.44-.25-.81-1.84-.13-3.46.59-2.72-.58-3.74-.68-1.36,1.4-3,.77-4.34-1.79-3.19-.46"/><path class="cls-9" d="M1168.43,578c4-.56,6-1.39,8.7.14s5.82,1.68,7.73.75,6.72-2.72,8.93-2,4.06.18,1.57-.87a11.6,11.6,0,0,0-8.54.23c-2,1.12-6.61-.14-9.27-.77a15.74,15.74,0,0,0-8.91,1.16C1166.38,577.68,1166.75,578.23,1168.43,578Z"/><path class="cls-10" d="M558.53,327.91C463.34,281,328.76,234.69,201.59,414,124,523.52,71.47,608.57,4.63,749.42c-12.46,26.25,9.64,46.79,28.93,47.46h1279c38.85,0,41.73-18.11,19.78-39C1237.36,683.82,1092.05,590.63,558.53,327.91Z"/><path class="cls-11" d="M511.46,315.25c5.43,2.53,13.18.15,16-2.81s2.22-16.87.74-26.64-3.26-20.57-11-20.42-9.48,11.39-10.51,17.9S502.29,311,511.46,315.25Z"/><path class="cls-12" d="M521.64,300.19c-.22-.81-.63-.22-1,1.07a17.51,17.51,0,0,1-1.84,3.33c-.43-5.06-1.22-8.57-1.42-5.4-.14,2.1-.41,5.13-.62,8.08a11,11,0,0,1-2.37-2.38c-1.18-1.7-1.59-2.37-1.89-1.67s1.77,4,2.44,4.48c.41.32,1.17,1,1.69,1.47a46.44,46.44,0,0,0-.09,6.34c.33,3.33-.56,8.1,1.44,8.54,1.42.32,1.11-5.32,1.11-13,0-1.38,0-2.79-.12-4.15a19.06,19.06,0,0,1,1.3-1.66A10,10,0,0,0,521.64,300.19Z"/><path class="cls-11" d="M470.9,302.83c5.42,2.54,13.17.15,16-2.81s2.22-16.87.74-26.64-3.25-20.57-10.95-20.42-9.47,11.39-10.5,17.91S461.73,298.54,470.9,302.83Z"/><path class="cls-12" d="M481.08,287.77c-.23-.81-.63-.22-1,1.08a18,18,0,0,1-1.84,3.32c-.43-5.05-1.22-8.57-1.42-5.4-.14,2.11-.41,5.13-.62,8.08a10.6,10.6,0,0,1-2.37-2.38c-1.19-1.7-1.59-2.37-1.89-1.66s1.77,4,2.44,4.47c.41.32,1.16,1,1.69,1.48a46.59,46.59,0,0,0-.1,6.33c.34,3.33-.55,8.1,1.45,8.55,1.42.31,1.11-5.33,1.11-13,0-1.38-.05-2.79-.13-4.15.35-.4.77-1.12,1.31-1.66A9.93,9.93,0,0,0,481.08,287.77Z"/><polygon class="cls-12" points="1079.32 621.84 1077.8 645.26 1069.94 644.75 1071.49 620.96 1079.32 621.84"/><rect class="cls-12" x="1059.8" y="643.56" width="27.75" height="7.61" transform="translate(2103.14 1362.96) rotate(-176.28)"/><polygon class="cls-12" points="999.55 636.35 998.03 659.76 990.17 659.25 991.72 635.46 999.55 636.35"/><rect class="cls-12" x="980.03" y="658.06" width="27.75" height="7.61" transform="translate(1942.83 1386.76) rotate(-176.28)"/><polygon class="cls-12" points="967.36 649.42 965.84 672.84 957.98 672.33 959.52 648.53 967.36 649.42"/><rect class="cls-12" x="947.84" y="671.13" width="27.75" height="7.61" transform="translate(1877.66 1410.79) rotate(-176.28)"/><polygon class="cls-12" points="897.73 665.96 896.21 689.38 888.35 688.87 889.89 665.08 897.73 665.96"/><rect class="cls-12" x="878.21" y="687.67" width="27.75" height="7.61" transform="translate(1737.48 1439.33) rotate(-176.28)"/><polygon class="cls-12" points="852.35 684.22 850.83 707.64 842.97 707.13 844.51 683.34 852.35 684.22"/><rect class="cls-12" x="832.83" y="705.93" width="27.75" height="7.61" transform="translate(1645.64 1472.87) rotate(-176.28)"/><polygon class="cls-12" points="783.09 694.47 781.57 717.89 773.71 717.38 775.26 693.59 783.09 694.47"/><rect class="cls-12" x="763.57" y="716.18" width="27.75" height="7.61" transform="translate(1506.6 1488.86) rotate(-176.28)"/><polygon class="cls-12" points="625.61 575.13 624.46 592.86 618.51 592.47 619.68 574.46 625.61 575.13"/><rect class="cls-12" x="610.83" y="591.57" width="21.02" height="5.77" transform="translate(1202.84 1227.92) rotate(-176.28)"/><polygon class="cls-12" points="695.51 565.99 694.36 583.73 688.41 583.34 689.58 565.32 695.51 565.99"/><rect class="cls-12" x="680.73" y="582.43" width="21.02" height="5.77" transform="translate(1343.09 1214.21) rotate(-176.28)"/><polygon class="cls-12" points="723.32 562.16 722.16 579.89 716.21 579.5 717.38 561.49 723.32 562.16"/><rect class="cls-12" x="708.53" y="578.6" width="21.02" height="5.77" transform="translate(1398.89 1208.35) rotate(-176.28)"/><polygon class="cls-12" points="801.7 554.33 800.54 572.06 794.59 571.68 795.76 553.66 801.7 554.33"/><rect class="cls-12" x="786.92" y="570.77" width="21.02" height="5.77" transform="translate(1555.99 1197.79) rotate(-176.28)"/><polygon class="cls-12" points="833.86 550.23 832.7 567.97 826.75 567.58 827.92 549.56 833.86 550.23"/><rect class="cls-12" x="819.08" y="566.67" width="21.02" height="5.77" transform="translate(1620.51 1191.68) rotate(-176.28)"/><polygon class="cls-12" points="879.89 524.03 878.74 541.76 872.79 541.38 873.96 523.36 879.89 524.03"/><rect class="cls-12" x="865.11" y="540.47" width="21.02" height="5.77" transform="matrix(-1, -0.06, 0.06, -1, 1714.18, 1142.32)"/><polygon class="cls-12" points="807.05 528.03 805.89 545.76 799.94 545.38 801.11 527.36 807.05 528.03"/><rect class="cls-12" x="792.27" y="544.47" width="21.02" height="5.77" transform="translate(1568.38 1145.59) rotate(-176.28)"/><polygon class="cls-12" points="769.19 535.03 768.04 552.76 762.08 552.37 763.25 534.36 769.19 535.03"/><rect class="cls-12" x="754.41" y="551.47" width="21.02" height="5.77" transform="translate(1492.29 1157.11) rotate(-176.28)"/><polygon class="cls-12" points="696.74 537.92 695.58 555.65 689.63 555.27 690.8 537.25 696.74 537.92"/><rect class="cls-12" x="681.95" y="554.36" width="21.02" height="5.77" transform="matrix(-1, -0.06, 0.06, -1, 1347.35, 1158.2)"/><polygon class="cls-12" points="589.22 548.63 588.06 566.37 582.11 565.98 583.28 547.96 589.22 548.63"/><rect class="cls-12" x="574.43" y="565.07" width="21.02" height="5.77" transform="translate(1131.84 1172.63) rotate(-176.28)"/><polygon class="cls-12" points="467.18 453.07 466.26 467.18 461.53 466.87 462.46 452.54 467.18 453.07"/><rect class="cls-12" x="455.43" y="466.15" width="16.72" height="4.59" transform="translate(896.23 965.96) rotate(-176.28)"/><polygon class="cls-12" points="557.79 449.47 556.88 463.57 552.14 463.26 553.07 448.94 557.79 449.47"/><rect class="cls-12" x="546.04" y="462.54" width="16.72" height="4.59" transform="translate(1077.49 964.63) rotate(-176.28)"/><polygon class="cls-12" points="620.28 446.76 619.37 460.86 614.63 460.56 615.56 446.23 620.28 446.76"/><rect class="cls-12" x="608.53" y="459.84" width="16.72" height="4.59" transform="translate(1202.52 963.27) rotate(-176.28)"/><polygon class="cls-12" points="647.11 445.33 646.2 459.43 641.46 459.13 642.39 444.8 647.11 445.33"/><rect class="cls-12" x="635.36" y="458.41" width="16.72" height="4.59" transform="translate(1256.22 962.15) rotate(-176.28)"/><polygon class="cls-12" points="713.64 441.42 712.73 455.52 707.99 455.21 708.92 440.89 713.64 441.42"/><rect class="cls-12" x="701.89" y="454.5" width="16.72" height="4.59" transform="translate(1389.39 958.65) rotate(-176.28)"/><polygon class="cls-12" points="685.88 427.27 684.96 441.37 680.23 441.07 681.16 426.74 685.88 427.27"/><rect class="cls-12" x="674.12" y="440.35" width="16.72" height="4.59" transform="translate(1334.83 928.58) rotate(-176.28)"/><polygon class="cls-12" points="622.11 426.2 621.19 440.3 616.46 440 617.39 425.67 622.11 426.2"/><rect class="cls-12" x="610.35" y="439.28" width="16.72" height="4.59" transform="translate(1207.49 922.31) rotate(-176.28)"/><polygon class="cls-12" points="597.49 430.75 596.57 444.85 591.84 444.54 592.77 430.21 597.49 430.75"/><rect class="cls-12" x="585.73" y="443.82" width="16.72" height="4.59" transform="translate(1158.01 929.8) rotate(-176.28)"/><polygon class="cls-12" points="534.95 430.46 534.03 444.56 529.3 444.25 530.23 429.92 534.95 430.46"/><rect class="cls-12" x="523.2" y="443.53" width="16.72" height="4.59" transform="translate(1033.09 925.17) rotate(-176.28)"/><polygon class="cls-12" points="507.26 434.15 506.34 448.25 501.61 447.95 502.54 433.62 507.26 434.15"/><rect class="cls-12" x="495.5" y="447.23" width="16.72" height="4.59" transform="translate(977.53 930.75) rotate(-176.28)"/><polygon class="cls-12" points="445.83 435.86 444.92 449.97 440.18 449.66 441.11 435.33 445.83 435.86"/><rect class="cls-12" x="434.08" y="448.94" width="16.72" height="4.59" transform="matrix(-1, -0.06, 0.06, -1, 854.69, 930.19)"/><polygon class="cls-12" points="332.74 346.99 332.15 356.02 329.12 355.82 329.72 346.65 332.74 346.99"/><rect class="cls-12" x="325.21" y="355.36" width="10.7" height="2.94" transform="translate(637.3 734.33) rotate(-176.28)"/><polygon class="cls-12" points="383.83 350.23 383.24 359.26 380.21 359.06 380.81 349.89 383.83 350.23"/><rect class="cls-12" x="376.3" y="358.6" width="10.7" height="2.94" transform="translate(739.17 744.11) rotate(-176.28)"/><polygon class="cls-12" points="405.81 348.99 405.23 358.02 402.2 357.82 402.79 348.65 405.81 348.99"/><rect class="cls-12" x="398.29" y="357.36" width="10.7" height="2.94" transform="translate(783.17 743.07) rotate(-176.28)"/><polygon class="cls-12" points="483.42 351.86 482.83 360.89 479.8 360.69 480.4 351.52 483.42 351.86"/><rect class="cls-12" x="475.89" y="360.23" width="10.7" height="2.94" transform="matrix(-1, -0.06, 0.06, -1, 938.03, 753.82)"/><polygon class="cls-12" points="537.97 355.61 537.38 364.63 534.35 364.44 534.95 355.26 537.97 355.61"/><rect class="cls-12" x="530.44" y="363.97" width="10.7" height="2.94" transform="translate(1046.77 764.85) rotate(-176.28)"/><polygon class="cls-12" points="532.15 450.62 531.24 464.73 526.5 464.42 527.43 450.09 532.15 450.62"/><rect class="cls-12" x="520.4" y="463.7" width="16.72" height="4.59" transform="translate(1026.2 965.28) rotate(-176.28)"/><polygon class="cls-12" points="914.2 537.91 913.05 555.64 907.1 555.26 908.26 537.24 914.2 537.91"/><rect class="cls-12" x="899.42" y="554.35" width="21.02" height="5.77" transform="matrix(-1, -0.06, 0.06, -1, 1781.82, 1172.28)"/><path class="cls-9" d="M844.52,545.09l13.67,7.52,18.95-3.27-13.37-7.05Z"/><path class="cls-9" d="M915.3,587.4l-19.17,4,30,17,19.16-4.56Z"/><path class="cls-9" d="M969.69,598.09l-30-15.8-20,4.18,29.87,16.39Z"/><path class="cls-7" d="M862.36,554.91l23.37,12.86,19.6-3.59-23.87-12.57Z"/><polygon class="cls-9" points="914.33 565.56 940.15 579.16 958.13 575.39 932.18 562.29 914.33 565.56"/><path class="cls-9" d="M820.57,548.58l14.24,8.08,18.69-3.24-13.84-7.62Z"/><path class="cls-9" d="M857.68,555.72,838.89,559l23.18,13.14,19-3.49Z"/><path class="cls-9" d="M935.58,580.11l-26-13.68L889.86,570l25.89,14.23Z"/><path class="cls-9" d="M1071.91,629.51l21.77-4.83L1057,606.44l-20.66,5.13Z"/><path class="cls-9" d="M885.24,570.89l-19.14,3.5,26.11,14.81,19.08-4Z"/><polygon class="cls-7" points="886.27 550.78 910.07 563.31 927.78 560.07 903.49 547.8 886.27 550.78"/><polygon class="cls-9" points="992.38 592.68 962.39 577.54 944.28 581.33 974.1 597.04 992.38 592.68"/><polygon class="cls-9" points="891.26 538.29 903.96 544.7 925.51 540.97 913.58 535.04 891.26 538.29"/><polygon class="cls-9" points="868.77 541.56 881.95 548.5 899.04 545.55 886.13 539.03 868.77 541.56"/><path class="cls-7" d="M983.34,624.7l-19.84,4.91,30.38,17.22,21.36-4.74C1006.16,637.16,995.44,631.32,983.34,624.7Z"/><path class="cls-9" d="M987.58,623.65c12.3,6.72,23.08,12.6,32,17.46l22.34-5-33.54-17.67Z"/><polygon class="cls-7" points="937.03 561.4 962.8 574.41 983.84 570.01 958.6 557.45 937.03 561.4"/><path class="cls-9" d="M1032,612.66l-19.17,4.75,33.68,17.75,20.86-4.63Z"/><polygon class="cls-9" points="908.41 546.95 932.63 559.18 954.16 555.23 930.01 543.22 908.41 546.95"/><path class="cls-7" d="M1004.47,616.4,973.7,600.19,953.51,605l30.2,16.54Z"/><path class="cls-9" d="M949.22,606,930,610.6l29.75,16.87,19.74-4.88C970.11,617.47,960,611.93,949.22,606Z"/><path class="cls-7" d="M1052.93,604.4l-31.35-15.61L1001,593.7l31.31,15.81Z"/><path class="cls-9" d="M1027.87,610.61,996.5,594.76l-18.4,4.39,30.71,16.18Z"/><polygon class="cls-9" points="967.06 576.56 996.87 591.62 1017.42 586.72 988.14 572.15 967.06 576.56"/><path class="cls-9" d="M851.17,597.79,825,581.92l-15.53,2.85,26.1,16.29Z"/><polygon class="cls-7" points="846.24 575 823.54 561.62 803.1 565.16 825.57 578.79 846.24 575"/><path class="cls-7" d="M801.38,583.22l-22.27-13.91L760,572.61l21.81,14.2Z"/><path class="cls-9" d="M755.69,573.36l-21.93,3.79L756,591.53l21.51-3.94Z"/><path class="cls-9" d="M831.36,601.94l-26.23-16.38-19.69,3.61,26,16.94Z"/><path class="cls-9" d="M781.18,590l-21.49,3.94,27,17.42L807.33,607Z"/><path class="cls-9" d="M821.17,579.6l-22.54-13.67-15.12,2.62,22.22,13.88Z"/><path class="cls-9" d="M775.33,566.94l-21.62-13.52-19.84,2.17,22.47,14.63Z"/><path class="cls-9" d="M925,639.11l33.41,20.27,21.78-5.4L946.15,633.9Z"/><path class="cls-9" d="M794.76,563.58l-20.47-12.41-15.81,1.73,21.25,13.28Z"/><polygon class="cls-9" points="819.58 559.29 800.87 548.26 779.15 550.63 799.22 562.81 819.58 559.29"/><path class="cls-9" d="M729.2,556.1l-24,2.63,24.84,16L752,571Z"/><path class="cls-9" d="M917.35,637.94l-28.81-17.47-15.82,3.76,28.44,17.7Z"/><polygon class="cls-9" points="876.06 592.58 850.16 577.31 829.41 581.12 855.43 596.9 876.06 592.58"/><path class="cls-9" d="M942.48,631.73l-29.13-17.17-20.68,4.93,28.76,17.44Z"/><path class="cls-9" d="M900.67,645.12l-21.2,5.23c12.25,8,23,14.93,31.87,20.69l22.25-5.51C924.65,660,913.64,653.19,900.67,645.12Z"/><path class="cls-9" d="M897.13,642.92l-27.86-17.33-.61-.39-20.4,4.86c9.89,6.43,19.18,12.48,27.78,18.06Z"/><path class="cls-9" d="M875.51,651.32l-19.46,4.79,32,20.69,19.3-4.78C898.38,666.19,887.66,659.22,875.51,651.32Z"/><path class="cls-7" d="M904.7,644.13c12.77,7.93,23.86,14.81,32.92,20.4l16.74-4.14L921,640.12Z"/><path class="cls-9" d="M865.1,623,835,604.22l-20,4.19,29.83,19.41Z"/><path class="cls-9" d="M844.26,631l-19.79,4.71,28.14,18.17,19.47-4.79Z"/><path class="cls-7" d="M810.87,609.28l-20.65,4.32L821,633.49l19.81-4.72Z"/><polygon class="cls-9" points="909.65 612.38 879.87 594.83 859.16 599.16 889.04 617.29 909.65 612.38"/><path class="cls-7" d="M884.92,618.27l-30-18.21-15.67,3.28L869.17,622Z"/><path class="cls-9" d="M769.39,614.92l-26-18-20.1,3.68,25.84,18.61Z"/><path class="cls-9" d="M715.91,598.88l-20.88-15-17.21,3,20.33,15.32Z"/><path class="cls-9" d="M723.05,624.63,697.4,605.3l-17.31,3.17,25.43,19.83Z"/><path class="cls-9" d="M802.45,637.9l-29.69-20.64-20.31,4.25L782,642.77Z"/><path class="cls-7" d="M670.53,585.06l-24.59-18.53-17.1,2q12.6,9.81,24.92,19.41Z"/><path class="cls-9" d="M694.17,602.87l-20.38-15.35-16.85,2.91L677,606Z"/><path class="cls-7" d="M745.22,620l-26-18.68-17.88,3.27,25.55,19.25Z"/><path class="cls-7" d="M814.78,666.25c13,9.32,24.49,17.49,34,24.23l22-5.1L835.8,661.09Z"/><path class="cls-9" d="M624.62,569l-13.85,1.64,24.54,20.47,14.48-2.51Z"/><path class="cls-9" d="M691.65,581.41,667.49,564l-17.28,2,24.35,18.33Z"/><path class="cls-9" d="M740,594.47l-21.19-14.73-19.65,3.39,20.83,15Z"/><path class="cls-9" d="M715.31,577.32,692,561.1l-20.1,2.37,23.88,17.23Z"/><path class="cls-7" d="M784.18,670.67,758.6,651.4l-18,4.28,25,19.52Z"/><path class="cls-9" d="M761.93,676.1l-25-19.53-18.06,4.3,23.83,19.89Z"/><path class="cls-9" d="M819.5,697.28,787.24,673l-18.65,4.55c11.81,9.23,22.28,17.42,31.11,24.35Z"/><path class="cls-9" d="M755.51,649.08,726.21,627,708.6,630.7l29,22.64Z"/><path class="cls-9" d="M733.91,654.22Q720,643.38,704.78,631.5L687.9,635,716,658.49Z"/><path class="cls-9" d="M764.9,678.42c-6.92,1.69-13.4,3.26-19.38,4.7l29.39,24.52L796,702.75C787.09,695.77,776.63,687.59,764.9,678.42Z"/><path class="cls-9" d="M811,667.18l-20,4.89,32.3,24.33,21.62-5C835.3,684.56,823.88,676.42,811,667.18Z"/><path class="cls-9" d="M778.19,643.68Q764,633.51,748.5,622.34l-18.41,3.86,29.18,22Z"/><path class="cls-9" d="M807.79,664.9,781.39,646l-19,4.53,25.55,19.25Z"/><path class="cls-9" d="M673,606.74l-20-15.62-14.66,2.53,19.11,16Z"/><path class="cls-9" d="M832.54,658.82l-26.81-18.64-20.5,4.88c9.32,6.69,18.14,13,26.36,18.9Z"/><path class="cls-9" d="M701.7,629.1l-25.54-19.91-15.77,2.89L685,632.6Z"/><path class="cls-9" d="M657.17,454.55l21.05,12,16.23-.84-21.62-11.93Z"/><path class="cls-9" d="M637.37,443.23l15,8.57,15.5-.73q-7.64-4.2-15.17-8.37Z"/><path class="cls-9" d="M793.91,517.21,822.62,533l19.72-2L812.8,515.44Z"/><path class="cls-9" d="M729.41,481.64l28.36,15.65,17.88-1.41-29.41-15.49Z"/><path class="cls-9" d="M762.5,499.89l26.78,14.77L808,512.91l-27.42-14.44Z"/><path class="cls-9" d="M707.49,483.32,735,499.07l17.35-1.36L724,482.05Z"/><path class="cls-7" d="M770.59,519.4l28.12,16.08,18.72-1.92L788.65,517.7Z"/><path class="cls-9" d="M871,528.06l20.8-2.14-31.42-14.87-19.51,1.79Z"/><path class="cls-9" d="M683,469.32l19.8,11.32,16.34-1.27-19.75-10.89Z"/><path class="cls-9" d="M739.62,501.69l26.49,15.15L784,515.15l-26.91-14.83Z"/><path class="cls-9" d="M705,468.19,724.55,479l16.62-1.25-19.69-10.37Z"/><path class="cls-9" d="M818.23,514.94l29.45,15.51,17.83-1.83-30.23-15.26Z"/><polygon class="cls-9" points="699.81 452.56 722.14 464.33 736.7 463.58 713.61 451.92 699.81 452.56"/><path class="cls-9" d="M678.51,453.56l21.57,11.9,16.24-.83-22.38-11.79Z"/><polygon class="cls-9" points="679.34 441.78 694.62 449.82 708.21 449.19 692.62 441.32 679.34 441.78"/><path class="cls-9" d="M772.79,478.47,803,493.71l17.76-1.42-31.6-15Z"/><polygon class="cls-9" points="719.66 451.64 742.69 463.27 757.79 462.49 733.49 450.99 719.66 451.64"/><polygon class="cls-7" points="698.8 441.11 714.25 448.91 727.75 448.28 711.66 440.66 698.8 441.11"/><path class="cls-9" d="M748.05,466l19.45,9.83c5.38-.39,10.73-.76,16-1.13l-20-9.49Z"/><path class="cls-9" d="M835.87,510.32l19.22-1.77-29-13.71-18,1.44Z"/><path class="cls-9" d="M658.48,442.5l15,8.31,15.22-.71L673.34,442Z"/><path class="cls-7" d="M751.85,480l29.36,15.47,16.06-1.28L767,478.88Z"/><path class="cls-9" d="M786.12,498l27.29,14.37,16.88-1.57-27.92-14.09Z"/><path class="cls-9" d="M727.3,467l19.47,10.26,15-1.09-19.66-9.93Z"/><path class="cls-9" d="M747.05,518.64c-8.31-4.69-17.57-9.94-27.22-15.4l-16.68,1.3,26.05,15.8,7.3-.69Z"/><path class="cls-9" d="M693.72,502.29l-26.08-15.81-13.51,1.1,25.27,15.83Z"/><path class="cls-9" d="M683.63,506.05l25.83,16.17,14.78-1.41-26.18-15.88Z"/><path class="cls-9" d="M691.24,544l17.68-1.07-23.61-15.38L669,529.08Z"/><path class="cls-9" d="M663.21,483.79l-20.45-12.4-13.37.69,20.44,12.8Z"/><path class="cls-9" d="M686.08,524.46l18.51-1.77-26-16.25-18.06,1.4Z"/><path class="cls-7" d="M638.23,468.64,618,456.38l-12.73.6L625,469.32Z"/><path class="cls-9" d="M600.86,454.2l12.6-.58L599.24,445c-3.89.13-8.06.3-12.3.49Z"/><path class="cls-9" d="M631.82,452.76c-7.18-4.25-11.54-6.95-11.7-7.34-.28-.7-6.6-.8-15.4-.59l14.07,8.54Z"/><path class="cls-9" d="M595.64,454.45l-13.92-8.72c-5.28.25-10.5.53-15.22.8l13.29,8.66Z"/><path class="cls-9" d="M619.81,469.59l-19.75-12.37-16,.75,19.14,12.48Z"/><path class="cls-7" d="M713.59,524.81,739.51,541l16.42-1-27.44-16.64Z"/><path class="cls-9" d="M644.87,485.29,624.2,472.35l-16.76.86,20.67,13.47Z"/><path class="cls-9" d="M674.41,503.79c-3.45-2.15-6.91-4.32-10.41-6.52L649.16,488l-16.91,1.4,24.25,15.8Z"/><path class="cls-9" d="M708.72,525.27l-18.65,1.78,23.84,15.54,20.49-1.25Z"/><path class="cls-9" d="M579,458.21l-14.77.69L583,471.49l15.14-.78Z"/><path class="cls-9" d="M665.11,526.47l16.22-1.56L655.7,508.22l-16,1.23Z"/><path class="cls-7" d="M627.42,489.78l-15.19,1.28,23.49,15.73,15.9-1.23Z"/><path class="cls-9" d="M602.38,473.47l-15.25.78,21.07,14.11,15.08-1.27Z"/><path class="cls-9" d="M561.49,446.81c-8.29.48-14.07.86-14.07.86L560,456.11l14.66-.68Z"/><path class="cls-9" d="M698.8,501.9l16.42-1.28-27.67-15.73-14.84,1.18Z"/><path class="cls-9" d="M761.15,539.72l21-1.28s-12.5-7-30.56-17.24l-18.12,1.72Z"/><path class="cls-9" d="M643.52,468.37l13.92-.72c-7.93-4.56-15.07-8.7-20.93-12.13l-13.16.61Z"/><path class="cls-9" d="M668.27,483.38l14.59-1.17c-7.17-4.09-14.13-8.07-20.66-11.82l-14.15.73Z"/><path class="cls-9" d="M590.06,489.91l-21-14.73-18.13.94,21.24,15.34Z"/><path class="cls-9" d="M645.1,528.4,620.16,511l-19,1.46,24.7,17.83Z"/><path class="cls-9" d="M616.32,508.28l-22.4-15.67-18,1.56,21.55,15.56Z"/><path class="cls-9" d="M675.88,549.91l-27-18.9-19.36,1.87,24.46,17.65Z"/><path class="cls-9" d="M502.9,458.78l-13.06-9.84-13.88.63q6.29,4.9,12.69,9.87Z"/><path class="cls-9" d="M471.38,449.79l-14.22.69,12.35,9.86,14.56-.68Z"/><path class="cls-9" d="M565.05,472.41,546.92,459.7l-17.6.83L547,473.33Z"/><path class="cls-7" d="M567.58,491.86l-21.44-15.5-14,.72,21.26,16Z"/><path class="cls-9" d="M523.81,474.53l-17.18-12.94-14.37.67,16.76,13Z"/><path class="cls-7" d="M542.93,456.91c-7.84-5.5-12.7-8.92-12.89-9.09-.35-.31-7.89-.15-18,.22l13.4,9.69Z"/><path class="cls-9" d="M520.67,458l-13.46-9.73c-4,.15-8.36.33-12.69.52l13,9.82Z"/><path class="cls-9" d="M542.29,473.58l-17.75-12.83-13.25.62,17.15,12.92Z"/><path class="cls-9" d="M573,511.6l-20.45-15.41-15,1.32q9.78,7.64,19.65,15.3Z"/><path class="cls-9" d="M625.81,551.37,604.48,535.3l-16.31,1.58L607.54,552Z"/><path class="cls-9" d="M601,532.66,576.61,514.3l-15.89,1.22,24,18.71Z"/><path class="cls-9" d="M580.45,534.65,556.3,515.86l-15.81,1.2c8.74,7,17,13.58,23.88,19.15Z"/><path class="cls-7" d="M602.89,552.12l-19-14.82-16.17,1.57C578,547.2,584.82,552.7,585,553,585,552.81,592.33,552.49,602.89,552.12Z"/><path class="cls-9" d="M552.82,513.15,533.23,497.9l-15,1.34,18.88,15.11Z"/><path class="cls-9" d="M585,553s0,0,0,0Z"/><path class="cls-9" d="M529.75,495.19l-21.69-16.87L493,479.1l21.82,17.43Z"/><path class="cls-9" d="M621.34,530.69l-24.81-17.91L581.1,514l24.26,18.27Z"/><path class="cls-9" d="M592.81,510.09l-21.49-15.53L557,495.81l20.51,15.45Z"/><path class="cls-9" d="M549,493.49l-21.47-16.17-14.9.77,21.49,16.72Z"/><path class="cls-9" d="M649,550.67l-24-17.35-16.12,1.56,21.71,16.35Z"/><path class="cls-9" d="M504.47,475.53l-16.79-13.06-14.64.68,16.45,13.15Z"/><path class="cls-9" d="M514.43,437.82l-20.26-13.75-14.46.58,18.66,13.49Z"/><path class="cls-9" d="M417.85,394.7l-16.11-12.13H389.79l15.78,12.27Z"/><path class="cls-9" d="M490,421.26l-18.27-12.41-13.41.35,17.46,12.63Z"/><path class="cls-9" d="M375.76,359.27l11.78,8.87h9l-12.1-8.77Z"/><path class="cls-9" d="M397.79,379.59l-11.25-8.47H375.07L386,379.59Z"/><path class="cls-9" d="M467.53,406l-12.81-8.7-12.64.14,12.3,8.9Z"/><path class="cls-9" d="M401.61,368.13h10.17l-12.64-8.58-9.55-.11Z"/><path class="cls-9" d="M382.6,368.15l-11.86-8.93-11.16-.13,11.67,9.07Z"/><path class="cls-9" d="M417.45,379.59h11.22l-12.51-8.49H405.72Z"/><path class="cls-9" d="M337.61,345.78l-10.55-.7,13.08,10.8,10.63.13Z"/><path class="cls-9" d="M433,394.54l-16.54-12h-9.78l16,12.08Z"/><path class="cls-7" d="M391.48,371.12l11.26,8.47h9.62l-11.72-8.48Z"/><path class="cls-9" d="M450.41,394.35l-17.35-11.78h-11.5L438,394.49Z"/><path class="cls-9" d="M342.92,346.14l12.78,9.93,11,.13-12.33-9.29Z"/><path class="cls-9" d="M416.72,407.29l-12.16-9.46-13.5.14,11.7,9.67Z"/><path class="cls-7" d="M400.78,394.89l-15.84-12.32H372.43L387.51,395Z"/><path class="cls-9" d="M381.11,379.59l-10.88-8.46H358.6l10.23,8.45Z"/><path class="cls-9" d="M437.41,423.37l-17-13.2-14.17.36L422.51,424Z"/><path class="cls-9" d="M434,406.84l-12.22-9.2-12.4.13,12.08,9.39Z"/><path class="cls-7" d="M455,422.66l-17.18-12.94-12.65.33L442,423.18Z"/><path class="cls-9" d="M476.1,438.59l-17.38-13.1-13.05.53,16.52,12.85Z"/><path class="cls-9" d="M441.05,426.2l-15.1.61,15.11,12.48,16.4-.33Z"/><path class="cls-9" d="M471,422l-17.55-12.7-10.87.28,17.09,12.87Z"/><path class="cls-9" d="M366.4,368.16,354.65,359l-10.86-.13L355,368.17Z"/><path class="cls-9" d="M493.41,438.24l-18.52-13.4-11.48.46,17.51,13.19Z"/><path class="cls-9" d="M449.46,406.45l-12.4-9-10.44.12,12.13,9.13Z"/><path class="cls-9" d="M385.42,356.41l9.26.11-11.3-7.67-9.26-.62Z"/><path class="cls-7" d="M371.76,356.25l8.5.1-11.74-8.5-8.69-.58Z"/><polygon class="cls-9" points="537.69 404.18 552 403.81 539.01 396.37 525.06 396.52 537.69 404.18"/><path class="cls-9" d="M490.37,396.89q6.18,4,12.54,8.18l13.42-.34-12.72-8Z"/><path class="cls-9" d="M509.12,396.69l12.6,7.9,10.47-.27-12.77-7.74Z"/><path class="cls-9" d="M509.26,420.48l11.15-.44-18.35-12-10.9.28Z"/><polygon class="cls-9" points="520.24 393.59 533.92 393.44 514.95 382.57 502.06 382.57 520.24 393.59"/><path class="cls-7" d="M486.6,382.57l17.85,11.19,10.15-.11-18.27-11.08Z"/><path class="cls-9" d="M549.26,421.86l18.61,11.67c4-.16,8-.31,11.7-.47l-19.21-11.65Z"/><path class="cls-7" d="M526.28,407.45l18.51,11.61,11-.44L536.9,407.18Z"/><path class="cls-9" d="M530.16,434.51c.68.15,5.48.09,12.29-.1l-17.73-11.57-11.26.46C523.61,430.1,530.16,434.51,530.16,434.51Z"/><path class="cls-9" d="M468.4,382.57,485.88,394l13.06-.15L481,382.57Z"/><polygon class="cls-9" points="561.14 418.4 576.38 417.79 556.97 406.66 542.4 407.04 561.14 418.4"/><path class="cls-9" d="M585,432.85l16.47-.7-20.19-11.58-15.48.63Z"/><path class="cls-9" d="M544,422.07l-14.13.57,17.82,11.61,14.91-.52Z"/><path class="cls-9" d="M507.31,407.94l18.24,11.89,14-.56-18.63-11.68Z"/><path class="cls-9" d="M460.33,357.25l10.67.12-10.08-5.78-11.33-.85Z"/><path class="cls-9" d="M418.33,359.76l12.58,8.35h9.84l-12.62-8.23Z"/><path class="cls-7" d="M433.68,359.93l12.52,8.17h11.71l-12.8-8Z"/><path class="cls-9" d="M429,356.91l11.25.12-12.51-7.85c-4.09-.28-8.11-.54-11.77-.77Z"/><path class="cls-9" d="M446,357.1l8.49.09-11.42-6.93-9-.64Z"/><path class="cls-9" d="M400.1,347.92c.57.24,5.72,3.58,13.65,8.82l9.74.11L410,348.06C403.5,347.71,399.29,347.58,400.1,347.92Z"/><path class="cls-9" d="M450.82,360.12l12.68,8h8.93l-13-7.85Z"/><path class="cls-9" d="M468.24,371.05l13.62,8.54h9.56l-14.09-8.54Z"/><polygon class="cls-9" points="497.16 379.59 509.76 379.59 494.83 371.03 483.06 371.04 497.16 379.59"/><path class="cls-9" d="M452.61,382.57l17.31,11.57,10.59-.12L463,382.57Z"/><path class="cls-9" d="M485,397l-10.7.12,12.58,8.42,10.79-.28Z"/><path class="cls-9" d="M450.76,371.07l13.07,8.52h12.42l-13.6-8.53Z"/><path class="cls-9" d="M435.38,371.08l12.77,8.51h10.23l-13.07-8.52Z"/><path class="cls-9" d="M478.16,368.07h11.49l-13.36-7.66-11-.12Z"/><path class="cls-9" d="M512.32,371l15.14,8.57h11L522.9,371Z"/><path class="cls-9" d="M532.72,382.57l18.86,10.68,11.35-.12-19.11-10.56Z"/><polygon class="cls-9" points="544.95 370.99 561.28 379.59 570.38 379.59 553.34 370.99 544.95 370.99"/><path class="cls-9" d="M550,382.57l19,10.5,11.27-.13-19.69-10.37Z"/><polygon class="cls-9" points="610.09 405.3 629.73 415.65 640.89 415.2 620.75 405.03 610.09 405.3"/><polygon class="cls-9" points="592.03 395.79 604.7 402.46 615.14 402.19 602.24 395.68 592.03 395.79"/><polygon class="cls-9" points="634.99 418.42 655.9 429.43 668.65 429.21 646.36 417.96 634.99 418.42"/><path class="cls-9" d="M556.74,396.18l12.69,7.19,11.49-.3-12.71-7Z"/><path class="cls-9" d="M574.46,406.22l19.21,10.88,11.79-.48-19.38-10.7Z"/><path class="cls-9" d="M598.58,419.88l18,10.22,12.84-.22-19-10.48Z"/><path class="cls-7" d="M592,405.77l19.24,10.62,12.59-.5L604,405.46Z"/><path class="cls-9" d="M616.23,419.17l19.21,10.61,14.27-.24-20.66-10.89Z"/><path class="cls-9" d="M574.25,396l12.56,6.93,11.79-.3-12.83-6.76Z"/><polygon class="cls-7" points="566.93 382.57 586.5 392.88 596.47 392.77 576.28 382.57 566.93 382.57"/><path class="cls-7" d="M529,371l15.54,8.59h10.31L538.57,371Z"/><path class="cls-9" d="M525.85,360.93,539.31,368h8.14l-13.87-7Z"/><path class="cls-9" d="M554,368h9.79l-14.35-6.83-9.16-.09Z"/><path class="cls-9" d="M505,357.74l8.53.09-9.9-5.22-9.14-.68Z"/><path class="cls-9" d="M534.3,358l8.79.09-6.42-3.06-9.67-.72Z"/><polygon class="cls-9" points="559.93 370.98 576.99 379.59 588.2 379.59 570.08 370.97 559.93 370.98"/><path class="cls-9" d="M488.56,357.56l10.2.11-11.34-6.27-11.22-.84Z"/><path class="cls-9" d="M511.11,353.17l9,4.72,7.47.08-8.31-4.2Z"/><path class="cls-9" d="M493.91,360.59l13.16,7.46h10.45l-13.27-7.34Z"/><polygon class="cls-9" points="582.88 382.57 602.93 392.7 615.45 392.56 594.45 382.57 582.88 382.57"/><polygon class="cls-9" points="675.04 429.11 691.65 428.82 667.07 417.13 652.48 417.71 675.04 429.11"/><path class="cls-9" d="M510.52,360.77,523.67,368h9.26l-13.6-7.17Z"/><polygon class="cls-9" points="627.03 404.87 647.01 414.95 661.3 414.38 640.58 404.52 627.03 404.87"/><polygon class="cls-9" points="608.71 395.61 621.42 402.03 634.64 401.69 621.56 395.47 608.71 395.61"/><path class="cls-13" d="M1100.51,701.9a1.77,1.77,0,0,1-.85-3.33l7.42-4.08a1.77,1.77,0,0,1,1.71,3.11l-7.42,4.08A1.78,1.78,0,0,1,1100.51,701.9Z"/><path class="cls-13" d="M1111.35,703.94a1.77,1.77,0,0,1-.86-3.33l7.42-4.08a1.77,1.77,0,0,1,1.71,3.11l-7.42,4.08A1.74,1.74,0,0,1,1111.35,703.94Z"/><path class="cls-13" d="M1094.81,710.37A1.77,1.77,0,0,1,1094,707l7.42-4.08a1.77,1.77,0,0,1,1.71,3.11l-7.42,4.08A1.74,1.74,0,0,1,1094.81,710.37Z"/><path class="cls-13" d="M1084.85,708.33A1.77,1.77,0,0,1,1084,705l7.42-4.08a1.77,1.77,0,0,1,1.71,3.11l-7.43,4.08A1.74,1.74,0,0,1,1084.85,708.33Z"/><path class="cls-13" d="M1082.43,717.21a1.77,1.77,0,0,1-.86-3.33l7.42-4.08a1.77,1.77,0,0,1,1.71,3.11l-7.42,4.08A1.74,1.74,0,0,1,1082.43,717.21Z"/><path class="cls-13" d="M1096,718a1.81,1.81,0,0,1-1.56-.92,1.78,1.78,0,0,1,.7-2.41l7.43-4.08a1.77,1.77,0,1,1,1.71,3.1l-7.43,4.09A1.85,1.85,0,0,1,1096,718Z"/><path class="cls-13" d="M1069.21,715.94a1.77,1.77,0,0,1-.85-3.33l7.42-4.08a1.77,1.77,0,1,1,1.71,3.1l-7.42,4.09A1.93,1.93,0,0,1,1069.21,715.94Z"/><path class="cls-13" d="M630.83,636.09a1.6,1.6,0,0,1-.78-3l6.73-3.7a1.6,1.6,0,0,1,1.55,2.81l-6.73,3.7A1.53,1.53,0,0,1,630.83,636.09Z"/><path class="cls-13" d="M621.81,634.24a1.6,1.6,0,0,1-.78-3l6.73-3.7a1.6,1.6,0,0,1,1.55,2.81l-6.73,3.7A1.55,1.55,0,0,1,621.81,634.24Z"/><path class="cls-13" d="M619.61,642.29a1.61,1.61,0,0,1-.78-3l6.73-3.7a1.61,1.61,0,0,1,1.55,2.82l-6.73,3.7A1.53,1.53,0,0,1,619.61,642.29Z"/><path class="cls-13" d="M631.88,643a1.64,1.64,0,0,1-1.41-.84,1.61,1.61,0,0,1,.64-2.18l6.72-3.7a1.61,1.61,0,1,1,1.55,2.82l-6.72,3.7A1.68,1.68,0,0,1,631.88,643Z"/><path class="cls-13" d="M607.63,641.14a1.61,1.61,0,0,1-.77-3l6.72-3.7a1.61,1.61,0,1,1,1.55,2.82l-6.72,3.7A1.68,1.68,0,0,1,607.63,641.14Z"/><path class="cls-13" d="M971.9,727.72a2,2,0,0,1-1-3.84l8.55-4.71a2.05,2.05,0,0,1,2.78.81,2,2,0,0,1-.8,2.77l-8.56,4.71A2.09,2.09,0,0,1,971.9,727.72Z"/><path class="cls-13" d="M960.42,725.36a2,2,0,0,1-1-3.84l8.56-4.7a2,2,0,0,1,2,3.58l-8.56,4.71A2.08,2.08,0,0,1,960.42,725.36Z"/><path class="cls-13" d="M957.63,735.6a2,2,0,0,1-1-3.83l8.56-4.71a2,2,0,0,1,2,3.58l-8.56,4.71A2,2,0,0,1,957.63,735.6Z"/><path class="cls-13" d="M973.25,736.49a2,2,0,0,1-1-3.84l8.56-4.71a2,2,0,0,1,2,3.59l-8.56,4.7A2,2,0,0,1,973.25,736.49Z"/><path class="cls-13" d="M942.39,734.13a2,2,0,0,1-1-3.83l8.56-4.71a2,2,0,1,1,2,3.58l-8.56,4.71A2,2,0,0,1,942.39,734.13Z"/><path class="cls-13" d="M1188.64,734.12a1.77,1.77,0,0,1-.86-3.31l7.39-4.06a1.76,1.76,0,1,1,1.7,3.09l-7.38,4.06A1.77,1.77,0,0,1,1188.64,734.12Z"/><path class="cls-13" d="M1178.73,732.09a1.76,1.76,0,0,1-.85-3.31l7.38-4.07a1.77,1.77,0,1,1,1.7,3.1l-7.38,4.06A1.77,1.77,0,0,1,1178.73,732.09Z"/><path class="cls-13" d="M1176.31,740.93a1.76,1.76,0,0,1-.85-3.31l7.39-4.07a1.77,1.77,0,0,1,1.7,3.1l-7.39,4.06A1.74,1.74,0,0,1,1176.31,740.93Z"/><path class="cls-13" d="M1189.8,741.69a1.77,1.77,0,0,1-.86-3.31l7.39-4.06a1.76,1.76,0,1,1,1.7,3.09l-7.39,4.06A1.73,1.73,0,0,1,1189.8,741.69Z"/><path class="cls-13" d="M1163.16,739.66a1.76,1.76,0,0,1-.85-3.31l7.39-4.06a1.76,1.76,0,0,1,1.7,3.09l-7.39,4.06A1.74,1.74,0,0,1,1163.16,739.66Z"/><path class="cls-13" d="M523.21,567.16a1.61,1.61,0,0,1-.78-3l6.77-3.73a1.62,1.62,0,1,1,1.56,2.84L524,567A1.59,1.59,0,0,1,523.21,567.16Z"/><path class="cls-13" d="M521.83,576.31a1.62,1.62,0,0,1-.79-3l6.77-3.73a1.62,1.62,0,0,1,1.56,2.84l-6.77,3.72A1.53,1.53,0,0,1,521.83,576.31Z"/><path class="cls-13" d="M513.09,594.43a1.62,1.62,0,0,1-.78-3l6.77-3.72a1.62,1.62,0,1,1,1.56,2.83l-6.77,3.73A1.65,1.65,0,0,1,513.09,594.43Z"/><path class="cls-13" d="M530.33,586.19a1.62,1.62,0,0,1-.78-3l6.77-3.72a1.62,1.62,0,0,1,1.56,2.84L531.11,586A1.71,1.71,0,0,1,530.33,586.19Z"/><path class="cls-13" d="M507.24,574.45a1.6,1.6,0,0,1-1.42-.84,1.62,1.62,0,0,1,.63-2.2l6.77-3.72a1.62,1.62,0,1,1,1.56,2.83L508,574.25A1.64,1.64,0,0,1,507.24,574.45Z"/><path class="cls-13" d="M510.62,584.87a1.62,1.62,0,0,1-.78-3l6.77-3.72a1.62,1.62,0,1,1,1.56,2.83l-6.77,3.73A1.68,1.68,0,0,1,510.62,584.87Z"/><path class="cls-13" d="M499.31,584.08a1.62,1.62,0,0,1-.78-3l6.77-3.72a1.62,1.62,0,0,1,1.56,2.84l-6.77,3.72A1.68,1.68,0,0,1,499.31,584.08Z"/></g></svg>