<svg xmlns="http://www.w3.org/2000/svg" viewBox="0 0 768.71 772.07"><defs><style>.cls-1,.cls-14{fill:#b3b3b4;}.cls-2{fill:#dbadc3;}.cls-10,.cls-11,.cls-12,.cls-13,.cls-14,.cls-2,.cls-3,.cls-4,.cls-5,.cls-6,.cls-7,.cls-8,.cls-9{stroke:#dadbdb;}.cls-10,.cls-11,.cls-12,.cls-13,.cls-14,.cls-16,.cls-2,.cls-3,.cls-4,.cls-5,.cls-6,.cls-7,.cls-8,.cls-9{stroke-miterlimit:10;stroke-width:4px;}.cls-3{fill:#828e86;}.cls-4{fill:#717071;}.cls-5{fill:#dadbdb;}.cls-6{fill:#6e7f72;}.cls-7{fill:#9d9d9e;}.cls-15,.cls-8{fill:#fff;}.cls-9{fill:#878787;}.cls-10{fill:#c8c8c9;}.cls-11{fill:#56685a;}.cls-12{fill:#bb6d90;}.cls-13{fill:#dfc6d2;}.cls-16{fill:#3d3a39;stroke:#3d3a39;}.cls-17{fill:#a3345d;}.cls-18{fill:none;stroke:#211815;stroke-linecap:round;stroke-linejoin:round;stroke-width:2px;}.cls-19{fill:#211815;}</style></defs><g id="主圖"><path class="cls-1" d="M340.87,2.67s16.93,5.67,23.45,9.66,14,10.83,20.62,16.77S400.35,44,405.46,52.56s20.62,21.31,28.24,31.73,13.86,20.24,18.68,25.76,15.52,12.75,25.25,21.86,17.06,12,28.3,21.35,25.92,12.15,39,24.23,30.2,24.58,44.93,40.09,21.45,20.86,41.87,46,28.62,36.92,45.68,58.17,32.05,31.15,32.05,31.15l1.54-2.85c-25.16-16.76-60.88-71-91.05-105.55s-75.72-72.8-85.57-79.54-37.81-23.86-55.81-38.46-29.33-27.44-38.45-40.2-23.88-25.79-32-36.56S386.9,26.48,374.61,16.6,343.81,0,343.81,0Z"/><path class="cls-1" d="M366.89,29.35,368,16.77a89.63,89.63,0,0,0,9.91-1.34l.64-3.83s-5.15.82-10.21,1.47l.91-10L366,2.49l.36,10.83a51.13,51.13,0,0,1-6.92.51c-3.64-.26-7.94-2.08-3.16,1.47,2,1.48,6.1,1.75,10.2,1.56Z"/><path class="cls-1" d="M508.46,177.93l6-15.94a118.89,118.89,0,0,0,13.34,1.8L530,159s-7-.77-13.79-1.73l4.77-12.73-4.06-1.86-3.4,14.2a66.93,66.93,0,0,1-9.18-1.81c-4.63-1.63-9.56-5.53-4.62.79,2.07,2.63,7.3,4.44,12.69,5.66Z"/><path class="cls-1" d="M684.6,352.37l6-15.94a118.89,118.89,0,0,0,13.34,1.8l2.2-4.75s-7-.77-13.79-1.73L697.08,319,693,317.16l-3.4,14.2a66.93,66.93,0,0,1-9.18-1.81c-4.63-1.63-9.56-5.53-4.62.79,2.07,2.63,7.3,4.44,12.69,5.66Z"/><path class="cls-1" d="M388.73,30.71s-4.61,4.81-4.07,5.4,7-3.07,7-3.07Z"/><path class="cls-1" d="M421.21,67.32s1.18-6.56.4-6.75S417.52,67,417.52,67Z"/><path class="cls-1" d="M429.31,71.7s1.17-6.55.4-6.75-4.1,6.42-4.1,6.42Z"/><path class="cls-1" d="M593.81,217.58s3.11-5.9,2.43-6.32-5.85,4.87-5.85,4.87Z"/><path class="cls-1" d="M604.68,229.14s5.47-3.81,5.06-4.5-7.43,1.64-7.43,1.64Z"/><polygon class="cls-1" points="395.63 37.44 392.58 40.22 398.18 40.24 395.63 37.44"/><polygon class="cls-1" points="455.3 112.46 453.58 116.2 456.58 113.04 455.3 112.46"/><polygon class="cls-1" points="452.98 103.61 455.48 98.72 450.59 102.38 452.98 103.61"/><polygon class="cls-1" points="493.81 140.72 498.95 130.71 490.43 138.98 493.81 140.72"/><polygon class="cls-1" points="538.19 171.52 534.93 178.58 541.65 173.12 538.19 171.52"/><polygon class="cls-1" points="643.07 276.26 639.81 283.32 646.53 277.85 643.07 276.26"/><polygon class="cls-1" points="638.22 270.29 635.99 275.13 640.59 271.38 638.22 270.29"/><polygon class="cls-1" points="672.03 311.31 676.54 308.48 670.64 309.1 672.03 311.31"/><polygon class="cls-1" points="678.26 318.16 682.77 315.33 676.88 315.95 678.26 318.16"/><polygon class="cls-1" points="547.42 178.2 544.16 185.26 550.88 179.8 547.42 178.2"/><path class="cls-1" d="M402.61,62c0,.14,0,0,0-.35A2.61,2.61,0,0,0,402.61,62Z"/><path class="cls-1" d="M403.37,51.34l10,1s.64-4.92.66-5.41c0-.24-5,0-10.23.29.53-5.52,1.05-10.45,1.05-10.45l-5.1,4.63.87,6c-4.33.26-8.18.5-8.78.51-6.38,0-2.51,1.66-2.12,1.93.19.12,5.75.71,11.43,1.29.65,4.52,1.31,9.19,1.47,10.55C402.57,60.37,402.94,56,403.37,51.34Z"/><path class="cls-1" d="M568.09,208.94c0,.14,0,0,0-.35A1.58,1.58,0,0,0,568.09,208.94Z"/><path class="cls-1" d="M568.85,198.27l10,1s.64-4.92.66-5.41c0-.24-5,0-10.23.29.53-5.52,1-10.45,1-10.45l-5.1,4.63.87,6c-4.34.26-8.19.5-8.78.51-6.38.05-2.51,1.66-2.12,1.93.19.12,5.75.71,11.43,1.29.65,4.52,1.3,9.19,1.47,10.55C568.05,207.3,568.41,203,568.85,198.27Z"/><path class="cls-1" d="M436,101.3c.36-.67,1-7.9,1.45-14.29,4.85,1.39,9.09,2.52,9.24,2.25.35-.63-1-3.91-1-3.91l-8-1.6c.27-3.8.46-6.71.46-6.71l.13-2.13a8.07,8.07,0,0,1-2.44-.41,87,87,0,0,0-.27,8.84c-5.06-1-10.26-2-11-2L423,82.71s6.36,2,12.48,3.75C435.48,93.9,435.6,102,436,101.3Z"/><path class="cls-1" d="M656.83,309c.36-.66,1-7.9,1.45-14.29,4.84,1.39,9.08,2.52,9.23,2.25.36-.63-1-3.91-1-3.91s-3.7-.75-8-1.59c.27-3.81.46-6.72.46-6.72l.13-2.13a8.18,8.18,0,0,1-2.45-.41c-.12-.12-.22,3.89-.26,8.84-5.06-1-10.27-2-11-2l-1.52,1.38s6.37,2,12.49,3.75C656.36,301.65,656.48,309.7,656.83,309Z"/><path class="cls-1" d="M487.79,122.93l-1.9-.91-7.85.15c-.46-4.1-1-10.7-1-10.7-1.45-5.34-2.76-3.54-3.44-2.76-.36.41-1.11,6.94-1.5,13.57-4.07.08-7.81.15-9.21.2-3.63.11-6.86,1-6,2,.45.52,7.72,1.57,14.94,2.52-.12,4.11,0,7.65.51,9,1.08,2.75,3.71-3.16,5-8.27,5,.64,9,1.13,9.21,1.23C487.17,129.22,488.25,125.3,487.79,122.93Z"/><path class="cls-1" d="M628.83,242.9l-1.9-.91-7.84.15c-.47-4.1-1-10.7-1-10.7-1.45-5.35-2.75-3.54-3.44-2.76-.36.41-1.11,6.94-1.5,13.57-4.07.08-7.81.15-9.21.2-3.63.11-6.86,1-6,2,.45.52,7.72,1.57,15,2.52-.12,4.11,0,7.65.5,9,1.08,2.75,3.71-3.16,5-8.28,5,.64,9,1.14,9.21,1.24C628.21,249.19,629.29,245.27,628.83,242.9Z"/><path class="cls-1" d="M693,189.53s-11.31-1.33-15.9-3-10.14-4.93-15.06-7.77-11.56-7.29-15.87-12-15.65-10.61-21.77-16.12-11.29-10.82-15-13.64S598,131.12,590.78,126.7s-12.21-5.23-20.45-9.63-17.77-4.2-27.5-10-22.06-11.4-33.28-19.16S493.44,77.65,477.41,64.6s-22.68-19.31-36.1-30.35S417.24,19,417.24,19l-.59,2c17.89,7.18,47.27,36.39,70.6,54s56.77,35.57,63.8,38.49,26.71,10,39.86,16.72a127.5,127.5,0,0,1,29.25,20.08c7.36,6.77,18.26,13,24.75,18.64s16.26,11.77,25.22,16.34,21.39,6.34,21.39,6.34Z"/><path class="cls-1" d="M673.29,176.27l.93,8a55,55,0,0,0-6,2.12l.1,2.48s3.11-1.19,6.18-2.26l.74,6.4,2.12-.1-1.64-6.71A31.21,31.21,0,0,1,680,185c2.3-.32,5.22.26,1.77-1.33-1.44-.67-4-.3-6.57.36Z"/><path class="cls-1" d="M565.53,102l-1.64,10.73a75.81,75.81,0,0,0-8.57.61l-.75,3.26s4.46-.44,8.83-.72l-1.31,8.57,2.78.63.26-9.31a43.72,43.72,0,0,1,6-.07c3.11.41,6.69,2.21,2.78-1.09-1.63-1.38-5.13-1.82-8.66-1.88Z"/><path class="cls-1" d="M432.82,16.1l-1.65,10.72a76.85,76.85,0,0,0-8.56.62l-.75,3.26s4.46-.44,8.83-.73l-1.31,8.58,2.77.63.27-9.31a42.12,42.12,0,0,1,6-.07c3.1.41,6.69,2.21,2.78-1.09-1.63-1.38-5.13-1.83-8.66-1.88Z"/><path class="cls-1" d="M659.48,178.27s2.25-3.6,1.83-3.9-3.94,2.83-3.94,2.83Z"/><path class="cls-1" d="M634.42,159.66s.13,4.25.64,4.27,1.71-4.54,1.71-4.54Z"/><path class="cls-1" d="M628.8,158s.12,4.25.63,4.27,1.72-4.54,1.72-4.54Z"/><path class="cls-1" d="M507.08,88.39s-1.18,4.09-.69,4.26,3-3.8,3-3.8Z"/><path class="cls-1" d="M498.78,82.59s-2.91,3.09-2.57,3.47,4.43-2,4.43-2Z"/><polygon class="cls-1" points="654.29 174.97 655.83 172.84 652.34 173.56 654.29 174.97"/><polygon class="cls-1" points="607.25 135.93 607.84 133.37 606.38 135.73 607.25 135.93"/><polygon class="cls-1" points="609.86 141.16 608.93 144.53 611.51 141.61 609.86 141.16"/><polygon class="cls-1" points="579.53 123.32 577.63 130.24 581.87 123.96 579.53 123.32"/><polygon class="cls-1" points="547.81 109.88 548.92 105.05 545.44 109.34 547.81 109.88"/><polygon class="cls-1" points="468.67 58.19 469.78 53.36 466.3 57.65 468.67 58.19"/><polygon class="cls-1" points="472.48 61.28 473.24 57.97 470.86 60.91 472.48 61.28"/><polygon class="cls-1" points="446.02 40.09 443.57 42.44 447.17 41.29 446.02 40.09"/><polygon class="cls-1" points="441.24 36.63 438.79 38.98 442.39 37.83 441.24 36.63"/><polygon class="cls-1" points="541.17 106.92 542.29 102.08 538.81 106.37 541.17 106.92"/><path class="cls-1" d="M646.73,160.55c0-.08,0,0,.06.21A.93.93,0,0,0,646.73,160.55Z"/><path class="cls-1" d="M647.64,167.31c-3.33.35-6.35.69-6.35.69s.25,3.15.3,3.46a49.91,49.91,0,0,0,6.35-1.52c.38,3.52.71,6.66.71,6.66l2.57-3.55-1.32-3.64c2.67-.72,5-1.38,5.41-1.46,4-.86,1.35-1.37,1.07-1.48s-3.68.3-7.3.69c-1-2.74-2-5.57-2.29-6.4C647,161.57,647.3,164.32,647.64,167.31Z"/><path class="cls-1" d="M524.26,90.43c0-.09,0,0,.06.21A.79.79,0,0,0,524.26,90.43Z"/><path class="cls-1" d="M525.18,97.19c-3.34.35-6.35.69-6.35.69s.24,3.15.29,3.46a49.91,49.91,0,0,0,6.35-1.52c.39,3.51.71,6.66.71,6.66l2.58-3.55-1.33-3.64c2.67-.72,5-1.38,5.41-1.46,4-.86,1.36-1.37,1.08-1.48s-3.69.3-7.31.69c-1-2.74-2-5.57-2.29-6.4C524.5,91.45,524.84,94.19,525.18,97.19Z"/><path class="cls-1" d="M620.79,140.37a84.76,84.76,0,0,0,1,9.11c-3.21-.23-6-.38-6.06-.2-.14.44,1.12,2.32,1.12,2.32l5.22,0c.32,2.4.58,4.25.58,4.25l.2,1.34a5.19,5.19,0,0,1,1.58-.06c.09.06-.37-2.46-1-5.55,3.29,0,6.67-.11,7.13-.18l.76-1.06s-4.23-.4-8.28-.71C622.05,144.93,620.92,139.91,620.79,140.37Z"/><path class="cls-1" d="M455.8,39.52a91,91,0,0,0,1,9.11c-3.2-.23-6-.39-6.05-.2-.14.44,1.12,2.31,1.12,2.31s2.41,0,5.21-.05c.33,2.41.59,4.25.59,4.25l.2,1.35a5.12,5.12,0,0,1,1.57-.06,53.58,53.58,0,0,0-1-5.55c3.29,0,6.66-.11,7.12-.19l.77-1.05s-4.23-.4-8.29-.71C457.06,44.08,455.94,39.06,455.8,39.52Z"/><path class="cls-1" d="M585.61,133.64l1.3.31,4.88-1.11c.82,2.49,2,6.55,2,6.55,1.61,3.14,2.18,1.85,2.51,1.27.17-.3-.22-4.47-.83-8.66l5.72-1.33c2.25-.54,4.15-1.5,3.45-2-.35-.26-5,0-9.66.38a20.54,20.54,0,0,0-1.48-5.54c-1-1.58-1.91,2.45-2,5.81-3.21.25-5.77.47-5.91.43C585.18,129.63,585,132.22,585.61,133.64Z"/><path class="cls-1" d="M481.91,77.16l1.31.31,4.88-1.11c.82,2.49,2,6.55,2,6.55,1.6,3.14,2.18,1.85,2.5,1.27.18-.3-.21-4.47-.83-8.66l5.72-1.33c2.25-.54,4.16-1.5,3.46-2-.35-.26-5,0-9.66.38A20.44,20.44,0,0,0,489.81,67c-1-1.58-1.91,2.45-2,5.81-3.21.25-5.78.47-5.92.43C481.48,73.14,481.32,75.73,481.91,77.16Z"/><path class="cls-1" d="M656,497.69s-19.24-10.34-26.32-16.33S614.89,465.94,608,457.74s-15.74-20.3-20.29-31.09-20.81-28.7-28-42.15S546.79,358.6,542,351.28s-16.25-17.91-26.25-30.4-18.26-17.39-30-30.56S457,270.6,443.52,254,411.84,219.39,397,198.56s-21.88-28.38-41.74-61.35-27.54-48-44.08-75.83S278.51,19,278.51,19l-2.37,2.81c27.08,24.7,59.95,93.8,89.77,139.53s77.4,99.3,88,109.16,40.93,35.61,59.83,56.19,30.11,37.62,38.71,54,23.88,34.48,31.67,48.44,21.11,31,34,45S652,500,652,500Z"/><path class="cls-1" d="M629.68,461.72,626,475.52a112.83,112.83,0,0,0-12.11-.85l-1.47,4.13s6.32.3,12.5.77l-2.93,11,3.83,1.37,1.55-12.2a63.82,63.82,0,0,1,8.39,1.08c4.31,1.14,9.12,4.2,4-.91-2.12-2.13-7-3.39-11.93-4.15Z"/><path class="cls-1" d="M487.27,262.14l-10.06,16.41a157.77,157.77,0,0,0-15.65-5.17l-3.51,4.79s8.23,2.51,16.2,5.19l-8,13.12,4.53,3,6.67-15.07a86.87,86.87,0,0,1,10.66,4.2c5.26,2.91,10.44,8.44,5.68.21-2-3.44-7.93-6.7-14.17-9.33Z"/><path class="cls-1" d="M308.16,25.47,298.1,41.88a160.92,160.92,0,0,0-15.65-5.17l-3.5,4.8s8.22,2.51,16.2,5.19l-8,13.11,4.52,3,6.67-15.08A88.55,88.55,0,0,1,309,52c5.26,2.92,10.45,8.44,5.68.21-2-3.43-7.92-6.69-14.16-9.33Z"/><path class="cls-1" d="M603.77,455s6.4-4.29,5.86-5.08-8.9,1.79-8.9,1.79Z"/><path class="cls-1" d="M571.56,406.43s-2.61,7.05-1.72,7.45,6.08-6.2,6.08-6.2Z"/><path class="cls-1" d="M562.66,399.61s-2.61,7.05-1.71,7.46,6.07-6.21,6.07-6.21Z"/><path class="cls-1" d="M392.27,197.63s-4.8,5.86-4.06,6.49,7.89-4.06,7.89-4.06Z"/><path class="cls-1" d="M381.37,182.14s-7.25,3-6.89,3.83,9.21-.08,9.21-.08Z"/><polygon class="cls-1" points="596.74 445.88 600.9 443.49 594.2 442.15 596.74 445.88"/><polygon class="cls-1" points="538.97 347.9 541.72 344.13 537.55 346.95 538.97 347.9"/><polygon class="cls-1" points="540.14 358.35 536.25 363.21 542.78 360.29 540.14 358.35"/><polygon class="cls-1" points="498.01 307.2 490.02 317.18 501.75 309.95 498.01 307.2"/><polygon class="cls-1" points="450.48 262.27 455.67 255.15 446.63 259.67 450.48 262.27"/><polygon class="cls-1" points="343.99 120.39 349.18 113.26 340.14 117.78 343.99 120.39"/><polygon class="cls-1" points="348.71 128.2 352.27 123.32 346.08 126.42 348.71 128.2"/><polygon class="cls-1" points="315.71 74.35 309.79 76.45 316.97 77.15 315.71 74.35"/><polygon class="cls-1" points="309.5 65.22 303.58 67.32 310.75 68.02 309.5 65.22"/><polygon class="cls-1" points="440.64 252.62 445.84 245.5 436.79 250.02 440.64 252.62"/><path class="cls-1" d="M592.87,416.77c0-.17,0,0,0,.39A2.63,2.63,0,0,0,592.87,416.77Z"/><path class="cls-1" d="M590,428.51l-11.76-3.45s-1.66,5.35-1.78,5.89c-.06.26,6,1.18,12.31,2.1-1.65,6-3.17,11.43-3.17,11.43l7-4s0-3,.06-6.92c5.23.74,9.89,1.38,10.6,1.51,7.66,1.45,3.32-1.27,2.89-1.65-.2-.19-6.75-2.17-13.45-4.15.05-5.21.12-10.58.17-12.14C592.61,418.61,591.39,423.36,590,428.51Z"/><path class="cls-1" d="M421.51,213.38c0-.17,0,0,0,.39C421.49,213.59,421.51,213.45,421.51,213.38Z"/><path class="cls-1" d="M418.64,225.12l-11.76-3.45s-1.66,5.35-1.78,5.89c-.06.26,6,1.19,12.31,2.1-1.65,6-3.17,11.43-3.17,11.43l6.95-4s0-3,.06-6.91c5.24.73,9.9,1.37,10.61,1.5,7.65,1.46,3.31-1.27,2.89-1.65-.2-.19-6.76-2.16-13.45-4.15.05-5.21.11-10.58.17-12.14C421.25,215.22,420,220,418.64,225.12Z"/><path class="cls-1" d="M560.11,365c-.55.66-2.61,8.6-4.35,15.64-5.55-2.7-10.42-5-10.65-4.7-.54.62.46,4.6.46,4.6s4.3,1.71,9.31,3.68c-1,4.19-1.78,7.4-1.78,7.4l-.54,2.35a10.71,10.71,0,0,1,2.85,1c.13.16,1-4.3,1.94-9.82,5.88,2.3,11.93,4.63,12.79,4.84l2.07-1.18s-7.27-3.7-14.27-7.15C559.32,373.33,560.65,364.3,560.11,365Z"/><path class="cls-1" d="M333.5,80.48c-.55.66-2.6,8.6-4.35,15.64-5.54-2.71-10.42-5-10.64-4.71C318,92,319,96,319,96s4.3,1.71,9.31,3.68c-1,4.18-1.77,7.39-1.77,7.39l-.55,2.35a10.71,10.71,0,0,1,2.85,1c.13.16,1-4.29,1.94-9.82,5.88,2.31,11.93,4.64,12.8,4.84l2.06-1.18s-7.26-3.7-14.27-7.14C332.72,88.86,334.05,79.83,333.5,80.48Z"/><path class="cls-1" d="M502,328.52l2.11,1.46,9.42,1.69c-.19,4.69-.77,12.2-.77,12.2.76,6.31,2.65,4.6,3.62,3.89.5-.37,2.59-7.49,4.27-14.81,4.89.87,9.39,1.67,11.07,1.95,4.37.74,8.4.54,7.5-.83-.45-.69-9-3.58-17.45-6.35.9-4.57,1.42-8.55,1-10.17-.79-3.33-5,2.65-7.49,8.07-5.87-1.9-10.58-3.4-10.81-3.56C503.87,321.62,501.86,325.76,502,328.52Z"/><path class="cls-1" d="M355,161.05l2.12,1.46,9.42,1.69c-.2,4.69-.78,12.2-.78,12.2.76,6.31,2.65,4.6,3.62,3.89.51-.37,2.59-7.49,4.27-14.81,4.89.87,9.39,1.67,11.07,2,4.37.74,8.4.54,7.5-.83-.45-.69-9-3.58-17.45-6.35.9-4.57,1.42-8.55,1-10.17-.78-3.33-5,2.65-7.48,8.07-5.88-1.9-10.59-3.4-10.82-3.56C356.85,154.16,354.84,158.29,355,161.05Z"/><path class="cls-2" d="M364.76,552.46c-5.75-.91-12.74-2-18.23-2a32.37,32.37,0,0,0-10.18,2.11A44.31,44.31,0,0,0,303,555.23c2-4.87,5.11-10.68,6.27-13.08a14.35,14.35,0,0,1,5.1-5.57s13.22-5.85,19.91-5.15,14.79,7.94,18.74,11C356.76,545.36,362.78,551.22,364.76,552.46Z"/><path class="cls-3" d="M357.58,640.24c1.8,1.15,3.55,1.75,5.24,1.14,4.81-1.75,17.51-9.39,17.51-9.39,2.09,8.48,4.48,17,5.31,21.83,1.64,9.5,7.54,40.29,9.17,50.11a29.66,29.66,0,0,1,.23,5.56,119.88,119.88,0,0,0-18.25-6.21c-9.51-2.29-38.64,2-47.48,0s-34.06-7.21-42.25-11.14-37.33-3.6-47.16-7.2-29.15-16.7-30.79-21.62S204.86,646,199,638.1a32.07,32.07,0,0,1-2.75-4.68c-6.07-12.08-14.37-38-14.93-48.94-.66-12.68-5.24-31.86,20.3-58.39s47.49-25.54,47.49-25.54a2.29,2.29,0,0,1,1.78.52,1.9,1.9,0,0,1,.51,1.44c0,2.3-.65,14.74,1.81,17.36s-.33,14.08-.5,16.7-3.44,11.14-1.31,13.76,5.08,8.52,4.9,10.48.45,10.7,0,14.19,7.42,6.12,12.66,9.48,6.55,15,8.3,21.53c1.36,5.13,4.6,10.25,8.89,14.62l0,0a40.23,40.23,0,0,0,3.73,3.4c6.11,5,14.85,6.83,18.34,11.53s6.11-4.27,16.16-5.58a42.63,42.63,0,0,1,22.7,2.73C350.78,634.23,354.27,638.14,357.58,640.24Z"/><path class="cls-4" d="M263,421.94c.08,5.21-6.39,7.6-12.28,9.5-6.77,2.18-14.58.82-14.58.82.33-3.44-2.94-11,0-13.59s7.54-5.57,5.74-9.5-3.63-7.6-.85-16.28c.73.66,1.44,1.31,2.08,1.93h0c1.26,1.21,2.35,2.29,3.12,3.11,2.4,2.5,13.75,14.52,16.27,21.5.08.22.15.44.21.65.18,1,.26,1.68.28,1.85Z"/><path class="cls-5" d="M262.71,420.08c-.06-.21-.13-.43-.21-.65-2.52-7-13.87-19-16.27-21.5-.77-.82-1.86-1.9-3.12-3.11.22,0,4.78.26,5.28-6.77C258.34,399.6,261.79,414.82,262.71,420.08Z"/><path class="cls-3" d="M178.13,659.65c-6-.11-11.78.07-14.7.07-6.72,0-73.65,0-78.77,0-12.35-.05-58.21-2.9-60.17,0-.5-6.09-1.73-25.53-3.93-44.19-2.62-22.18-3.28-56.41,0-89s21-56.49,28.82-67.41c7.2-10,22.87-21.35,36-21.65a20.44,20.44,0,0,1,3.51.2c13.75,2,42.9.65,61.9,6.87s26.53,11.3,29.72,13.27,8.92,6.06,13.84,8.84a31.23,31.23,0,0,0,3.6,1.75c1,.4,1.9.75,2.83,1.07,2.34.84,4.58,1.52,6.67,2.45.22.1.44.19.65.3.79.38,1.71.83,2.69,1.33,4.12,2.09,9.72,5.1,15,8l4.18,2.31s-16.08.74-26.13,7.3-8.09,11.35-3.06,14.41,18.78-2.62,26.65-6.12,20.66-4.3,20.66-4.3c3,3,2.73,5.92,2.73,5.92a2.29,2.29,0,0,0-1.78-.52s-21.94-1-47.49,25.54-21,45.71-20.3,58.39c.56,10.9,8.86,36.86,14.93,48.94,0,0-.63,20.84,1.11,29.25C194.18,660.45,185.93,659.79,178.13,659.65Z"/><path class="cls-6" d="M127,389.77c-2.07.07-1.79-2.47-1.08-18.26.87-19.65,22.48-53.5,54.58-54.37s50.88,14.9,59.23,26.2,9.17,37.5,8.65,44.71c-.5,7-5.06,6.78-5.28,6.77h0c-.64-.62-1.35-1.27-2.08-1.93a54.51,54.51,0,0,0-7.24-5.56c-2.18-3.6-4-3.05-6.11-2.72a2.73,2.73,0,0,0-2.28,1.75h0A57,57,0,0,0,210.82,383c-6-.7-12.93-1-21.17-1.29-12.84-.52-56.52,6.85-60.67,7.72A14.35,14.35,0,0,1,127,389.77Z"/><path class="cls-7" d="M246,493.34a14.71,14.71,0,0,1,2.16,1.81s-12.8.81-20.66,4.3-21.62,9.17-26.65,6.12-7-7.86,3.06-14.41,26.13-7.3,26.13-7.3C235.64,487,241.79,490.47,246,493.34Z"/><path class="cls-8" d="M241.87,409.17c1.8,3.93-2.79,6.88-5.74,9.5s.33,10.15,0,13.59-4.58,21.29-10.8,29.64-12.82,12.52-14.51,11.65h0c-1-.5-1.9-.95-2.69-1.33-.21-.11-.43-.2-.65-.3,0,0,8.07-5.76,10.48-10.9s5.13-8.07,7.2-18,3.93-20.52,5.24-26.31,2-15.17,2.3-17,3.27-8.73,1.08-12.34a54.51,54.51,0,0,1,7.24,5.56C238.24,401.57,240.06,405.24,241.87,409.17Z"/><path class="cls-9" d="M233.78,387.33c2.19,3.61-.76,10.48-1.08,12.34s-1,11.24-2.3,17-3.17,16.38-5.24,26.31-4.81,12.89-7.2,18-10.48,10.9-10.48,10.9c-2.09-.93-4.33-1.61-6.67-2.45,0,0,14.3-19.47,15.51-22.31s3.38-14.73,4.91-18.66,4.26-27,3.82-33.52c-.27-4.11-.38-7,.34-8.62a2.73,2.73,0,0,1,2.28-1.75C229.75,384.28,231.6,383.73,233.78,387.33Z"/><path class="cls-8" d="M225.05,395c.44,6.55-2.29,29.59-3.82,33.52s-3.71,15.82-4.91,18.66-15.51,22.31-15.51,22.31c-.93-.32-1.87-.67-2.83-1.07a14.51,14.51,0,0,1-6-8.79c-.44-2.62.11-4.91-5.78-13s-17-14-33.41-15.49c-6.66-.63-16.65-1.18-26.15-1.61a18.07,18.07,0,0,0,1.26-10c2.18,7.86,26.42,5.46,41.05-1.53s33.4-20.32,36.24-25.12,5.64-9.91,5.64-9.91a57,57,0,0,1,14.57,3.38h0C224.67,388,224.78,390.87,225.05,395Z"/><path class="cls-3" d="M213.54,810.4H3.36C11.93,794.65,18,709.56,21.21,690.78,23.83,695,42,690,51.91,693.84c0,0,29.47-1.37,37-.38s93.34-.33,104.47,0a22.53,22.53,0,0,0,2.66-.06l0,.45s6.2,31.81,8.74,42.3S213.54,810.4,213.54,810.4Z"/><path class="cls-9" d="M189.65,381.69c8.24.32,15.15.59,21.17,1.29,0,0-2.8,5.12-5.64,9.91S183.57,411,168.94,418s-38.87,9.39-41,1.53-.91-29.27-.88-29.77a14.35,14.35,0,0,0,2-.36C133.13,388.54,176.81,381.17,189.65,381.69Z"/><path class="cls-10" d="M178.13,659.65c7.8.14,16.05.8,19.19,3a17.4,17.4,0,0,1,7.21,17.68c-1.19,6.57-.21,12.32-8.48,13a22.53,22.53,0,0,1-2.66.06c-11.13-.32-96.94,1-104.47,0s-37,.38-37,.38C42,690,23.83,695,21.21,690.78s1.31-28.16,3.28-31.06,47.82-.05,60.17,0c5.12,0,72.05,0,78.77,0C166.35,659.72,172.11,659.54,178.13,659.65Z"/><path class="cls-11" d="M198,468.4a31.23,31.23,0,0,1-3.6-1.75c-4.92-2.78-10.64-6.88-13.84-8.84s-10.73-7-29.72-13.27-48.15-4.91-61.9-6.87a20.44,20.44,0,0,0-3.51-.2s9.61-8.7,14.53-9c0,0,12.83.38,26.69,1,9.5.43,19.49,1,26.15,1.61,16.38,1.52,27.51,7.42,33.41,15.49s5.34,10.38,5.78,13A14.51,14.51,0,0,0,198,468.4Z"/><path class="cls-12" d="M278,715.64a25.56,25.56,0,0,0-.19-4.73c-1.39-8.35-6.4-34.53-7.79-42.61-.72-4.13-2.75-11.35-4.53-18.56-1.68-6.86-3.13-13.71-3-17.92.28-8.63,5.62-22.48,5.62-22.48h0a10.6,10.6,0,0,0,1.34,3.82c2.78,4.74,2.23,11.14,5,18.94s4.18,13.09,5.29,10,4.18-18.1,5-24,6.12-30.64,6.12-34.53-5.29-8.08-1.39-12.81,11.7-5.3,11.7-9.47a19.44,19.44,0,0,1,1.72-6.13h0a44.31,44.31,0,0,1,33.39-2.61c-7.71,2.7-15.48,7.3-17.57,9.58-3.06,3.34-4.73,17.27,0,25.62s20.61,27.29,23.12,30.36,9,27.66,17.91,36.57,19.31,26.36,21.16,32.3,7.8,25.62,10.4,33.42S402.43,811,402.43,811H272.57S277.69,727.12,278,715.64Z"/><path class="cls-13" d="M478.82,811H402.43s-8.46-82.68-11.06-90.48S382.83,693,381,687.05s-12.25-23.39-21.16-32.3-15.41-33.51-17.91-36.57-18.38-22-23.12-30.36-3.06-22.28,0-25.62c2.09-2.28,9.86-6.88,17.57-9.58a32.37,32.37,0,0,1,10.18-2.11c5.49,0,12.48,1,18.23,2l.25.13c1.67.84,6.26,1.12,6.26,1.12l-.36-.33c1.35.18,2.47.3,3.29.33,4.53.14,7.8,6.26,16.43,13.78s5.57,13.93,8.63,19.5,8.91,16.71,13.93,22.35,10.86,21.09,11.41,26.1c.49,4.44,4.69,13.22,5.65,15.2,5.54,9.39,19.76,41,23.76,49,0,0,14.49,30.55,17.83,36.12S478.82,811,478.82,811Z"/><path class="cls-3" d="M755.91,713c2.94,26.59,13.88,97.63,10,97.93s-206.88,0-206.88,0c6.09-42.38,5.38-121.58,5.38-121.58a12.65,12.65,0,0,0,1.32-.84c2.91-2.16,7-4.09,10.09-6,0,0,.79,5.53,7.77,9.16s9.36-7.55,10.67-12.12-.21-17.21-5.44-21.79-13,5.6-13,5.6h0c-1.7-4.1-3.51-7.75-4.65-9.07-2.83-3.28-4.36-.89-11.55-2.41a7.54,7.54,0,0,0-2-.11c.28-.06,9-1.89,11.11-4.25s2.4-11.54,2.4-11.54,19.17.87,25.71,2,22.22,5.19,30.28,3.46c6.24-1.33,16.27-.23,20.48.34,1.23.16,2,.28,2,.28l55.64,1.85c8.28-2.18,40.46.43,39.22-13C744.69,632.52,753,686.77,755.91,713Z"/><path class="cls-10" d="M744.42,630.83c1.24,13.45-30.94,10.84-39.22,13L649.56,642s-.73-.12-2-.28c-4.21-.57-14.24-1.67-20.48-.34-8.06,1.73-23.75-2.38-30.28-3.46s-25.71-2-25.71-2v-5.5c0-4.68,1.26-12.55,1.9-18h0c.44-.15,17.36-5.86,25.1-3.5s25.49,2.87,32,3.5a92.07,92.07,0,0,0,15.68,0s29.93-1.72,33-1.86c30-1.42,63.82-3.76,63.82-3.76.88,12.1,1.46,20.9,1.76,24Z"/><path class="cls-3" d="M531.74,477.57c.1-1.33.2-2.47.29-3.37.65-6.21-.33-10.46,4.57-20.91a34.57,34.57,0,0,1,2-3.74h0c.47-.31,7.3-3.33,13.65-2.91,6.53.44,13.07,1.63,15.13.87s8-3.7,4.91-7.84-8.06-3.6-11.44-3.7-8.92.39-8.92.39a57.83,57.83,0,0,1,9.08-4.67h0c.76-.31,1.55-.62,2.34-.92,12.42-4.6,21.89-8.19,21.89-8.19,10.81-.45,35.46-8.3,55.88-9.89,9.3-.72,17.73-.15,23.57,3,18.63,10.13,39.07,30.16,52.8,58,10.61,21.49,22.13,92,25.12,133.16,0,0-33.8,2.34-63.82,3.76-3.06.14-33,1.86-33,1.86a92.07,92.07,0,0,1-15.68,0c-6.54-.63-24.18-1.1-32-3.5s-24.66,3.35-25.1,3.5c.11-1,.2-1.85.27-2.62.43-5.23-7.62-21.9-7.62-21.9-2.94,2.62-6.54,11.11-7.52,17s-22.87,36.93-27.45,45.43-12.42,23.2-19.93,39.21a56.87,56.87,0,0,1-17.73,21.53c2.41-4.31,4.75-15.19,5.31-23.06s-2.08-16.23-4.33-21a16.69,16.69,0,0,0-2.1-3.53c-1.89-2.09-12.54-12.93-21.18-18.53-.8-.52-1.59-1-2.35-1.41-8.93-4.92-20.69,0-20.69,0a14.46,14.46,0,0,0-2.3-1.57s10.14-7.57,14.72-11.54,24.18-21,26.14-25.55,18.3-31.37,20.59-35,4.57-24.18,9.8-29.74,11.76-12.42,11.11-18.3c-.46-4.13-1.68-7.29-1.37-11.19v0l.06-.51s0,0,0,0a17.63,17.63,0,0,1,1.35-4.93c2.48-5.87,3.32-19.87,3.92-27.68Z"/><path class="cls-11" d="M641.17,412.67h0c-20.42,1.59-45.07,9.44-55.88,9.89,0,0-9.47,3.59-21.89,8.19-.79.3-1.58.61-2.34.92.19-.37,6.39-12.12,8.11-16.41.65-1.62,1.18-3.31,1.92-4.92a12.54,12.54,0,0,1,7.23-6.85c5.3-2.11,17.18-6.81,26.37-8.86a41.87,41.87,0,0,1,5.87-.94S634.76,402,641.17,412.67Z"/><path class="cls-9" d="M604.24,360.48c.12.42,4.94,16.82.24,33.22l.21.94c-9.19,2.05-21.07,6.75-26.37,8.86a12.54,12.54,0,0,0-7.23,6.85,112.74,112.74,0,0,0-3-13.38c-2.18-7.63-15.53-24.4-15.53-25.53h0c-.45-7-5.24-15.27-8.71-18.48,5.15-1.13,10.71-2.26,13.81-2,6.76.66,36,7.85,44.44,9.59A3.79,3.79,0,0,0,604.24,360.48Z"/><path class="cls-6" d="M604.24,360.48a3.79,3.79,0,0,1-2.18.11c-8.49-1.74-37.68-8.93-44.44-9.59-3.1-.3-8.66.83-13.81,2-6,1.34-11.54,2.68-11.89,1.74-.66-1.74,1.52-6.31-6.32-7s-4.58,7.4-5.66,9.36-8.94,5.45-14.17,8.28c-2.59,1.4-5.51,4.2-8.66,7.07s-6.67,5.88-10.29,7.53c-7.08,3.21-24.29,13.39-24.82,13.71.42-.37,11.45-9.92,18.5-16.11s11.33-13.5,13.51-24.84,12.63-36.16,23.53-44.87,31.15-16.34,57-8.5c11.39,3.46,20.33,17.32,25.13,30.39C603.94,341.49,609.31,358.38,604.24,360.48Z"/><path class="cls-14" d="M588.78,657.74c5.23,4.58,6.75,17.21,5.44,21.79s-3.7,15.75-10.67,12.12-7.77-9.16-7.77-9.16c2.22-1.36,3.92-2.68,4.28-4,.52-2-1.75-9-4.28-15.1h0S583.55,653.17,588.78,657.74Z"/><path class="cls-7" d="M575.78,663.34c2.53,6.07,4.8,13.15,4.28,15.1-.36,1.37-2.06,2.69-4.28,4-3.08,1.88-7.18,3.81-10.09,6a12.65,12.65,0,0,1-1.32.84c-6,3.47-19.92,6.85-24,2.35-4.36-4.87-10.63-18.62-10.89-24.16-.2-4.26,19.4-15.24,28.09-15.74h0a7.54,7.54,0,0,1,2,.11c7.19,1.52,8.72-.87,11.55,2.41C572.27,655.59,574.08,659.24,575.78,663.34Z"/><path class="cls-7" d="M572.33,439.67c3,4.14-2.83,7.08-4.91,7.84s-8.6-.43-15.13-.87c-6.35-.42-13.18,2.6-13.65,2.91.25-.43.53-.86.81-1.28a39.34,39.34,0,0,1,6-7,47.43,47.43,0,0,1,6.49-4.95s5.55-.5,8.92-.39S569.28,435.53,572.33,439.67Z"/><path class="cls-8" d="M552.52,371.44h0c0,1.13,13.35,17.9,15.53,25.53a112.74,112.74,0,0,1,3,13.38c-.74,1.61-1.27,3.3-1.92,4.92-1.72,4.29-7.92,16-8.11,16.41h0a57.83,57.83,0,0,0-9.08,4.67,47.43,47.43,0,0,0-6.49,4.95l-.45-.47c1.55-1.28,2.76-4.31.56-9.15-3.11-6.83-7.63-11.74-12.23-26.6s-6.89-23.79-5.25-32.65c.39-2.12.81-4.23,1.23-6.23,1.32-6.36,2.58-11.51,2.58-11.51.35.94,5.85-.4,11.89-1.74C547.28,356.17,552.07,364.43,552.52,371.44Z"/><path class="cls-9" d="M545.59,431.69c2.2,4.84,1,7.87-.56,9.15a2.63,2.63,0,0,1-1.89.68c-1.88-.23-10.79-8.49-11.6-12.74s-8.5-26.47-10-38.89c-.14-1.14-.25-2.35-.37-3.59-.47-5.09-.76-10.94-.94-16.05a6,6,0,0,0,8.88-4.08l.2,0c-.42,2-.84,4.11-1.23,6.23-1.64,8.86.65,17.78,5.25,32.65S542.48,424.86,545.59,431.69Z"/><path class="cls-8" d="M545,440.84l.45.47a39.34,39.34,0,0,0-6,7h0l-4-.87c-4-.86-4.41,1.8-6.21-.81s-1.8-4.25-3.43-6.21-5.36-1.53-6.05-5.39c-1.49-8.39-6.81-9.37-14-9.92-3.58-.27-3.2-7.11-2.51-13.57A76.61,76.61,0,0,0,504,402c-.33-5.88-.54-11.11-2.83-15.68s-4-13.57-4.09-13.85c3.15-2.87,6.07-5.67,8.66-7.07,1.26,1,12.11,16.18,15.43,20.92.12,1.24.23,2.45.37,3.59,1.47,12.42,9.15,34.64,10,38.89s9.72,12.51,11.6,12.74A2.63,2.63,0,0,0,545,440.84Z"/><path class="cls-9" d="M525.6,347.74c7.84.65,5.66,5.22,6.32,7,0,0-1.26,5.15-2.58,11.51l-.2,0a6.16,6.16,0,0,0,.12-1.22,6.06,6.06,0,0,0-9.29-5.13c0-1.71,0-2.72,0-2.72C521,355.14,517.75,347.08,525.6,347.74Z"/><path class="cls-4" d="M520.26,370.25c.18,5.11.47,11,.94,16.05-3.32-4.74-14.17-19.94-15.43-20.92,5.23-2.83,13.08-6.32,14.17-8.28,0,0,0,1,0,2.72a6.06,6.06,0,0,0,.29,10.43Z"/><path class="cls-7" d="M523.2,358.89a6.07,6.07,0,1,0,5.94,7.28,6.16,6.16,0,0,0,.12-1.22A6.06,6.06,0,0,0,523.2,358.89Z"/><path class="cls-4" d="M504,402a76.61,76.61,0,0,1-.77,9.52l-.41,0a56.51,56.51,0,0,1-17.23,1.23c-8.82-.88-16-7.11-20.26-11.36S462,393.7,462,393.7h0c.53-.32,17.74-10.5,24.82-13.71,3.62-1.65,7.08-4.62,10.29-7.53.06.28,1.84,9.34,4.09,13.85S503.7,396.1,504,402Z"/><path class="cls-14" d="M494,667c2.25,4.75,4.89,13.11,4.33,21s-2.9,18.75-5.31,23.06c-1.56,1.12-2.53,1.67-2.53,1.67-3.06-2.18-14.72-14.26-17.45-24.45a15,15,0,0,0,2.09-4c1.47-5.23,3.92-7.68,9.31-11.27l8.33-5.56Z"/><path class="cls-8" d="M414.33,710.72a9.75,9.75,0,0,1-3.21-.75c-4.09-1.79-1.53-6.49-1.53-6.49a9.3,9.3,0,0,1-5.82-6.58l.11-.43c-3.26-.85-5.79-2.93-5.67-6.1.16-4.25,1.84.94,22.38-12.91a45.76,45.76,0,0,0,8.94-8c-4.36,0-8.77-11.74-8.94-13.86s7.68-9.81,10.79-14.22c1.7-2.42,3.91-2.53,6.3-1.94,2,.48,4.06,1.42,6.12,1.94a7,7,0,0,1,1.62.65,14.46,14.46,0,0,1,2.3,1.57c3,2.39,6.27,5.77,11.76,6.11,7.84.49,10.79-3.92,10.79-3.92l.49-.78c8.64,5.6,19.29,16.44,21.18,18.53A16.69,16.69,0,0,1,494,667l-1.23.45-8.33,5.56c-5.39,3.59-7.84,6-9.31,11.27a15,15,0,0,1-2.09,4,59.14,59.14,0,0,1-7.52,8.6,32,32,0,0,1-6.57,5.23c-3.76,1.8-19.93,11-19.93,11s-11.44,3.72-20.1,2.41C410.56,714.26,414.1,710.92,414.33,710.72Z"/><path class="cls-14" d="M470.76,645l-.49.78s-2.95,4.41-10.79,3.92c-5.49-.34-8.73-3.72-11.76-6.11,0,0,11.76-4.92,20.69,0C469.17,644,470,644.46,470.76,645Z"/><path class="cls-15" d="M365.72,472.84h0a15.46,15.46,0,0,0-3,1.65l0,.12a2.6,2.6,0,0,0-.09.64,2.5,2.5,0,1,0,3.15-2.4Zm27.48,17.54c0,1.62-.1,4.46-.13,5.22-.07,2.51,2,2.92.78,6.16h-.34s-9.54.16-12.1,4.9,7.73,12.78,11.83,7c-.43,1.82-2.81,4.61-2.53,9.2s-1.83,9.49-10.45,11.42c-10.58,2.37-10.23,4.46-11.62,7.24a10.28,10.28,0,0,0,2.27,11.83c-1.74-.23-3.85-.57-6.15-.92-2-1.24-8-7.1-11.78-10-4-3.06-12.06-10.3-18.74-11s-19.91,5.15-19.91,5.15,1.67-11.83.41-15.73S315,510,315,510c-3.06-2.23-4.87-5.57-5.71-10.17s5.15-10.16,10.31-9.33,13.78,9.19,15.69,13.23.6-2.92,0-9.05,4.87-16.57,7.24-22.84,11-14.34,14.06-18.65,9.06-5.57,11.14-7.94a15.87,15.87,0,0,1,5-3.62c3.36-1.44,7.71,3.69,11,9.08a65.51,65.51,0,0,1,3.51,6.48c.27.55.49,1.05.69,1.52a36.29,36.29,0,0,1,2.42,10.48h-.17c-4-2.43-7,2.68-7.15,2.95h0a10.21,10.21,0,0,0,1.37,4.1c1.79,2.81,4.74,4.61,6.83,6.57a7.11,7.11,0,0,1,2.36,3.62,5.37,5.37,0,0,1-.49,3.94Z"/><path class="cls-15" d="M393.51,501.76h.34c-.78,2-2.1,3.59-1.54,5.82s1.2,4.94.93,6.11c-4.1,5.75-14.39-2.3-11.83-7S393.51,501.76,393.51,501.76Z"/><path class="cls-15" d="M390.45,469.18c.45,4.41.5,9,.88,13.63-2.09-2-5-3.76-6.83-6.57a10.21,10.21,0,0,1-1.37-4.1h0c.15-.27,3.19-5.38,7.15-2.95Zm-4.64,3.89a1.57,1.57,0,0,0-.53-3.06,9.67,9.67,0,0,0-1.49,1.55,2.1,2.1,0,0,0,.06.48A1.58,1.58,0,0,0,385.81,473.07Z"/><path class="cls-16" d="M377.63,434.38a24.11,24.11,0,0,1,6.21,16.32h0c-3.31-5.39-7.66-10.52-11-9.08a15.87,15.87,0,0,0-5,3.62c-2.08,2.37-8.07,3.62-11.14,7.94S345,465.57,342.59,471.83s-7.8,16.71-7.24,22.84,1.87,13.09,0,9.05-10.54-12.39-15.69-13.23-11.14,4.74-10.31,9.33S312,507.76,315,510c0,0-1.53,7-.28,10.86s-.41,15.73-.41,15.73a14.35,14.35,0,0,0-5.1,5.57c-1.16,2.4-4.29,8.21-6.27,13.08h0a19.44,19.44,0,0,0-1.72,6.13c0,4.17-7.8,4.73-11.7,9.47s1.39,8.91,1.39,12.81-5.29,28.68-6.12,34.53-3.9,20.88-5,24-2.5-2.23-5.29-10-2.23-14.2-5-18.94a10.6,10.6,0,0,1-1.34-3.82c-.58-3.65.43-7.44.23-10.93-.28-4.74-.28-9,3.06-13.28s7.8-12.62,8.67-17.08-1.62-11.51,1.91-17.64a49.85,49.85,0,0,0,5.2-14.11c.55-2.22,3.34-6.31,2.41-9.1s-1.86-4.26-1.48-8.16-.56-7.24-4.09-11.33-3.34-12.25-2-15.6-.93-12.81-1.67-17.13-.37-12.2,10.21-31.69,29-23.21,44.74-24.32S371,427.32,377.63,434.38Z"/><path class="cls-17" d="M277.74,563.15c7.43,2.36,16,4.42,16,8.85s5.82,12.35-4.52,7.77-13.87-.39-13-7.62S275,562.27,277.74,563.15Z"/><path class="cls-18" d="M359,477.82a24.93,24.93,0,0,1,3.64-3.22,15.41,15.41,0,0,1,3.06-1.76c2.25-.95,4.69-1.13,6.67.8"/><path class="cls-19" d="M365.72,472.84h0a15.46,15.46,0,0,0-3,1.65l0,.12a2.6,2.6,0,0,0-.09.64,2.5,2.5,0,1,0,3.15-2.4Z"/><path class="cls-19" d="M385.28,470a9.67,9.67,0,0,0-1.49,1.55,2.1,2.1,0,0,0,.06.48,1.57,1.57,0,1,0,1.43-2Z"/><path class="cls-18" d="M383.13,472.14a10.21,10.21,0,0,0,1.37,4.1c1.79,2.81,4.74,4.61,6.83,6.57a7.11,7.11,0,0,1,2.36,3.62,5.37,5.37,0,0,1-.49,3.94h0c-1,1.72-3.31,2.88-6.94,3.22"/><path class="cls-18" d="M383.57,464a27.22,27.22,0,0,0-.44,8.15"/><path class="cls-18" d="M380.6,487s-2.32,4.18.37,7.52"/><path class="cls-18" d="M315,510a29.91,29.91,0,0,0,14.15,6.63"/><path class="cls-18" d="M318.31,497.13s-3.71,2-.55,6.59,10.39,4.64,10.39,4.64"/><path class="cls-18" d="M383.12,472.15h0c.15-.27,3.19-5.38,7.15-2.95"/><path class="cls-18" d="M354.49,468.08c.28-.28,4.21-4.31,7.73-5.16,7-1.67,9-5.67,9-5.67"/><path class="cls-18" d="M381,456.11a11.26,11.26,0,0,0,6.37,1.07h.06"/><path class="cls-18" d="M393.51,501.76s-9.54.16-12.1,4.9,7.73,12.78,11.83,7"/><path class="cls-18" d="M303,555.24h0"/></g></svg>