<svg xmlns="http://www.w3.org/2000/svg" viewBox="0 0 623.51 787.46"><defs><style>.cls-1{fill:#f7f7f7;}.cls-2{fill:#c9c9ca;}.cls-3{fill:#fff;}.cls-4{fill:#595757;}.cls-5{fill:#9e9e9f;}.cls-6{fill:#333;}.cls-7,.cls-9{fill:none;}.cls-7{stroke:#b4b4b5;}.cls-11,.cls-7,.cls-9{stroke-miterlimit:10;}.cls-8{fill:#d8b02d;}.cls-9{stroke:#9e9e9f;}.cls-10{fill:#b4b4b5;}.cls-11{fill:#6e7f72;stroke:#dadbdb;stroke-width:4px;}.cls-12{fill:#a39172;}.cls-13{fill:#eeeeef;}.cls-14{fill:#c3b6a0;}.cls-15{fill:#b6a488;}</style></defs><g id="主圖"><path class="cls-1" d="M-1078.07,668c83.09-33.26,262.23-81.87,330.28-102.33,101.54-30.52,20.84-77.8-35.43-93.83-88-25.07-138.79-34.18-103.28-43.6,27.86-7.39,156.46-22.14,206.91-44.41S-713,333.22-811.3,324.7c-12-1-23.82-1.94-35.31-2.73-12.35,4.22-25.92,8.88-39.55,13.58,84.4,6.56,183.48,22.51,163.41,35.1-37.62,23.58-339.3,33-261.49,73C-930.25,471.36-743,506-796,534.8c-43,23.36-406.92,91.91-427.44,139.74-38.67,90.12,502.78,312.67,502.78,312.67L6.12,901.71S-1192.64,713.84-1078.07,668Z"/><path class="cls-1" d="M202.37,668c83.08-33.26,262.23-81.87,330.27-102.33,101.55-30.52,20.84-77.8-35.42-93.83-88-25.07-138.8-34.18-103.29-43.6,27.86-7.39,156.47-22.14,206.91-44.41s-33.39-50.59-131.71-59.11c-12-1-23.82-1.94-35.3-2.73-12.35,4.22-25.93,8.88-39.56,13.58,84.4,6.56,183.48,22.51,163.41,35.1-37.62,23.58-339.3,33-261.49,73,54,27.73,241.28,62.35,188.27,91.17C441.5,558.16,77.54,626.71,57,674.54,18.35,764.66,559.8,987.21,559.8,987.21l726.75-85.5S87.8,713.84,202.37,668Z"/><path class="cls-2" d="M479.19,99.37s1.14-17.28-5.64-22.15l20.07-6.61s5.85,5.69,5.15,21.2-3.65,17.42-3.65,17.42l-19.31,4.7S479.53,105.69,479.19,99.37Z"/><path class="cls-3" d="M523.11,66.59c-3.33.71-6,5.19-5.32,13.92s3.67,10,5.32,9.87,2.91-.38,3,1.77,2.28,8.49,2.28,8.49l13-6.33-2.79-9.37S543.86,62.16,523.11,66.59Z"/><path class="cls-4" d="M520.51,63.68c-1.1,1.94-.19,6.7,2.41,8.1s4.24,6.26,2.46,6.83,2.73.76,3.42-1.39,4.75-.51,2.15,4.18c0,0-.82,4.17,2.47,6s8,.5,9.75-1,3.92-11.33,1.39-18-4.81-8.54-12-9.3C527,58.52,522.41,60.32,520.51,63.68Z"/><path class="cls-5" d="M506,101.36l4.65-5.28s16.37,7.76,17,10.12-7,12.16-7.65,12.16S506,101.36,506,101.36Z"/><path class="cls-3" d="M486.78,112.79s-3.46,1.43-3.63,1.09-7.17-7.17-9.87-10-5.06-9.28,1.52-12.57,7.76-.42,9.11,1.26-3.12-.42-5.06.51-.42,6.92,2,8Z"/><path class="cls-3" d="M510.91,97.43s-3-10.13-3.88-11.73-7.42-7.85-7.93-4.89,5.32,5,2.87,6.66c0,0-1.84.59-2.9-2.11s-1.15-8.14-3.26-5.34-3,5.43-1.35,9.31,10.87,12.71,13.16,11.73C508.21,100.8,510.91,97.43,510.91,97.43Z"/><path class="cls-6" d="M498.17,309.4s-7.93,20.76-6.75,20.59-38.31,0-41,0-5.23-10.63,13-11S485,307.2,485,307.2Z"/><path class="cls-6" d="M543.06,308.55c-.5,0-.84,24.48-1.35,24.31s-35.44,0-35.44,0-2.19-9.29,11.82-9.79S535,307.2,535,307.2Z"/><path class="cls-2" d="M562.67,240.71c-2.22,28-16.4,69.87-16.4,69.87H530.41s-1.43-29.72-.09-51.95c-10.54,21.2-29,53.64-29,53.64l-21.5-1.35s1.34-26.33,6.75-40.84,30.37-88.44,30.37-88.44h41.86S564.89,212.69,562.67,240.71Z"/><path class="cls-7" d="M530.32,258.63h0a137.25,137.25,0,0,0,6.5-14.55c4.73-14.17,5.06-37.12,5.06-37.12"/><path class="cls-2" d="M479.26,96.09c2.87,0,15.42.2,19.23.07.12-1.32.21-2.76.28-4.35.7-15.51-5.15-21.2-5.15-21.2l-20.07,6.61C478.48,80.75,479.22,90.83,479.26,96.09Z"/><path class="cls-3" d="M474.8,91.27c-6.58,3.29-4.22,9.7-1.52,12.57s9.7,9.71,9.87,10,3.63-1.09,3.63-1.09-1.1-12.58-1.52-14.94-1-6.83-2.7-4.81.76,9.11-1.69,8c-2-.89-3.36-5-2.77-7Z"/><path class="cls-8" d="M504.75,134.05c1.78-.22,14.85-26.66,16.37-29.36s18.23-13.67,21.77-14l1.69,5.23s11.14,2.36,15,16.45,3,41.44,2.87,49.37-.12,22.11.19,22.44S511.17,183,511.17,183s1.35-21.6,1.51-22.44-4.41,9.11-11.4,7.42S486,140.13,484.33,133.54s-3-20.58-2.53-20.58a56.4,56.4,0,0,0,5.4-2.37S499.18,134.73,504.75,134.05Z"/><path class="cls-9" d="M512.68,160.55s10.3-14.47,15.87-23.1"/><path class="cls-8" d="M597.17,42.11l-8.65,4a3,3,0,0,0-1.56,3V53a1.64,1.64,0,0,1-1.55,1.57H573.35A1.81,1.81,0,0,1,571.8,53V45c0-3.24,1.17-6.48,4.37-8l9-4.35a3.08,3.08,0,0,0,1.66-2.41V12.12A2.54,2.54,0,0,0,585,10.45h-7.87a2.66,2.66,0,0,0-1.95,2.13V25.26a1.36,1.36,0,0,1-1.36,1.39H561.59a1.6,1.6,0,0,1-1.65-1.57V13.32c0-5.74,4-8.89,9.82-8.89H592.6c5.15,0,9.53,4.35,9.53,9.17V34.15a9.5,9.5,0,0,1-1.27,4.72A8,8,0,0,1,597.17,42.11Zm-24.5,37.13a1.82,1.82,0,0,1-1.55-1.67V66.19a1.93,1.93,0,0,1,1.75-1.58H585.6a1.84,1.84,0,0,1,1.75,1.67v11.2a1.72,1.72,0,0,1-1.75,1.76Z"/><path class="cls-1" d="M232.4,180.68l-132,25.66a5.36,5.36,0,0,1-6.71-5.4V84.43a8.54,8.54,0,0,1,6.71-8l132-25.66a5.37,5.37,0,0,1,6.7,5.4V172.68A8.52,8.52,0,0,1,232.4,180.68Z"/><path class="cls-1" d="M420,145.85,288,171.51a5.36,5.36,0,0,1-6.7-5.4V49.59a8.53,8.53,0,0,1,6.7-8L420,15.93a5.36,5.36,0,0,1,6.7,5.4V137.85A8.53,8.53,0,0,1,420,145.85Z"/><polygon class="cls-10" points="385.62 108.93 353.2 115.23 385.62 117.18 385.62 108.93"/><polygon class="cls-2" points="328.63 128.33 385.62 117.25 385.62 117.18 353.2 115.23 328.63 120.01 328.63 128.33"/><polygon class="cls-10" points="198.03 143.68 165.61 149.98 198.03 151.92 198.03 143.68"/><polygon class="cls-2" points="141.04 163.08 198.03 152 198.03 151.92 165.61 149.98 141.04 154.75 141.04 163.08"/><path class="cls-8" d="M165.61,79.8c-13.34,2.59-24.15,15.5-24.15,28.84s10.81,22,24.15,19.46,24.15-15.51,24.15-28.85S178.94,77.2,165.61,79.8Zm-2.11,5.83v16.64l-14.83,13.24a16.51,16.51,0,0,1-1.91-7.9C146.76,97.91,154.09,88.5,163.5,85.63ZM151.41,119.1l12.09-10.8v14.78A15.4,15.4,0,0,1,151.41,119.1Zm17,2.93V84.76c9.06-.39,16,6.08,16,15.52S177.51,118.89,168.45,122Z"/><path class="cls-8" d="M354,45.08c-13.34,2.6-24.15,15.51-24.15,28.85S340.65,96,354,93.38s24.15-15.5,24.15-28.84S367.33,42.49,354,45.08Zm-2.1,5.83V67.55L337.05,80.8a16.54,16.54,0,0,1-1.91-7.9C335.14,63.2,342.47,53.79,351.89,50.91ZM339.8,84.38l12.09-10.79V88.37A15.4,15.4,0,0,1,339.8,84.38Zm17,2.93V50.05c9.05-.39,16,6.08,16,15.52S365.89,84.18,356.84,87.31Z"/><polygon class="cls-2" points="270.08 75.69 259.98 69.23 259.98 73.91 250.23 75.8 250.23 83.3 259.98 81.41 259.98 86.08 270.08 75.69"/><polygon class="cls-2" points="250.23 145.64 260.33 152.1 260.33 147.42 270.08 145.53 270.08 138.03 260.33 139.93 260.33 135.25 250.23 145.64"/><path class="cls-8" d="M128.76,422.4,12.33,445a7.91,7.91,0,0,0-6.21,7.42v59.61a5,5,0,0,0,6.21,5l89.14-17.33c-.44,6.07-4,13.92-15.72,22.07,0,0,25.51-2.66,34.72-25.76l8.29-1.61A7.91,7.91,0,0,0,135,487V427.4A5,5,0,0,0,128.76,422.4Z"/><path class="cls-11" d="M86.09,534,27.75,545.29a7.91,7.91,0,0,0-6.22,7.42v59.61a5,5,0,0,0,6.22,5l31.05-6c-.44,6.07-4,13.92-15.72,22.07,0,0,25.52-2.66,34.72-25.76L86.09,606a7.91,7.91,0,0,0,6.21-7.42V539A5,5,0,0,0,86.09,534Z"/><path class="cls-12" d="M115.4,529l70-13.6a6,6,0,0,1,7.45,6v37.42a9.49,9.49,0,0,1-7.45,8.9L148.13,575c.53,7.07,4.78,14.83,18.85,19.13,0,0-30.6,8.71-41.65-14.7l-9.93,1.93a6,6,0,0,1-7.45-6V537.93A9.49,9.49,0,0,1,115.4,529Z"/><rect class="cls-1" x="26.99" y="449.14" width="91" height="2.89" transform="translate(-86.9 22.94) rotate(-11.3)"/><rect class="cls-1" x="26.99" y="462.16" width="91" height="2.89" transform="matrix(0.98, -0.2, 0.2, 0.98, -89.46, 23.2)"/><rect class="cls-1" x="26.99" y="475.18" width="91" height="2.89" transform="translate(-92.01 23.45) rotate(-11.3)"/><rect class="cls-1" x="26.99" y="488.21" width="91" height="2.89" transform="translate(-94.56 23.7) rotate(-11.3)"/><rect class="cls-1" x="125.19" y="535.96" width="57.56" height="2.89" transform="translate(-100.37 39.59) rotate(-11.08)"/><rect class="cls-1" x="32.21" y="585.2" width="50.17" height="2.89" transform="translate(-111.63 21.93) rotate(-11.08)"/><rect class="cls-1" x="32.21" y="597.74" width="50.17" height="2.89" transform="translate(-114.04 22.17) rotate(-11.08)"/><rect class="cls-1" x="125.19" y="548.98" width="57.56" height="2.89" transform="translate(-102.87 39.83) rotate(-11.08)"/><rect class="cls-1" x="125.19" y="562" width="57.56" height="2.89" transform="translate(-105.37 40.07) rotate(-11.08)"/><path class="cls-1" d="M32.85,582.18V556.73l21.87-4.33v25.33Zm2.9-23.07v19.53l16.07-3.27V555.93Z"/><path class="cls-8" d="M565.62,578.88c-20.51-4-37.92,5.84-44.19,23l39.69,22.65,31.18-32.09A56.55,56.55,0,0,0,565.62,578.88Z"/><path class="cls-13" d="M617.89,637.89c0-15.86-7.91-31.4-20-42.19l-31.18,32.09.39.23Z"/><path class="cls-11" d="M563.32,631.6l-42.55-24.29a44.89,44.89,0,0,0-2.65,15.5h0c0,27.37,22.18,53.86,49.55,59.18s49.55-12.55,49.55-39.92Z"/><path class="cls-2" d="M501.29,736.18a2.15,2.15,0,0,1-.43,0L286.92,695.36a2.29,2.29,0,0,1-1.86-2.24v-131a2.29,2.29,0,0,1,2.71-2.24l214,40.79a2.27,2.27,0,0,1,1.85,2.24v131a2.28,2.28,0,0,1-2.28,2.28ZM289.62,691.23,499,731.15V604.75L289.62,564.83Z"/><polygon class="cls-14" points="346.41 606 320.89 601.14 320.89 678.41 346.41 683.27 346.41 606"/><polygon class="cls-13" points="386.85 659.61 361.33 654.74 361.33 686.12 386.85 690.98 386.85 659.61"/><polygon class="cls-12" points="427.3 636.99 401.78 632.12 401.78 693.83 427.3 698.69 427.3 636.99"/><polygon class="cls-13" points="467.74 652.7 442.22 647.84 442.22 701.54 467.74 706.4 467.74 652.7"/><polygon class="cls-13" points="592.3 751.45 521.43 737.68 521.43 698.69 592.3 712.47 592.3 751.45"/><polygon class="cls-2" points="500.07 586.15 394.32 565.59 394.32 507.42 500.07 527.97 500.07 586.15"/><polygon class="cls-11" points="386.53 542.76 325.23 530.85 325.23 497.13 386.53 509.04 386.53 542.76"/><path class="cls-15" d="M296.47,290.38a7.37,7.37,0,0,1-2.1,5.17,7.88,7.88,0,0,1-4.27,2.4,5.55,5.55,0,0,1-4.36-.73,5,5,0,0,1-2-4.37,7.49,7.49,0,0,1,2-5,7.76,7.76,0,0,1,4.36-2.54,5.49,5.49,0,0,1,4.27.74A4.88,4.88,0,0,1,296.47,290.38Zm9.84-4.63-14.6,26.78a2.74,2.74,0,0,1-2.09,1.56,2.32,2.32,0,0,1-1.7-.24,1.56,1.56,0,0,1-.72-1.44,4.51,4.51,0,0,1,.68-2.18l14.27-26.1a2.85,2.85,0,0,1,1.05-1.24,3.22,3.22,0,0,1,1.33-.61,1.94,1.94,0,0,1,1.53.3,1.61,1.61,0,0,1,.69,1.43,4,4,0,0,1-.08.84A5.19,5.19,0,0,1,306.31,285.75Zm-14.68,5.64a1,1,0,0,0-.54-.89,1.76,1.76,0,0,0-1.27-.17,1.45,1.45,0,0,0-.95.68,2.25,2.25,0,0,0-.38,1.3.86.86,0,0,0,.48.83,1.84,1.84,0,0,0,1.21.11,1.66,1.66,0,0,0,1-.68A1.94,1.94,0,0,0,291.63,291.39Zm18.79,12.29a7.79,7.79,0,0,1-1.66,4.83,7.39,7.39,0,0,1-4.67,2.77c-2.15.42-3.81,0-5-1.19a5.5,5.5,0,0,1-1.41-3.94,7.44,7.44,0,0,1,1.71-5,7.84,7.84,0,0,1,4.66-2.6,5.32,5.32,0,0,1,4.35,1A4.8,4.8,0,0,1,310.42,303.68Zm-4.88,1a1,1,0,0,0-.54-.89,1.81,1.81,0,0,0-1.27-.18,1.46,1.46,0,0,0-1,.69,2.23,2.23,0,0,0-.38,1.3.87.87,0,0,0,.48.83,1.9,1.9,0,0,0,1.21.11,1.73,1.73,0,0,0,1-.68A2,2,0,0,0,305.54,304.7Z"/><path class="cls-2" d="M388.74,332.1,377.88,352c-.3,1.82-.82,2.21-1.56,2.36a1.73,1.73,0,0,1-1.26-.19,1.14,1.14,0,0,1-.54-1.07,3.39,3.39,0,0,1,.51-1.62l10.62-19.42a2.13,2.13,0,0,1,.78-.92,2.34,2.34,0,0,1,1-.45,1.47,1.47,0,0,1,1.14.22,1.19,1.19,0,0,1,.51,1.06,2.8,2.8,0,0,1-.06.63C389,332.8,388.88,333,388.74,332.1Z"/><path class="cls-2" d="M349.31,304.76l-10.86,19.93a2,2,0,0,1-1.56,1.16,1.73,1.73,0,0,1-1.26-.18,1.16,1.16,0,0,1-.54-1.07,3.36,3.36,0,0,1,.51-1.62l10.62-19.42a2.1,2.1,0,0,1,.78-.93,2.34,2.34,0,0,1,1-.45,1.47,1.47,0,0,1,1.14.23,1.19,1.19,0,0,1,.51,1.06,2.71,2.71,0,0,1-.06.62A2.91,2.91,0,0,1,349.31,304.76Z"/><path class="cls-2" d="M252.21,320.23l-10.86,19.93c-.3,1.82-.82,2.21-1.56,2.35a1.68,1.68,0,0,1-1.26-.18,1.15,1.15,0,0,1-.54-1.07,3.36,3.36,0,0,1,.51-1.62l10.62-19.42a2.08,2.08,0,0,1,.78-.92,2.34,2.34,0,0,1,1-.45,1.43,1.43,0,0,1,1.14.22,1.19,1.19,0,0,1,.51,1.06,2.8,2.8,0,0,1-.06.63C252.44,320.93,252.35,321.15,252.21,320.23Z"/><path class="cls-10" d="M238,361.43V410c0,2.94,6.43,4.08,14.37,2.54s14.36-5.18,14.36-8.13V355.84Z"/><ellipse class="cls-2" cx="252.36" cy="358.63" rx="14.68" ry="5.22" transform="translate(-72.26 63.81) rotate(-12.62)"/><path class="cls-12" d="M282.73,334.08v67.19c0,3,6.43,4.08,14.36,2.54s14.37-5.18,14.37-8.12V328.5Z"/><ellipse class="cls-15" cx="297.09" cy="331.29" rx="14.68" ry="5.22" transform="translate(-65.21 72.92) rotate(-12.62)"/><path class="cls-10" d="M328,341.27v51.2c0,2.95,6.43,4.08,14.36,2.54s14.37-5.18,14.37-8.12V335.68Z"/><ellipse class="cls-2" cx="342.36" cy="338.47" rx="14.68" ry="5.22" transform="translate(-65.68 82.98) rotate(-12.62)"/><path class="cls-5" d="M369,372.17V384.5c0,2.94,6.43,4.08,14.36,2.54s14.37-5.18,14.37-8.12V366.59Z"/><ellipse class="cls-10" cx="383.37" cy="369.38" rx="14.68" ry="5.22" transform="translate(-71.45 92.69) rotate(-12.62)"/></g></svg>