<svg xmlns="http://www.w3.org/2000/svg" xmlns:xlink="http://www.w3.org/1999/xlink" viewBox="0 0 864.96 746.4"><defs><style>.cls-1,.cls-9{fill:none;}.cls-2{fill:#d0d6d5;}.cls-3{fill:#7c8d93;}.cls-4{fill:#b3b3b4;}.cls-5{clip-path:url(#clip-path);}.cls-6{fill:#e8c560;}.cls-7{fill:#d8b02d;}.cls-8{fill:#717071;}.cls-9{stroke:#211815;stroke-linecap:round;stroke-linejoin:round;stroke-width:2px;}.cls-10{fill:#fff;}.cls-11{fill:#3d3a39;}.cls-12{fill:#dadbdb;}.cls-13{fill:#baa885;}.cls-14{fill:#c1ae8e;}.cls-15{fill:#ededee;}.cls-16{fill:#878787;}.cls-17{fill:#9d9d9e;}.cls-18{fill:#595757;}.cls-19{fill:#c8c8c9;}</style><clipPath id="clip-path"><polygon class="cls-1" points="679.41 783.65 0 783.65 1 138.57 680.41 138.57 679.41 783.65"/></clipPath></defs><g id="主圖"><path class="cls-2" d="M686.83,46.27,631,35.78,571.68,69.7l58.07,12Z"/><path class="cls-3" d="M555.31,127.84,455.11,190c23.14,6.43,47.27,13.15,71.93,20l94.64-65.75Z"/><path class="cls-3" d="M695.31,162.49,609.44,233c26.34,7.38,52.73,14.78,78.63,22.06l76.21-75.53Z"/><path class="cls-2" d="M621.68,144.27,527,210c27,7.53,54.69,15.26,82.4,23l85.87-70.54Z"/><path class="cls-3" d="M629.75,81.67l-58.07-12c-25.29,14.45-50.81,29-76,43.37l59.63,14.77Z"/><path class="cls-2" d="M495.68,113.07c-36,20.51-71.26,40.58-104.16,59.26,20,5.55,41.34,11.47,63.59,17.66l100.2-62.15Z"/><polygon class="cls-3" points="746.57 57.5 686.83 46.27 629.75 81.67 693.01 94.71 746.57 57.5"/><polygon class="cls-2" points="693.01 94.71 760.81 108.68 808.85 69.21 746.57 57.5 693.01 94.71"/><polygon class="cls-3" points="808.85 69.21 760.81 108.68 822.87 121.47 864.96 79.76 808.85 69.21"/><path class="cls-3" d="M693,94.71l-71.33,49.56,73.63,18.22,65.5-53.81Z"/><path class="cls-2" d="M629.75,81.67l-74.44,46.17,66.37,16.43L693,94.71Z"/><path class="cls-2" d="M695.31,162.49l69,17.07,58.59-58.09-62.06-12.79Z"/><path class="cls-2" d="M571.68,69.7,524.47,60,443.06,100l52.62,13C520.87,98.71,546.39,84.15,571.68,69.7Z"/><path class="cls-2" d="M330.48,155.41l-144.21,71,67,23.83c33.95-18.86,82.68-46.36,138.2-77.86C369.38,166.18,348.85,160.5,330.48,155.41Z"/><path class="cls-2" d="M455.11,190,319.88,273.85,396.15,301,527,210C502.38,203.14,478.25,196.42,455.11,190Z"/><path class="cls-3" d="M391.52,172.33c-55.52,31.5-104.25,59-138.2,77.86l66.56,23.66L455.11,190C432.86,183.8,411.53,177.88,391.52,172.33Z"/><path class="cls-3" d="M495.68,113.07l-52.62-13L330.48,155.41c18.37,5.09,38.9,10.77,61,16.92C424.42,153.65,459.7,133.58,495.68,113.07Z"/><path class="cls-3" d="M631,35.78,589.51,28l-65,32,47.21,9.73Z"/><path class="cls-3" d="M527,210,396.15,301l91.16,32.4L609.44,233C581.73,225.28,554.07,217.55,527,210Z"/><path class="cls-2" d="M609.44,233,487.31,333.36,577,365.23,688.07,255.09C662.17,247.81,635.78,240.41,609.44,233Z"/><path class="cls-4" d="M415.08,130.43l1,.51,1.18-.42.84,1V134a9.18,9.18,0,0,1-2.59.93,4.6,4.6,0,0,0-2.19.79,4.32,4.32,0,0,1-4.15.2c0-.25.06-.62-.08-.76a1.31,1.31,0,0,1-.25-1.52c.75-1.06,0-2-.2-2.88a4.12,4.12,0,0,1-.1-2.21,4.63,4.63,0,0,0,.25-1.73c0-2.89,0-5.78,0-8.67,0-.57-.18-1.17.29-1.72a1.22,1.22,0,0,0,0-1.13c-.47-.77-.19-1.59-.31-2.38a22.61,22.61,0,0,0-.61-3.74c-.23-.7-.06-1.44-.32-2.2a15,15,0,0,1-.4-3.18c-.08-.57-.26-1.12-.32-1.69a6,6,0,0,0-.25-1.8c-.26,1.37-.44,2.77-.79,4.12-.2.79-.16,1.61-.36,2.35s-.1,1.52-.32,2.2c-.29.9-.39,1.83-.6,2.74s-.11,2-.4,2.85c-.21.63-.08,1.35-.34,1.85a3.53,3.53,0,0,0-.28,1.72,10.24,10.24,0,0,1,0,2c-.54,2.16-.21,4.36-.32,6.53,0,.15-.13.28-.24.5l.91,1.77v1.53a31.57,31.57,0,0,0-2.94,3.26,2,2,0,0,1-1.93.94c-.33,0-.66,0-1,0l-1.09-1.1a1.87,1.87,0,0,1,.24-1.5,6.87,6.87,0,0,0,.71-3.05c0-7.78-.1-15.57,0-23.35.05-3.52-.63-7-.34-10.5l-1.59-1.59c-.28-1-.53-1.91-.77-2.81.52-1.34,1-2.68,1.66-4.31,0-.5-.05-1.34,0-2.17a19,19,0,0,1,.42-2.18c-1.15-.29-2.18-.57-2.55-1.76-.06-.19-.23-.39-.21-.57.12-1.14-.71-2.25-.29-3.34.56-1.45.52-3,1-4.44.39-1.29.14-2.75,1-3.93,0-1.29,1-1.51,1.9-1.77s1.68-.26,2.26-1h1.68l2.49-2.95c-.06-.86.22-1.9-.3-2.82-.37-.28-.86-.46-1-.78a2.79,2.79,0,0,1-.31-1.83,5.85,5.85,0,0,0,.27-2c0-.56-.05-1.12,0-1.67a11.17,11.17,0,0,1,.46-1.65A9.56,9.56,0,0,1,405.57,50a10.27,10.27,0,0,1,2.23-.78c.27.09.64.33,1,.28a3.07,3.07,0,0,1,2.63,1.23,3.68,3.68,0,0,1,1.15,2.85c-.09,1-.39,2.18.28,3.19a9.34,9.34,0,0,1-.55,1.77c-.14.25-.63.31-1.11.52l-.75,2.61,1.38.68,0,1,1.44,1.33,4.6,1.18,1.27,1.42c0-.14,0,0,0,.17a9.06,9.06,0,0,1,.6,5.23c-.08.78-.23,1.57-.29,2.37a18.87,18.87,0,0,1-.33,2.36c-.14.65-.47,1.26-.58,1.92s-.6.8-1.08,1c-.06,1,.82,1.84.67,2.88.83,1.58.83,3.4,1.5,5,.42,1,.44,2.24,1,3.29-1.18.7-2.28,1.27-3.28,2a3.36,3.36,0,0,0-1.57,3c0,1.67-.23,3.35-.29,5a41.63,41.63,0,0,1-.05,5c-.51,3.24-.21,6.47-.28,9.71s0,6.44,0,9.67a9.71,9.71,0,0,1-.26,1.54A12.23,12.23,0,0,0,415.08,130.43Z"/><path class="cls-4" d="M601.15,153.6a11.27,11.27,0,0,0,1.29,4.09c.18.46.38,1,.19,1.27-.51.74-.17,1.3,0,2,.59,2.31,1.31,4.59,1.82,6.92.3,1.37.86,2.68,1.06,4.09,0,.2.26.37.27.57.05.51,0,1,0,1.6h-4c-.45,1-.31,2.08-.62,2.95a13.49,13.49,0,0,0-.26,2.85c-.08.49.1,1-.33,1.45-.15.15-.11.59,0,.84.73,1.9.14,3.86.33,5.78-.62,1.48-.49,3.1-1,4.64a23.65,23.65,0,0,0-.52,5l.61.61h1.07l.84,1v2l-1.07.84c-.72.08-1.84-.3-2.65.46a5.35,5.35,0,0,1-2.31,1l-.85-1c-.1-.48-.19-1-.32-1.62l.39-1.6.56-.43c0-1.75,0-3.37,0-5,0-.77.25-1.58-.21-2.34s.2-1.57-.44-2.27c-.18-.18,0-.67,0-1,0-1.51-.1-3,0-4.52a18.93,18.93,0,0,0-.46-4.89,32.74,32.74,0,0,1-.25-4.4,9.67,9.67,0,0,1,.27-1.88l-.48-.13a2.57,2.57,0,0,0-.15.36c-.14.84.26,1.7-.23,2.52s.24,1.61-.47,2.24a6.73,6.73,0,0,1-.33,2.48c-.14.58,0,1.18-.33,1.78-.26.44.08,1.06-.33,1.61s.21,1.23-.38,1.77c-.14.13,0,.55,0,.84V188a14.66,14.66,0,0,1-.08,3.81c-.3,1.13.06,2.35-.62,3.38,0,2-.24,4,.69,5.81a1.61,1.61,0,0,1,0,.59c1.4,1.36,2.66,3,5.07,3,.31.4,1,.63.77,1.63l-1.17.77a23.42,23.42,0,0,0-3.52,0,7,7,0,0,0-3.5,1h-1.4L587,206.44a13.39,13.39,0,0,1,.58-3.79,5.33,5.33,0,0,0,0-2.54,26.78,26.78,0,0,1-.89-4.66,13.26,13.26,0,0,1-.42-4c-.67-1.54-.29-3.16-.32-4.73a10.41,10.41,0,0,1,.39-3.49,8.49,8.49,0,0,0,.27-2.32,16.19,16.19,0,0,0,0-2.09c-.11-1.51-.26-3-.4-4.51a14.26,14.26,0,0,0-2.38-.59,13.77,13.77,0,0,0-2.42.2,13.65,13.65,0,0,1,1.24-6.4,6.73,6.73,0,0,0,.84-4c-.25-1.43.39-2.79.36-4.21a3.3,3.3,0,0,0-.81-2.11,18.76,18.76,0,0,1-3.22-5.63c0-.05-.11-.08-.11-.12,0-2.13,0-4.26,0-6.39,0-.32.28-.64.25-.93-.23-1.67.3-3.27.41-4.91a6.68,6.68,0,0,1,1.08-3.19.93.93,0,0,0-.18-1.44l1.59-.65a7,7,0,0,0,.58-1.44c.19-1,.11-2.14.4-3.15.49-1.76.89-3.55,1.51-5.29a15.81,15.81,0,0,1,1.94-4.24,6.88,6.88,0,0,1,2.62-2.35,2.68,2.68,0,0,1,2.7-.12c.46.28,1,.12,1.58.39a2.71,2.71,0,0,1,1.83,1.88,31.86,31.86,0,0,1,1.37,4.66,4.41,4.41,0,0,0,.28.63c-.32,1.51-.61,2.94-.93,4.47.21.42.46.95.78,1.6l3.89,1.47a2.62,2.62,0,0,1,.86,2.31c-.11,2.06.61,4.06.34,6.13.73,1.33.1,2.85.66,4.25a19.66,19.66,0,0,1,1,3.92c.3,1.67.93,3.25,1.15,4.94a15.46,15.46,0,0,0,1.08,3.38,15.51,15.51,0,0,1,.64,2.52,12.06,12.06,0,0,0,.7,2.5,5.22,5.22,0,0,1-.14,4.18l-2.06.4c-.92-.9-1.82-1.64-1.63-3.1l.77-.55c-.48-1.87-.52-3.72-1.44-5.44-.67-1.26-1.2-2.63-1.8-3.94,0-.13-.19-.22-.47-.33,0,.05.06,0,.16,0l-.13-.68-.23,0A1,1,0,0,0,601.15,153.6Zm-17.21-9.39a6.1,6.1,0,0,1-.2,2,3.15,3.15,0,0,0-.14,2.32,5.82,5.82,0,0,1,.26,1.62,4.35,4.35,0,0,0,.64,2.42,5.71,5.71,0,0,0-.36-5.26v-3S584.06,144.29,583.94,144.21Z"/><path class="cls-4" d="M526.51,38.17l.24-.48-.58-.35a6.38,6.38,0,0,1,.47-3.37,7,7,0,0,1-.52-4.34l-3.07-2.7c0-3.11,0-6.21,0-9.3a7.19,7.19,0,0,1,1.21-3.38,2.29,2.29,0,0,1,1.45-1.13A13.5,13.5,0,0,0,528.47,12c.4-.16.81-.27,1.2-.39l1.43-2.15c-1-1.61-2.39-3.11-2.68-5.34l.31-1.69A15.74,15.74,0,0,1,529.84.9a1.91,1.91,0,0,1,1.41-.62c.57,0,1.13-.21,1.69-.25a15.61,15.61,0,0,1,1.81,0A2.72,2.72,0,0,1,537,1.08l-.3.95.81,1.57c0,1.23,0,2.57,0,3.91A13.78,13.78,0,0,1,537.3,9l-1.37.7-.42,1.73a30.93,30.93,0,0,1,2.51,2.8c.25.4.83.6,1.29.85s.14.77.35,1.21a4.4,4.4,0,0,1,.39,1.79,10.24,10.24,0,0,0,.59,2.94,2.9,2.9,0,0,1,0,2.07,1.38,1.38,0,0,0,.16,1.37A10.15,10.15,0,0,1,542,27.75c.29,1.23.46,2.48.73,3.71a7.5,7.5,0,0,1-.27,3.75c-.29,1-.35,2-.6,3.13L541,39c-.12,0-.67-.28-1,.44a9.77,9.77,0,0,0,0,1.2c.2,2.06-.37,4.08-.3,6.13a5.21,5.21,0,0,1-.26,1.14c-.08.38.16.83-.25,1.16-.07.05,0,.26,0,.39a5.56,5.56,0,0,1-.25,1.84c-.19.57-.1,1.21-.26,1.83a10.26,10.26,0,0,0,0,2.77,6.9,6.9,0,0,1-.28,2c-.15.6.24,1.28-.28,1.83,0,0,0,.09,0,.14,0,2.36-.56,4.71-.19,7.11l2.34,1.73a5.86,5.86,0,0,0,2.86-.58c.69.27.56.81.54,1.24-1.13,1.62-2.83,1.93-4.57,2.11-.62.06-1.16.42-1.83.31a3.88,3.88,0,0,0-1.7.22,7.65,7.65,0,0,1-2,0,2.07,2.07,0,0,1-.71-1.7c0-.78,0-1.57,0-2.34-.66-.47-1.19.18-1.8.17a7.25,7.25,0,0,0-2,.28,12.34,12.34,0,0,0-1.69.75,6.69,6.69,0,0,1-1.24.2,7.38,7.38,0,0,1-1.33-.21l-.64-1,.37-2.35-.61-.61a13.61,13.61,0,0,1,0-2.55c.52-2.69.14-5.39.23-8.09a7.14,7.14,0,0,1,.3-1.27,24.93,24.93,0,0,1,.83-3.41,13.58,13.58,0,0,0,.5-1.87,16.15,16.15,0,0,1,.4-1.79,11.69,11.69,0,0,0,.22-2.41c.08-.79.22-1.59.26-2.38s0-1.58,0-2.37A6.62,6.62,0,0,0,526.51,38.17Zm6,27.44V62.86c0-.84,0-1.67,0-2.5s.25-1.68.26-2.53c0-3.93,0-7.86,0-11.8V44.84c-1.27,2.3-1.26,4.64-1.74,6.83a1.47,1.47,0,0,1-.32.3,1.38,1.38,0,0,1-.39.12,20.46,20.46,0,0,1-.38,3.44c-.15.57-.1,1.14-.29,1.68a6,6,0,0,0-.24,4.27c.08.22-.15.56-.25.88.53.7.15,1.55.32,2.39A4.3,4.3,0,0,0,532.5,65.61Z"/><path class="cls-4" d="M636,118.6l1.17.5.49.5v1.21l-2.62,1.68H632.4a5.54,5.54,0,0,1,.09-3.74l-.72-.35c.14-1.39.34-2.59.36-3.8,0-2.59,0-5.19,0-7.78a19.28,19.28,0,0,0-.59-3.38c0-.25-.22-.48-.24-.73a9.23,9.23,0,0,0-.28-3.22c.19-1.32-.38-2.6-.28-3.91,0-.14.06-.34,0-.41-.57-.62-.4-1.43-.61-2.13s-.1-1.13-.35-1.84c-.25,1.37-.42,2.58-.72,3.75a10,10,0,0,1-.45,2c-.33.65.24,1.46-.35,2.08-.07.07,0,.27,0,.41-.09,1.07-.16,2.15-.28,3.22a5.67,5.67,0,0,1-.34,1.11,8,8,0,0,0-.47,1.19,10.29,10.29,0,0,0-.27,2.52c.11,1.47-.31,2.88-.34,4.33a9.92,9.92,0,0,1-.68,2.35c-.07.25-.2.58-.1.77.56,1,.07,2.17.26,3a10.16,10.16,0,0,0-1.12,3.91l-.82.68a12,12,0,0,1-1.88-.4,1.24,1.24,0,0,1-1-.94,17.92,17.92,0,0,0-.61-1.89l1.5-.82c.2-.51-.25-.85-.43-1.28a3.52,3.52,0,0,1-.39-1.51c.05-1.44,0-2.88,0-4.31,0-.8.21-1.59.25-2.39s-.06-1.67,0-2.5a14.77,14.77,0,0,1,.54-2.13,6.06,6.06,0,0,0,.3-1.69c0-.57-.19-1.13.21-1.72.3-.44-.23-1.18.32-1.67-.1-.8.2-1.63-.19-2.42a2.24,2.24,0,0,1-.08-.94c0-2.08,0-4.17,0-6.24l-.94-1.81a1.23,1.23,0,0,1-.78-1,4.08,4.08,0,0,0-1.24-2.25,2.05,2.05,0,0,1-.67-1.53c0-.52-.2-1-.26-1.56s-.15-1-.22-1.56a3.35,3.35,0,0,1,.17-2.4c.17-.27,0-.72,0-1.09s.19-.66.27-1,.21-.94.27-1.41-.1-.9.27-1.29c.1-.1,0-.36,0-.54a26.76,26.76,0,0,1,1.74-7.88l5.69-2,0,0,.88-1.25.77,0a7.18,7.18,0,0,0-.62-3.52,3.78,3.78,0,0,1-.07-2c.16-.82.38-1.61.55-2.42a4.58,4.58,0,0,1,1.52-1.86,2.37,2.37,0,0,1,1-.48c.38-.1.76-.12,1.15-.24a2.25,2.25,0,0,1,1.52.25c.43.2,1.09.26,1.1,1a2.9,2.9,0,0,1,.8,2.31c0,.64,0,1.29,0,1.94a2.24,2.24,0,0,0,.27,1.15,5.09,5.09,0,0,1,.57,2.4c0,.74,0,1.47,0,2.16.42.57,1.24.57,1.42,1.4a5.21,5.21,0,0,0,.88,2,7.19,7.19,0,0,1,.8,1.91A14.56,14.56,0,0,0,641,69.26c0,1.07.18,2.17-.63,3.08a2.32,2.32,0,0,1-1.87.4c-.61-.07-1.21-.21-1.86-.33-.13.71-.29,1.35-.35,2a11.43,11.43,0,0,0,0,1.94,8.77,8.77,0,0,0,.28,1.69c.12.42-.32.76-.08,1.19s.1.83.29,1.27a4.94,4.94,0,0,1,0,1.86l-.53.42a4.41,4.41,0,0,0,.51,2.39,6.11,6.11,0,0,1,.59,2.54c0,2,0,3.89,0,5.84a6.24,6.24,0,0,1-.49,2.58c-.2.5.22,1.13-.35,1.52a14.75,14.75,0,0,0-.24,3.22c.22,1.49,0,3,.29,4.47a18,18,0,0,1,.19,4.2,14,14,0,0,1-.71,4.14,2.07,2.07,0,0,0-.09.66ZM623.37,75.81c0,.1-.12.18-.11.25.19,1.37-.41,2.68-.29,4a.52.52,0,0,1-.09.37,1.35,1.35,0,0,0-.14,1.43,8.7,8.7,0,0,1,.24,2.59l.52.93a14,14,0,0,0,0-2.27,3.84,3.84,0,0,1,0-2.44,11.53,11.53,0,0,0,.31-1.94c.06-.86,0-1.74,0-2.56Zm11.37-16.27c-.94.68-.84,1.57-1.28,2.28l.56.11Zm0,3.41-.29,0-.16.6.82-.06Z"/><path class="cls-4" d="M363.52,136.61l-1.12.51a17.22,17.22,0,0,1,4,.91c1.64.6,1.76.87,2.54,2.57a19.2,19.2,0,0,1,.95,4.07c.19.91-.32,2-.57,3.24.16.6.91,1.48.59,2.41a13.31,13.31,0,0,1-1.61,2.6l-.7-.5-.51.56a19.2,19.2,0,0,0,0,3.3,25.63,25.63,0,0,0,1.19,5.41c0,.11.19.18.2.28.13,1.2.32,2.41.35,3.61.05,2.33-.08,4.67,0,7a39.88,39.88,0,0,1-.76,7.41,3.65,3.65,0,0,1-1.42,2,1.76,1.76,0,0,1,0,.62c-.18.4-.42.78-.71,1.3-.15.75.37,1.74-.41,2.5.16.32.4.57.4.81a13.31,13.31,0,0,0,.68,3.84,18.94,18.94,0,0,1,.4,4.14,21.25,21.25,0,0,1-1.3,7.88,11,11,0,0,0-.46,3c-.08,1.49,0,3,0,4.48.83,1,.83,1,.7,3.77l-1.28.82c-.68,0-1.4,0-2.11,0s-1.32-.29-1.82.35a11.16,11.16,0,0,1-5.92-1.3,3.3,3.3,0,0,1-.66-.64v-1.88c1.18-.82,1.18-.82,3.1-.91a6.37,6.37,0,0,0-.67-4.11,59.63,59.63,0,0,1-2.86-8.32,7,7,0,0,1-.31-2.19c.05-.94-.52-1.76-.39-2.73a11.41,11.41,0,0,0,0-2.86c-.14-1-.52-2.06-.74-3.1a14.55,14.55,0,0,1-.67-4l-4.31-1.78a33.3,33.3,0,0,1,.07-5.57c.35-2.06.14-4.09.32-6.13a16.31,16.31,0,0,0,.34-2.72,7.37,7.37,0,0,1,.6-2.8c.28-.84.54-1.68.83-2.52a2.21,2.21,0,0,1,.36-.51,5.15,5.15,0,0,1,1.19-4.05c.25-.31.21-.86.29-1.22l-1.49-1.49c.14-1-.71-1.53-1.17-2.19-1-1.44-1.88-2.84-1.71-4.69a13.94,13.94,0,0,0,0-2.33,11.68,11.68,0,0,1,.34-2.36,3.4,3.4,0,0,1,.71-2.06c.15-.16.06-.54.08-.83a7.21,7.21,0,0,1,4.66-1.5l3.18-1.62c.2-1.75-1.7-1.21-2.5-2.17a34.48,34.48,0,0,1,.06-5.17,12.8,12.8,0,0,1,1-4.25,8.93,8.93,0,0,1,1.77-2.3c.14-.15.47-.13.58-.29.53-.71,1.37-.07,2-.48s1.14,0,1.74.07a3.89,3.89,0,0,1,2.42,1.13,3.09,3.09,0,0,1,1.26,2.35c.83,1,.73,2.26.72,3.46,0,.84,0,1.68,0,2.51A6.34,6.34,0,0,1,363.52,136.61Zm-2.4,74.22a9.84,9.84,0,0,1,.74-2.83,2.76,2.76,0,0,0,.18-.64c.22-2-.27-4-.36-5.94-.74-.89,0-2-.41-2.87-.56-1.06-.16-2.08-.3-3.1-.16-1.26-.26-2.52-.38-3.79-.78-.56-.1-1.52-.64-2.26-.38-.52-.19-1.46-.24-2.21s-.13-1.62-.18-2.43c0-.35,0-.7,0-1l-.72-.66c0,.69-.21,1.38.05,1.7a2.45,2.45,0,0,1,.29,1.86c0,1.68.23,3.38-.3,5.06a4.78,4.78,0,0,0,.26,2.36c.26,1.1-.08,2.32.42,3.42-.28,2,.41,3.82.39,5.76,0,1.56.2,3.13.33,4.69,0,.15.17.29.22.45C360.69,209.21,360.9,210,361.12,210.83Z"/><g class="cls-5"><path class="cls-6" d="M180.12,560c-12.23,5.35-113,39.53-129.12,45,0,.19.06,1,.1,2.29,21.26,14,152.47,89.41,156.44,89.41,3.8,0,116.26-52.58,126.28-67.2v-3C322.19,619,193.41,554.18,180.12,560Zm43.52,83.47s-62.73-37-64-38.5l11.63-4.7,63.56,38.21Z"/><path class="cls-7" d="M209.1,783.65,53.45,783.5S51.58,619.8,51.1,605.26c21.26,14,152.47,91.41,156.44,91.41Z"/><path class="cls-7" d="M333.82,627.47l-1.23,156.18L209.1,786.92l-2.79-91.06C210.12,695.86,317.09,640.39,333.82,627.47Z"/><path class="cls-8" d="M234.85,638.48l-11.21,5s-62.73-37-64-38.5l11.63-4.7Z"/><path class="cls-9" d="M449.75,304.34h0"/><line class="cls-1" x1="463.09" y1="342.86" x2="462.95" y2="342.6"/><path class="cls-10" d="M522,239.8a10.17,10.17,0,0,0-6.61-4.2c-2.38-.54-4.07,0-5.25,1.23h0c-3.85,3.93-2.47,14.94-2.9,19-.34,3.22-3.53-5.56-6.92-16.92-2.26-7.55-4.63-16.25-6.31-23.33-4.23-17.74-16.9-24.49-36.32-22.53S428.36,207.73,427,214.76a122.91,122.91,0,0,0-1.21,12.82c-.11,1.9-.2,3.88-.28,5.85,5.84-.69,14.8-.88,17.29,1.16,2.22,1.84-.11,17.45-1.07,18.15-.75.54-10.7,1.86-16,1.11-.18,9.08-1.61,25.44,8.62,35,6.64,6.18,11.17,11.94,15.47,15.54,0,.43-.57,11.75.23,17.55a10,10,0,0,0,.63,2.66,14.23,14.23,0,0,0,.8,1.44h0c2.66,4.35,9.34,12.36,9.34,12.36l2.2,4.25c3.32-2.14,8.47-1.36,12.07-.66l1.21-6.13c5.34-3.65,35.75-38.57,35.75-38.57-3.38-7-3.1-27.87-2.53-26.74s8.73-4.22,12.11-13.23C523.88,251.07,524.87,244.21,522,239.8ZM485.32,253c-1.55,1.69-28.85,2.9-30.61,0s-2.72-17.16-1.33-18.2c5.2-3.92,32.15-3.37,35.24-1.91S486.85,251.32,485.32,253Z"/><line class="cls-1" x1="475.02" y1="341.94" x2="474.98" y2="342.1"/><path class="cls-9" d="M449.75,304.34c3.55,3,6.95,4.5,11.28,3.6,9.57-2,33.22-4.5,37.72-29.56"/><path class="cls-11" d="M507.2,255.86c-.34,3.22-3.53-5.56-6.92-16.92l9.82-2.11C506.25,240.76,507.63,251.77,507.2,255.86Z"/><path class="cls-11" d="M522,239.8a10.17,10.17,0,0,0-6.61-4.2c-2.38-.54-4.07,0-5.25,1.23h0l-9.82,2.11c-2.26-7.55-4.63-16.25-6.31-23.33-4.23-17.74-16.9-24.49-36.32-22.53S428.36,207.73,427,214.76a122.91,122.91,0,0,0-1.21,12.82c-.11,1.9-.2,3.88-.28,5.85l-.67.08c-1.52-3.74-6.31-15.9-7.88-24.38-1.87-10.13,4.88-18.4,10.14-19.52S427.06,172,447,166s53.68.75,66.06,17.64S529,219.81,522,239.8Z"/><path class="cls-9" d="M425.27,234.65s-.18-.41-.47-1.14"/><path class="cls-9" d="M514.23,245.31a4,4,0,0,1,4.23,2.95c.84,3.24-1,9.86-5.63,11.69"/><path class="cls-9" d="M458.58,227.84s3.38-4.07,10.14-3.13a122.81,122.81,0,0,1,13.7,2.86"/><path class="cls-9" d="M442.11,229.3s-.23-2.71-4-2.9-12.38,1.17-12.38,1.17"/><path class="cls-4" d="M485.32,253c-1.55,1.69-28.85,2.9-30.61,0s-2.72-17.16-1.33-18.2c5.2-3.92,32.15-3.37,35.24-1.91S486.85,251.32,485.32,253Z"/><path class="cls-4" d="M442.76,234.59c-2.49-2-11.45-1.85-17.29-1.16l-.67.08c-2.46.32-4.24.73-4.51,1.08-.92,1.17.24,15.24,2.26,18,.45.61,1.59,1,3.11,1.22,5.33.75,15.28-.57,16-1.11C442.65,252,445,236.43,442.76,234.59Z"/><line class="cls-9" x1="443.69" y1="239.8" x2="452.72" y2="239.8"/><line class="cls-9" x1="500.28" y1="238.94" x2="489.62" y2="241.23"/><path class="cls-9" d="M441.13,276.88s.56,5.82,7.88,5.07,18-3.43,22.16-5.84"/><path class="cls-9" d="M443.69,259.62c-1.62,2.81-1.62,6.94,2.13,7.32a16.9,16.9,0,0,0,10.33-2.82"/><path class="cls-9" d="M474.51,267c2.28,2.76,6.78,9.33,5.47,16.46"/><path class="cls-12" d="M501.57,355.52a2.71,2.71,0,0,1-2.66.07c-7.08-2.49-22.68-19.78-22.68-19.78,5.34-3.65,35.75-38.57,35.75-38.57a9.55,9.55,0,0,1,1.07,3.8C514.66,314.73,505.42,352.35,501.57,355.52Z"/><path class="cls-13" d="M531.41,351.77c-2.25,12-51.78,151.7-52.3,153.17,1.86-14.18,5.18-42.78,8.72-71.58,4-32.42,8.27-65.1,11.08-77.77a2.71,2.71,0,0,0,2.66-.07c3.85-3.17,13.09-40.79,11.48-54.48l5.61,2.38C519.36,303.72,533.66,339.76,531.41,351.77Z"/><path class="cls-14" d="M628.25,661.82c-3.38-6.75-11.83-70.38-14.64-78.26A66.48,66.48,0,0,1,612,577c-3.13-15.33-8.82-51.79-10.87-76-.75-8.83-1-16-.5-19.94,1.07-8.06-.79-26.35-3.17-46.14,0,0,0-.09,0-.13-2.6-21.71-5.79-45.21-6.39-59-1.12-26.46,9.58-41.1,9.58-44.48s-38.1-12.2-47.11-14.45c-6.62-1.66-25.42-9.44-34.89-13.44.7.3,15,36.34,12.75,48.35s-51.78,151.7-52.3,153.17h0c-.52,4-.93,6.84-1.2,8.23s-.2,5,.14,10.26c.86,13.39,3.44,37.5,6.38,63.34.52,4.46,1,9,1.56,13.48,5.08,43.85,10.52,88.22,9.94,90.84-1.13,5.07,25.34,3.37,37.73,0,9.26-2.53,59.48-13.88,82.79-22.26C624.3,666,629.11,663.52,628.25,661.82ZM512.19,569.61c-1.88-1.5-3.75-9.39-3-12.4l56.3-10.5,6.76,13.88S514.07,571.11,512.19,569.61Z"/><path class="cls-15" d="M464.1,357.22l-3.58,93.46c-5.1-18.29-9.65-34.64-11-39.23-3.25-11.38,1.49-80.24,1.86-85.46,2.66,4.35,14.92,11.35,14.92,11.35l.05,4c-1.51,1-6,3.74-6.48,6.17C459.06,352.32,461.36,355.92,464.1,357.22Z"/><path class="cls-9" d="M451.42,325.68s0,.11,0,.31"/><path class="cls-13" d="M672.73,477.7c0,10.14-29.28,47.87-39.41,62.5S612,577,612,577c-3.13-15.33-8.82-51.79-10.87-76a55.69,55.69,0,0,0,19.77-23.33S598.5,441.29,597.49,435c0,0,0-.09,0-.13-2.6-21.71-5.79-45.21-6.39-59-1.12-26.46,9.58-41.1,9.58-44.48,2.25,2.82,27,63.63,36.6,81.08S672.73,467.57,672.73,477.7Z"/><path class="cls-1" d="M601.16,501l-.5.32"/><path class="cls-1" d="M620.93,477.7s16.52-5.71,31.81,3.1"/><path class="cls-13" d="M470.55,486.73c-7.05-14.25-35.7-72.13-39-79-3.73-7.83,6.32-76.87,7-78.11v0c6-3.93,10.46-7,11.45-7.68a10,10,0,0,0,.63,2.66,14.23,14.23,0,0,0,.8,1.44h0c-.37,5.22-5.11,74.08-1.86,85.46,1.32,4.59,5.87,20.94,11,39.23h0C463.9,462.8,467.51,475.76,470.55,486.73Z"/><path class="cls-14" d="M478.05,523.44s-5.2,15.64-11.39,26.9c-2,3.64-5.78,17.53-10,34.81-1.08,4.4-2.18,9-3.3,13.75-8,34.1-16.43,73.75-17.11,76.43-1.12,4.51-11.26,3.95-16.47,0h0c-5.2-4,6.34-56.3,8.59-64.17,1-3.44,2.39-20.76,3.58-40,0,0,8.82,2,11.63,1.12s2.82-13.51,2.82-14.07-13.46-4.48-13.46-4.48c1-19.19,1.56-36.66,1.07-40.57-.61-4.89-7.84-25.16-15.05-44.59-6.1-16.4-12.17-32.2-14.23-37.62-4.5-11.82-15.76-71.5-15.76-71.5s2.25-5.63,11.26-7.6c5.9-1.3,25.48-13.8,38.3-22.28-.64,1.24-10.69,70.28-7,78.11,3.29,6.9,31.94,64.78,39,79v0l7.35,26.43C477.64,514.6,477.71,518.21,478.05,523.44Z"/><path class="cls-16" d="M446.39,558.23c0,.56,0,13.22-2.82,14.07s-11.63-1.12-11.63-1.12c.36-5.75.69-11.67,1-17.43C432.93,553.75,446.39,557.68,446.39,558.23Z"/><path class="cls-16" d="M481.86,354.31c.23,1.71-1.58,2.5-4.06,2.86-3.63.54-8.69.18-10.87.52a4.9,4.9,0,0,1-2.83-.47c-2.74-1.3-5-4.9-4.2-9.67A7,7,0,0,1,463,342.6c3.32-2.14,8.47-1.36,12.07-.66,1.17.23,2.17.44,2.89.54C481.86,343.05,481.29,350.08,481.86,354.31Z"/><path class="cls-15" d="M498.91,355.59c-2.81,12.67-7.09,45.35-11.08,77.77l-10-76.19c2.48-.36,4.29-1.15,4.06-2.86-.57-4.23,0-11.26-3.95-11.83-.72-.1-1.72-.31-2.89-.54l1.21-6.13S491.83,353.1,498.91,355.59Z"/><line class="cls-1" x1="487.88" y1="433.77" x2="487.83" y2="433.36"/><line class="cls-1" x1="477.8" y1="357.17" x2="477.75" y2="356.8"/><path class="cls-16" d="M487.83,433.36c-3.54,28.8-6.86,57.4-8.72,71.58h0c-.52,4-.93,6.84-1.2,8.23l-7.35-26.43v0c-3-11-6.65-23.93-10-36h0l3.58-93.46a4.9,4.9,0,0,0,2.83.47c2.18-.34,7.24,0,10.87-.52Z"/><path class="cls-1" d="M470.56,486.75c1,2,1.56,3.15,1.56,3.15"/><path class="cls-13" d="M419,468.59s-15.54,48.72-20.8,58.48-28.53,27-37.53,21.77-10.14-7-26.65-15.3-47.49-19.13-47.49-19.13,7.31,1.07,12.28-12a62.5,62.5,0,0,0,3.2-13.09c1.43-9.73.6-16.33-1-20.79-2.51-6.8-6.9-8.62-8-9,2.73.72,27.92,7.49,35.38,10.68,7.88,3.38,23.77,11.66,26.87,10s11-19.15,9.85-27.87S389,359.47,389,359.47s11.26,59.68,15.76,71.5C406.78,436.39,412.85,452.19,419,468.59Z"/><path class="cls-17" d="M300.91,468.56s-4.87-1.65-11.81-3.8l3.58-5.25h.06l.18.05C294,459.94,298.4,461.76,300.91,468.56Z"/><path class="cls-1" d="M299,502.51l-.19-.07"/><path class="cls-1" d="M275.36,505.28l-.21.07"/><path class="cls-10" d="M302,489.35a62.5,62.5,0,0,1-3.2,13.09c-5.83-2.17-10.48-4-14.86-2.47a12,12,0,0,0-4.65,3.09,9.66,9.66,0,0,1-3.89,2.21s.05-8.79,0-9.91c0-.59-5.28-2.73-10.36-4.68.35-5.93-5.09-21.64-6.91-11a27.7,27.7,0,0,1-2.47,7.54,29,29,0,0,1-16.87,14.64c-6.45,2-19.95-10.65-19.59-16.11.25-3.85,2.83-9.07,6.41-14.11,5.31-7.49,12.81-14.61,18.14-16.4,6.08-2,30.5,4.93,45.39,9.54,6.94,2.15,11.81,3.8,11.81,3.8C302.56,473,303.39,479.62,302,489.35Z"/><path class="cls-17" d="M298.76,502.44c-5,13-12.28,12-12.28,12A40.53,40.53,0,0,1,283.9,500C288.28,498.44,292.93,500.27,298.76,502.44Z"/><path class="cls-16" d="M572.25,560.59s-58.18,10.52-60.06,9-3.75-9.39-3-12.4l56.3-10.5Z"/><path class="cls-8" d="M492.14,720.94l-1.84,64H411.67l8.1-109.66h0c5.21,3.95,15.35,4.51,16.47,0,.68-2.68,9.09-42.33,17.11-76.43,2.75.42,26.87,4.05,32.63,1.36,5.08,43.85,10.52,88.22,9.94,90.84-1.13,5.07,25.34,3.37,37.73,0,9.26-2.53,59.48-13.88,82.79-22.26l9,114.81H499.87S492.33,680.56,492.14,720.94Z"/><line class="cls-1" x1="616.45" y1="668.84" x2="616.43" y2="668.69"/><line class="cls-1" x1="419.78" y1="675.21" x2="419.77" y2="675.32"/><path class="cls-15" d="M484.43,586.78l-27.77-1.63c4.22-17.28,8-31.17,10-34.81,6.19-11.26,11.39-26.9,11.39-26.9C478.91,536.83,481.49,560.94,484.43,586.78Z"/><line class="cls-1" x1="484.7" y1="586.79" x2="484.43" y2="586.78"/><line class="cls-1" x1="456.66" y1="585.15" x2="456.38" y2="585.14"/><path class="cls-18" d="M486,600.26c-5.76,2.69-29.88-.94-32.63-1.36,1.12-4.73,2.22-9.35,3.3-13.75l27.77,1.63C485,591.24,485.46,595.75,486,600.26Z"/><path class="cls-1" d="M486.22,600.14l-.23.12"/><path class="cls-1" d="M453.36,598.9l-.25,0"/><path class="cls-19" d="M275.36,505.27h0c-.06.72-2.67,33.13-2.67,39.81s-5,74.34-5,74.34c-26.74-21.39-77.44-36-77.44-36,0-28.16,9.78-43,9-52.06s-.37-62.87,0-66.58,26.27,6.86,26.27,6.86c-3.58,5-6.16,10.26-6.41,14.11-.36,5.46,13.14,18.09,19.59,16.11a29,29,0,0,0,16.87-14.64s4.61,1.65,9.38,3.48c5.08,1.95,10.33,4.09,10.36,4.68C275.41,496.48,275.36,505.27,275.36,505.27Z"/><path class="cls-12" d="M452.11,352.56c.42.36,1.36.74,1.84.05,3.58-5.17,12.38-15.27,12.38-15.27-3.72-2.69-16.78-24.7-16.78-24.7-.37.63-1.56.94-1.69,2.15C446.74,324.85,449.43,350.22,452.11,352.56Z"/></g></g></svg>