<svg xmlns="http://www.w3.org/2000/svg" viewBox="0 0 1492.58 729.76"><defs><style>.cls-1{fill:#f7f7f7;}.cls-2{fill:#edefef;}</style></defs><g id="分層-bg"><path class="cls-1" d="M804,240.62a52.52,52.52,0,0,0-13.83-45.07c-19.46-20.49-48.14-7.17-48.14-7.17s-3.08-27.15-40.47-57.37-90.65-6.14-90.65-6.14c1-45.59-33.8-115.24-108.58-115.24C373.73,13.21,379.88,119,379.88,119,216.21,76.61,208.23,240.07,208.23,240.07-98.66,202.85,24.36,729.76,24.36,729.76H829V246.62C814.29,240.85,804,240.62,804,240.62Z"/><path class="cls-2" d="M1372.56,734.25l-1202.9-2.41H94.54s-26-319.28,278.79-319.28c0,0-4.6-79.18,82.72-126.35S606.17,309.8,606.17,309.8s44.42-111.19,189.94-77.49S931.63,385.6,931.63,385.6s71.28-23.58,126.43,25.27,53.61,102.76,53.61,102.76,95.28-3.51,92.62,96.92c0,0,69.84-21.95,121,25.27C1359.3,667.13,1372.56,734.25,1372.56,734.25Z"/><path class="cls-1" d="M137.35,530.93c55.89-40.84,93.17-40.31,174.67-10.23,0,0,69.58-64.25,145.26-76.86s115.46,50.74,115.46,50.74,45.6-41,101.87-11.93,48.52,71.79,48.52,71.79,25.22-25.22,56.27-12.29,31.7,39.79,31.7,39.79,31-20.38,64.36-7.12,44,45.6,44,45.6,14.88-2.1,26.36,8.57,9.87,21,9.87,21,13.42-4.2,26.68,8.9,8.41,27,8.41,27,13.42-1.77,18.27,7,1.29,15.36,1.29,15.36a15.13,15.13,0,0,1,10.51,8.57,20.26,20.26,0,0,1,.81,15h-981S70.59,579.72,137.35,530.93Z"/></g></svg>