<?xml version="1.0" encoding="utf-8"?>
<!-- Generator: Adobe Illustrator 26.0.3, SVG Export Plug-In . SVG Version: 6.00 Build 0)  -->
<svg version="1.1" id="圖層_1" xmlns="http://www.w3.org/2000/svg" xmlns:xlink="http://www.w3.org/1999/xlink" x="0px" y="0px"
	 viewBox="0 0 222 130.2" style="enable-background:new 0 0 222 130.2;" xml:space="preserve">
<style type="text/css">
	.st0{fill:#EDAB03;}
	.st1{fill:none;stroke:#EDAB03;}
	.st2{fill:#CD9400;}
</style>
<path class="st0" d="M43.2,108.4c-0.3,0-0.7,0-1,0.1h-0.3c-0.1,0-0.2,0-0.3,0c-0.2,0-0.4,0.1-0.6,0.1c-0.8,0.3-1.7,0.6-2.5,1
	c-0.8,0.4-1.7,0.8-2.4,1.2s-1.4,0.8-1.9,1.1l-0.8,0.4l0.2,0.1c0.2,0.1,0.4,0.2,0.6,0.2c0.5,0.2,1.3,0.4,2.1,0.6l0.6,0.1
	c0.2,0,0.5,0.1,0.7,0.1c0.5,0,0.9,0.1,1.4,0.1c0.9,0,1.8-0.1,2.7-0.3c1.4-0.4,2.6-1.3,3.4-2.4c0.4-0.5,0.7-1.1,1-1.7
	c-0.5-0.3-1-0.5-1.5-0.6C44.3,108.4,43.8,108.3,43.2,108.4L43.2,108.4z"/>
<path class="st0" d="M45.7,101.6c-0.4-0.6-0.9-1.2-1.4-1.7c-0.2-0.3-0.5-0.5-0.8-0.8l-0.4-0.3l-0.4-0.3c-0.5-0.4-1-0.7-1.3-1
	l-0.5-0.4v0.8c0,0.7,0.1,1.3,0.2,2c0.1,0.9,0.3,1.7,0.5,2.5c0.2,0.8,0.6,1.6,1,2.3c0.1,0.2,0.2,0.3,0.3,0.5c0,0.1,0.1,0.2,0.2,0.2
	l0.2,0.2c0.2,0.2,0.5,0.5,0.7,0.6c0.2,0.2,0.5,0.3,0.7,0.4c0.2,0.1,0.4,0.2,0.7,0.3c0.5,0.2,1,0.2,1.5,0.2c0.1-0.6,0.1-1.3,0-1.9
	c-0.1-0.6-0.2-1.2-0.3-1.8l-0.2-0.5c-0.1-0.2-0.1-0.3-0.2-0.5C46,102.2,45.9,101.9,45.7,101.6L45.7,101.6z"/>
<path class="st0" d="M33.1,103.5l-0.2-0.2c-0.3-0.3-0.6-0.5-0.9-0.7c-0.2-0.1-0.5-0.3-0.7-0.3c-0.3-0.1-0.5-0.2-0.8-0.3
	c-0.7-0.2-1.4-0.3-2.1-0.3c-0.4,0-0.8,0-1.3,0.1s-0.9,0.1-1.4,0.2s-0.9,0.2-1.4,0.3l-1.3,0.3c-0.8,0.2-1.5,0.4-2.1,0.5
	s-0.9,0.2-0.9,0.2s0.3,0.2,0.7,0.5c0.2,0.2,0.5,0.3,0.8,0.5c0.1,0.1,0.3,0.2,0.5,0.3l0.6,0.3c0.4,0.2,0.8,0.4,1.2,0.6l0.6,0.3
	l0.3,0.1l0.3,0.1c0.9,0.3,1.8,0.4,2.7,0.4c1.4-0.1,2.8-0.5,3.9-1.4c0.4-0.3,0.7-0.6,1-0.9C32.9,103.8,33.1,103.7,33.1,103.5
	L33.1,103.5z"/>
<path class="st0" d="M30.8,98.2c0.2,0.7,0.5,1.3,0.9,1.8c0.2,0.2,0.4,0.4,0.6,0.6c0.2,0.2,0.4,0.3,0.6,0.5c0.3,0.2,0.7,0.4,1,0.5
	c0.1,0,0.2,0.1,0.3,0.1h0.1c0.1-0.2,0.1-0.3,0.2-0.5c0.1-0.4,0.2-0.9,0.3-1.3c0.3-1.3,0.2-2.7-0.1-4c-0.2-0.7-0.5-1.3-0.9-1.9
	c-0.3-0.6-0.7-1.2-1.2-1.8c-0.2-0.2-0.4-0.5-0.5-0.7s-0.3-0.4-0.4-0.6c-0.1-0.2-0.3-0.3-0.4-0.5c0,0-0.1,0.3-0.2,0.8s-0.3,1.3-0.4,2
	c0,0.4-0.1,0.8-0.1,1.3s0,0.9,0,1.3c0,0.4,0,0.8,0.1,1.2C30.6,97.4,30.6,97.8,30.8,98.2L30.8,98.2z"/>
<path class="st0" d="M21.4,93.6c-0.2-0.3-0.4-0.6-0.7-0.9c-0.9-0.9-2-1.6-3.2-1.9l-0.8-0.2l-0.9-0.2c-1.5-0.2-3.2-0.3-4.4-0.4
	s-2.2-0.1-2.2-0.1s0.3,0.4,0.9,1c0.7,0.8,1.4,1.5,2.2,2.1c0.1,0.1,0.3,0.2,0.4,0.3l0.2,0.2l0.2,0.2c0.3,0.2,0.6,0.4,0.9,0.6
	s0.6,0.3,0.9,0.5c0.3,0.1,0.6,0.2,0.9,0.3c1.4,0.4,2.8,0.3,4.1-0.2c0.6-0.2,1.2-0.5,1.7-0.8C21.5,93.9,21.5,93.7,21.4,93.6
	L21.4,93.6z"/>
<path class="st0" d="M21.9,91.6c0.2,0.3,0.5,0.6,0.8,0.8c0.1,0.1,0.2,0.2,0.4,0.2c0.4-0.5,0.7-1,1-1.6c0.6-1.2,1-2.5,1-3.8
	c0-0.6-0.1-1.1-0.2-1.6c0-0.3-0.1-0.5-0.2-0.8s-0.1-0.5-0.2-0.8c-0.1-0.4-0.3-0.9-0.4-1.2c0-0.1-0.1-0.2-0.1-0.3
	c0-0.1-0.1-0.2-0.1-0.3c-0.1-0.2-0.1-0.3-0.2-0.5c-0.2-0.6-0.4-0.9-0.4-0.9s-0.5,0.7-1,1.8c-0.1,0.3-0.3,0.6-0.4,0.9l-0.2,0.5
	c-0.1,0.2-0.1,0.3-0.2,0.5c-0.2,0.7-0.4,1.4-0.6,2.1c-0.1,0.3-0.1,0.5-0.1,0.8c0,0.3,0,0.5,0,0.8c0,0.7,0.1,1.4,0.4,2
	C21.4,90.6,21.7,91.1,21.9,91.6L21.9,91.6z"/>
<path class="st0" d="M10.4,81.8c0.3,0,0.6,0,0.9,0c0.6,0,1.3-0.1,1.9-0.3c0-0.1-0.1-0.3-0.1-0.4c0-0.1-0.1-0.3-0.2-0.5
	c-0.1-0.2-0.2-0.4-0.2-0.6c-0.2-0.5-0.6-1-0.9-1.4l-0.3-0.4l-0.4-0.4c-0.3-0.3-0.6-0.5-0.9-0.7c-0.4-0.2-0.7-0.4-1.1-0.6
	c-0.4-0.2-0.8-0.4-1.2-0.6c-0.8-0.4-1.7-0.7-2.6-1s-1.5-0.6-2-0.7L2.2,74c0,0,0.1,0.3,0.3,0.8c0.1,0.2,0.2,0.6,0.4,0.9
	s0.4,0.7,0.6,1.1S4,77.6,4.3,78l0.2,0.3c0.1,0.1,0.2,0.2,0.2,0.3l0.4,0.6c0.3,0.4,0.6,0.7,1,1c0.2,0.2,0.3,0.3,0.5,0.4
	c0.2,0.1,0.4,0.3,0.6,0.4c0.7,0.4,1.4,0.7,2.1,0.8C9.7,81.8,10,81.9,10.4,81.8L10.4,81.8z"/>
<path class="st0" d="M13.6,77.7c0.1,0.5,0.2,1.1,0.4,1.6c0.1,0.2,0.2,0.4,0.3,0.6c0.1,0.1,0.2,0.3,0.3,0.4c0.1,0.1,0.2,0.2,0.3,0.3
	c0.5-0.4,1-0.8,1.4-1.3c0.2-0.2,0.4-0.4,0.5-0.7c0.2-0.3,0.4-0.5,0.6-0.8c0.4-0.6,0.7-1.2,0.9-1.9c0-0.2,0.1-0.3,0.1-0.5
	c0-0.2,0.1-0.4,0.1-0.6c0.1-0.4,0.1-0.8,0.1-1.1c0-0.7,0-1.5,0-2.1c0-0.3,0-0.6-0.1-0.9c0-0.3,0-0.5-0.1-0.7c0-0.4-0.1-0.7-0.1-0.7
	s-0.2,0.2-0.6,0.6s-0.8,0.9-1.4,1.5c-0.5,0.7-1,1.3-1.5,2.1c-0.2,0.4-0.4,0.8-0.6,1.2c-0.2,0.4-0.3,0.7-0.4,1.1
	c-0.1,0.4-0.2,0.7-0.2,1.1c0,0.2,0,0.3,0,0.5v0.2C13.7,77.5,13.6,77.6,13.6,77.7z"/>
<path class="st0" d="M3.9,66.3c0.3,0.2,0.7,0.4,1,0.6c0.6,0.3,1.2,0.5,1.8,0.6c0.6,0.1,1.2,0.2,1.9,0.2c0-0.5,0-1.1-0.1-1.6
	c0-0.2-0.1-0.5-0.2-0.8c-0.2-0.6-0.5-1.2-0.8-1.7c-0.1-0.2-0.2-0.3-0.4-0.4l-0.2-0.2l-0.2-0.2c-1.3-1.3-2.6-2.4-4.1-3.5
	c-0.7-0.5-1.3-0.9-1.8-1.2S0,57.5,0,57.5s0,0.3,0.1,0.9s0.2,1.3,0.4,2.2c0.2,0.9,0.6,1.8,0.9,2.6c0.1,0.2,0.2,0.4,0.3,0.7
	C1.9,64,2,64.3,2.2,64.5c0.2,0.4,0.5,0.7,0.8,1.1C3.3,65.8,3.6,66.1,3.9,66.3z"/>
<path class="st0" d="M10.5,67.3c0.6-0.2,1.1-0.5,1.7-0.8c0.5-0.3,1-0.7,1.4-1.1c0.3-0.2,0.5-0.5,0.7-0.8c0.2-0.3,0.5-0.6,0.6-0.9
	c0.2-0.3,0.4-0.7,0.5-1c0.1-0.3,0.3-0.7,0.4-1.1c0.2-0.7,0.4-1.4,0.5-2.1c0.1-0.5,0.2-1.1,0.3-1.6s0.1-0.7,0.1-0.7L16,57.7
	c-0.4,0.2-1,0.6-1.7,1.1c-0.7,0.5-1.4,1-2,1.6c-0.6,0.6-1.2,1.2-1.6,1.9c-0.2,0.3-0.4,0.6-0.5,1c-0.1,0.3-0.2,0.6-0.2,0.9
	c0,0.3-0.1,0.6-0.1,0.9c0,0.3,0,0.5,0.1,0.8C10.1,66.4,10.2,66.9,10.5,67.3L10.5,67.3z"/>
<path class="st0" d="M2.2,45.8c0,0.4,0.1,0.7,0.2,1.1c0.1,0.7,0.3,1.4,0.7,2c0.4,0.7,0.8,1.3,1.4,1.9c0.5,0.4,1,0.8,1.6,1.1
	c0.5,0.3,1.1,0.5,1.8,0.7c0.1-0.1,0.1-0.3,0.1-0.4C8,51.7,8,51.4,8.1,51c0.1-0.6,0-1.2-0.1-1.7c-0.1-0.7-0.3-1.4-0.7-2.1
	c-0.1-0.2-0.3-0.5-0.4-0.8l-0.2-0.4c-0.1-0.1-0.2-0.3-0.2-0.4C6,45,5.6,44.4,5.1,43.8S4.2,42.5,3.8,42c-0.8-1-1.4-1.7-1.4-1.7
	s-0.1,0.5-0.2,1.3c-0.1,0.5-0.1,0.9-0.1,1.4c0,0.5,0,1.1,0,1.7C2.1,45.1,2.1,45.5,2.2,45.8z"/>
<path class="st0" d="M15,50.5c0.1-0.1,0.2-0.2,0.3-0.3c0.1-0.1,0.2-0.2,0.3-0.3c0.2-0.2,0.4-0.4,0.5-0.6c0.2-0.2,0.3-0.4,0.5-0.7
	s0.3-0.5,0.4-0.7c0.2-0.4,0.5-0.8,0.6-1.1l0.2-0.5c0.1-0.2,0.1-0.3,0.2-0.5c0.1-0.3,0.3-0.6,0.4-0.9c0,0-0.8,0.1-2,0.5
	c-0.3,0.1-0.6,0.2-0.9,0.3s-0.6,0.2-1,0.4c-0.7,0.3-1.4,0.6-2,1c-0.5,0.3-0.9,0.6-1.3,0.9c-0.9,0.8-1.5,2-1.7,3.2
	c-0.1,0.4-0.1,0.8,0,1.1c0,0.1,0,0.3,0.1,0.4c0.6-0.1,1.2-0.2,1.8-0.3C12.8,52.1,14,51.4,15,50.5z"/>
<path class="st0" d="M8.4,35c0.3,0.5,0.7,1.1,1.2,1.5c0.4,0.5,0.9,0.8,1.5,1.2c0.1-0.1,0.2-0.2,0.2-0.4c0.2-0.3,0.4-0.7,0.5-1.1
	c0.2-0.5,0.3-1.1,0.4-1.7c0-0.3,0-0.7,0-1c0-0.4,0-0.8-0.1-1.2c-0.1-0.4-0.2-0.8-0.3-1.3c-0.1-0.2-0.1-0.4-0.2-0.7
	c-0.1-0.2-0.1-0.4-0.2-0.7c-0.3-0.9-0.6-1.8-1-2.6L10,26.1l-0.4-0.9c-0.2-0.5-0.4-0.8-0.4-0.8s-0.1,0.3-0.4,0.8
	c-0.1,0.3-0.3,0.6-0.4,0.9c-0.1,0.4-0.3,0.7-0.4,1.2L8,28c-0.1,0.2-0.1,0.5-0.2,0.7c-0.1,0.5-0.2,1-0.2,1.4
	c-0.1,0.5-0.1,0.9-0.1,1.4c0,0.5,0,0.9,0.1,1.3C7.8,33.6,8.1,34.3,8.4,35z"/>
<path class="st0" d="M19.6,37.3c0.3-0.2,0.6-0.4,0.9-0.7c0.3-0.2,0.6-0.5,0.8-0.7s0.5-0.5,0.7-0.7l0.6-0.7l0.2-0.3l0.2-0.2
	c0.3-0.3,0.4-0.5,0.4-0.5s-0.3,0-0.8-0.1c-0.7,0-1.3,0-2,0c-0.8,0-1.7,0.1-2.5,0.2l-0.6,0.1c-0.2,0-0.4,0.1-0.6,0.2
	c-0.4,0.1-0.8,0.3-1.1,0.4c-0.3,0.2-0.6,0.4-0.9,0.6c-0.3,0.2-0.5,0.4-0.7,0.7c-0.4,0.4-0.7,0.9-0.9,1.3c-0.1,0.3-0.3,0.7-0.3,1.1
	c0,0.1,0,0.3-0.1,0.4c0.6,0.1,1.2,0.2,1.9,0.2c0.6,0,1.2,0,1.8-0.2c0.7-0.1,1.4-0.3,2-0.6C19,37.8,19.3,37.6,19.6,37.3L19.6,37.3z"
	/>
<path class="st0" d="M16.2,21.7c0.2,0.6,0.4,1.2,0.7,1.8c0.3,0.5,0.7,1.1,1.1,1.5c0.4-0.3,0.8-0.7,1.1-1.2c0.2-0.2,0.3-0.4,0.4-0.7
	c0.2-0.3,0.3-0.5,0.4-0.8c0.3-0.7,0.4-1.4,0.5-2.1c0.1-0.9,0.1-1.8,0-2.7c-0.1-1-0.1-1.9-0.2-2.8s-0.2-1.6-0.3-2.2s-0.1-0.9-0.1-0.9
	c-0.1,0.1-0.1,0.1-0.2,0.2l-0.4,0.5c-0.3,0.4-0.8,1.1-1.3,1.8c-0.5,0.8-0.9,1.6-1.3,2.5c-0.3,0.9-0.5,1.8-0.6,2.7c0,0.2,0,0.4,0,0.6
	c0,0.2,0,0.4,0,0.6C16,21,16.1,21.4,16.2,21.7L16.2,21.7z"/>
<path class="st0" d="M26.4,27l0.5-0.2l0.3-0.1l0.2-0.1c0.7-0.3,1.3-0.6,1.9-1c0.6-0.3,1-0.6,1.4-0.9l0.4-0.3l0.1-0.1L31,24.2
	L30.4,24c-0.5-0.2-1.1-0.4-1.9-0.6c-0.4-0.1-0.8-0.2-1.2-0.3l-0.6-0.1c-0.2,0-0.4-0.1-0.6-0.1c-0.8-0.1-1.7-0.1-2.5,0
	c-0.7,0.1-1.3,0.4-1.9,0.7c-0.2,0.2-0.5,0.3-0.7,0.5c-0.2,0.2-0.3,0.4-0.5,0.5c-0.3,0.4-0.6,0.9-0.8,1.4c0.6,0.3,1.1,0.5,1.7,0.7
	c0.6,0.2,1.2,0.3,1.8,0.4c0.7,0.1,1.4,0,2.1-0.1C25.7,27.2,26,27.1,26.4,27z"/>
<path class="st0" d="M28.4,13.8c0.1,0.3,0.2,0.5,0.2,0.5h0.1l0.3-0.1c0.4-0.2,0.7-0.4,1-0.6c1-0.8,1.8-1.9,2.2-3.1
	c0.2-0.5,0.4-1.1,0.5-1.7C33,8,33.1,7.2,33.3,6.4s0.3-1.5,0.4-2.2C33.8,3,33.9,2,33.9,2s-0.4,0.3-1.1,0.8c-0.3,0.2-0.7,0.5-1.1,0.9
	c-0.4,0.4-0.8,0.8-1.2,1.2c-0.2,0.2-0.5,0.5-0.7,0.8c-0.1,0.1-0.1,0.1-0.2,0.2L29.5,6c-0.1,0.2-0.2,0.3-0.3,0.4
	c-0.4,0.6-0.7,1.2-1,1.8C28,8.6,27.9,9,27.9,9.4c-0.1,0.4-0.1,0.8-0.1,1.1c0,0.6,0.1,1.3,0.2,1.9C28.1,12.9,28.2,13.4,28.4,13.8
	L28.4,13.8z"/>
<path class="st0" d="M38.2,18.2c0.4-0.1,0.8-0.2,1.2-0.3s0.7-0.2,1-0.3c0.3-0.1,0.6-0.2,0.9-0.3c-0.5-0.4-1.1-0.8-1.7-1.2
	c-0.6-0.4-1.1-0.7-1.8-1c-0.6-0.3-1.3-0.6-2-0.8c-0.5-0.2-1-0.3-1.5-0.3c-1.6-0.2-3.2,0.4-4.3,1.6l-0.2,0.2l-0.1,0.1
	c0,0,0.1,0.1,0.4,0.4c0.3,0.3,0.7,0.6,1.1,0.8c0.5,0.3,1.1,0.6,1.6,0.9c0.3,0.1,0.7,0.3,1,0.3c0.3,0.1,0.7,0.2,1,0.2
	C36,18.6,37.1,18.5,38.2,18.2L38.2,18.2z"/>
<path class="st0" d="M54,109.6l-1.1-0.1l-0.7-0.1l-0.7-0.1l-1.6-0.3l-1.8-0.4c-0.3-0.1-0.6-0.1-0.9-0.2l-1-0.3
	c-0.6-0.2-1.3-0.4-1.9-0.6c-2.4-0.8-4.7-1.7-6.9-2.9l-1.2-0.6l-0.5-0.3l-0.4-0.2l-0.8-0.5l-0.8-0.5c-0.5-0.3-1.2-0.8-2.1-1.3
	c-2.1-1.4-4-3-5.9-4.7c-1.8-1.7-3.6-3.6-5.2-5.5c-0.2-0.2-0.3-0.4-0.5-0.6l-0.4-0.5L19,89c-0.1-0.2-0.3-0.4-0.4-0.6l-0.1-0.2
	L18,87.5c-0.2-0.2-0.4-0.5-0.6-0.9l-0.8-1.2l-0.4-0.7c-0.1-0.2-0.3-0.5-0.4-0.8l-0.9-1.6L14,80.7l-0.2-0.5c-0.1-0.2-0.1-0.3-0.2-0.5
	c-0.1-0.3-0.3-0.6-0.4-0.9c-1-2.3-1.9-4.7-2.5-7.1c-0.1-0.2-0.1-0.5-0.2-0.7s-0.1-0.4-0.2-0.7c-0.1-0.4-0.2-0.8-0.2-1.1l-0.2-0.9
	L9.7,68c0-0.2-0.1-0.4-0.1-0.7s-0.1-0.7-0.2-1.1s-0.2-0.9-0.2-1.4S9,63.8,9,63.2c0-0.1,0-0.3,0-0.4s0-0.3,0-0.5c0-0.3,0-0.6-0.1-1
	c-0.1-1.3-0.1-2.7-0.2-4s0-2.8,0.2-4c0-0.3,0.1-0.6,0.1-1c0-0.2,0-0.3,0-0.5c0-0.2,0-0.3,0-0.5c0.1-0.6,0.1-1.1,0.2-1.7
	s0.1-1,0.2-1.4s0.1-0.8,0.2-1.1s0.1-0.5,0.1-0.7c0-0.1,0-0.2,0.1-0.2l0.2-0.9c0.1-0.3,0.1-0.7,0.2-1.1l0.2-0.7
	c0.1-0.2,0.1-0.5,0.2-0.7c0.7-2.4,1.5-4.8,2.5-7.1c0.1-0.3,0.3-0.6,0.4-0.9s0.1-0.3,0.2-0.5s0.1-0.3,0.2-0.5
	c0.3-0.6,0.6-1.2,0.9-1.8l0.9-1.6c0.1-0.2,0.3-0.5,0.4-0.8l0.4-0.7l0.7-1.2c0.2-0.4,0.5-0.7,0.6-0.9c0.4-0.5,0.5-0.8,0.5-0.8
	l0.1-0.2c0.1-0.2,0.3-0.4,0.4-0.6l0.7-0.9l0.4-0.5c0.1-0.2,0.3-0.4,0.5-0.6c1.6-1.9,3.3-3.8,5.2-5.5c1.8-1.7,3.8-3.2,5.9-4.7
	c0.9-0.6,1.6-1,2.1-1.3l0.8-0.5l0.8-0.5l0.4-0.2l0.5-0.3l0.4-0.2l0,0c0.4,0,0.9,0,1.3,0c1.3,0,2.6-0.4,3.8-1
	c0.7-0.4,1.3-0.8,1.8-1.3l0.8-0.8c0.2-0.3,0.5-0.5,0.7-0.8c0.4-0.5,0.8-0.9,1-1.3c0.1-0.2,0.3-0.3,0.4-0.5h-0.8c-0.7,0-1.3,0-2,0.1
	L43,5l-0.6,0.1c-0.4,0.1-0.8,0.2-1.3,0.2c-0.8,0.2-1.6,0.5-2.3,0.9c-0.6,0.3-1.2,0.8-1.6,1.3c-0.3,0.4-0.6,0.9-0.8,1.4
	c-0.1,0.4-0.2,0.7-0.3,1.1v0.1L36,10.2l-0.5,0.3L35,10.8l-0.8,0.5c0,0-0.3,0.2-0.8,0.5s-1.2,0.8-2.1,1.4c-2.1,1.4-4.1,3-5.9,4.7
	c-1.9,1.7-3.6,3.6-5.2,5.5c-0.2,0.2-0.3,0.4-0.5,0.6s-0.3,0.4-0.4,0.5l-0.7,0.9c-0.2,0.2-0.3,0.5-0.4,0.6l-0.1,0.2
	c0,0-0.2,0.3-0.5,0.8c-0.2,0.3-0.4,0.5-0.6,0.9s-0.5,0.8-0.8,1.2c-0.1,0.2-0.3,0.5-0.4,0.7s-0.3,0.5-0.4,0.8L14.4,32
	c-0.3,0.6-0.6,1.2-0.9,1.8l-0.2,0.5c-0.1,0.2-0.1,0.3-0.2,0.5c-0.1,0.3-0.3,0.6-0.4,1c-1,2.3-1.9,4.7-2.6,7.2
	c-0.1,0.2-0.1,0.5-0.2,0.7s-0.1,0.4-0.2,0.7c-0.1,0.4-0.2,0.8-0.2,1.1c-0.1,0.6-0.2,0.9-0.2,0.9l-0.1,0.2c0,0.2-0.1,0.4-0.1,0.7
	S9,47.9,8.9,48.3s-0.2,0.9-0.2,1.4s-0.1,1.1-0.2,1.7c0,0.1,0,0.3,0,0.5s0,0.3,0,0.5c0,0.3,0,0.6-0.1,1c-0.1,1.3-0.1,2.7-0.2,4.1
	s0.1,2.8,0.2,4.1c0,0.3,0,0.6,0.1,1c0,0.2,0,0.3,0,0.5s0,0.3,0,0.5c0.1,0.6,0.1,1.2,0.2,1.7s0.2,1,0.2,1.4s0.1,0.8,0.2,1.1
	s0.1,0.5,0.1,0.7l0.1,0.2c0,0,0.1,0.3,0.2,0.9c0.1,0.3,0.2,0.7,0.2,1.1c0,0.2,0.1,0.4,0.2,0.7c0.1,0.2,0.1,0.5,0.2,0.7
	c0.7,2.4,1.5,4.8,2.6,7.1l0.4,1l0.2,0.5c0.1,0.2,0.2,0.3,0.2,0.5c0.3,0.6,0.6,1.2,0.9,1.8s0.6,1.1,0.9,1.7c0.1,0.2,0.3,0.5,0.4,0.8
	s0.3,0.5,0.4,0.7l0.8,1.2c0.2,0.4,0.5,0.7,0.6,0.9l0.5,0.8c0.1,0.1,0.1,0.1,0.1,0.2c0.1,0.2,0.3,0.4,0.4,0.6l0.7,0.9l0.4,0.5
	c0.1,0.2,0.3,0.4,0.5,0.6c1.6,2,3.3,3.8,5.2,5.5c1.9,1.7,3.8,3.3,5.9,4.7c0.9,0.6,1.6,1,2.1,1.4s0.8,0.5,0.8,0.5L35,104l0.4,0.2
	l0.5,0.3l1.2,0.7c2.3,1.1,4.6,2.1,7,2.9c0.7,0.2,1.3,0.4,2,0.6l1,0.3c0.3,0.1,0.6,0.2,0.9,0.2l1.8,0.4l1.6,0.3l0.7,0.1l0.7,0.1
	l1.1,0.1l0.9,0.1v-0.5L54,109.6z"/>
<path class="st0" d="M48.2,109.1c0,0,7.1,1.9,8.7,8.9l-0.2-8.2l-8.1-1.1L48.2,109.1z"/>
<path class="st0" d="M178.5,108.4c0.3,0,0.7,0,1,0.1h0.3h0.3l0.6,0.1c0.9,0.3,1.7,0.6,2.5,1c0.8,0.4,1.7,0.8,2.4,1.2
	s1.4,0.8,1.9,1.1s0.8,0.4,0.8,0.4l-0.2,0.1c-0.1,0-0.3,0.1-0.6,0.2c-0.5,0.2-1.3,0.4-2.1,0.6l-0.6,0.1l-0.7,0.1
	c-0.5,0-0.9,0.1-1.4,0.1c-0.9,0-1.8-0.1-2.7-0.3c-1.4-0.4-2.6-1.3-3.4-2.4c-0.4-0.5-0.7-1.1-1-1.7c0.5-0.3,1-0.5,1.5-0.6
	C177.4,108.4,177.9,108.3,178.5,108.4L178.5,108.4z"/>
<path class="st0" d="M176,101.6c0.4-0.6,0.9-1.2,1.4-1.7c0.3-0.3,0.5-0.5,0.8-0.8c0.1-0.1,0.3-0.2,0.4-0.3l0.4-0.3
	c0.4-0.4,0.8-0.7,1.3-1c0.2-0.1,0.3-0.3,0.5-0.4c0,0,0,0.3,0,0.8c0,0.7-0.1,1.3-0.2,2c-0.1,0.9-0.3,1.7-0.5,2.5
	c-0.2,0.8-0.6,1.6-1,2.3c-0.1,0.2-0.2,0.3-0.3,0.5c0,0.1-0.1,0.1-0.2,0.2l-0.2,0.2c-0.2,0.2-0.5,0.4-0.7,0.6
	c-0.2,0.2-0.5,0.3-0.7,0.4c-0.2,0.1-0.5,0.2-0.7,0.3c-0.5,0.2-1,0.2-1.5,0.2c-0.1-0.6-0.1-1.3,0-1.9c0.1-0.6,0.2-1.2,0.3-1.8
	c0-0.2,0.1-0.3,0.1-0.5c0.1-0.2,0.1-0.3,0.2-0.5C175.6,102.2,175.8,101.8,176,101.6L176,101.6z"/>
<path class="st0" d="M188.6,103.5l0.2-0.2c0.3-0.3,0.6-0.5,0.9-0.7c0.2-0.1,0.5-0.2,0.7-0.3c0.2-0.1,0.5-0.2,0.8-0.3
	c0.7-0.2,1.4-0.3,2.1-0.3c0.4,0,0.8,0,1.3,0.1s0.9,0.1,1.4,0.2l1.4,0.3l1.3,0.3l2.1,0.5c0.5,0.1,0.8,0.2,0.8,0.2s-0.3,0.2-0.7,0.5
	l-0.8,0.5l-0.5,0.3l-0.6,0.3c-0.4,0.2-0.8,0.4-1.2,0.6l-0.6,0.3l-0.3,0.1l-0.3,0.1c-0.9,0.3-1.8,0.4-2.7,0.4
	c-1.4-0.1-2.8-0.5-3.9-1.4c-0.4-0.3-0.7-0.6-1-0.9C188.8,103.8,188.6,103.7,188.6,103.5L188.6,103.5z"/>
<path class="st0" d="M191,98.2c-0.2,0.7-0.5,1.3-0.9,1.8c-0.2,0.2-0.4,0.4-0.6,0.6c-0.2,0.2-0.4,0.3-0.6,0.5c-0.3,0.2-0.6,0.4-1,0.5
	l-0.3,0.1h-0.1c-0.1-0.2-0.1-0.3-0.2-0.5c-0.1-0.4-0.2-0.9-0.3-1.3c-0.3-1.3-0.2-2.6,0.1-3.9c0.2-0.7,0.5-1.4,0.9-2.1
	c0.3-0.6,0.7-1.2,1.1-1.8c0.2-0.3,0.4-0.5,0.5-0.7s0.3-0.4,0.4-0.6c0.3-0.3,0.4-0.5,0.4-0.5s0.1,0.3,0.2,0.8s0.2,1.2,0.4,2
	c0,0.4,0.1,0.8,0.1,1.3c0,0.4,0,0.9,0,1.3c0,0.4,0,0.9-0.1,1.3C191.1,97.4,191,97.8,191,98.2L191,98.2z"/>
<path class="st0" d="M200.3,93.6c0.2-0.3,0.4-0.6,0.7-0.9c0.9-0.9,2-1.6,3.2-1.9c0.3-0.1,0.6-0.1,0.8-0.2l0.9-0.2
	c1.5-0.2,3.2-0.3,4.4-0.4s2.2-0.1,2.2-0.1s-0.3,0.4-0.9,1c-0.7,0.8-1.4,1.5-2.2,2.1l-0.4,0.3l-0.2,0.2l-0.2,0.2l-0.9,0.6
	c-0.3,0.2-0.6,0.3-0.9,0.5c-0.3,0.1-0.6,0.3-0.9,0.3c-1.4,0.4-2.8,0.3-4.1-0.2c-0.6-0.2-1.2-0.5-1.7-0.9
	C200.2,93.8,200.3,93.7,200.3,93.6L200.3,93.6z"/>
<path class="st0" d="M199.8,91.5c-0.2,0.3-0.5,0.6-0.8,0.8c-0.1,0.1-0.2,0.2-0.4,0.2c-0.4-0.5-0.7-1-1-1.6c-0.6-1.2-1-2.5-1-3.8
	c0-0.6,0.1-1.1,0.2-1.7c0-0.3,0.1-0.5,0.2-0.8s0.1-0.5,0.2-0.8c0.1-0.4,0.3-0.8,0.4-1.2c0-0.1,0.1-0.2,0.1-0.3s0.1-0.2,0.1-0.3
	s0.1-0.3,0.2-0.5c0.2-0.6,0.4-0.9,0.4-0.9c0.4,0.6,0.7,1.2,1,1.8c0.1,0.3,0.3,0.6,0.4,0.9l0.2,0.5c0.1,0.2,0.1,0.3,0.2,0.5
	c0.2,0.7,0.4,1.4,0.6,2.1c0.1,0.3,0.1,0.6,0.1,0.8c0,0.3,0,0.5,0,0.8c0,0.7-0.1,1.4-0.4,2C200.3,90.6,200.1,91.1,199.8,91.5
	L199.8,91.5z"/>
<path class="st0" d="M211.4,81.8c-0.3,0-0.6,0-0.9,0c-0.6,0-1.3-0.2-1.9-0.4c0-0.1,0.1-0.3,0.1-0.4c0-0.1,0.1-0.3,0.2-0.5
	c0.1-0.2,0.2-0.4,0.3-0.6c0.2-0.5,0.6-1,0.9-1.4l0.3-0.4c0.1-0.1,0.2-0.2,0.4-0.3c0.3-0.3,0.6-0.5,0.9-0.7c0.4-0.2,0.7-0.4,1.1-0.6
	c0.4-0.2,0.8-0.4,1.2-0.6c0.9-0.4,1.7-0.7,2.6-1s1.5-0.6,2-0.7l0.8-0.3c0,0-0.1,0.3-0.3,0.8c-0.1,0.2-0.2,0.6-0.4,0.9
	s-0.4,0.7-0.6,1.1s-0.5,0.8-0.7,1.2l-0.2,0.3l-0.2,0.3l-0.4,0.6c-0.3,0.4-0.6,0.7-1,1c-0.2,0.2-0.3,0.3-0.5,0.4l-0.5,0.4
	c-0.7,0.4-1.4,0.7-2.1,0.8C212,81.7,211.7,81.8,211.4,81.8L211.4,81.8z"/>
<path class="st0" d="M208.1,77.7c-0.1,0.5-0.2,1.1-0.4,1.6c-0.1,0.2-0.2,0.4-0.3,0.6c-0.1,0.1-0.2,0.3-0.3,0.4l-0.3,0.3
	c-0.5-0.4-1-0.8-1.4-1.3c-0.2-0.2-0.4-0.4-0.6-0.7c-0.2-0.3-0.4-0.5-0.6-0.8c-0.4-0.6-0.7-1.2-0.9-1.9c0-0.2-0.1-0.3-0.1-0.5
	s-0.1-0.4-0.1-0.6c-0.1-0.4-0.1-0.8-0.1-1.1c0-0.8,0-1.5,0-2.1c0-0.3,0.1-0.6,0.1-0.9s0-0.5,0.1-0.7c0-0.4,0.1-0.7,0.1-0.7
	s0.2,0.2,0.6,0.6s0.8,0.9,1.4,1.5c0.5,0.7,1,1.3,1.5,2.1c0.2,0.4,0.4,0.8,0.6,1.2c0.2,0.4,0.3,0.7,0.4,1.1c0.1,0.4,0.2,0.7,0.2,1.1
	v0.5v0.2C208,77.5,208.1,77.6,208.1,77.7z"/>
<path class="st0" d="M217.8,66.3c-0.3,0.2-0.6,0.4-0.9,0.6c-0.6,0.3-1.2,0.5-1.8,0.6c-0.6,0.1-1.2,0.2-1.9,0.2c0-0.5,0-1.1,0.1-1.6
	c0.1-0.3,0.1-0.5,0.2-0.8c0.1-0.3,0.2-0.6,0.3-0.8c0.1-0.3,0.3-0.6,0.5-0.9c0.1-0.2,0.2-0.3,0.3-0.5l0.2-0.2l0.2-0.2
	c1.3-1.3,2.6-2.5,4.1-3.5c0.7-0.5,1.3-0.9,1.8-1.2s0.7-0.5,0.7-0.5s0,0.3-0.1,0.9s-0.2,1.3-0.4,2.2c-0.2,0.9-0.6,1.8-0.9,2.6
	c-0.1,0.2-0.2,0.4-0.3,0.7s-0.2,0.4-0.4,0.6c-0.2,0.4-0.5,0.7-0.8,1.1C218.5,65.8,218.2,66.1,217.8,66.3L217.8,66.3z"/>
<path class="st0" d="M211.2,67.3c-0.6-0.2-1.1-0.5-1.7-0.8c-0.5-0.3-1-0.7-1.4-1.1c-0.2-0.2-0.5-0.5-0.7-0.8
	c-0.2-0.3-0.5-0.6-0.6-0.9c-0.2-0.3-0.4-0.7-0.5-1c-0.1-0.3-0.3-0.7-0.4-1.1c-0.2-0.7-0.4-1.4-0.5-2.1c-0.1-0.7-0.2-1.2-0.3-1.6
	s-0.1-0.7-0.1-0.7l0.7,0.4c0.4,0.2,1,0.6,1.7,1c0.7,0.5,1.4,1,2,1.6c0.6,0.6,1.2,1.3,1.7,2c0.2,0.3,0.4,0.6,0.5,1
	c0.1,0.3,0.2,0.6,0.2,0.9c0.1,0.3,0.1,0.6,0.1,0.9c0,0.3,0,0.5-0.1,0.8C211.7,66.4,211.5,66.9,211.2,67.3L211.2,67.3z"/>
<path class="st0" d="M219.5,45.8c-0.1,0.4-0.1,0.7-0.2,1.1c-0.1,0.7-0.3,1.4-0.6,2c-0.4,0.7-0.8,1.3-1.4,1.9c-0.5,0.4-1,0.8-1.6,1.1
	c-0.5,0.3-1.1,0.5-1.8,0.7c0,0-0.1-0.2-0.1-0.4c-0.1-0.4-0.2-0.8-0.2-1.2c0-0.6,0-1.1,0.1-1.7c0.1-0.7,0.3-1.4,0.7-2.1
	c0.1-0.3,0.3-0.5,0.4-0.8L215,46c0.1-0.1,0.2-0.3,0.2-0.4c0.4-0.6,0.9-1.3,1.3-1.9l1.4-1.7c0.8-1,1.4-1.7,1.4-1.7s0.1,0.5,0.2,1.3
	c0.1,0.5,0.1,0.9,0.1,1.4v1.7C219.6,45.1,219.6,45.4,219.5,45.8L219.5,45.8z"/>
<path class="st0" d="M206.7,50.5l-0.3-0.3l-0.3-0.3c-0.2-0.2-0.4-0.4-0.5-0.6c-0.2-0.2-0.3-0.4-0.5-0.7c-0.2-0.2-0.3-0.5-0.4-0.7
	c-0.2-0.4-0.4-0.8-0.6-1.1l-0.2-0.5c-0.1-0.2-0.1-0.3-0.2-0.5c-0.3-0.5-0.4-0.9-0.4-0.9s0.8,0.1,2,0.5c0.3,0.1,0.6,0.2,0.9,0.3
	l1,0.4c0.7,0.3,1.3,0.6,1.9,1c0.5,0.3,0.9,0.6,1.3,0.9c0.5,0.5,0.9,1,1.2,1.7c0.2,0.5,0.4,1,0.4,1.5c0,0.4,0,0.8,0,1.1
	c0,0.1,0,0.3-0.1,0.4c-0.6-0.1-1.2-0.2-1.8-0.3C208.9,52,207.7,51.4,206.7,50.5L206.7,50.5z"/>
<path class="st0" d="M213.3,35c-0.3,0.6-0.7,1.1-1.2,1.5c-0.4,0.4-0.9,0.8-1.5,1.2c-0.1-0.1-0.2-0.2-0.2-0.4c-0.2-0.3-0.4-0.7-0.5-1
	c-0.2-0.5-0.3-1.1-0.4-1.7c0-0.3,0-0.7,0-1c0-0.4,0-0.8,0.1-1.2c0.1-0.4,0.2-0.9,0.3-1.3c0-0.2,0.1-0.5,0.2-0.7l0.2-0.7
	c0.3-0.9,0.6-1.8,1-2.6c0.2-0.4,0.3-0.8,0.5-1.1s0.3-0.6,0.4-0.9c0.2-0.5,0.4-0.8,0.4-0.8s0.1,0.3,0.4,0.8c0.1,0.2,0.2,0.6,0.4,0.9
	s0.2,0.8,0.4,1.2c0.1,0.2,0.1,0.4,0.2,0.6c0.1,0.2,0.1,0.5,0.2,0.7c0.1,0.5,0.2,1,0.2,1.4c0.1,0.5,0.1,0.9,0.1,1.4
	c0,0.5-0.1,0.9-0.1,1.3C214,33.6,213.7,34.3,213.3,35L213.3,35z"/>
<path class="st0" d="M202.1,37.3c-0.3-0.2-0.6-0.4-0.9-0.7c-0.3-0.2-0.6-0.5-0.8-0.7s-0.5-0.5-0.7-0.7l-0.6-0.7l-0.2-0.3l-0.2-0.2
	c-0.3-0.3-0.4-0.5-0.4-0.5s0.3,0,0.8-0.1c0.7,0,1.3,0,2,0c0.8,0,1.7,0.1,2.5,0.2l0.6,0.1c0.2,0,0.4,0.1,0.6,0.2
	c0.4,0.1,0.8,0.3,1.1,0.4c0.3,0.2,0.6,0.3,0.9,0.5c0.2,0.2,0.5,0.4,0.7,0.7c0.4,0.4,0.7,0.9,0.9,1.4c0.2,0.3,0.3,0.7,0.3,1.1
	c0,0.1,0,0.3,0,0.4c-1.2,0.2-2.5,0.2-3.7,0c-0.7-0.1-1.4-0.3-2-0.6C202.7,37.7,202.4,37.5,202.1,37.3L202.1,37.3z"/>
<path class="st0" d="M205.5,21.7c-0.3,1.2-1,2.4-1.9,3.3c-0.4-0.3-0.8-0.7-1.1-1.2c-0.2-0.2-0.3-0.4-0.4-0.7
	c-0.1-0.3-0.3-0.5-0.4-0.8c-0.3-0.7-0.4-1.4-0.5-2.1c-0.1-0.9-0.1-1.8,0-2.7c0.1-1,0.1-1.9,0.2-2.8s0.2-1.6,0.3-2.2s0.1-0.9,0.1-0.9
	c0.1,0,0.1,0.1,0.2,0.2l0.4,0.5c0.4,0.4,0.8,1.1,1.3,1.8c0.5,0.8,0.9,1.6,1.3,2.5c0.3,0.9,0.6,1.8,0.7,2.7c0,0.2,0,0.4,0,0.6
	c0,0.2,0,0.4,0,0.6C205.7,21,205.6,21.3,205.5,21.7L205.5,21.7z"/>
<path class="st0" d="M195.3,27l-0.5-0.2l-0.3-0.1l-0.3-0.1c-0.6-0.3-1.3-0.6-1.9-1c-0.6-0.3-1-0.6-1.4-0.9l-0.4-0.3l-0.1-0.1
	l0.2-0.1l0.6-0.2c0.5-0.2,1.1-0.4,1.9-0.6c0.4-0.1,0.8-0.2,1.2-0.3l0.6-0.1l0.6-0.1c0.8-0.1,1.7-0.1,2.5,0.1
	c0.7,0.1,1.3,0.4,1.9,0.7c0.2,0.1,0.5,0.3,0.7,0.5c0.2,0.2,0.4,0.4,0.5,0.6c0.3,0.4,0.6,0.9,0.8,1.4c-0.6,0.3-1.1,0.5-1.7,0.7
	c-0.6,0.2-1.2,0.3-1.8,0.4c-0.7,0.1-1.4,0-2.1-0.1C196,27.2,195.7,27.1,195.3,27L195.3,27z"/>
<path class="st0" d="M193.3,13.8c-0.1,0.2-0.1,0.3-0.2,0.5l-0.1-0.1c-0.1,0-0.2-0.1-0.3-0.1c-0.4-0.2-0.7-0.4-1-0.6
	c-1-0.8-1.8-1.9-2.2-3.1c-0.2-0.5-0.3-1.1-0.5-1.7c-0.2-0.8-0.4-1.6-0.5-2.3s-0.3-1.5-0.4-2.1c-0.2-1.3-0.3-2.2-0.3-2.2
	s0.4,0.3,1.1,0.8c0.3,0.2,0.7,0.5,1.1,0.9s0.8,0.7,1.2,1.2c0.2,0.3,0.5,0.5,0.7,0.8l0.2,0.2l0.2,0.2l0.3,0.4c0.4,0.6,0.7,1.2,1,1.8
	c0.2,0.4,0.3,0.8,0.3,1.2c0.1,0.4,0.1,0.8,0.1,1.1c0,0.6-0.1,1.3-0.2,1.9C193.7,12.9,193.6,13.3,193.3,13.8L193.3,13.8z"/>
<path class="st0" d="M183.6,18.2c-0.4-0.1-0.9-0.2-1.2-0.3s-0.7-0.2-1-0.3c-0.6-0.2-0.9-0.3-0.9-0.3s0.7-0.5,1.7-1.2
	c0.6-0.4,1.1-0.7,1.8-1c0.6-0.3,1.3-0.6,2-0.8c0.5-0.2,1-0.3,1.6-0.4c1.2-0.1,2.4,0.2,3.4,0.9c0.3,0.2,0.6,0.5,0.8,0.8
	c0.1,0.1,0.1,0.2,0.2,0.2l0.1,0.1c0,0-0.1,0.1-0.4,0.3c-0.3,0.3-0.7,0.6-1.1,0.8c-0.5,0.3-1.1,0.6-1.6,0.9c-0.3,0.1-0.7,0.2-1,0.3
	c-0.3,0.1-0.7,0.2-1,0.2C185.7,18.5,184.6,18.4,183.6,18.2L183.6,18.2z"/>
<path class="st0" d="M167.7,109.6l1.1-0.1l0.7-0.1l0.7-0.1l1.6-0.3l1.8-0.4c0.3-0.1,0.6-0.1,0.9-0.2l0.9-0.3
	c0.6-0.2,1.3-0.4,1.9-0.6c2.4-0.8,4.7-1.7,6.9-2.9l1.2-0.6l0.5-0.3l0.4-0.2l0.8-0.5l0.8-0.5c0.5-0.3,1.2-0.8,2.1-1.3
	c2.1-1.4,4-3,5.9-4.7c1.8-1.7,3.6-3.5,5.1-5.5c0.2-0.2,0.3-0.4,0.4-0.6l0.4-0.5l0.7-0.9c0.2-0.2,0.3-0.4,0.4-0.6l0.1-0.2l0.5-0.8
	c0.2-0.2,0.4-0.5,0.6-0.9s0.5-0.8,0.7-1.2l0.4-0.7c0.1-0.2,0.3-0.5,0.4-0.8l0.9-1.6c0.3-0.6,0.6-1.2,0.9-1.8
	c0.1-0.2,0.2-0.3,0.2-0.5s0.1-0.3,0.2-0.5c0.1-0.3,0.3-0.6,0.4-1c1-2.3,1.9-4.7,2.5-7.1c0.1-0.2,0.1-0.5,0.2-0.7s0.1-0.4,0.2-0.7
	c0.1-0.4,0.2-0.8,0.2-1.1c0.1-0.6,0.2-0.9,0.2-0.9s0-0.1,0-0.2s0.1-0.4,0.1-0.7l0.2-1.1c0.1-0.4,0.2-0.9,0.2-1.4s0.1-1.1,0.2-1.7
	l0.1-0.5c0-0.2,0-0.3,0-0.5c0-0.3,0-0.6,0.1-1c0.1-1.3,0.1-2.7,0.2-4s0-2.8-0.2-4.1l-0.1-0.9c0-0.2,0-0.3,0-0.5l-0.1-0.5
	c-0.1-0.6-0.1-1.2-0.2-1.7s-0.2-1-0.2-1.4s-0.1-0.8-0.2-1.1s-0.1-0.5-0.1-0.7v-0.2c0,0-0.1-0.3-0.2-0.9c-0.1-0.3-0.1-0.7-0.2-1.1
	c0-0.2-0.1-0.4-0.2-0.7s-0.1-0.5-0.2-0.7c-0.7-2.4-1.5-4.8-2.5-7.1c-0.1-0.3-0.3-0.6-0.4-0.9l-0.2-0.5c-0.1-0.2-0.1-0.3-0.2-0.5
	c-0.3-0.6-0.6-1.2-0.9-1.8s-0.6-1.1-0.9-1.6c-0.1-0.2-0.3-0.5-0.4-0.8l-0.4-0.7c-0.3-0.4-0.5-0.8-0.7-1.2s-0.4-0.7-0.6-0.9l-0.5-0.8
	l-0.1-0.2c-0.1-0.1-0.2-0.3-0.4-0.6l-0.7-0.9c-0.1-0.2-0.3-0.3-0.4-0.5c-0.1-0.2-0.3-0.4-0.4-0.6c-1.6-1.9-3.3-3.7-5.1-5.4
	c-1.8-1.7-3.8-3.2-5.9-4.7c-0.9-0.6-1.6-1-2.1-1.3l-0.8-0.5l-0.8-0.5L186,11l-0.5-0.3l-0.4-0.2l0,0c-0.4,0-0.9,0-1.3,0
	c-1.3,0-2.6-0.4-3.8-1c-0.6-0.4-1.2-0.8-1.8-1.3l-0.8-0.8c-0.2-0.3-0.5-0.5-0.7-0.8c-0.4-0.5-0.8-0.9-1-1.3s-0.4-0.5-0.4-0.5h0.8
	c0.7,0,1.3,0,2,0.1l0.6,0.1l0.6,0.1c0.4,0.1,0.8,0.2,1.3,0.2c0.8,0.2,1.6,0.5,2.3,0.9c0.6,0.3,1.1,0.8,1.6,1.3
	c0.3,0.4,0.6,0.9,0.8,1.4c0.1,0.4,0.2,0.7,0.3,1.1v0.1l0.1,0.1l0.5,0.3l0.4,0.3l0.8,0.5l0.8,0.5c0.5,0.3,1.2,0.8,2.1,1.4
	c4.2,2.9,7.9,6.3,11.1,10.2c0.2,0.2,0.3,0.4,0.5,0.6s0.3,0.4,0.4,0.5l0.7,0.9c0.2,0.2,0.3,0.5,0.4,0.6s0.1,0.2,0.1,0.2l0.5,0.8
	c0.2,0.3,0.4,0.5,0.6,0.9l0.8,1.2l0.4,0.7c0.1,0.2,0.3,0.5,0.4,0.8c0.3,0.5,0.6,1.1,0.9,1.6c0.3,0.6,0.6,1.2,0.9,1.8l0.2,0.5
	l0.2,0.5c0.1,0.3,0.3,0.6,0.4,1c1,2.3,1.9,4.7,2.6,7.2c0.1,0.2,0.1,0.5,0.2,0.7s0.1,0.4,0.2,0.7c0.1,0.4,0.2,0.8,0.2,1.1
	c0.1,0.6,0.2,0.9,0.2,0.9c0,0.1,0,0.2,0.1,0.2c0,0.2,0.1,0.4,0.1,0.7s0.1,0.7,0.2,1.1s0.2,0.9,0.2,1.4s0.1,1.1,0.2,1.7
	c0,0.1,0,0.3,0.1,0.5s0,0.3,0,0.5c0,0.3,0,0.6,0.1,1c0.1,1.3,0.1,2.7,0.2,4.1s0,2.8-0.2,4.1c0,0.3,0,0.6-0.1,1c0,0.2,0,0.3,0,0.5
	c0,0.1,0,0.3-0.1,0.5c-0.1,0.6-0.1,1.2-0.2,1.7s-0.2,1-0.2,1.4s-0.1,0.8-0.2,1.1s-0.1,0.5-0.1,0.7c0,0.1,0,0.2-0.1,0.2l-0.2,0.9
	c-0.1,0.3-0.2,0.7-0.2,1.1c0,0.2-0.1,0.4-0.2,0.7s-0.1,0.5-0.2,0.7c-0.7,2.4-1.6,4.8-2.6,7.1c-0.1,0.3-0.3,0.6-0.4,1
	c-0.1,0.2-0.1,0.3-0.2,0.5l-0.2,0.5l-0.9,1.8c-0.3,0.6-0.6,1.1-0.9,1.7c-0.1,0.2-0.3,0.5-0.4,0.8l-0.4,0.7l-0.8,1.2
	c-0.2,0.4-0.4,0.7-0.6,0.9l-0.5,0.8c-0.1,0.1-0.1,0.1-0.1,0.2c-0.1,0.1-0.2,0.3-0.4,0.6l-0.7,0.9c-0.1,0.2-0.3,0.3-0.4,0.5
	s-0.3,0.4-0.5,0.6c-3.2,3.9-6.9,7.4-11.1,10.2c-0.9,0.6-1.6,1-2.1,1.4s-0.8,0.5-0.8,0.5l-0.8,0.5c-0.1,0.1-0.3,0.2-0.4,0.2
	c-0.2,0.1-0.3,0.2-0.5,0.3l-1.2,0.7c-2.3,1.1-4.6,2.1-7,2.9c-0.6,0.2-1.3,0.4-1.9,0.6l-1,0.3c-0.3,0.1-0.6,0.2-0.9,0.2l-1.8,0.4
	c-0.6,0.1-1.1,0.2-1.6,0.3l-0.7,0.1l-0.7,0.1l-1.1,0.1l-0.9,0.1v-0.5L167.7,109.6z"/>
<path class="st0" d="M173.6,109.1c0,0-7.1,1.9-8.7,8.9l0.2-8.2l8.1-1.1L173.6,109.1z"/>
<rect x="84.5" y="107.5" class="st1" width="52" height="20"/>
<g>
	<path class="st2" d="M78.3,34.3v5H66.5v-5h3.2c-0.4-0.6-0.8-1.2-1.2-1.7l1-0.4c0.5,0.5,1,1.1,1.3,1.7l-0.9,0.4h3.9
		c0.5-0.7,1-1.4,1.5-2.2l1.2,0.4c-0.4,0.6-1,1.3-1.4,1.8L78.3,34.3z M67.5,40.4h9.8v6.5h-1.2V46h-7.4v0.8h-1.2L67.5,40.4z
		 M67.7,38.4h4v-3.1h-4V38.4z M69.1,35.5c0.7,0.6,1.2,1.3,1.7,2.1L70,38.1c-0.4-0.8-1-1.5-1.6-2.2L69.1,35.5z M68.7,41.3v1.5h7.4
		v-1.5L68.7,41.3z M76.1,45.1v-1.5h-7.4v1.5H76.1z M77.1,35.2h-4.2v3.1h4.2L77.1,35.2z M73.7,37.7c0.6-0.7,1.1-1.4,1.6-2.2l0.9,0.4
		c-0.5,0.8-1.1,1.5-1.8,2.2L73.7,37.7z"/>
	<path class="st2" d="M83.6,39.2c0,2.2-0.2,5.4-1.6,7.5c-0.3-0.3-0.6-0.5-0.9-0.7c1.3-2,1.4-4.9,1.4-6.9v-3.8h5.1v-3.2h1.2v1.2h5.5
		v0.9h-5.5v1h5.5l0.2,0l0.8,0.2c-0.2,0.8-0.5,1.7-0.9,2.4l-1-0.3c0.2-0.4,0.3-0.9,0.5-1.4h-5.2v1.1l4.1-0.3l0.1,0.8l-4.1,0.4v0.3
		c0,0.5,0.1,0.6,0.7,0.6H93c0.5,0,1.1,0,1.6-0.1c0,0.3,0.1,0.7,0.1,0.9c-0.6,0.1-1.2,0.1-1.7,0.1h-3.8c-1.3,0-1.7-0.4-1.7-1.5v-0.2
		l-3,0.3l-0.1-0.9l3.1-0.3v-1.2h-3.9V39.2z M91.2,45.3h4.1v1H83.4v-1h3.9v-1.2h-2.7v-3h1v2.1h1.7v-2.4h1v4.5h1.8v-4.5h1v2.3H93v-2.1
		h1v3h-2.8V45.3z"/>
	<path class="st2" d="M110,34.8v12h-1.2v-1.1h-8.9v1.2h-1.2V34.8h3.9c0.4-0.8,0.7-1.7,0.9-2.6l1.5,0.3c-0.3,0.8-0.6,1.6-1,2.3H110z
		 M99.8,36v3.6h8.9V36H99.8z M108.8,44.5v-3.8h-8.9v3.7L108.8,44.5z"/>
	<path class="st2" d="M115.6,42.4c-0.4,1.1-0.9,2.2-1.7,3.2c-0.3-0.2-0.5-0.4-0.8-0.6c0.7-0.9,1.2-1.8,1.5-2.9L115.6,42.4z
		 M117.6,41.2v5.6h-1.2v-5.6h-3.2v-1h3.2v-1.7h-3.3v-1h4.4c0.3-0.8,0.6-1.7,0.9-2.5l1.1,0.2c-0.3,0.8-0.6,1.6-0.9,2.3h2v1h-3.1v1.7
		h2.9v1L117.6,41.2z M120.4,34.9h-7v-1h3.1c-0.2-0.5-0.5-1-0.7-1.5l1.2-0.3c0.3,0.6,0.6,1.2,0.9,1.8h2.5L120.4,34.9z M115,37.5
		c-0.1-0.8-0.3-1.5-0.6-2.2l1-0.2c0.3,0.7,0.5,1.4,0.7,2.2L115,37.5z M119.1,42c0.5,0.8,1,1.6,1.3,2.5l-0.8,0.5
		c-0.4-0.9-0.8-1.7-1.3-2.6L119.1,42z M127.6,38.7h-1.8v8.1h-1.2v-8.1h-2.2v0.6c0,2.3-0.2,5.4-1.7,7.5c-0.3-0.3-0.6-0.5-0.9-0.7
		c1.3-1.9,1.5-4.7,1.5-6.8v-5.5c1.7-0.2,3.4-0.7,5-1.2l1,0.9c-1.6,0.5-3.2,0.9-4.8,1.2v3h5.1L127.6,38.7z"/>
	<path class="st2" d="M130.9,37.8v9h-1.2v-14h5.8v5H130.9z M130.9,33.7v1.2h3.5v-1.2L130.9,33.7z M134.5,37v-1.2h-3.5V37H134.5z
		 M139.1,44.6v1.7H138v-1.7h-6.1v-0.9h1.6v-4.2h-1.2v-0.9h8v0.9h-1.2v4.2h1.4v0.9L139.1,44.6z M134.5,39.6v0.9h3.5v-0.9H134.5z
		 M134.5,42.1h3.5v-0.9h-3.4L134.5,42.1z M138,43.8v-0.9h-3.4v0.9H138z M142.9,45.4c0,0.7-0.1,1-0.6,1.2c-0.7,0.2-1.4,0.3-2.2,0.2
		c-0.1-0.4-0.2-0.7-0.3-1.1c0.7,0,1.4,0,1.6,0s0.3-0.1,0.3-0.3v-7.6H137v-5h5.9L142.9,45.4z M138.1,33.7v1.2h3.6v-1.2H138.1z
		 M141.8,37v-1.2h-3.6V37H141.8z"/>
	<path class="st2" d="M153.5,43.4c2,0.7,4.7,1.8,6.1,2.5l-0.6,1c-1.4-0.7-4.2-1.9-6.3-2.7l0.5-0.7h-0.8c-0.6,1.3-2.4,2.7-6.9,3.5
		c-0.2-0.4-0.4-0.7-0.7-1c3.7-0.6,5.4-1.6,6.1-2.5h-6v-1h6.5c0-0.2,0.1-0.4,0.1-0.6v-1h1.2v1c0,0.2,0,0.4,0,0.6h3.3
		c-0.4-0.4-0.8-0.7-1.3-1l0.5-0.4h-0.6c-0.1-0.3-0.2-0.6-0.3-0.9c0.7,0,1.4,0,1.6,0s0.2-0.1,0.2-0.2v-1.6h-3.7
		c0.6,0.4,1.2,0.9,1.7,1.4l-0.8,0.6c-0.5-0.6-1.1-1.1-1.7-1.5l0.7-0.5h-1.9v-0.8h5.8v-1.2h1.1v1.2h2v0.8h-2v1.6c0,0.6-0.1,0.8-0.5,1
		c-0.4,0.1-0.8,0.2-1.2,0.1c0.5,0.3,0.9,0.7,1.4,1l-0.3,0.4h3v1L153.5,43.4z M147.4,38.3c0,1.2-0.5,2.3-1.4,3.1
		c-0.3-0.2-0.6-0.4-0.9-0.5c0.8-0.6,1.2-1.6,1.2-2.6v-0.1h-1.1v-1h3.5v-1.2h-2.7v-3.3h1V35h1.7v-2.7h1.1v9h-1.1v-3.2h-1.3
		L147.4,38.3z M158.8,33.4c-1.4,2.5-4.7,3.5-8,4c-0.1-0.3-0.3-0.5-0.5-0.8c1.5-0.2,3.1-0.5,4.5-1.1c-0.5-0.6-1-1.1-1.6-1.5
		c-0.7,0.3-1.4,0.6-2.1,0.8c-0.2-0.3-0.4-0.5-0.7-0.7c1.6-0.3,3-1,4.3-1.9l1,0.2c-0.2,0.2-0.5,0.5-0.8,0.6h3h0.2L158.8,33.4z
		 M153.6,35.6c-1,0.1-1.9,0.2-2.7,0.2l-0.1-0.7l2.8-0.2L153.6,35.6z M154.1,33.8c0.5,0.4,1,0.9,1.5,1.4c0.7-0.3,1.3-0.8,1.8-1.4
		H154.1z"/>
	<path class="st2" d="M42.8,60.1c1.6,1.4,3,2.9,4.2,4.6l-1,0.7c-0.3-0.5-0.6-0.9-1-1.4c-9.1,0.5-10.1,0.6-10.7,0.8
		c-0.1-0.4-0.2-0.8-0.3-1.2c0.5-0.2,1-0.5,1.3-0.9c1.4-1.4,2.6-2.9,3.7-4.5l1.2,0.5c-1.2,1.7-2.6,3.3-4.2,4.7l8.2-0.4
		c-0.7-0.8-1.5-1.6-2.3-2.4L42.8,60.1z M35.2,66.1h10.2v6.7h-1.2V72h-7.7v0.9h-1.2L35.2,66.1z M36.4,67.3v3.5h7.7v-3.5L36.4,67.3z"
		/>
	<path class="st2" d="M52.9,65.9c-0.3,1.4-0.7,2.8-1.3,4.1c0.3,0.2,0.7,0.5,1.3,0.8c1.4,0.7,2.9,0.9,4.5,0.8c2,0,4.6-0.2,6.4-0.3
		c-0.2,0.4-0.3,0.8-0.4,1.2c-1.2,0.1-4.2,0.2-6.1,0.2c-1.6,0.1-3.2-0.2-4.7-0.9c-0.6-0.4-1.2-0.9-1.6-0.9s-0.9,1-1.3,2l-0.8-1.1
		c0.4-0.7,1-1.3,1.6-1.8c0.5-1.1,0.9-2.2,1.2-3.3h-2.1c0.5-1,0.9-2.3,1.4-3.6h-1.8v-1h3.3c-0.4,1.2-0.9,2.5-1.3,3.6h1.1h0.2
		L52.9,65.9z M50.8,61.3c-0.2-0.7-0.6-1.8-0.8-2.6l1-0.3c0.3,0.8,0.7,1.9,0.8,2.6L50.8,61.3z M55.8,62.5h-2.7v-0.9h4.5v-1.2h-3.5
		v-0.9h3.5v-1.2h1.2v1.2h3.6v0.9h-3.6v1.2h4.6v0.9h-2.8l0.7,0.2c-0.3,0.5-0.6,1.1-0.9,1.5h2.8v0.9h-4.4v1.1h3.8V67h-3.8v1.2h4.5v0.9
		h-4.5v1.6h-1.2v-1.6h-4.3v-0.9h4.3V67H54v-0.9h3.6v-1.1h-4.1v-0.9h2.3c-0.1-0.6-0.4-1.1-0.7-1.5L55.8,62.5z M59.4,64
		c0.3-0.5,0.5-1,0.7-1.6h-4c0.3,0.5,0.6,1,0.8,1.6l-0.6,0.2h3.6L59.4,64z"/>
	<path class="st2" d="M71.7,71.6c0,0.6-0.1,0.9-0.6,1.1c-0.7,0.2-1.4,0.2-2.1,0.2c-0.1-0.3-0.2-0.7-0.4-1c0.8,0,1.4,0,1.6,0
		s0.3-0.1,0.3-0.3v-2.4l-3,1.8l-0.4-1c-0.1,1.1-0.5,2.1-1.2,3c-0.2-0.3-0.5-0.6-0.8-0.8c0.8-1.3,1.1-2.8,1-4.3v-3.9h5.6L71.7,71.6z
		 M70.7,59.4c0.8,1.1,1.5,2.3,2.1,3.5l-1,0.5c-0.1-0.4-0.3-0.7-0.5-1.1c-4.3,0.4-4.9,0.4-5.3,0.6c-0.1-0.4-0.2-0.8-0.4-1.1
		c0.3-0.1,0.6-0.3,0.8-0.6c0.8-0.9,1.4-1.9,2-2.9l1.2,0.4c-0.7,1.1-1.4,2.1-2.2,3l3.3-0.2c-0.3-0.5-0.7-1.1-1-1.6L70.7,59.4z
		 M67.3,67.8c0,0.7,0,1.3-0.1,2c0.9-0.4,2.2-1,3.4-1.7v-3.2h-3.3L67.3,67.8z M68,65.8c0.9,0.5,1.7,1.1,2.5,1.7l-0.6,0.7
		c-0.8-0.6-1.7-1.2-2.5-1.7L68,65.8z M75,65.1c-1.4,0-1.8-0.5-1.8-1.8v-5h1.2v2.2h4.2v1.1h-4.3v1.8c0,0.6,0.1,0.8,0.6,0.8h2.9
		c0.4,0,0.9,0,1.3-0.1c0,0.3,0.1,0.8,0.1,1c-0.5,0.1-0.9,0.1-1.4,0.1L75,65.1z M77.9,71.6c0.7,0,0.8-0.3,0.9-2
		c0.3,0.2,0.6,0.4,1,0.4c-0.1,2.1-0.5,2.6-1.8,2.6h-2.9c-1.6,0-2-0.4-2-1.7v-5.4h1.2v1.9h4.5v1.1h-4.4V71c0,0.5,0.2,0.6,0.9,0.6
		L77.9,71.6z"/>
	<path class="st2" d="M83.7,65.2c-0.9-0.6-1.7-1.2-2.7-1.7l0.7-0.8c0.9,0.5,2.1,1.2,2.7,1.6L83.7,65.2z M84.7,67.5
		c-0.7,1.7-1.6,3.7-2.3,5.1L81.3,72c0.9-1.7,1.7-3.4,2.4-5.1L84.7,67.5z M84.4,61.1c-0.6-0.5-1.8-1.3-2.7-1.8l0.7-0.8
		c0.9,0.5,1.8,1.1,2.7,1.7L84.4,61.1z M86.9,63.4c0,2.8-0.3,6.7-2.2,9.4c-0.3-0.3-0.6-0.5-1-0.6c1.8-2.6,2-6.2,2-8.8V59h9.7v1.1
		h-8.6L86.9,63.4z M89.4,68.6c-0.5,1.2-1.2,2.3-2,3.3c-0.3-0.2-0.7-0.4-1-0.6c0.8-0.9,1.4-1.9,1.9-3L89.4,68.6z M91.8,67.4v4.2
		c0,0.6-0.1,0.9-0.5,1.1c-0.7,0.2-1.4,0.2-2.2,0.2c-0.1-0.3-0.2-0.7-0.3-1c0.8,0,1.5,0,1.7,0s0.3-0.1,0.3-0.2v-4.2h-2.9V62h2.4
		c0.2-0.5,0.4-1.2,0.5-1.6l1.3,0.2c-0.2,0.5-0.4,0.9-0.7,1.3h3.5v5.5L91.8,67.4z M88.9,64.2h4.9v-1.4h-4.9L88.9,64.2z M88.9,66.5
		h4.9v-1.4h-4.9L88.9,66.5z M93.9,68.2c0.6,1,1.4,2.3,1.8,3.1l-1.1,0.5c-0.5-1.1-1.1-2.1-1.8-3.1L93.9,68.2z"/>
	<path class="st2" d="M111.5,68v1.1H97.1V68h1.6l-0.3-8.4c1-0.3,2-0.8,3-1.2l0.6,1c-0.7,0.3-1.6,0.6-2.4,0.9l0,1.8h2.2v1h-2.1l0.1,2
		h2.1v1h-2.1l0.1,2h9.1c0-0.6,0.1-1.2,0.1-1.9h-2.1v-1h2.1c0-0.6,0-1.3,0.1-2H107v-1h2.1c0-0.7,0-1.4,0-2h-2.3v-1h3.4
		c0,2.8-0.1,6.6-0.2,9L111.5,68z M102.8,70.1c-1.5,1.1-3.1,2-4.8,2.8c-0.2-0.3-0.5-0.6-0.7-0.9c1.6-0.6,3.1-1.5,4.4-2.6L102.8,70.1z
		 M104,64.4c-0.1,1.1-0.5,2.1-1,3c-0.3-0.2-0.5-0.4-0.8-0.5c0.5-0.8,0.8-1.7,0.9-2.6L104,64.4z M105.1,63.5h-2.5v-5.2h1v1.5h2.6v1
		h-2.6v1.7h2.1l0,0h0.4v4.2c0,0.5-0.1,0.7-0.4,0.9c-0.5,0.1-1.1,0.2-1.7,0.2c-0.1-0.3-0.2-0.6-0.3-0.8c0.6,0,1,0,1.2,0
		s0.2-0.1,0.2-0.2L105.1,63.5z M106.5,69.3c1.6,0.7,3.2,1.6,4.7,2.6l-0.8,0.9c-1.4-1-3-1.9-4.5-2.6L106.5,69.3z"/>
	<path class="st2" d="M116.6,60.6c-0.7,1.2-1.7,2.2-2.7,3.1c-0.3-0.3-0.6-0.6-0.9-0.9c1.6-1.2,2.8-2.8,3.6-4.6l1.2,0.3
		c-0.2,0.4-0.4,0.8-0.6,1.2h9.8v1L116.6,60.6z M117.5,69.5c-0.8,1.3-2,2.4-3.3,3.3c-0.2-0.3-0.5-0.6-0.8-0.9
		c1.3-0.6,2.4-1.6,3.2-2.8L117.5,69.5z M119,68.7v4.2h-1.1v-4.2h-4.3v-1h4.3v-2.8h1.1v2.8h4.2v1L119,68.7z M125,63.7
		c0,4.9,0.1,8,1.4,8c0.3,0,0.4-1,0.4-2.3c0.2,0.3,0.5,0.5,0.8,0.7c-0.1,2.1-0.3,2.8-1.3,2.8c-2.2,0-2.5-3.1-2.5-8.3h-9.1v-0.9H125z
		 M115.6,65.1c0.5,0.6,1,1.3,1.3,2l-0.9,0.4c-0.3-0.7-0.7-1.4-1.2-2L115.6,65.1z M116.3,62.6v-0.9h9.5v0.9H116.3z M120.4,69.2
		c1.1,0.8,2.1,1.6,3,2.6l-0.8,0.7c-0.9-1-1.9-1.9-2.9-2.7L120.4,69.2z M122.4,65.5c-0.6,0.8-1.2,1.6-1.8,2.1l-0.8-0.3
		c0.5-0.7,1-1.4,1.4-2.2L122.4,65.5z"/>
	<path class="st2" d="M133.1,58.6c-0.4,1.2-0.8,2.4-1.3,3.5v10.7h-1.1v-8.5c-0.3,0.6-0.7,1.1-1.1,1.7c-0.2-0.4-0.4-0.8-0.6-1.2
		c1.4-1.9,2.5-4.1,3.1-6.5L133.1,58.6z M133.1,61.7h1.1v8h-1.1V61.7z M139.6,68.7c-0.3,1.5-1.4,3.1-4.5,4.2
		c-0.2-0.3-0.5-0.6-0.8-0.9c2.8-0.9,3.8-2.1,4.1-3.3h-3.6v-1h3.7v-2.1h-1.7c-0.3,0.6-0.7,1.2-1.2,1.7c-0.3-0.2-0.6-0.4-0.9-0.6
		c0.9-1,1.6-2.3,2-3.6l1.1,0.3c-0.1,0.4-0.3,0.8-0.5,1.3h5.7v1h-3.3v2.1h3.8v1L139.6,68.7z M143.6,63h-8.8v-1h5.8
		c0.1-0.6,0.2-1.3,0.3-1.9h-5.2V59h5.4l0.2-0.1l0.8,0.1c-0.1,0.9-0.3,2-0.4,2.9h1.9L143.6,63z M140.5,69c1.1,0.9,2.6,2.3,3.3,3.1
		l-0.9,0.7c-0.7-0.8-2.2-2.2-3.3-3.2L140.5,69z"/>
	<path class="st2" d="M150.7,67.1l-1.7,0.5v5.3h-1.2v-5c-0.8,0.2-1.7,0.4-2.4,0.6l-0.3-1.2c0.8-0.2,1.7-0.4,2.7-0.6v-4h-1.4
		c-0.2,0.9-0.4,1.7-0.7,2.5c-0.3-0.1-0.6-0.3-0.9-0.4c0.7-1.7,1.1-3.6,1.2-5.4l0.9,0.1c-0.1,0.7-0.2,1.3-0.3,2h1.1v-3.3h1.2v3.3h1.6
		v1.1H149v3.8l1.6-0.4L150.7,67.1z M159.5,67.2h-1.8v4.1c0,0.7-0.1,1-0.6,1.2c-0.8,0.2-1.6,0.3-2.4,0.2c-0.1-0.4-0.2-0.8-0.4-1.2
		c0.9,0,1.7,0,2,0s0.3-0.1,0.3-0.3v-4.1H151v-1.1h5.5v-1.5h1.2v1.5h1.8L159.5,67.2z M154.5,61.1h-3.4V60h3.4v-1.8h1.2V60h3.4v1.1
		h-3.4v2h3v1.1h-6.9v-1.1h2.7L154.5,61.1z M152.9,67.7c0.8,0.8,1.5,1.6,2.1,2.5l-1,0.6c-0.6-0.9-1.3-1.8-2-2.6L152.9,67.7z"/>
	<path class="st2" d="M168.3,65.9c0,0,0,0.4,0,0.5c-0.2,4-0.4,5.4-0.8,5.9c-0.2,0.3-0.6,0.5-1,0.4c-0.6,0-1.3,0-1.9,0
		c0-0.4-0.2-0.7-0.3-1c0.8,0.1,1.5,0.1,1.8,0.1c0.2,0,0.4,0,0.5-0.2c0.3-0.3,0.4-1.5,0.6-4.7h-2.7c-0.4,2.3-1.1,4.5-2.8,5.9
		c-0.2-0.3-0.5-0.6-0.8-0.8c2.2-1.7,2.6-5,2.7-7.9h-1.8V59h6.3v5.2h-3.4c0,0.6-0.1,1.1-0.1,1.7L168.3,65.9z M163,63.1h4V60h-4V63.1z
		 M171,69h-1.2v-8.8h1.2V69z M174.9,58.6v12.7c0,0.8-0.2,1.2-0.7,1.4c-0.9,0.2-1.9,0.3-2.9,0.2c-0.1-0.4-0.2-0.8-0.4-1.2
		c1.1,0,2.1,0,2.4,0s0.4-0.1,0.4-0.4V58.5L174.9,58.6z"/>
	<path class="st2" d="M185.5,69.4c2,0.7,4.7,1.8,6.1,2.5l-0.6,0.9c-1.4-0.7-4.2-1.9-6.3-2.7l0.5-0.7h-0.8c-0.6,1.3-2.4,2.7-6.9,3.5
		c-0.2-0.4-0.4-0.7-0.7-1c3.7-0.6,5.4-1.6,6.1-2.5h-6v-1h6.5c0-0.2,0.1-0.4,0.1-0.6v-1h1.2v1c0,0.2,0,0.4,0,0.6h3.3
		c-0.4-0.4-0.8-0.7-1.3-1l0.5-0.4h-0.6c-0.1-0.3-0.2-0.6-0.3-0.9c0.7,0,1.4,0,1.6,0s0.2-0.1,0.2-0.2v-1.5h-3.7
		c0.6,0.4,1.2,0.9,1.7,1.4l-0.8,0.6c-0.5-0.6-1.1-1.1-1.7-1.5l0.7-0.5h-1.9v-0.8h5.8v-1.2h1.1v1.2h2v0.8h-2v1.6c0,0.6-0.1,0.8-0.5,1
		c-0.4,0.1-0.8,0.2-1.2,0.1c0.5,0.3,0.9,0.7,1.4,1l-0.3,0.4h3v1L185.5,69.4z M179.4,64.3c0,1.2-0.5,2.3-1.4,3.1
		c-0.3-0.2-0.6-0.4-0.9-0.5c0.8-0.6,1.2-1.6,1.2-2.6v-0.1h-1.1v-1h3.5v-1.2h-2.7v-3.3h1V61h1.7v-2.7h1.1v9h-1.1v-3.2h-1.3
		L179.4,64.3z M190.8,59.4c-1.4,2.4-4.7,3.5-8,4c-0.1-0.3-0.3-0.5-0.5-0.8c1.5-0.2,3.1-0.5,4.5-1.1c-0.5-0.6-1-1.1-1.6-1.5
		c-0.7,0.3-1.4,0.6-2.1,0.8c-0.2-0.3-0.4-0.5-0.7-0.7c1.6-0.3,3-1,4.3-1.9l1,0.2c-0.2,0.2-0.5,0.5-0.8,0.6h3h0.2L190.8,59.4z
		 M185.6,61.6c-1,0.1-1.9,0.2-2.7,0.2l-0.1-0.7l2.8-0.2L185.6,61.6z M186.1,59.8c0.5,0.4,1,0.9,1.5,1.4c0.7-0.3,1.3-0.8,1.8-1.4
		H186.1z"/>
</g>
<path class="st0" d="M99.9,112.1c-0.4,0.7-0.8,1.3-1.3,1.9c0.7,1.5,1,3.2,0.9,4.8c0,2-0.1,3.8-0.7,4.5c-0.2,0.2-0.5,0.4-0.8,0.5
	c-0.5,0.1-1.1,0.1-1.6,0.1c0-0.4-0.1-0.7-0.3-1c0.5,0,1,0,1.5,0c0.2,0,0.3-0.1,0.4-0.2c0.3-0.5,0.5-2,0.5-3.8c0-0.2,0-0.5,0-0.8
	c-0.6,1-1.4,1.9-2.3,2.7c-0.2-0.3-0.3-0.6-0.6-0.9c1.2-0.9,2.1-2,2.8-3.4c-0.1-0.6-0.3-1.2-0.5-1.7c-0.5,0.6-1.1,1.1-1.8,1.6
	c-0.2-0.3-0.4-0.7-0.6-0.9c0.7-0.4,1.3-1,1.9-1.6c-0.4-0.6-0.9-1.1-1.4-1.6l0.7-0.6c0.5,0.4,0.9,0.9,1.3,1.5c0.4-0.5,0.7-1,1-1.5
	L99.9,112.1z M107.8,120.5c-0.7,0.9-1.6,1.5-2.7,2c1.1,0.3,2.3,0.5,3.5,0.7c-0.2,0.2-0.4,0.5-0.6,0.8c-1.4-0.2-2.8-0.5-4.1-1
	c-1.3,0.5-2.7,0.8-4.1,1c-0.1-0.3-0.3-0.6-0.5-0.8c1.2-0.1,2.3-0.4,3.5-0.7c-0.8-0.4-1.5-0.8-2.1-1.4l0.4-0.2h-0.9v-0.8h6.8h0.2
	L107.8,120.5z M102.4,113.1h-2.3v-0.8h2.3v-1h0.9v2.7l0.7-0.4c0.4,0.4,0.8,0.8,1.1,1.2h2.8v0.7h-3v0.7h2.7v0.6h-2.7v0.7h2.7v0.6
	h-2.7v0.7h3.2v0.7h-6.4v0.4h-0.9v-3.7c-0.2,0.3-0.4,0.5-0.6,0.7c-0.2-0.2-0.5-0.4-0.7-0.6c0.8-0.7,1.5-1.6,2-2.5l0.9,0.3
	c-0.1,0.3-0.3,0.6-0.4,0.8h2.2c-0.2-0.3-0.5-0.6-0.7-0.8l0,0h-0.9L102.4,113.1z M104,115.5h-2.2v0.7h2.2L104,115.5z M104,116.7h-2.2
	v0.7h2.2L104,116.7z M104,118.1h-2.2v0.7h2.2L104,118.1z M101.8,120.9c0.7,0.5,1.4,0.9,2.2,1.2c0.8-0.3,1.5-0.7,2.2-1.2H101.8z
	 M105.8,114h-1v-2.7h1v1h2.7v0.8h-2.7L105.8,114z"/>
<path class="st0" d="M120,121c1.8,0.7,4.1,1.6,5.4,2.2l-0.5,0.8c-1.2-0.6-3.7-1.7-5.5-2.4l0.4-0.6h-0.7c-0.5,1.2-2.1,2.4-6,3
	c-0.2-0.3-0.4-0.6-0.6-0.8c3.2-0.5,4.7-1.4,5.4-2.2h-5.3v-0.9h5.7c0-0.2,0.1-0.4,0.1-0.5v-0.9h1v0.9c0,0.2,0,0.3,0,0.5h2.9
	c-0.4-0.3-0.7-0.6-1.1-0.9l0.4-0.4H121c-0.1-0.3-0.2-0.6-0.3-0.8c0.6,0,1.2,0,1.4,0s0.2-0.1,0.2-0.2v-1.4H119
	c0.6,0.3,1.1,0.7,1.5,1.2l-0.7,0.6c-0.4-0.5-0.9-0.8-1.5-1.2l0.6-0.5h-1.7v-0.7h5.1v-1h1v1h1.7v0.7h-1.8v1.4c0,0.5-0.1,0.7-0.5,0.8
	c-0.4,0.1-0.7,0.1-1.1,0.1c0.4,0.3,0.9,0.6,1.2,1l-0.3,0.3h2.6v0.8H120z M114.6,116.5c0,1-0.4,2-1.2,2.7c-0.3-0.2-0.5-0.3-0.8-0.5
	c0.7-0.6,1.1-1.4,1.1-2.3v-0.1h-1v-0.9h3.1v-1.1h-2.4v-2.9h0.9v2h1.5v-2.3h1v7.9h-1v-2.8h-1.1L114.6,116.5z M124.6,112.2
	c-1.2,2.1-4.1,3.1-7,3.5c-0.1-0.2-0.2-0.5-0.4-0.7c1.4-0.1,2.7-0.4,3.9-0.9c-0.4-0.5-0.9-0.9-1.4-1.3c-0.6,0.3-1.2,0.5-1.9,0.7
	c-0.2-0.2-0.4-0.4-0.6-0.6c1.4-0.3,2.6-0.9,3.8-1.7l0.9,0.2c-0.2,0.2-0.5,0.4-0.7,0.6h2.6h0.2L124.6,112.2z M120.1,114.2l-2.3,0.2
	l-0.1-0.6l2.4-0.2L120.1,114.2z M120.5,112.6c0.5,0.3,0.9,0.7,1.3,1.2c0.6-0.3,1.1-0.7,1.6-1.2H120.5z"/>
</svg>
