<svg width="1095" height="530" viewBox="0 0 1095 530" fill="none" xmlns="http://www.w3.org/2000/svg">
<g clip-path="url(#clip0_114_375)">
<path d="M531.685 175.466C532.73 169.557 532.318 163.496 530.481 157.766C528.644 152.037 525.434 146.797 521.106 142.466C506.219 127.464 484.28 137.217 484.28 137.217C484.28 137.217 481.924 117.338 453.322 95.2108C424.72 73.0839 383.978 90.7151 383.978 90.7151C384.743 57.3345 358.122 6.3374 300.918 6.3374C202.543 8.95864 207.248 86.4171 207.248 86.4171C82.0459 55.3796 75.9415 175.064 75.9415 175.064C-158.819 147.811 -64.7127 533.61 -64.7127 533.61H570.262V224.94C570.262 185.535 531.685 175.466 531.685 175.466Z" fill="white"/>
<path d="M183.119 489C183.119 489 173.28 305.931 332.538 305.931C332.538 305.931 330.135 263.531 375.761 238.273C421.388 213.015 454.202 250.899 454.202 250.899C454.202 250.899 477.412 191.362 553.449 209.405C629.486 227.449 624.261 291.497 624.261 291.497C624.261 291.497 661.507 278.865 690.323 305.042C719.14 331.218 716.752 352.379 716.752 352.379C716.752 352.379 757.81 340.669 767.975 382.623C767.975 382.623 805.116 370.921 815.826 406.052C815.826 406.052 855.992 395.317 862.959 425.624C862.959 425.624 898.835 423.617 898.835 453.869C898.835 453.869 934.537 453.869 939 489H228.138H183.119Z" fill="#EEF7F7"/>
<path d="M28.7469 391.102C68.4607 362.068 94.9596 362.451 152.888 383.834C152.888 383.834 202.333 338.15 256.119 329.181C309.906 320.213 338.181 365.262 338.181 365.262C338.181 365.262 370.59 336.082 410.587 356.776C450.585 377.47 445.041 407.822 445.041 407.822C445.041 407.822 462.965 389.885 485.038 399.083C507.112 408.281 507.564 427.367 507.564 427.367C507.564 427.367 529.629 412.876 553.303 422.304C576.977 431.732 584.564 454.724 584.564 454.724C584.564 454.724 595.138 453.23 603.299 460.851C611.461 468.471 610.313 475.763 610.313 475.763C610.313 475.763 619.852 472.776 629.278 482.089C638.703 491.402 635.25 501.289 635.25 501.289C635.25 501.289 644.789 500.026 648.265 506.229C651.741 512.433 649.184 517.151 649.184 517.151C650.822 517.515 652.352 518.26 653.65 519.324C654.948 520.388 655.978 521.743 656.657 523.278C658.222 526.644 658.427 530.485 657.231 534H-40C-40 534 -18.7075 425.789 28.7469 391.102Z" fill="#FAFEFE"/>
</g>
<defs>
<clipPath id="clip0_114_375">
<rect width="1094.03" height="529.224" fill="white"/>
</clipPath>
</defs>
</svg>
