<svg width="1154" height="337" viewBox="0 0 1154 337" fill="none" xmlns="http://www.w3.org/2000/svg">
<g clip-path="url(#clip0_114_412)">
<path d="M703.283 0.0226135H700.773H698.263L228.647 2.08512C228.647 2.08512 239.027 98.2828 292.52 87.0754C292.52 87.0754 293.556 119.7 336.069 108.04C336.069 108.04 361.724 168.303 412.56 149.657C412.56 149.657 429.184 225.542 493.584 191.687C493.584 191.687 544.499 302.594 631.625 248.914C631.625 248.914 628.832 328.975 717.012 336.511C802.518 343.82 815.997 255.804 815.997 255.804C934.032 283.896 951.024 172.587 951.024 172.587C1045.99 208.017 1043.73 116.136 1043.73 116.136C1134.95 125.933 1128.15 2.09647 1128.15 2.09647L703.283 0.0226135Z" fill="#F7F7F7"/>
<path d="M842.928 0.00012207H0C0 0.00012207 12.1253 17.8367 26.2224 13.0715C26.2224 13.0715 30.4832 21.9162 45.2375 18.8565C45.2375 18.8565 46.2177 26.3414 61.295 26.3414C61.295 26.3414 60.8077 36.5402 69.0008 39.4412C77.1939 42.3422 83.4208 34.1661 83.4208 34.1661L86.8657 35.356C86.8657 35.356 88.3389 51.5154 104.238 45.9061C104.238 45.9061 108.703 58.3204 123.582 60.1052C138.461 61.89 146.937 54.1106 146.937 54.1106C146.937 54.1106 157.34 63.1082 168.162 60.3432C168.162 60.3432 175.369 90.2711 203.727 89.7612C203.727 89.7612 203.348 115.451 236.069 126.024C268.79 136.596 281.25 114.459 281.25 114.459C281.25 114.459 292.066 134.857 312.413 135.208C332.76 135.56 341.259 118.21 341.259 118.21C341.259 118.21 366.988 132.33 383.465 119.06C399.942 105.79 400.673 94.8209 400.673 94.8209C400.673 94.8209 410.752 101.711 422.305 98.6511C422.305 98.6511 417.965 130.12 458.285 147.469C498.604 164.819 532.039 135.571 532.039 135.571C532.039 135.571 547.445 168.83 577.934 164.468C608.423 160.105 618.99 138.444 618.99 138.444C618.99 138.444 629.07 159.618 659.066 155.793C659.066 155.793 658.573 183.098 688.319 191.772C718.066 200.447 736.48 182.588 736.48 182.588C736.48 182.588 742.872 202.232 766.227 202.232C789.582 202.232 806.654 168.236 806.654 168.236C806.654 168.236 857.648 191.466 903.962 169.55C940.996 152.019 950.424 91.9256 950.424 91.9256C950.424 91.9256 996.188 122.828 1025.22 101.11C1045.55 85.8969 1043.35 53.4873 1043.35 53.4873C1043.35 53.4873 1084.83 73.885 1118.05 53.4873C1141.36 39.1693 1153.71 1.75651 1153.71 1.75651L842.928 0.00012207Z" fill="#E5EAEA"/>
<path d="M377.289 6.10352e-05C377.289 6.10352e-05 380.688 8.85033 392.021 6.32329C392.021 6.32329 392.44 18.1312 409.727 13.91C409.727 13.91 423.223 32.0413 443.882 25.2988C443.882 25.2988 453.582 43.4301 472.557 37.5261C472.557 37.5261 482.677 82.2197 529.897 75.4884C529.897 75.4884 561.746 149.855 631.098 97.4102C631.098 97.4102 688.892 129.038 701.516 67.4766C701.516 67.4766 733.138 88.1349 744.521 53.1359C744.521 53.1359 787.112 72.967 796.807 27.8371C796.807 27.8371 820.423 30.7892 823.794 6.33463C823.794 6.33463 838.526 12.6578 845.721 0.0112658L377.289 6.10352e-05Z" fill="#FDFFFF"/>
</g>
<defs>
<clipPath id="clip0_114_412">
<rect width="1153.75" height="336.93" fill="white"/>
</clipPath>
</defs>
</svg>
