<?xml version="1.0" encoding="utf-8"?>
<!-- Generator: Adobe Illustrator 26.0.2, SVG Export Plug-In . SVG Version: 6.00 Build 0)  -->
<svg version="1.1" id="Layer_1" xmlns="http://www.w3.org/2000/svg" xmlns:xlink="http://www.w3.org/1999/xlink" x="0px" y="0px"
	 viewBox="0 0 223.8 70.7" style="enable-background:new 0 0 223.8 70.7;" xml:space="preserve">
<style type="text/css">
	.st0{fill:#FF3838;}
	.st1{fill:#3D3B38;}
</style>
<polygon class="st0" points="64.6,0 16.6,7.8 7.3,42.5 "/>
<polygon class="st1" points="5.2,50.5 0,70.1 62,24.9 33.2,29.7 "/>
<path class="st1" d="M119.4,63.1c-0.2-0.3-0.4-0.5-0.7-0.6c-0.3-0.1-0.6-0.2-0.9-0.2c-0.2,0-0.4,0-0.6,0.1c-0.2,0-0.3,0.1-0.5,0.2
	c-0.1,0.1-0.3,0.2-0.4,0.4c-0.1,0.2-0.1,0.4-0.1,0.5c0,0.3,0.1,0.6,0.3,0.7c0.3,0.2,0.5,0.3,0.8,0.4c0.3,0.1,0.7,0.2,1.1,0.3
	c0.4,0.1,0.7,0.3,1.1,0.5c0.3,0.2,0.6,0.5,0.8,0.8c0.2,0.4,0.4,0.9,0.3,1.3c0,0.5-0.1,0.9-0.3,1.3c-0.2,0.4-0.4,0.7-0.8,0.9
	c-0.3,0.2-0.7,0.4-1.1,0.6c-0.4,0.1-0.9,0.2-1.3,0.2c-0.6,0-1.2-0.1-1.7-0.3c-0.5-0.2-1-0.6-1.4-1l1.3-1.2c0.2,0.3,0.5,0.6,0.8,0.7
	c0.3,0.2,0.7,0.3,1.1,0.3c0.2,0,0.4,0,0.6-0.1c0.2,0,0.4-0.1,0.5-0.2c0.2-0.1,0.3-0.2,0.4-0.4c0.1-0.2,0.2-0.4,0.2-0.6
	c0-0.3-0.1-0.6-0.3-0.8c-0.2-0.2-0.5-0.4-0.8-0.5c-0.3-0.1-0.7-0.2-1.1-0.4c-0.4-0.1-0.7-0.3-1.1-0.5c-0.3-0.2-0.6-0.5-0.8-0.8
	c-0.2-0.4-0.4-0.9-0.3-1.3c0-0.4,0.1-0.9,0.3-1.2c0.2-0.3,0.5-0.6,0.8-0.9c0.3-0.2,0.7-0.4,1.1-0.5c0.4-0.1,0.9-0.2,1.3-0.2
	c0.5,0,1,0.1,1.4,0.2c0.5,0.2,0.9,0.4,1.3,0.7L119.4,63.1z"/>
<polygon class="st1" points="125.9,62.6 123,62.6 123,61.1 130.5,61.1 130.5,62.6 127.6,62.6 127.6,70.5 125.9,70.5 "/>
<path class="st1" d="M132.6,65.8c0-0.7,0.1-1.4,0.4-2c0.2-0.6,0.6-1.1,1-1.6c0.5-0.4,1-0.8,1.6-1c0.6-0.2,1.3-0.3,2-0.3
	c0.7,0,1.4,0.1,2,0.3c1.2,0.4,2.2,1.4,2.6,2.5c0.3,0.6,0.4,1.3,0.4,2c0,0.7-0.1,1.4-0.4,2c-0.2,0.6-0.6,1.1-1,1.6
	c-0.5,0.4-1,0.8-1.6,1c-0.6,0.2-1.3,0.4-2,0.4c-0.7,0-1.4-0.1-2-0.3c-0.6-0.2-1.1-0.6-1.6-1c-0.4-0.4-0.8-1-1-1.5
	C132.8,67.2,132.6,66.5,132.6,65.8 M134.4,65.7c0,0.5,0.1,0.9,0.2,1.4c0.1,0.4,0.4,0.8,0.7,1.1c0.3,0.3,0.6,0.6,1,0.7
	c0.4,0.2,0.9,0.3,1.3,0.3c0.5,0,0.9-0.1,1.4-0.2c0.4-0.2,0.7-0.4,1-0.7c0.3-0.3,0.5-0.7,0.7-1.1c0.2-0.4,0.2-0.9,0.2-1.4
	c0-0.4-0.1-0.9-0.2-1.3c-0.1-0.4-0.4-0.8-0.7-1.1c-0.3-0.3-0.6-0.5-1-0.7c-0.4-0.2-0.9-0.3-1.3-0.3c-0.5,0-0.9,0.1-1.3,0.3
	c-0.4,0.2-0.7,0.4-1,0.7c-0.3,0.3-0.5,0.7-0.7,1.1C134.5,64.9,134.4,65.3,134.4,65.7"/>
<path class="st1" d="M145.7,61.1h3.3c0.4,0,0.9,0,1.3,0.1c0.4,0.1,0.8,0.2,1.1,0.4c0.3,0.2,0.6,0.5,0.8,0.8c0.5,1,0.4,2.1-0.3,3
	c-0.4,0.5-1,0.8-1.6,0.8l2.5,4.1h-2l-2.2-4h-1.3v4h-1.7V61.1z M148.7,65.1c0.2,0,0.5,0,0.7,0c0.2,0,0.4-0.1,0.7-0.2
	c0.2-0.1,0.4-0.2,0.5-0.4c0.1-0.2,0.2-0.5,0.2-0.7c0-0.2-0.1-0.5-0.2-0.7c-0.1-0.2-0.3-0.3-0.4-0.4c-0.2-0.1-0.4-0.1-0.6-0.2
	c-0.2,0-0.4,0-0.7,0h-1.5v2.4L148.7,65.1z"/>
<polygon class="st1" points="155.6,61.1 158.2,61.1 160.8,67.7 163.3,61.1 165.8,61.1 165.8,70.5 164.2,70.5 164.2,62.7 164.2,62.7 
	161.3,70.5 160.2,70.5 157.3,62.7 157.2,62.7 157.2,70.5 155.6,70.5 "/>
<polygon class="st1" points="174.9,61.1 177.5,61.1 180,67.7 182.6,61.1 185.1,61.1 185.1,70.5 183.5,70.5 183.5,62.7 183.5,62.7 
	180.6,70.5 179.4,70.5 176.6,62.7 176.5,62.7 176.5,70.5 174.9,70.5 "/>
<polygon class="st1" points="188.8,61.1 195,61.1 195,62.6 190.4,62.6 190.4,64.9 194.8,64.9 194.8,66.4 190.4,66.4 190.4,69 
	195.3,69 195.3,70.5 188.8,70.5 "/>
<path class="st1" d="M198.4,61.1h3.7c0.6,0,1.2,0.1,1.8,0.3c0.6,0.2,1.1,0.5,1.5,0.9c0.5,0.4,0.8,0.9,1.1,1.5
	c0.3,0.7,0.4,1.4,0.4,2.1c0,0.7-0.1,1.4-0.5,2.1c-0.3,0.6-0.7,1.1-1.2,1.4c-0.5,0.4-1,0.7-1.6,0.9c-0.6,0.2-1.2,0.3-1.8,0.3h-3.5
	L198.4,61.1z M201.3,69c0.5,0,1-0.1,1.5-0.2c0.4-0.1,0.9-0.3,1.2-0.6c0.4-0.3,0.6-0.6,0.8-1c0.2-0.5,0.3-1,0.3-1.5
	c0-0.5-0.1-1-0.3-1.4c-0.2-0.4-0.4-0.7-0.7-1c-0.3-0.3-0.7-0.4-1.1-0.5c-0.5-0.1-0.9-0.2-1.4-0.2h-1.5V69H201.3z"/>
<rect x="210" y="61.1" class="st1" width="1.7" height="9.4"/>
<path class="st1" d="M218.3,61.1h1.5l4.1,9.4h-1.9l-0.9-2.1h-4.1l-0.9,2.1h-1.9L218.3,61.1z M220.4,66.9l-1.4-3.8l-1.5,3.8H220.4z"
	/>
<path class="st1" d="M119.7,39.2c-0.5-0.3-1-0.7-1.5-1.2l-0.3-0.3v0.4c-0.1,6.8-0.7,7.1-0.8,7.1c-3,0-3-22.2-3-35.4V9.6h-30v13.8
	c0,7.7-0.6,16.4-5.4,22.8l-0.1,0.2l0.2,0.1c0.6,0.3,1.2,0.7,1.6,1.2l0.1,0.2l0.1-0.2c4-5.4,5.9-13.3,5.9-24.2V12h25.3v2.3
	c0.2,19.4,0.3,33.4,5.1,33.4c2.1,0,2.6-2.2,2.8-8.4v-0.1L119.7,39.2z"/>
<path class="st1" d="M105.6,36L105.6,36l-2.1,0.8l0.2,0.2c1.2,1.3,2.3,2.6,3.2,4l-6.9,0.3v-6.9h8.3v-12H100v-4.6
	c0.3,0,0.5-0.2,0.6-0.4c2.7-0.4,5.4-1,8.1-1.7c0.1,0,0.2,0,0.4,0c0.2,0,0.4,0,0.5-0.2l0.1-0.1l-2.2-1.8h-0.1
	c-4.7,1.5-13.3,2.8-19.8,3.5h-0.2l0.1,0.2c0.3,0.5,0.4,1.1,0.6,1.7V19h0.1c2.8-0.3,6.1-0.7,9.4-1.2v4.5h-8.2v12h8.2v7
	c-4.5,0.2-8.6,0.4-11.4,0.5H86l1,2.9h0.1c0.3-0.1,0.5-0.3,0.6-0.6c5-0.3,12.8-0.8,20.3-1.3c0.7,1.1,1.3,2.2,1.8,3.4v0.2l2.1-1v-0.1
	C110.4,41.8,108.3,38.7,105.6,36 M97.6,32.2h-6v-7.8h6V32.2z M100,24.4h6.1v7.7H100V24.4z"/>
<path class="st1" d="M141.1,8.8c0.4,0,0.8-0.2,0.9-0.5l0.1-0.2l-3-1v0.1c-2.5,7.8-6.6,15.6-10.7,20.2l-0.1,0.1l0.1,0.1
	c0.4,0.5,0.9,1.4,1.2,1.9l0.1,0.2l0.1-0.2c1.9-2.3,3.7-4.9,5.2-7.5v25.7h2.4V18.3c0.3,0,0.6-0.2,0.8-0.5l0.1-0.2l-0.8-0.2
	C138.8,14.6,140,11.7,141.1,8.8"/>
<path class="st1" d="M147.1,37.8L147.1,37.8l-1.9,1.2l0.1,0.1c2.2,1.8,4.2,3.7,5.9,5.9l0.1,0.1l1.9-1.5l-0.1-0.1
	C151.3,41.4,149.3,39.5,147.1,37.8"/>
<path class="st1" d="M163.6,32.5c0.3,0,0.5-0.1,0.7-0.3l2.2-0.1c0.7,0.7,1.4,1.4,2.1,2.1l0.1,0.1l1.9-1.3l-0.1-0.1
	c-2-2.1-4.2-3.9-6.6-5.5h4V15.4h-11.2v-2.7h13.2v-2.1h-13.2V8.2c0.4,0,0.7-0.3,0.8-0.6V7.4l-3.2-0.2v3.3h-12.7v2.1h12.7v2.7h-10.9
	v11.9h10.9v3.1c-4.8,0.1-9.4,0.1-13.1,0.1h-0.2l0.8,2.7h0.1c0.3,0,0.6-0.2,0.7-0.5c5-0.1,12-0.3,18.7-0.5v3.1h-21.1v2.2h21.1v7.3
	c0,0.7,0,0.7-2.4,0.7c-0.9,0-2.1,0-3.4-0.1h-1.3l0.2,0.5c0.3,0.5,0.5,1.1,0.6,1.7v0.1h0.1c4.5,0,5.9,0,6.9-0.3
	c1.4-0.4,1.6-1.2,1.6-2.5v-7.4h6.7v-2.2h-6.7L163.6,32.5z M156.6,17.3h8.8v3.1h-8.8V17.3z M156.6,22.3h8.8v3.1h-8.8V22.3z
	 M156.6,27.3h4.9l-0.7,0.4l0.2,0.1c0.8,0.6,2,1.4,3.2,2.4c-2.5,0.1-5.1,0.1-7.6,0.1h-0.1L156.6,27.3z M154.2,25.4h-8.6v-3.1h8.6
	V25.4z M154.2,20.4h-8.6v-3.1h8.6V20.4z"/>
<polygon class="st0" points="215,16.5 207.4,17.8 205.9,23.3 "/>
<path class="st1" d="M223.6,44.1c-4-2.4-7.5-5.7-10.2-9.5h10.1v-2.2h-11.9v-4c0.3,0,0.6-0.2,0.7-0.5h6.4V14.1h4.9v-2.3h-4.9v-4
	c0.4,0,0.7-0.3,0.7-0.6V7.1l-3.1-0.2v5h-11.8v-4c0.4,0,0.7-0.3,0.7-0.6V7.1l-3.1-0.2v5H197v2.3h5.1v13.7h7v4.5h-11.6v2.2h9.7
	c-2.8,4-6.4,7.3-10.6,9.8l-0.2,0.1l0.2,0.2c0.6,0.5,1.1,1.1,1.5,1.7l0.1,0.1l0.1-0.1c4.2-2.8,7.9-6.5,10.8-10.7v12h2.4v-12
	c2.8,4.1,6.3,7.6,10.3,10.4l0.1,0.1l0.1-0.1c0.4-0.6,0.9-1.2,1.5-1.7l0.2-0.1L223.6,44.1z M216.3,25.7h-11.8V14.1h11.8V25.7z"/>
<path class="st1" d="M197.2,43.2l1.5-2l-0.1-0.1c-1.4-1.7-3-3.3-4.7-4.8c2.1-5,3.4-11.3,4-19.1c0.1-0.1,0.2-0.3,0.2-0.5v-0.1
	l-1.4-0.4l-0.4,0.1h-6.5c0.7-3.2,1.2-6,1.7-8.3c0.5,0,0.8-0.2,0.8-0.6V7.3l-3.1-0.4l-0.1,0.4c-0.5,2.8-1.1,5.9-1.8,9.1h-4.8v2.3h4.3
	c-1,4.6-2.4,10.9-3.6,15.2V34l2.1,1.1l0.6-2.1c1.7,1.2,3.4,2.5,5,3.9c-1.7,3.6-4.4,6.7-7.8,8.8l-0.2,0.1l0.2,0.1
	c0.5,0.5,1,1.1,1.4,1.7l0.1,0.1l0.1-0.1c3.5-2.3,6.3-5.4,8.1-9.2c1.5,1.4,2.9,2.9,4.2,4.5L197.2,43.2z M186.6,30.6
	c0.9-3.6,1.9-7.9,2.8-12.1h6.1c-0.3,5.5-1.5,10.9-3.5,16C190.2,33.1,188.4,31.8,186.6,30.6"/>
<polygon class="st1" points="81.5,62.4 78.6,62.4 78.6,60.9 86.1,60.9 86.1,62.4 83.2,62.4 83.2,70.2 81.5,70.2 "/>
<polygon class="st1" points="98.6,60.9 104.8,60.9 104.8,62.4 100.3,62.4 100.3,64.7 104.6,64.7 104.6,66.2 100.3,66.2 100.3,68.8 
	105.1,68.8 105.1,70.2 98.6,70.2 "/>
<polygon class="st1" points="94.2,60.8 94.2,64.6 89.3,64.6 89.3,60.8 87.7,60.8 87.7,70.3 89.3,70.3 89.3,66.1 94.2,66.1 
	94.2,70.3 95.8,70.3 95.8,60.8 "/>
<image style="overflow:visible;" width="356" height="142" xlink:href="../../../../工作區/2021.11-風傳媒/收集/img/合作單位/01.經濟部能源局.png"  transform="matrix(1 0 0 1 364 268)">
</image>
</svg>
